<svg viewBox="0 0 485.95 485.94" xmlns="http://www.w3.org/2000/svg" xmlns:xlink="http://www.w3.org/1999/xlink" id="Layer_1" overflow="hidden"><path d="M9.73 222.52 9.73 222.52C9.73 222.52 70.56 222.52 70.56 222.52 74.48 222.52 77.82 219.68 78.46 215.81 91.7 134.93 160.89 76.23 242.99 76.23 267 76.23 289.91 81.26 310.64 90.4L288.49 116.4C273.93 111.15 258.66 108.48 242.99 108.48 212.38 108.48 182.42 119.04 158.63 138.22 135.2 157.11 118.61 183.57 111.91 212.74 110.92 217.05 113.61 221.34 117.92 222.33 118.52 222.47 119.13 222.54 119.72 222.54 123.37 222.54 126.66 220.03 127.51 216.33 139.93 162.26 187.42 124.49 242.99 124.49 254.74 124.49 266.23 126.19 277.3 129.54L253.52 157.45C250.07 157.03 246.56 156.78 242.99 156.78 195.46 156.78 156.79 195.44 156.79 242.96 156.79 290.48 195.46 329.17 242.99 329.17 290.52 329.17 329.17 290.5 329.17 242.96 329.17 220.92 320.84 200.79 307.18 185.53L319.05 152.14C338.83 168.67 352.67 191.11 358.44 216.32 359.29 220.03 362.58 222.54 366.23 222.54 366.82 222.54 367.42 222.47 368.02 222.34 372.33 221.35 375.02 217.06 374.03 212.76 367.04 182.22 349.62 155.25 324.71 136.2L336.03 104.37C373.14 129.22 399.79 168.77 407.49 215.83 408.12 219.7 411.46 222.54 415.39 222.54L476.22 222.54C478.51 222.54 480.69 221.56 482.21 219.85 483.73 218.14 484.44 215.86 484.17 213.58 469.48 91.81 365.8 0 242.99 0 120.18 0 16.47 91.81 1.79 213.57 1.52 215.84 2.23 218.12 3.75 219.84 5.27 221.55 7.45 222.53 9.74 222.53ZM242.99 313.16C224.32 313.16 207.33 305.81 194.74 293.88 197.24 282.41 208.38 273.86 221.59 273.86L264.36 273.86C277.58 273.86 288.71 282.42 291.21 293.89 278.63 305.82 261.65 313.17 242.98 313.17ZM222.36 223.2C222.36 211.84 231.61 202.6 242.99 202.6 254.37 202.6 263.59 211.84 263.59 223.2 263.59 232.99 258.55 253.21 242.99 253.21 228.76 253.21 222.36 235.66 222.36 223.2ZM313.17 242.96C313.17 256.43 309.35 269.02 302.75 279.72L302.75 279.72C295.92 267.52 282.75 259.02 267.5 257.99 275.44 249.02 279.59 235.89 279.59 223.21 279.59 203.03 263.17 186.61 242.99 186.61 222.81 186.61 206.36 203.03 206.36 223.21 206.36 235.89 210.51 249.01 218.46 257.99 203.21 259.02 190.03 267.52 183.2 279.72 176.6 269.02 172.78 256.44 172.78 242.97 172.78 204.27 204.27 172.79 242.99 172.79 281.71 172.79 313.17 204.27 313.17 242.97ZM294.36 173.81C287.34 168.58 279.5 164.42 271.08 161.51L318.55 105.8 294.37 173.81ZM467.01 206.53 422.05 206.53C414.75 170.52 396.59 137.41 370.12 111.75L401.42 80.45C435.34 113.48 459.06 157.15 467.01 206.53ZM250.99 16.15C303.42 17.98 351.73 37.7 389.56 69.68L358.14 101.1C352.8 96.76 347.23 92.74 341.48 89.06L348.18 70.21C349.47 66.57 347.99 62.53 344.64 60.6L344.64 60.6C341.3 58.67 337.06 59.4 334.55 62.34L321.31 77.88C299.39 67.48 275.49 61.49 250.99 60.42L250.99 16.15ZM234.99 16.15 234.99 60.41 234.99 60.41C195.85 62.13 158.23 76.4 127.82 101.1L96.4 69.68C134.23 37.7 182.56 17.97 234.99 16.15ZM84.53 80.45 115.83 111.74C89.36 137.4 71.2 170.51 63.9 206.52L18.93 206.52C26.88 157.14 50.6 113.47 84.53 80.44Z" fill="#FFFFFF"/><path d="M477.95 234.96 369.47 234.96C365.05 234.96 361.47 238.54 361.47 242.96 361.47 308.31 308.32 361.47 242.99 361.47 177.66 361.47 124.48 308.31 124.48 242.96 124.48 238.54 120.9 234.96 116.48 234.96L8 234.96C3.58 234.96 0 238.54 0 242.96L0 273.18C0 276.3 1.81 279.13 4.65 280.44L48.92 300.9 64.81 339.23 47.95 384.99C46.87 387.92 47.59 391.21 49.8 393.41L92.54 436.15C94.75 438.36 98.03 439.08 100.96 438L146.72 421.14 185.05 437.03 205.51 481.3C206.82 484.13 209.65 485.94 212.77 485.94L273.17 485.94C276.29 485.94 279.12 484.13 280.43 481.3L300.89 437.03 339.24 421.14 385 438C387.93 439.08 391.22 438.36 393.42 436.15L436.14 393.41C438.35 391.2 439.07 387.92 437.99 384.99L421.13 339.23 437.02 300.9 481.29 280.44C484.12 279.13 485.94 276.3 485.94 273.18L485.94 242.96C485.94 238.54 482.36 234.96 477.94 234.96ZM469.95 268.06 469.95 268.06 427.48 287.68C425.66 288.52 424.22 290.02 423.45 291.88L405.17 335.99C404.4 337.85 404.36 339.93 405.05 341.82L421.22 385.72 385.74 421.22 341.85 405.05C339.96 404.35 337.88 404.4 336.02 405.17L291.88 423.45C290.02 424.22 288.52 425.66 287.68 427.49L268.06 469.96 217.89 469.96 198.27 427.49C197.43 425.67 195.93 424.22 194.07 423.46L149.97 405.18C148.11 404.41 146.03 404.37 144.14 405.06L100.24 421.23 64.73 385.72 80.9 341.83C81.6 339.94 81.55 337.86 80.78 336L62.5 291.89C61.73 290.03 60.29 288.53 58.46 287.69L15.99 268.07 15.99 250.97 108.7 250.97C112.85 321.43 171.49 377.48 242.97 377.48 314.45 377.48 373.06 321.43 377.21 250.97L469.93 250.97 469.93 268.07Z" fill="#FFFFFF"/></svg>