<svg viewBox="0 0 162.43 162.46" xmlns="http://www.w3.org/2000/svg" xmlns:xlink="http://www.w3.org/1999/xlink" id="Layer_1" overflow="hidden"><style>
.MsftOfcThm_Background1_Fill_v2 {
 fill:#FFFFFF; 
}
</style>
<defs></defs><path d="M81.21 130.2C80.91 130.2 80.61 130.2 80.31 130.2L79.73 162.45C80.22 162.45 80.71 162.47 81.21 162.47L81.23 162.47 81.23 130.22 81.21 130.22ZM83.98 130.12C83.67 130.14 83.37 130.15 83.06 130.16L84.26 162.39C84.77 162.37 85.27 162.35 85.77 162.32L83.98 130.12 83.98 130.12ZM77.57 130.06 75.21 162.22C75.71 162.26 76.22 162.29 76.72 162.32L78.49 130.12C78.18 130.12 77.88 130.08 77.57 130.06M86.72 129.89C86.42 129.92 86.11 129.96 85.81 129.98L88.8 162.09C89.3 162.04 89.81 161.99 90.31 161.94L86.72 129.89ZM74.83 129.79 70.68 161.77C71.18 161.83 71.69 161.9 72.19 161.95L75.75 129.89C75.45 129.86 75.14 129.82 74.84 129.78M89.44 129.51C89.14 129.56 88.84 129.61 88.54 129.66L93.32 161.55C93.82 161.48 94.33 161.4 94.82 161.31L89.44 129.51 89.44 129.51ZM72.12 129.35 66.17 161.05C66.67 161.15 67.18 161.23 67.67 161.32L73.01 129.52C72.71 129.47 72.41 129.42 72.11 129.36M92.13 128.97C91.83 129.04 91.53 129.11 91.23 129.17L97.82 160.74C98.31 160.64 98.8 160.53 99.29 160.42L92.14 128.97 92.13 128.97ZM69.44 128.77 61.7 160.08C62.19 160.2 62.69 160.32 63.19 160.43L70.33 128.98C70.03 128.91 69.74 128.84 69.44 128.77M94.79 128.29C94.5 128.37 94.2 128.45 93.91 128.53L102.25 159.69C102.74 159.56 103.23 159.42 103.72 159.28L94.8 128.29 94.79 128.29 94.79 128.29ZM66.8 128.04 57.33 158.87C57.81 159.02 58.3 159.16 58.78 159.3L67.68 128.3C67.38 128.22 67.09 128.13 66.8 128.04M97.4 127.46C97.11 127.56 96.82 127.66 96.53 127.75L106.62 158.38C107.1 158.22 107.59 158.06 108.06 157.89L97.4 127.45 97.4 127.45ZM64.19 127.16 52.98 157.4C53.46 157.58 53.94 157.75 54.41 157.92L65.05 127.47C64.76 127.37 64.47 127.27 64.19 127.16M99.96 126.48C99.68 126.6 99.4 126.71 99.12 126.82L110.92 156.84C111.4 156.65 111.87 156.46 112.33 156.27L99.96 126.48 99.96 126.48ZM61.64 126.13 48.74 155.69C49.21 155.9 49.68 156.09 50.15 156.29L62.49 126.49C62.21 126.37 61.93 126.25 61.65 126.13M102.46 125.36C102.19 125.49 101.92 125.62 101.64 125.74L115.1 155.05C115.56 154.84 116.02 154.62 116.48 154.4 116.48 154.4 102.46 125.36 102.46 125.36ZM59.15 124.96 44.59 153.74C45.04 153.97 45.51 154.2 45.97 154.42L59.97 125.37C59.69 125.24 59.42 125.1 59.15 124.97M104.89 124.1C104.62 124.25 104.36 124.39 104.09 124.54L119.18 153.04C119.62 152.81 120.07 152.56 120.51 152.32L104.89 124.1 104.89 124.1ZM56.73 123.65 40.58 151.56C41.01 151.81 41.46 152.07 41.91 152.31L57.54 124.1C57.27 123.95 57.01 123.8 56.74 123.65M107.25 122.71C106.99 122.87 106.73 123.03 106.47 123.19L123.14 150.8C123.57 150.54 124 150.28 124.43 150.01L107.25 122.71 107.25 122.71ZM54.39 122.21 36.68 149.16C37.1 149.44 37.54 149.72 37.98 150L55.16 122.71C54.9 122.55 54.65 122.38 54.39 122.21M109.53 121.18C109.28 121.36 109.03 121.53 108.78 121.7L126.97 148.33C127.39 148.05 127.8 147.76 128.21 147.47L109.54 121.18 109.53 121.18 109.53 121.18ZM52.14 120.63 32.97 146.56C33.37 146.86 33.78 147.16 34.2 147.45L52.89 121.17C52.64 120.99 52.39 120.81 52.15 120.63M111.72 119.53C111.48 119.72 111.24 119.91 111 120.09L130.64 145.67C131.04 145.36 131.45 145.04 131.84 144.73L111.72 119.52 111.72 119.52ZM49.97 118.94 29.38 143.77C29.77 144.1 30.17 144.42 30.56 144.73L50.68 119.53C50.44 119.34 50.21 119.15 49.97 118.95M113.82 117.76C113.59 117.96 113.36 118.17 113.13 118.37L134.17 142.81C134.55 142.48 134.93 142.15 135.3 141.82L113.81 117.77 113.82 117.77 113.82 117.77ZM47.9 117.12 25.96 140.76C26.33 141.1 26.7 141.44 27.07 141.77L48.57 117.73C48.34 117.53 48.11 117.32 47.89 117.11M115.82 115.87C115.6 116.08 115.39 116.3 115.17 116.51L137.53 139.75C137.89 139.4 138.26 139.04 138.62 138.68L115.83 115.87C115.83 115.87 115.82 115.87 115.82 115.87ZM45.94 115.2 22.72 137.58C23.07 137.94 23.42 138.3 23.77 138.65L46.58 115.85C46.36 115.63 46.15 115.42 45.93 115.19M117.71 113.87C117.51 114.1 117.3 114.33 117.09 114.55L140.72 136.5C141.06 136.13 141.4 135.76 141.73 135.39L117.7 113.88 117.71 113.88 117.71 113.88ZM44.09 113.17 19.66 134.22C19.99 134.6 20.33 134.98 20.66 135.36L44.7 113.86C44.5 113.63 44.29 113.4 44.1 113.17M119.49 111.77C119.3 112.01 119.11 112.25 118.91 112.48L143.73 133.08C144.05 132.69 144.37 132.3 144.68 131.91L119.49 111.77 119.49 111.77ZM42.36 111.04 16.78 130.68C17.09 131.08 17.4 131.49 17.72 131.89L42.92 111.76C42.73 111.52 42.54 111.28 42.36 111.04M121.14 109.58C120.96 109.83 120.79 110.08 120.6 110.32L146.53 129.5C146.83 129.09 147.13 128.68 147.42 128.27L121.14 109.58ZM40.75 108.82 14.11 127C14.39 127.41 14.68 127.84 14.98 128.25L41.27 109.56C41.09 109.31 40.92 109.06 40.75 108.81M122.67 107.29C122.51 107.55 122.34 107.81 122.17 108.06L149.13 125.76C149.41 125.34 149.68 124.91 149.95 124.49 149.95 124.49 122.67 107.29 122.67 107.29ZM39.27 106.51 11.67 123.19C11.93 123.62 12.2 124.05 12.46 124.48L39.75 107.29C39.59 107.03 39.43 106.77 39.27 106.51M124.07 104.93C123.92 105.2 123.77 105.46 123.62 105.73L151.53 121.9C151.78 121.46 152.04 121.01 152.28 120.57L124.07 104.93 124.07 104.93ZM37.91 104.13 9.41 119.23C9.65 119.68 9.89 120.12 10.14 120.57L38.35 104.93C38.2 104.66 38.06 104.4 37.91 104.13M125.34 102.49C125.21 102.77 125.07 103.04 124.93 103.31L153.71 117.87C153.94 117.42 154.17 116.96 154.38 116.51L125.34 102.49 125.34 102.49ZM36.7 101.67 7.4 115.16C7.61 115.61 7.83 116.07 8.04 116.52L37.08 102.5C36.95 102.22 36.82 101.95 36.69 101.67M126.46 99.98C126.34 100.26 126.23 100.54 126.1 100.82L155.65 113.74C155.85 113.28 156.05 112.8 156.25 112.33L126.46 99.97 126.46 99.97ZM35.63 99.15 5.62 110.97C5.81 111.44 6 111.92 6.19 112.38L35.97 100C35.85 99.72 35.74 99.44 35.63 99.16M127.44 97.41C127.34 97.7 127.23 97.99 127.13 98.27L157.36 109.5C157.54 109.02 157.71 108.54 157.88 108.06L127.44 97.41 127.44 97.41ZM34.7 96.58 4.07 106.68C4.23 107.16 4.39 107.64 4.56 108.12L35 97.45C34.9 97.16 34.8 96.87 34.7 96.58M128.27 94.79C128.19 95.08 128.1 95.37 128.01 95.67L158.83 105.17C158.98 104.69 159.13 104.2 159.27 103.71L128.27 94.8 128.27 94.8ZM33.91 93.94 2.76 102.31C2.89 102.8 3.03 103.29 3.17 103.77L34.16 94.83C34.07 94.54 33.99 94.24 33.91 93.94M128.96 92.13C128.89 92.43 128.82 92.73 128.75 93.02L160.06 100.76C160.18 100.27 160.3 99.77 160.41 99.28L128.96 92.14 128.96 92.14ZM33.28 91.28 1.7 97.86C1.8 98.35 1.91 98.85 2.03 99.34L33.47 92.17C33.4 91.87 33.34 91.57 33.28 91.27M129.49 89.44C129.44 89.74 129.39 90.04 129.33 90.34L161.03 96.3C161.12 95.8 161.21 95.3 161.3 94.81L129.5 89.45 129.49 89.45ZM32.79 88.57 0.9 93.37C0.98 93.87 1.06 94.38 1.14 94.87L32.94 89.48C32.89 89.18 32.84 88.88 32.79 88.58M129.87 86.72C129.84 87.02 129.8 87.33 129.76 87.63L161.74 91.8C161.81 91.3 161.87 90.79 161.92 90.28L129.87 86.71 129.87 86.71ZM32.46 85.85 0.35 88.85C0.4 89.35 0.45 89.86 0.5 90.36L32.55 86.76C32.51 86.46 32.48 86.15 32.46 85.85M130.1 83.98C130.08 84.29 130.06 84.59 130.04 84.89L162.2 87.26C162.24 86.75 162.27 86.25 162.3 85.75L130.1 83.97 130.1 83.97ZM32.28 83.1 0.05 84.32C0.07 84.82 0.09 85.32 0.12 85.82L32.32 84.02C32.3 83.71 32.29 83.41 32.28 83.1M130.18 81.15 130.18 81.23C130.18 81.54 130.18 81.84 130.17 82.15L162.42 82.74C162.42 82.24 162.43 81.73 162.43 81.23L162.43 81.05C162.43 81.05 130.18 81.15 130.18 81.15ZM0.01 79.79C0.01 80.27 0 80.75 0 81.23L0 81.27 32.25 81.27 32.25 80.34 0 79.78 0.01 79.78ZM162.3 76.56 130.1 78.39C130.12 78.69 130.13 79 130.15 79.31L162.37 78.06C162.35 77.56 162.33 77.06 162.3 76.56M0.21 75.26C0.17 75.76 0.14 76.27 0.11 76.78L32.31 78.53C32.33 78.22 32.34 77.92 32.37 77.62L0.21 75.27 0.21 75.27ZM161.91 72.03 129.86 75.66C129.9 75.96 129.93 76.27 129.96 76.57L162.07 73.54C162.02 73.04 161.97 72.53 161.91 72.03M0.67 70.73C0.61 71.23 0.55 71.73 0.49 72.24L32.54 75.79C32.57 75.48 32.61 75.18 32.65 74.88L0.67 70.74 0.67 70.74ZM161.27 67.52 129.48 72.94C129.53 73.24 129.58 73.54 129.63 73.84L161.52 69.01C161.44 68.51 161.36 68.01 161.28 67.51M1.38 66.23 1.11 67.73 32.91 73.07C32.96 72.77 33.02 72.47 33.07 72.17L1.37 66.24 1.38 66.24ZM160.38 63.05 128.94 70.25C129.01 70.55 129.07 70.84 129.13 71.14L160.7 64.53C160.6 64.04 160.49 63.54 160.37 63.04M2.35 61.77C2.23 62.26 2.11 62.76 2 63.25L33.46 70.37C33.53 70.07 33.6 69.77 33.67 69.48L2.35 61.77 2.35 61.77ZM159.23 58.63 128.25 67.6C128.34 67.89 128.42 68.19 128.5 68.48L159.64 60.09C159.51 59.6 159.37 59.11 159.23 58.63M3.56 57.37C3.41 57.85 3.27 58.34 3.13 58.82L34.13 67.71C34.21 67.42 34.3 67.12 34.39 66.83L3.55 57.37 3.56 57.37 3.56 57.37ZM157.84 54.28 127.42 64.98C127.52 65.27 127.62 65.56 127.71 65.85L158.33 55.72C158.17 55.24 158.01 54.76 157.84 54.29M5.03 53.03C4.85 53.51 4.68 53.99 4.51 54.48L34.96 65.1C35.06 64.81 35.16 64.52 35.27 64.24L5.03 53.04 5.03 53.04ZM156.21 50.03 126.43 62.43C126.55 62.71 126.66 62.99 126.77 63.28L156.77 51.43C156.59 50.96 156.4 50.49 156.2 50.03M6.75 48.78C6.54 49.25 6.34 49.72 6.15 50.2L35.95 62.53C36.07 62.25 36.19 61.97 36.31 61.69L6.75 48.79 6.75 48.79ZM154.34 45.87 125.31 59.92C125.44 60.19 125.57 60.47 125.7 60.75L154.99 47.24C154.78 46.78 154.56 46.32 154.34 45.87M8.68 44.65C8.45 45.1 8.23 45.56 8.01 46.01L37.06 60.01C37.19 59.73 37.33 59.46 37.47 59.19L8.68 44.66 8.68 44.66ZM152.25 41.84 124.05 57.5C124.2 57.77 124.34 58.03 124.49 58.3L152.97 43.17C152.73 42.73 152.49 42.28 152.25 41.84M10.86 40.63C10.61 41.07 10.35 41.51 10.11 41.96L38.33 57.57C38.48 57.3 38.63 57.04 38.78 56.77L10.86 40.63 10.86 40.63ZM149.93 37.92 122.65 55.13C122.81 55.39 122.97 55.65 123.13 55.91L150.72 39.21C150.46 38.78 150.19 38.35 149.92 37.92M13.25 36.75C12.97 37.17 12.69 37.6 12.43 38.03L39.73 55.2C39.89 54.94 40.06 54.68 40.23 54.43L13.26 36.75 13.25 36.75 13.25 36.75ZM147.4 34.15 121.13 52.86C121.31 53.11 121.48 53.36 121.66 53.61L148.27 35.39C147.99 34.98 147.7 34.56 147.4 34.15M15.85 33.01C15.55 33.42 15.25 33.83 14.96 34.24L41.25 52.92C41.43 52.67 41.61 52.42 41.79 52.18L15.85 33.02 15.85 33.02ZM144.66 30.52 119.48 50.67C119.67 50.91 119.86 51.15 120.04 51.39L145.59 31.72C145.28 31.32 144.97 30.92 144.66 30.53M18.66 29.42C18.34 29.81 18.02 30.2 17.7 30.6L42.91 50.72C43.1 50.48 43.29 50.24 43.49 50.01L18.66 29.43 18.66 29.43ZM141.72 27.06 117.69 48.58C117.89 48.81 118.1 49.04 118.29 49.27L142.71 28.2C142.38 27.82 142.05 27.44 141.71 27.07M21.66 26.01C21.32 26.38 20.98 26.75 20.64 27.13L44.69 48.62C44.89 48.39 45.1 48.16 45.31 47.94L21.66 26.01 21.66 26.01ZM138.59 23.75 115.8 46.57C116.02 46.79 116.23 47 116.45 47.23L139.65 24.83C139.3 24.47 138.94 24.11 138.59 23.75M24.83 22.77C24.47 23.12 24.11 23.47 23.76 23.82L46.57 46.62C46.78 46.4 47 46.19 47.22 45.98L24.82 22.77 24.83 22.77ZM135.29 20.64 113.81 44.69C114.04 44.89 114.27 45.1 114.49 45.31L136.41 21.65C136.04 21.31 135.67 20.97 135.29 20.63M28.2 19.7C27.82 20.03 27.44 20.36 27.06 20.7L48.57 44.73C48.8 44.53 49.03 44.32 49.26 44.13 49.26 44.13 28.2 19.7 28.2 19.7ZM131.81 17.7 111.7 42.92C111.94 43.11 112.18 43.3 112.41 43.5L132.98 18.66C132.59 18.34 132.2 18.02 131.8 17.7M31.72 16.83C31.32 17.14 30.92 17.45 30.53 17.76L50.66 42.95C50.9 42.76 51.14 42.57 51.38 42.39L31.71 16.83 31.72 16.83ZM128.18 14.96 109.52 41.26C109.77 41.44 110.02 41.62 110.26 41.8L129.4 15.85C129 15.55 128.59 15.26 128.18 14.96M35.4 14.16C34.99 14.44 34.57 14.73 34.16 15.03L52.86 41.31C53.11 41.14 53.36 40.96 53.61 40.79L35.4 14.17 35.4 14.17ZM124.38 12.43 107.22 39.74C107.48 39.9 107.74 40.07 107.99 40.24L125.66 13.26C125.24 12.98 124.8 12.71 124.38 12.44M39.22 11.7C38.79 11.96 38.35 12.23 37.93 12.5L55.14 39.78 55.92 39.3 39.23 11.7 39.22 11.7 39.22 11.7ZM120.45 10.11 104.85 38.34C105.12 38.49 105.38 38.64 105.65 38.79L121.78 10.86C121.35 10.61 120.9 10.36 120.45 10.11M43.18 9.46C42.74 9.7 42.29 9.94 41.85 10.18L57.5 38.38C57.77 38.23 58.04 38.09 58.3 37.94L43.18 9.45 43.18 9.45ZM116.39 8.01 102.41 37.07C102.68 37.2 102.96 37.34 103.23 37.48L117.76 8.69C117.31 8.46 116.85 8.24 116.39 8.01M47.26 7.44C46.8 7.65 46.34 7.87 45.88 8.09L59.92 37.12C60.19 36.99 60.47 36.86 60.74 36.73L47.25 7.44 47.26 7.44 47.26 7.44ZM112.22 6.15 99.9 35.96C100.18 36.08 100.47 36.2 100.74 36.32L113.62 6.75C113.16 6.55 112.68 6.35 112.22 6.15M51.43 5.65C50.96 5.83 50.49 6.03 50.03 6.22L62.42 36C62.7 35.88 62.98 35.77 63.27 35.66L51.44 5.66 51.43 5.66ZM107.94 4.52 97.33 34.98C97.62 35.08 97.91 35.18 98.19 35.29L109.38 5.04C108.9 4.86 108.42 4.69 107.94 4.52M55.73 4.1C55.25 4.26 54.77 4.42 54.29 4.59L64.98 35.02C65.27 34.92 65.56 34.82 65.84 34.73L55.73 4.1 55.73 4.1ZM103.58 3.14 94.71 34.15C95 34.24 95.29 34.32 95.58 34.41L105.04 3.58C104.56 3.43 104.06 3.28 103.57 3.14M60.11 2.79C59.62 2.92 59.13 3.06 58.65 3.2L67.6 34.18C67.89 34.1 68.19 34.01 68.48 33.93L60.11 2.78 60.11 2.78ZM99.16 2.01 92.05 33.47C92.35 33.54 92.64 33.61 92.94 33.68L100.64 2.36C100.15 2.24 99.65 2.12 99.16 2.01M64.55 1.73C64.06 1.83 63.56 1.94 63.07 2.05L70.25 33.49C70.55 33.42 70.85 33.35 71.15 33.29L64.55 1.72 64.55 1.72ZM94.68 1.13 89.36 32.94C89.66 32.99 89.96 33.04 90.26 33.1L96.19 1.4C95.69 1.31 95.19 1.22 94.68 1.13M69.03 0.92C68.53 1 68.03 1.07 67.53 1.16L72.93 32.95C73.23 32.9 73.53 32.85 73.84 32.81 73.84 32.81 69.03 0.92 69.03 0.92ZM90.17 0.5 86.64 32.56C86.94 32.59 87.25 32.63 87.55 32.67L91.68 0.69C91.18 0.63 90.67 0.57 90.17 0.51M73.56 0.37C73.06 0.42 72.55 0.47 72.05 0.53L75.66 32.58C75.96 32.54 76.27 32.51 76.57 32.48L73.56 0.37 73.56 0.37ZM85.64 0.13 83.9 32.34C84.21 32.34 84.51 32.37 84.82 32.39L87.15 0.23C86.65 0.19 86.14 0.16 85.64 0.13M78.09 0.07C77.59 0.09 77.08 0.11 76.57 0.14L78.39 32.34C78.69 32.32 79 32.31 79.3 32.29L78.08 0.07 78.09 0.07ZM81.21 0 81.14 0 81.14 32.25 82.06 32.25 82.62 0C82.15 0 81.68 0 81.21 0" class="MsftOfcThm_Background1_Fill_v2" fill="#FFFFFF"/><path d="M81.21 12.57C43.29 12.57 12.55 43.31 12.55 81.23 12.55 119.15 43.29 149.89 81.21 149.89 119.13 149.89 149.87 119.15 149.87 81.23 149.87 43.31 119.13 12.57 81.21 12.57M55.41 60.64C61.56 58.29 67.7 56.9 71.96 56.13 66.99 55.7 62.02 55.77 57.15 56.3 58.16 54.32 59.4 52.49 60.84 50.83 64.95 50.56 69.03 50.83 72.99 51.2 71.7 50.09 68.58 48.4 65.75 47.13 65.74 47.13 65.71 47.13 65.7 47.11 65.51 47.03 65.32 46.95 65.13 46.87 65.14 46.87 65.15 46.87 65.17 46.84 66.27 46.03 67.43 45.29 68.65 44.65 72.07 44.84 75.38 45.87 77.1 47.53 77.1 47.53 77.12 47.36 77.17 47.07 77.19 46.95 77.22 46.79 77.26 46.62 77.53 45.42 78.17 43.27 79.58 41.6 80.12 41.56 80.67 41.54 81.21 41.54 81.75 41.54 82.31 41.54 82.86 41.6L82.89 41.6C84.29 43.26 84.92 45.41 85.17 46.62 85.21 46.79 85.24 46.94 85.26 47.07 85.31 47.36 85.33 47.53 85.33 47.53 87.05 45.87 90.36 44.85 93.77 44.65L97.25 46.84C97.07 46.92 96.89 47.01 96.72 47.11 96.71 47.11 96.69 47.11 96.67 47.13 93.84 48.4 90.71 50.09 89.43 51.2 93.38 50.82 97.46 50.56 101.58 50.83 103.02 52.49 104.26 54.32 105.28 56.3 100.41 55.76 95.44 55.7 90.47 56.13 94.74 56.9 100.88 58.29 107.03 60.64 107.6 62.49 107.97 64.43 108.12 66.42 102.74 64.21 97.68 62.98 93.49 62.33 97.71 65 103.02 69.67 107.44 74.92 107.02 76.67 106.43 78.36 105.67 79.96 100.45 73.68 94.54 68.2 89.94 66.08 93.66 71.29 97.82 82.51 97.06 90.37 96.39 90.86 95.7 91.32 94.99 91.74 94.08 86.38 92.25 80.05 88.33 74.6 88.33 74.59 88.32 74.57 88.3 74.56 86.53 72.09 84.33 69.8 81.6 67.86 81.3 67.64 81.22 67.48 81.22 67.45L81.22 67.45C78.42 69.31 76.13 71.7 74.27 74.37 70.55 79.69 68.54 86.14 67.52 91.8 67.5 91.79 67.47 91.77 67.45 91.76 66.74 91.35 66.05 90.89 65.38 90.4 64.62 82.55 68.78 71.32 72.5 66.11 67.91 68.23 61.99 73.7 56.77 79.98 56.01 78.38 55.42 76.7 55 74.94 59.42 69.69 64.73 65.03 68.95 62.35 64.77 63.01 59.7 64.24 54.32 66.44 54.47 64.44 54.84 62.51 55.42 60.66M96.31 108.09 104.57 111.67C105.07 111.9 105.55 112.23 106.05 112.46 106.68 112.76 107.31 113.06 107.94 113.36 106.32 116 104.32 118.38 102.02 120.42 100.33 119.23 98.44 117.96 96.31 116.61L88.05 111.67C85.88 110.46 83.6 109.23 81.21 108.03 78.82 109.23 76.54 110.45 74.37 111.67L66.11 116.61C63.98 117.97 62.09 119.24 60.4 120.42 58.09 118.37 56.1 116 54.48 113.36 55.12 113.06 55.74 112.76 56.37 112.46 56.87 112.23 57.35 111.9 57.85 111.67L66.11 108.09C68.99 106.94 71.84 105.88 74.64 104.91 67.14 101.54 58.79 98.53 49.88 96.43 49.88 96.2 49.88 95.97 49.9 95.74 57.09 96.77 68.34 98.82 81.2 102.77 94.07 98.82 105.32 96.76 112.51 95.74L112.53 96.43C103.61 98.53 95.27 101.54 87.77 104.91 90.57 105.88 93.42 106.93 96.31 108.09" class="MsftOfcThm_Background1_Fill_v2" fill="#FFFFFF"/></svg>