<svg viewBox="0 0 480 480" xmlns="http://www.w3.org/2000/svg" xmlns:xlink="http://www.w3.org/1999/xlink" id="Layer_1" overflow="hidden"><style>
.MsftOfcThm_Background1_Fill_v2 {
 fill:#FFFFFF; 
}
</style>
<rect x="0" y="339.45" rx="23.87" ry="23.87" width="140.55" height="140.55" class="MsftOfcThm_Background1_Fill_v2" fill="#FFFFFF"/><rect x="169.72" y="339.45" rx="23.87" ry="23.87" width="140.55" height="140.55" class="MsftOfcThm_Background1_Fill_v2" fill="#FFFFFF"/><path d="M402.22 324.45 417.22 324.45 417.22 122.98C417.22 118.84 413.86 115.48 409.72 115.48L377.77 115.48 377.77 130.48 402.22 130.48 402.22 324.44Z" class="MsftOfcThm_Background1_Fill_v2" fill="#FFFFFF"/><path d="M77.78 130.48 102.23 130.48 102.23 115.48 70.28 115.48C66.14 115.48 62.78 118.84 62.78 122.98L62.78 324.44 77.78 324.44 77.78 130.48Z" class="MsftOfcThm_Background1_Fill_v2" fill="#FFFFFF"/><path d="M240 90.13C221.86 90.13 207.15 104.84 207.15 122.98 207.15 141.12 221.86 155.83 240 155.83 258.14 155.83 272.85 141.12 272.85 122.98 272.85 104.84 258.14 90.13 240 90.13Z" class="MsftOfcThm_Background1_Fill_v2" fill="#FFFFFF"/><rect x="339.45" y="339.45" rx="23.87" ry="23.87" width="140.55" height="140.55" class="MsftOfcThm_Background1_Fill_v2" fill="#FFFFFF"/><path d="M240 0C172.08 0 117.02 55.06 117.02 122.98 117.02 190.9 172.08 245.96 240 245.96 307.92 245.96 362.98 190.9 362.98 122.98 362.98 55.06 307.92 0 240 0ZM321.48 138.2 307.38 141.36C305.81 147.11 303.53 152.57 300.63 157.63L308.37 169.85 286.85 191.37 274.64 183.63C269.58 186.53 264.12 188.81 258.36 190.38L255.2 204.48 224.77 204.48 221.61 190.38C215.86 188.82 210.4 186.53 205.34 183.63L193.12 191.37 171.6 169.85 179.34 157.64C176.44 152.58 174.16 147.12 172.59 141.36L158.49 138.2 158.49 107.77 172.59 104.61C174.16 98.86 176.44 93.4 179.34 88.34L171.6 76.13 193.12 54.61 205.34 62.35C210.4 59.45 215.86 57.17 221.61 55.6L224.77 41.5 255.2 41.5 258.36 55.6 258.36 55.6C264.11 57.17 269.57 59.45 274.63 62.35L286.85 54.61 308.37 76.13 300.63 88.34C303.53 93.4 305.81 98.86 307.38 104.62L321.48 107.78 321.48 138.21Z" class="MsftOfcThm_Background1_Fill_v2" fill="#FFFFFF"/><rect x="232.5" y="260.76" width="15" height="63.69" class="MsftOfcThm_Background1_Fill_v2" fill="#FFFFFF"/></svg>