<svg viewBox="0 0 487.12 162.46" xmlns="http://www.w3.org/2000/svg" xmlns:xlink="http://www.w3.org/1999/xlink" id="Layer_1" overflow="hidden"><defs></defs><path d="M480.89 50.03 480.89 50.03 480.9 50.03 480.89 50.03Z" fill="#283477"/><path d="M324.69 79.78 324.7 79.78 324.7 79.78 324.69 79.78Z" fill="#283477"/><path d="M456.49 17.7 456.5 17.7 456.5 17.7 456.49 17.7Z" fill="#283477"/><path d="M474.61 37.92 474.61 37.92 474.62 37.92 474.61 37.92Z" fill="#283477"/><path d="M474.56 81.09C474.56 80.24 474.53 79.39 474.5 78.55L487.07 78.06C487.05 77.56 487.03 77.06 487 76.56L474.45 77.27C474.4 76.41 474.34 75.56 474.26 74.72L486.78 73.54C486.73 73.04 486.68 72.53 486.62 72.03L474.13 73.44C474.03 72.59 473.93 71.73 473.81 70.89L486.24 69.01C486.16 68.51 486.08 68.01 486 67.51L486 67.51C486 67.51 473.61 69.63 473.61 69.63 473.47 68.78 473.32 67.94 473.14 67.1L485.43 64.53C485.33 64.04 485.22 63.55 485.1 63.05L472.85 65.86C472.66 65.02 472.46 64.19 472.24 63.36L484.37 60.09C484.24 59.6 484.1 59.11 483.96 58.63L471.89 62.13C471.65 61.3 471.4 60.48 471.13 59.67L483.06 55.72C482.9 55.24 482.74 54.76 482.57 54.29L482.57 54.29C482.57 54.29 470.71 58.45 470.71 58.45 470.43 57.64 470.12 56.84 469.81 56.05L481.5 51.43C481.32 50.96 481.13 50.49 480.93 50.03L469.34 54.85C469.01 54.06 468.66 53.28 468.3 52.5L479.72 47.23C479.51 46.77 479.29 46.31 479.07 45.86L467.77 51.33C467.4 50.56 467 49.81 466.6 49.06L477.7 43.16C477.46 42.72 477.22 42.27 476.98 41.83L465.99 47.93C465.57 47.18 465.15 46.43 464.71 45.7L475.45 39.2C475.19 38.77 474.92 38.34 474.65 37.91L464.02 44.62C463.57 43.9 463.11 43.18 462.62 42.48L472.99 35.38C472.71 34.97 472.42 34.55 472.12 34.14L461.87 41.44C461.37 40.74 460.87 40.06 460.35 39.38L470.31 31.71C470 31.31 469.69 30.91 469.38 30.52L469.38 30.52C469.38 30.52 459.56 38.37 459.56 38.37 459.03 37.7 458.48 37.05 457.92 36.4L467.43 28.19C467.1 27.81 466.77 27.43 466.43 27.06L466.44 27.06C466.44 27.06 457.08 35.43 457.08 35.43 456.51 34.79 455.92 34.17 455.32 33.55L464.37 24.82C464.02 24.46 463.66 24.1 463.31 23.74L454.43 32.63C453.83 32.03 453.21 31.45 452.58 30.87L461.13 21.65C460.76 21.31 460.39 20.97 460.01 20.63L460.01 20.63C460.01 20.63 451.64 30.01 451.64 30.01 451 29.44 450.36 28.87 449.7 28.33L457.71 18.66C457.32 18.34 456.93 18.02 456.54 17.7L448.7 27.53C448.03 27 447.36 26.47 446.67 25.96L454.13 15.85C453.73 15.55 453.32 15.26 452.91 14.96L445.63 25.22C444.93 24.72 444.23 24.24 443.51 23.77L450.39 13.26C449.97 12.98 449.53 12.71 449.11 12.44L449.11 12.44C449.11 12.44 442.42 23.07 442.42 23.07 441.7 22.61 440.96 22.17 440.22 21.75L446.51 10.86C446.08 10.61 445.63 10.36 445.18 10.11L439.1 21.11C438.35 20.7 437.59 20.3 436.82 19.92L442.48 8.7C442.03 8.47 441.57 8.25 441.11 8.02L435.67 19.34C434.9 18.97 434.11 18.62 433.33 18.28L438.35 6.76C437.89 6.56 437.41 6.36 436.95 6.16L432.15 17.77C431.36 17.44 430.56 17.12 429.75 16.82L434.11 5.04C433.63 4.86 433.15 4.69 432.67 4.52L428.53 16.39C427.72 16.11 426.91 15.83 426.08 15.58L429.76 3.58C429.28 3.43 428.79 3.28 428.3 3.14L424.84 15.23C424.02 14.99 423.19 14.77 422.36 14.56L425.36 2.36C424.87 2.24 424.37 2.12 423.88 2.01L421.11 14.27C420.28 14.08 419.44 13.91 418.6 13.75L420.91 1.39C420.41 1.3 419.91 1.21 419.4 1.12L417.33 13.52C416.49 13.38 415.64 13.26 414.79 13.15L416.4 0.68C415.9 0.62 415.39 0.56 414.89 0.5L414.89 0.5C414.89 0.5 413.51 12.99 413.51 12.99 412.66 12.9 411.81 12.83 410.96 12.77L411.87 0.23C411.37 0.19 410.86 0.16 410.36 0.13L409.68 12.68C408.83 12.63 407.98 12.62 407.12 12.6L407.34 0.01C406.87 0.01 406.4-2.68587e-14 405.93-2.68587e-14L405.93-2.68587e-14C405.93-2.68587e-14 405.86 0.01 405.86 0.01L405.86 12.57C404.99 12.57 404.13 12.6 403.28 12.64L402.8 0.07C402.3 0.09 401.8 0.11 401.29 0.14L402 12.69C401.15 12.74 400.3 12.8 399.45 12.88L398.28 0.37C397.78 0.42 397.27 0.47 396.77 0.53L398.18 13.02C397.33 13.12 396.47 13.22 395.63 13.34 394.74 7.43 393.76 0.92 393.76 0.92 393.26 1 392.76 1.07 392.26 1.16L394.37 13.56C393.53 13.7 392.69 13.85 391.86 14.02L389.29 1.72 389.29 1.72C388.8 1.83 388.3 1.94 387.81 2.05L390.61 14.31C389.77 14.5 388.94 14.7 388.11 14.92L384.85 2.78 384.85 2.78C384.36 2.92 383.87 3.06 383.39 3.2L386.88 15.27C386.05 15.51 385.23 15.76 384.41 16.03L380.47 4.09C379.99 4.25 379.51 4.41 379.03 4.58L383.2 16.44C382.39 16.72 381.59 17.03 380.79 17.34L376.18 5.65 376.17 5.65C375.7 5.82 375.23 6.02 374.77 6.21L379.6 17.81C378.81 18.14 378.03 18.49 377.25 18.85L371.99 7.44C371.53 7.65 371.08 7.87 370.62 8.09L376.09 19.39C375.32 19.76 374.57 20.16 373.82 20.55L367.93 9.45 367.93 9.45C367.49 9.7 367.04 9.94 366.6 10.18L372.7 21.17C371.95 21.58 371.21 22.01 370.48 22.45L363.98 11.71 363.98 11.71C363.55 11.97 363.11 12.24 362.69 12.51L369.4 23.14C368.68 23.6 367.96 24.06 367.25 24.54L360.16 14.18 360.16 14.18C359.75 14.45 359.33 14.74 358.92 15.04L366.21 25.28C365.51 25.78 364.82 26.28 364.14 26.81L356.47 16.85C356.07 17.16 355.67 17.47 355.29 17.78L363.14 27.6C362.47 28.13 361.82 28.68 361.17 29.24 357.26 24.71 352.96 19.72 352.96 19.72 352.58 20.05 352.2 20.38 351.82 20.72L360.2 30.08C359.56 30.65 358.94 31.24 358.32 31.84L349.59 22.79C349.23 23.14 348.87 23.49 348.53 23.83L357.41 32.71C356.81 33.31 356.22 33.94 355.64 34.57L346.43 26.03C346.09 26.4 345.75 26.77 345.41 27.15L354.78 35.52C354.21 36.16 353.65 36.8 353.1 37.46L343.43 29.45 343.43 29.45C343.11 29.83 342.79 30.22 342.47 30.62L352.3 38.47C351.76 39.14 351.23 39.82 350.72 40.51L340.62 33.05 340.62 33.05C340.32 33.45 340.02 33.86 339.73 34.27L349.98 41.55C349.49 42.25 349 42.95 348.53 43.66L338.02 36.77 338.01 36.77C337.73 37.19 337.45 37.62 337.19 38.05L347.83 44.74C347.37 45.46 346.93 46.2 346.5 46.94L335.61 40.65C335.36 41.09 335.1 41.53 334.86 41.98L345.85 48.06C345.43 48.81 345.04 49.58 344.65 50.34L333.43 44.68 333.43 44.68C333.2 45.12 332.98 45.58 332.76 46.03L344.07 51.48C343.7 52.25 343.35 53.04 343.01 53.83L331.5 48.81 331.5 48.81C331.29 49.27 331.09 49.74 330.9 50.22L342.5 55.02C342.17 55.81 341.85 56.61 341.55 57.42L329.78 53.06 329.78 53.06C329.6 53.53 329.43 54.01 329.26 54.5L341.13 58.64C340.85 59.45 340.57 60.26 340.32 61.08L328.31 57.4C328.16 57.88 328.02 58.37 327.88 58.85L339.97 62.32C339.73 63.14 339.51 63.97 339.3 64.81L327.1 61.81C326.98 62.3 326.86 62.8 326.75 63.29L339.01 66.06C338.82 66.9 338.65 67.74 338.49 68.59L326.13 66.28C326.04 66.78 325.95 67.27 325.86 67.77L338.26 69.85C338.12 70.69 338 71.54 337.89 72.39L325.42 70.78 325.42 70.78C325.36 71.27 325.3 71.77 325.24 72.28L337.73 73.66C337.64 74.51 337.57 75.37 337.51 76.22L324.97 75.3 324.97 75.3C324.93 75.79 324.9 76.3 324.87 76.81L337.42 77.49C337.37 78.33 337.36 79.18 337.34 80.03L324.77 79.81 324.77 79.81C324.77 80.3 324.76 80.78 324.76 81.26L324.76 81.3 337.31 81.3C337.31 82.16 337.34 83.02 337.38 83.87L324.81 84.35C324.83 84.85 324.85 85.35 324.88 85.85L337.43 85.15C337.48 86.01 337.55 86.86 337.62 87.71L325.11 88.88C325.16 89.38 325.21 89.89 325.26 90.39L337.75 88.99C337.85 89.84 337.95 90.69 338.07 91.53L325.65 93.4C325.73 93.9 325.81 94.41 325.89 94.9L338.28 92.8C338.42 93.65 338.57 94.49 338.74 95.33L326.44 97.89C326.54 98.38 326.65 98.88 326.77 99.37L339.03 96.58C339.22 97.42 339.42 98.26 339.64 99.08L327.5 102.34C327.63 102.83 327.77 103.32 327.91 103.8L339.99 100.32C340.23 101.15 340.48 101.97 340.75 102.78L328.81 106.72C328.97 107.2 329.13 107.68 329.3 108.16L341.16 104C341.44 104.81 341.74 105.61 342.06 106.4L330.36 111.01C330.55 111.48 330.74 111.96 330.93 112.42L342.53 107.6C342.86 108.39 343.21 109.17 343.57 109.94L332.15 115.2C332.36 115.65 332.58 116.11 332.79 116.56L344.1 111.1C344.47 111.87 344.87 112.63 345.27 113.38L334.16 119.27C334.4 119.72 334.64 120.16 334.89 120.61L345.88 114.51C346.29 115.26 346.72 116 347.16 116.73L336.42 123.22C336.68 123.65 336.95 124.08 337.21 124.51L347.85 117.81C348.3 118.53 348.76 119.25 349.24 119.95L338.86 127.03C339.14 127.44 339.43 127.87 339.73 128.28L349.98 120.99C350.48 121.69 350.98 122.38 351.5 123.05L341.53 130.71C341.84 131.11 342.15 131.52 342.47 131.92L352.3 124.07C352.83 124.74 353.38 125.39 353.94 126.04L344.41 134.25C344.74 134.63 345.08 135.01 345.41 135.39L354.78 127.01C355.35 127.65 355.94 128.27 356.53 128.88L347.47 137.61C347.82 137.97 348.17 138.33 348.52 138.68L357.4 129.8C358.01 130.41 358.63 130.99 359.26 131.57L350.71 140.78C351.08 141.12 351.45 141.46 351.82 141.79L360.2 132.42C360.84 132.99 361.49 133.56 362.15 134.11L354.13 143.78C354.52 144.11 354.92 144.43 355.31 144.74L363.16 134.91C363.83 135.44 364.5 135.97 365.18 136.48L357.72 146.57C358.12 146.87 358.53 147.17 358.95 147.46L366.23 137.22C366.92 137.71 367.62 138.19 368.33 138.66L361.43 149.17C361.85 149.45 362.29 149.73 362.73 150.01L369.43 139.37C370.15 139.83 370.88 140.26 371.63 140.69L365.33 151.57C365.76 151.82 366.21 152.08 366.66 152.32L372.75 141.33C373.5 141.74 374.26 142.14 375.02 142.52L369.34 153.74C369.79 153.97 370.26 154.2 370.72 154.42L376.17 143.11C376.94 143.48 377.73 143.83 378.52 144.17L373.49 155.69C373.96 155.9 374.43 156.09 374.9 156.29L379.71 144.68C380.5 145.01 381.29 145.32 382.1 145.62L377.73 157.4C378.21 157.58 378.69 157.75 379.16 157.92L383.31 146.05C384.12 146.33 384.94 146.62 385.77 146.87L382.08 158.87C382.56 159.02 383.05 159.16 383.53 159.3L387 147.22C387.82 147.45 388.64 147.68 389.47 147.89L386.45 160.09C386.94 160.21 387.44 160.33 387.94 160.44L390.72 148.18C391.55 148.37 392.39 148.54 393.24 148.7L390.92 161.06C391.42 161.16 391.93 161.24 392.42 161.33L394.5 148.93C395.34 149.07 396.19 149.19 397.05 149.31L395.43 161.78C395.93 161.84 396.44 161.91 396.94 161.96L398.33 149.47C399.18 149.56 400.03 149.63 400.88 149.7L399.96 162.24C400.46 162.28 400.97 162.31 401.47 162.34L402.16 149.8C403 149.85 403.86 149.86 404.71 149.88L404.48 162.46C404.97 162.47 405.46 162.48 405.96 162.48L405.98 162.48 405.98 149.91C406.84 149.91 407.69 149.88 408.54 149.85L409.01 162.42C409.52 162.4 410.02 162.38 410.52 162.35L409.82 149.81C410.68 149.76 411.53 149.69 412.38 149.62L413.54 162.13C414.04 162.08 414.55 162.03 415.05 161.98L413.65 149.49C414.5 149.39 415.35 149.29 416.2 149.17L418.06 161.59C418.56 161.52 419.07 161.44 419.56 161.35L417.46 148.95C418.31 148.81 419.15 148.66 419.99 148.49L422.56 160.78C423.05 160.68 423.54 160.57 424.03 160.46L421.24 148.2C422.08 148.01 422.91 147.81 423.74 147.59L426.99 159.73C427.48 159.6 427.97 159.46 428.46 159.32L424.98 147.24C425.8 147 426.62 146.75 427.43 146.49L431.36 158.43C431.84 158.27 432.33 158.11 432.8 157.94L428.65 146.08C429.46 145.8 430.26 145.49 431.06 145.18L435.66 156.89C436.14 156.7 436.61 156.51 437.07 156.32L432.25 144.71C433.04 144.38 433.82 144.03 434.59 143.67L439.84 155.09C440.3 154.88 440.76 154.66 441.22 154.44 441.22 154.44 438.36 148.51 435.76 143.14 436.53 142.77 437.28 142.37 438.04 141.97L443.92 153.08C444.36 152.85 444.81 152.6 445.25 152.36L439.16 141.36C439.91 140.95 440.65 140.52 441.38 140.08L447.87 150.83C448.3 150.57 448.73 150.31 449.16 150.04L442.46 139.39C443.19 138.93 443.91 138.47 444.62 137.99L451.7 148.36C452.12 148.08 452.53 147.79 452.94 147.5L445.66 137.25C446.35 136.76 447.04 136.25 447.72 135.73L455.37 145.7C455.77 145.39 456.18 145.07 456.57 144.76L448.73 134.94C449.4 134.41 450.05 133.87 450.69 133.31L458.9 142.84C459.28 142.51 459.66 142.18 460.03 141.85L451.65 132.48C452.29 131.91 452.92 131.32 453.54 130.72L462.26 139.78C462.62 139.43 462.99 139.07 463.35 138.71L454.47 129.83C455.07 129.23 455.66 128.6 456.24 127.98L465.45 136.54C465.79 136.17 466.13 135.8 466.46 135.43L457.1 127.05C457.68 126.41 458.24 125.76 458.79 125.1L468.46 133.13C468.78 132.74 469.1 132.35 469.41 131.96L459.59 124.11C460.12 123.44 460.65 122.77 461.16 122.08L471.26 129.55C471.56 129.14 471.86 128.73 472.15 128.32L461.9 121.03C462.4 120.33 462.88 119.63 463.35 118.91L473.85 125.81C474.13 125.39 474.4 124.96 474.67 124.54 474.67 124.54 469.1 121.03 464.04 117.84 464.5 117.12 464.94 116.39 465.36 115.65L476.25 121.96C476.5 121.52 476.76 121.07 477 120.63L466.01 114.53C466.43 113.78 466.82 113.02 467.21 112.25L478.43 117.93C478.66 117.48 478.89 117.02 479.1 116.57L467.79 111.11C468.16 110.34 468.51 109.55 468.85 108.76L480.36 113.79C480.56 113.33 480.76 112.85 480.96 112.38L469.36 107.57C469.69 106.78 470 105.99 470.3 105.18L482.07 109.55C482.25 109.07 482.42 108.59 482.59 108.11L470.73 103.96C471.01 103.15 471.29 102.34 471.55 101.52L483.55 105.22C483.7 104.74 483.85 104.25 483.99 103.76L471.9 100.29C472.14 99.46 472.37 98.64 472.57 97.8L484.77 100.82C484.89 100.33 485.01 99.83 485.12 99.34L472.86 96.56C473.05 95.73 473.23 94.89 473.38 94.04L485.74 96.36C485.83 95.86 485.92 95.36 486.01 94.87L473.6 92.78C473.74 91.94 473.87 91.09 473.98 90.24L486.45 91.87C486.52 91.37 486.58 90.86 486.63 90.35L474.14 88.96C474.23 88.11 474.3 87.26 474.37 86.41L486.91 87.33C486.95 86.82 486.98 86.32 487.01 85.82L474.47 85.13C474.52 84.29 474.53 83.43 474.55 82.58L487.13 82.81C487.13 82.31 487.14 81.8 487.14 81.3L487.14 81.12C487.14 81.12 480.55 81.14 474.58 81.16ZM412.46 104.91C415.26 105.88 418.11 106.93 421 108.09L429.26 111.67C429.76 111.9 430.24 112.23 430.74 112.46 431.37 112.76 432 113.06 432.63 113.36 431.01 116 429.01 118.38 426.71 120.42 425.02 119.23 423.13 117.96 421 116.61L412.74 111.67C410.57 110.46 408.29 109.23 405.9 108.03 403.51 109.23 401.23 110.45 399.06 111.67L390.8 116.61C388.67 117.97 386.78 119.24 385.09 120.42 382.78 118.37 380.79 116 379.17 113.36 379.81 113.06 380.43 112.76 381.06 112.46 381.56 112.23 382.04 111.9 382.54 111.67L390.8 108.09C393.68 106.94 396.53 105.88 399.33 104.91 391.83 101.54 383.48 98.53 374.57 96.43 374.57 96.2 374.57 95.97 374.59 95.74 381.78 96.77 393.03 98.82 405.89 102.77 418.76 98.82 430.01 96.76 437.2 95.74L437.22 96.43C428.3 98.53 419.96 101.54 412.46 104.91ZM401.86 47.07C401.88 46.95 401.91 46.79 401.95 46.62 402.22 45.42 402.86 43.27 404.27 41.6 404.81 41.56 405.36 41.54 405.9 41.54 406.44 41.54 407 41.54 407.55 41.6L407.58 41.6C408.98 43.26 409.61 45.41 409.86 46.62 409.9 46.79 409.93 46.94 409.95 47.07 410 47.36 410.02 47.53 410.02 47.53 411.74 45.87 415.05 44.85 418.46 44.65L421.94 46.84C421.76 46.92 421.58 47.01 421.41 47.11 421.4 47.11 421.38 47.12 421.36 47.13 418.53 48.4 415.4 50.09 414.12 51.2 418.07 50.82 422.15 50.56 426.27 50.83 427.71 52.49 428.95 54.32 429.97 56.3 425.1 55.76 420.13 55.7 415.16 56.13 419.43 56.9 425.57 58.29 431.72 60.64 432.29 62.49 432.66 64.43 432.81 66.42 427.43 64.21 422.37 62.98 418.18 62.33 422.4 65 427.71 69.67 432.13 74.92 431.71 76.67 431.12 78.36 430.36 79.96 425.14 73.68 419.23 68.2 414.63 66.08 418.35 71.29 422.51 82.51 421.75 90.37 421.08 90.86 420.39 91.32 419.68 91.74 418.77 86.38 416.94 80.05 413.02 74.6 413.02 74.59 413.01 74.57 412.99 74.56 411.22 72.09 409.02 69.8 406.29 67.86 405.99 67.64 405.91 67.48 405.91 67.45 403.11 69.31 400.82 71.7 398.96 74.37 395.24 79.69 393.23 86.14 392.21 91.8 392.19 91.79 392.16 91.77 392.14 91.76 391.43 91.35 390.74 90.89 390.07 90.4 389.31 82.55 393.47 71.32 397.19 66.11 392.6 68.23 386.68 73.7 381.46 79.98 380.7 78.38 380.11 76.7 379.69 74.94 384.11 69.69 389.42 65.03 393.64 62.35 389.46 63.01 384.39 64.24 379.01 66.44 379.16 64.44 379.53 62.51 380.11 60.66L380.11 60.64C386.25 58.29 392.39 56.9 396.65 56.13 391.68 55.7 386.71 55.77 381.84 56.3 382.85 54.32 384.09 52.49 385.53 50.83 389.64 50.56 393.72 50.83 397.68 51.2 396.39 50.09 393.27 48.4 390.44 47.13 390.43 47.13 390.4 47.12 390.39 47.11 390.2 47.03 390.01 46.95 389.82 46.87 389.83 46.87 389.84 46.86 389.86 46.84 390.96 46.03 392.12 45.29 393.34 44.65 396.76 44.84 400.07 45.87 401.79 47.53 401.79 47.53 401.81 47.36 401.86 47.07Z" fill="#283477"/><path d="M485.06 63.04 485.06 63.05 485.07 63.05 485.06 63.04Z" fill="#283477"/><path d="M402.77 0.07 402.77 0.07 402.78 0.07 402.77 0.07Z" fill="#283477"/><path d="M356.4 16.83 356.4 16.83 356.41 16.83 356.4 16.83Z" fill="#283477"/><path d="M328.24 57.37 328.25 57.37 328.25 57.37 328.24 57.37Z" fill="#283477"/><path d="M349.51 22.77 349.51 22.78 349.52 22.77 349.51 22.77Z" fill="#283477"/><path d="M371.94 7.44 371.94 7.44 371.95 7.44 371.94 7.44Z" fill="#283477"/><path d="M428.26 3.14 428.27 3.14 428.27 3.14 428.26 3.14Z" fill="#283477"/><path d="M326.06 66.24 326.07 66.24 326.07 66.24 326.06 66.24Z" fill="#283477"/><path d="M326.07 66.23 326.07 66.24 326.07 66.24 326.07 66.23Z" fill="#283477"/><rect x="15.71" y="29.66" width="4.87" height="4.87" fill="#283477" transform="matrix(0.707107 -0.707107 0.707107 0.707107 -17.38 22.23)"/><rect x="8.32" y="29.66" width="4.87" height="4.87" fill="#283477" transform="matrix(0.707107 -0.707107 0.707107 0.707107 -19.55 17)"/><path d="M41.14 43.91 41.15 43.91 41.15 41.11C39.97 41.25 39 41.34 38.24 41.39 37.48 41.44 36.96 41.47 36.7 41.47 35.92 41.47 35.28 41.23 34.77 40.74 34.26 40.25 34.01 39.67 34.01 38.99 34.01 38.31 34.25 37.76 34.72 37.32 35.19 36.88 35.8 36.66 36.54 36.66 36.91 36.66 37.38 36.71 37.93 36.81 38.49 36.91 38.99 37.05 39.42 37.21L40.03 34.83C38.88 34.22 37.68 33.92 36.43 33.92 35.01 33.92 33.84 34.38 32.91 35.29 31.98 36.2 31.52 37.35 31.52 38.74 31.52 40.13 31.89 41.17 32.63 42.09L29.89 42.39 29.89 45.18C32.05 44.88 34.07 44.62 35.95 44.42 37.83 44.22 39.56 44.05 41.14 43.91Z" fill="#283477"/><rect x="59.23" y="73.74" width="4.87" height="4.87" fill="#283477" transform="matrix(0.707107 -0.707107 0.707107 0.707107 -35.8 65.92)"/><rect x="51.83" y="73.75" width="4.87" height="4.87" fill="#283477" transform="matrix(0.707107 -0.707107 0.707107 0.707107 -37.98 60.68)"/><path d="M90.76 67.47 90.76 67.47C94.78 67.47 97.69 66.59 99.5 64.85 101.31 63.11 102.21 60.42 102.21 56.77L102.26 31.18 97.75 31.74 97.95 56.37C97.95 58.4 97.43 59.85 96.4 60.73 95.37 61.61 93.49 62.05 90.75 62.05 88.39 62.05 86.68 61.7 85.63 60.99 84.58 60.28 84.06 59.23 84.06 57.85 84.06 57.51 84.08 57.07 84.11 56.51 84.14 55.95 84.18 55.5 84.21 55.17L84.56 51.01 80.51 51.01 79.8 57.85C79.7 58.63 79.51 59.29 79.24 59.83 78.9 60.57 78.27 61.13 77.34 61.5 76.41 61.87 74.9 62.06 72.81 62.06 70.45 62.06 68.74 61.71 67.69 61 66.64 60.29 66.12 59.24 66.12 57.86 66.12 57.52 66.14 57.08 66.17 56.52 66.2 55.96 66.24 55.51 66.27 55.18L66.63 51.02 62.58 51.02 61.87 57.86C61.77 58.64 61.58 59.3 61.31 59.84 60.97 60.58 60.34 61.14 59.41 61.51 58.48 61.88 56.97 62.07 54.87 62.07L43.72 62.07C41.35 62.07 39.65 61.72 38.6 61.01 37.55 60.3 37.03 59.25 37.03 57.87 37.03 57.53 37.05 57.09 37.08 56.53 37.11 55.97 37.15 55.52 37.18 55.19L37.53 51.03 33.48 51.03 32.77 57.87C32.67 58.65 32.48 59.31 32.21 59.85 31.87 60.59 31.24 61.15 30.31 61.52 29.38 61.89 27.87 62.08 25.77 62.08 23.13 62.08 21.32 61.68 20.32 60.89 19.32 60.1 18.83 58.63 18.83 56.51L18.83 39.89 14.52 40.45 14.52 43.13C11.55 43.71 8.98 44.57 6.82 45.71 4.66 46.86 2.99 48.23 1.83 49.81 0.66 51.4 0.08 53.12 0.08 54.98 0.08 57.34 0.96 59.2 2.72 60.55 4.48 61.9 6.84 62.58 9.81 62.58 11.36 62.58 13.15 62.41 15.18 62.07 15.79 64 16.94 65.38 18.63 66.23 20.32 67.07 22.7 67.5 25.78 67.5 28.14 67.5 30.02 67.21 31.4 66.64 32.79 66.07 33.81 65.19 34.49 64 35.23 65.28 36.33 66.19 37.78 66.71 39.23 67.23 40.97 67.49 43 67.49L54.86 67.49C57.22 67.49 59.1 67.2 60.48 66.63 61.86 66.06 62.9 65.18 63.57 63.99 64.31 65.27 65.41 66.18 66.86 66.7 68.31 67.22 70.05 67.48 72.08 67.48L72.79 67.48C75.15 67.48 77.03 67.19 78.41 66.62 79.79 66.05 80.82 65.17 81.5 63.98 82.24 65.26 83.34 66.17 84.79 66.69 86.24 67.21 87.98 67.47 90.01 67.47L90.76 67.47ZM12.24 57.12 12.24 57.12C11.41 57.2 10.61 57.23 9.83 57.23 6.08 57.23 4.21 56.27 4.21 54.34 4.21 53.39 4.65 52.5 5.53 51.65 6.41 50.81 7.63 50.07 9.2 49.45 10.77 48.83 12.57 48.41 14.6 48.21L14.65 56.82C13.87 56.96 13.07 57.06 12.24 57.12Z" fill="#283477"/><rect x="73.29" y="73.82" width="5.23" height="5.23" fill="#283477" transform="matrix(0.707107 -0.707107 0.707107 0.707107 -31.82 76.06)"/><path d="M116.6 67.46 116.6 31.18 112.09 31.74 112.39 67.46 116.6 67.46Z" fill="#283477"/><rect x="159.42" y="36.46" width="4.87" height="4.87" fill="#283477" transform="matrix(0.707107 -0.707107 0.707107 0.707107 19.9 125.84)"/><rect x="152.02" y="36.45" width="4.87" height="4.87" fill="#283477" transform="matrix(0.707107 -0.707107 0.707107 0.707107 17.74 120.6)"/><path d="M168.54 63.77 168.54 63.77C168.54 60.25 168.1 57.21 167.22 54.64 166.34 52.07 165.12 50.1 163.57 48.71 162.02 47.32 160.21 46.63 158.15 46.63 156.49 46.63 154.94 47.18 153.49 48.28 152.04 49.38 150.86 50.86 149.97 52.71 149.07 54.57 148.63 56.65 148.63 58.94 148.63 61.64 149.51 63.7 151.27 65.12 153.03 66.54 155.43 67.25 158.47 67.25 159.35 67.25 160.23 67.19 161.1 67.07 161.98 66.95 163.08 66.74 164.39 66.44 164.09 68.87 162.85 70.8 160.69 72.22 158.53 73.64 155.64 74.35 152.02 74.35 148.4 74.35 145.37 73.48 143.23 71.74 141.08 70 140.01 67.44 140.01 64.06 140.01 62.88 140.14 61.59 140.39 60.21 140.64 58.82 141.04 56.98 141.58 54.69L137.58 53.88C136.9 56.38 136.41 58.51 136.09 60.27 135.77 62.03 135.61 63.68 135.61 65.24 135.61 69.87 137.05 73.43 139.94 75.93 142.83 78.43 146.86 79.68 152.02 79.68 157.18 79.68 161.32 78.34 164.21 75.65 167.1 72.96 168.54 69 168.54 63.77ZM161.56 62.08 161.55 62.08C160.77 62.16 160 62.19 159.22 62.19 157.09 62.19 155.47 61.86 154.36 61.2 153.25 60.54 152.69 59.5 152.69 58.08 152.69 56.83 152.93 55.72 153.42 54.76 153.91 53.8 154.54 53.03 155.3 52.45 156.06 51.88 156.85 51.59 157.66 51.59 159.32 51.59 160.75 52.49 161.97 54.28 163.19 56.07 163.96 58.55 164.3 61.73 163.25 61.9 162.34 62.02 161.56 62.08Z" fill="#283477"/><path d="M192.97 54.31 192.96 54.31C192.08 51.96 190.87 50.1 189.31 48.71 187.76 47.32 185.95 46.63 183.89 46.63 182.23 46.63 180.68 47.18 179.23 48.28 177.78 49.38 176.6 50.86 175.71 52.71 174.81 54.57 174.37 56.65 174.37 58.94 174.37 61.64 175.25 63.73 177 65.2 178.76 66.67 181.16 67.4 184.2 67.4 185.69 67.4 187.48 67.18 189.57 66.74 188.79 68.8 187.19 70.34 184.76 71.35 182.33 72.36 178.85 73.17 174.32 73.78L175.38 78.9C179.7 78.43 183.26 77.57 186.05 76.32 188.84 75.07 190.91 73.3 192.26 71.03 193.61 68.75 194.29 65.84 194.29 62.29 194.29 59.32 193.85 56.66 192.97 54.31ZM187.34 62.08 187.34 62.08C186.53 62.16 185.72 62.19 184.91 62.19 182.82 62.19 181.2 61.86 180.07 61.2 178.94 60.54 178.37 59.5 178.37 58.08 178.37 56.83 178.61 55.72 179.1 54.76 179.59 53.8 180.21 53.03 180.98 52.45 181.74 51.88 182.53 51.59 183.34 51.59 184.56 51.59 185.66 52.05 186.66 52.96 187.66 53.87 188.47 55.09 189.09 56.61 189.71 58.13 190.08 59.84 190.18 61.73 189.1 61.9 188.15 62.02 187.34 62.08Z" fill="#283477"/><path d="M252.51 42.23 249.06 38.73 245.61 42.23 249.06 45.67 252.51 42.23Z" fill="#283477"/><path d="M292.86 47.82C291.39 46.89 289.73 46.43 287.87 46.43 285.78 46.43 283.61 47.05 281.38 48.28 279.15 49.51 277.02 51.2 274.99 53.35 272.96 55.5 271.22 57.95 269.77 60.72 268.89 60.08 268.45 59.12 268.45 57.83 268.45 57.49 268.47 57.04 268.5 56.49 268.53 55.93 268.57 55.49 268.6 55.15L269.01 50.49 264.96 50.49 264.15 57.84C264.05 58.58 263.9 59.21 263.69 59.72 263.35 60.53 262.72 61.12 261.79 61.49 260.86 61.86 259.35 62.05 257.26 62.05 254.89 62.05 253.19 61.7 252.14 60.99 251.09 60.28 250.57 59.23 250.57 57.85 250.57 57.51 250.59 57.06 250.62 56.51 250.65 55.95 250.69 55.51 250.72 55.17L251.07 51.02 247.02 51.02 246.31 57.86C246.21 58.64 246.02 59.3 245.75 59.84 245.41 60.58 244.78 61.14 243.85 61.51 242.92 61.88 241.41 62.07 239.31 62.07L228.16 62.07C226.98 62.07 226 61.91 225.22 61.59 224.44 61.27 223.81 60.71 223.32 59.92 222.83 59.13 222.38 58 221.98 56.55L217.72 40.39 213.41 41.61 218.43 60.16C217.69 60.94 216.72 61.55 215.52 61.99 214.32 62.43 212.88 62.65 211.19 62.65 208.72 62.65 206.98 62.19 205.94 61.28 204.91 60.37 204.4 59.12 204.4 57.53L204.4 54.74 200.4 54.74 200.4 59.15C200.4 62.02 201.24 64.22 202.91 65.74 204.58 67.26 207.21 68.02 210.79 68.02 213.02 68.02 214.89 67.69 216.41 67.03 217.93 66.37 219.21 65.4 220.26 64.12 222.02 66.38 224.65 67.52 228.17 67.52L239.32 67.52C241.68 67.52 243.56 67.23 244.94 66.66 246.33 66.09 247.36 65.21 248.03 64.03 248.77 65.31 249.87 66.22 251.32 66.74 252.77 67.26 254.51 67.52 256.54 67.52L257.25 67.52C261.81 67.52 264.71 66.37 265.96 64.07 266.74 65.32 267.99 66.21 269.71 66.73 271.43 67.25 273.83 67.51 276.91 67.51L281.88 67.51C287.05 67.51 290.97 66.61 293.64 64.8L293.64 64.75C296.32 62.94 297.65 60.33 297.65 56.92 297.65 54.93 297.22 53.14 296.36 51.57 295.5 50 294.33 48.75 292.86 47.82ZM290.86 60.88C289.07 61.66 286.01 62.04 281.69 62.04L276.27 62.04C275.19 62.04 274.23 61.99 273.38 61.89 275.47 58.61 277.77 56.05 280.27 54.21 282.77 52.37 285.19 51.45 287.52 51.45 289.31 51.45 290.76 51.97 291.88 53 292.99 54.03 293.55 55.36 293.55 56.98 293.55 58.8 292.65 60.1 290.86 60.88Z" fill="#283477"/><path d="M3.33 103.89 13.57 103.89 13.57 101.06 3.33 101.06 3.33 94.88 14.17 94.88 14.17 92.06 0 92.06 0 113.49 14.29 113.49 14.74 110.67 3.33 110.67 3.33 103.89Z" fill="#283477"/><path d="M31.51 108.21 21.19 92.06 18.01 92.06 18.01 113.49 21.19 113.49 21.19 97.37 31.63 113.49 34.69 113.49 34.69 92.06 31.51 92.06 31.51 108.21Z" fill="#283477"/><path d="M47.17 109.53 41.08 92.06 37.39 92.06 45.37 113.49 48.97 113.49 56.96 92.06 53.38 92.06 47.17 109.53Z" fill="#283477"/><rect x="59.63" y="92.06" width="3.33" height="21.42" fill="#283477"/><path d="M81.99 101.75 82 101.75C82.57 100.78 82.85 99.61 82.85 98.25 82.85 97.47 82.73 96.71 82.47 95.97 82.21 95.23 81.8 94.56 81.2 93.97 80.6 93.38 79.78 92.91 78.75 92.57 77.72 92.23 76.42 92.06 74.83 92.06L67.51 92.06 67.51 113.48 70.75 113.48 70.75 104.87 74.71 104.87C74.93 104.87 75.16 104.87 75.42 104.86 75.67 104.86 75.91 104.83 76.15 104.81L80.11 113.48 83.74 113.48 79.27 104.06C80.51 103.5 81.42 102.73 81.99 101.75ZM77.78 101.68 77.78 101.68C77.12 101.99 76.2 102.15 75.02 102.15L70.76 102.15 70.76 94.77 74.69 94.77C75.95 94.77 76.94 94.91 77.65 95.19 78.36 95.47 78.86 95.88 79.13 96.42 79.41 96.96 79.55 97.61 79.55 98.37 79.55 99.13 79.42 99.82 79.16 100.38 78.9 100.94 78.44 101.37 77.78 101.68Z" fill="#283477"/><path d="M101.04 92.82 101.04 92.82C99.55 91.96 97.8 91.53 95.8 91.53 93.8 91.53 92.08 91.97 90.58 92.85 89.08 93.73 87.9 95.01 87.05 96.69 86.2 98.37 85.77 100.41 85.77 102.81 85.77 105.21 86.19 107.25 87.03 108.92 87.87 110.59 89.04 111.86 90.54 112.73 92.04 113.6 93.78 114.03 95.76 114.03 97.74 114.03 99.54 113.59 101.04 112.71 102.54 111.83 103.7 110.55 104.52 108.85 105.34 107.16 105.75 105.11 105.75 102.71 105.75 100.31 105.34 98.28 104.51 96.62 103.68 94.96 102.52 93.69 101.03 92.82ZM100.66 108.88C99.55 110.39 97.92 111.15 95.78 111.15 93.64 111.15 91.96 110.39 90.87 108.88 89.78 107.37 89.23 105.33 89.23 102.77 89.23 100.21 89.78 98.2 90.87 96.68 91.96 95.16 93.59 94.4 95.78 94.4 97.97 94.4 99.55 95.16 100.66 96.68 101.77 98.2 102.33 100.23 102.33 102.77 102.33 105.31 101.77 107.37 100.66 108.88Z" fill="#283477"/><path d="M123.12 108.21 112.8 92.06 109.62 92.06 109.62 113.49 112.8 113.49 112.8 97.37 123.24 113.49 126.3 113.49 126.3 92.06 123.12 92.06 123.12 108.21Z" fill="#283477"/><path d="M141.4 109.56 134.92 92.06 130.86 92.06 130.86 113.49 133.89 113.49 133.89 97.34 140.02 113.49 142.63 113.49 148.84 97.31 148.84 113.49 151.93 113.49 151.93 92.06 148 92.06 141.4 109.56Z" fill="#283477"/><path d="M159.82 103.89 170.05 103.89 170.05 101.06 159.82 101.06 159.82 94.88 170.65 94.88 170.65 92.06 156.49 92.06 156.49 113.49 170.77 113.49 171.22 110.67 159.82 110.67 159.82 103.89Z" fill="#283477"/><path d="M188 108.21 177.67 92.06 174.49 92.06 174.49 113.49 177.67 113.49 177.67 97.37 188.12 113.49 191.18 113.49 191.18 92.06 188 92.06 188 108.21Z" fill="#283477"/><path d="M194.03 95 200.96 95 200.96 113.49 204.29 113.49 204.29 95 211.22 95 211.22 92.06 194.03 92.06 194.03 95Z" fill="#283477"/><path d="M220.7 113.49 224.01 113.49 224.01 104.34 233.64 104.34 233.64 101.43 224.01 101.43 224.01 94.91 234.27 94.91 234.27 92.06 220.7 92.06 220.7 113.49Z" fill="#283477"/><path d="M250.79 104.97 250.8 104.97C250.8 107.03 250.43 108.58 249.69 109.61 248.95 110.64 247.68 111.16 245.88 111.16 244.08 111.16 242.84 110.65 242.05 109.61 241.26 108.58 240.86 107.03 240.86 104.97L240.86 92.07 237.56 92.07 237.56 104.82C237.56 108.04 238.27 110.38 239.69 111.84 241.11 113.3 243.15 114.03 245.81 114.03 248.47 114.03 250.47 113.3 251.93 111.86 253.39 110.41 254.12 108.1 254.12 104.94L254.12 92.07 250.79 92.07 250.79 104.97Z" fill="#283477"/><path d="M271.99 108.21 261.66 92.06 258.48 92.06 258.48 113.49 261.66 113.49 261.66 97.37 272.11 113.49 275.17 113.49 275.17 92.06 271.99 92.06 271.99 108.21Z" fill="#283477"/><path d="M287.41 92.05 287.41 92.05C287.41 92.05 279.73 92.06 279.73 92.06L279.73 113.48 286.84 113.48C290.18 113.48 292.8 112.57 294.7 110.74 296.6 108.91 297.55 106.2 297.55 102.62 297.55 99.04 296.66 96.43 294.88 94.68 293.1 92.93 290.61 92.05 287.41 92.05ZM292.4 108.54 292.39 108.54C291.25 109.94 289.44 110.64 286.96 110.64L283.03 110.64 283.03 94.89 287.44 94.89C289.78 94.89 291.48 95.57 292.53 96.93 293.58 98.29 294.11 100.21 294.11 102.69 294.11 105.17 293.54 107.14 292.4 108.54Z" fill="#283477"/></svg>