<svg viewBox="0 0 510.9 512" xmlns="http://www.w3.org/2000/svg" xmlns:xlink="http://www.w3.org/1999/xlink" id="Layer_1" overflow="hidden"><path d="M448.24 167.36 411.33 167.36 411.33 94.73C411.33 82.29 406.38 70.7 398.29 62.23L374.44 37.28C354.2 16.43 351.65 10.54 339.59 4.69 333.99 1.9 326.61 0.02 319.17 0.02L144.98 0.02C119.03 0.02 97.93 21.13 97.93 47.07L97.93 300.81 88.01 300.81C73.04 300.81 60.87 312.98 60.87 327.96 60.87 335.41 63.89 342.16 68.75 347.06 63.88 351.97 60.87 358.71 60.87 366.16 60.87 368.95 61.26 370.61 61.4 371.53 2.49 377.52-20.97 450.43 22.14 490 35.16 501.95 52.44 508.73 71.18 507.97 77.37 507.97 204.88 507.92 205.04 507.92 220 507.92 232.19 495.75 232.19 480.77 232.19 473.32 229.17 466.57 224.31 461.67 228.89 457.06 231.82 450.83 232.15 443.91L242.33 443.91 242.33 449.35C242.33 483.9 270.44 512.01 305 512.01L448.25 512.01C482.8 512.01 510.92 483.9 510.92 449.34L510.92 230.03C510.92 195.48 482.81 167.37 448.25 167.37ZM344.16 28.44C375.75 61.83 382.87 69.36 384.21 70.78 384.21 70.78 384.22 70.78 384.23 70.8L384.24 70.8C384.24 70.8 384.27 70.84 384.28 70.85L384.29 70.85C384.29 70.85 384.33 70.91 384.35 70.92 384.36 70.93 384.37 70.94 384.38 70.96 384.39 70.97 384.4 70.97 384.4 70.98 384.41 70.99 384.42 70.99 384.43 71.01 384.45 71.02 384.46 71.04 384.47 71.05L344.16 71.05 344.16 28.44ZM88.01 316.88 205.04 316.88C211.13 316.88 216.1 321.85 216.1 327.94 216.1 334.03 211.13 339 205.04 339L88.01 339C81.92 339 76.95 334.04 76.95 327.94 76.95 321.85 81.92 316.88 88.01 316.88ZM88.01 355.08 205.04 355.08C211.13 355.08 216.1 360.05 216.1 366.14 216.1 372.23 211.13 377.2 205.04 377.2L124.21 377.2C120.92 375.69 117.51 374.47 114.03 373.52 108.82 372.1 103.43 371.3 97.94 371.16 96.36 371.12 94.78 371.13 93.2 371.2L78.19 371.2C77.4 369.68 76.95 367.96 76.95 366.14 76.95 360.05 81.92 355.08 88.01 355.08ZM216.09 404.34C216.09 410.44 211.12 415.4 205.03 415.4L160.02 415.4C156.96 407.27 152.36 399.78 146.37 393.28L205.03 393.28C211.12 393.28 216.09 398.25 216.09 404.34ZM48.88 389.91C43.98 394.56 39.63 400.07 36.21 406.16L26.84 406.16C32.96 398.57 40.57 393.17 48.88 389.91ZM18.28 421.23 29.99 421.23C29.73 422.36 28.4 426.69 27.8 433.28L15.42 433.28C15.9 429.14 16.86 425.1 18.27 421.23ZM19.58 461.1C17.8 457.06 16.52 452.79 15.8 448.37L28.09 448.37C30.29 460.86 30.41 458.7 30.97 461.1L19.59 461.1ZM29.62 476.18C34.56 476.17 37.42 476.2 38.09 476.16 41.1 480.9 44.71 485.3 48.91 489.25 41.62 486.39 35.14 482.01 29.62 476.18ZM98.24 492.88C68.81 494.15 43.9 471.35 42.65 441.86 40.63 394.9 96.72 367.85 132.04 400.28 166.86 432.24 145.66 490.94 98.24 492.89ZM205.03 491.81 140.11 491.81C147.3 485.73 153.2 478.2 157.39 469.69L205.03 469.69C211.12 469.69 216.09 474.66 216.09 480.75 216.09 486.84 211.12 491.81 205.03 491.81ZM216 443.9C215.34 449.37 210.67 453.61 205.03 453.61L162.95 453.61C164.41 446.63 164.82 439.11 163.92 431.49L205.03 431.49C211.81 431.49 216.86 437.55 216 443.9ZM242.32 427.81 227.8 427.81C226.79 426.23 225.61 424.77 224.29 423.45 234.8 412.85 234.81 395.84 224.29 385.25 229.16 380.34 232.17 373.6 232.17 366.15 232.17 358.7 229.15 351.95 224.29 347.05 241.2 330 229.12 300.8 205.03 300.8L114.01 300.8 114.01 47.05C114.01 29.98 127.9 16.08 144.98 16.08L328.07 16.08 328.07 79.09C328.07 83.53 331.67 87.13 336.11 87.13L394.28 87.13C395.96 93.65 394.92 91.49 395.23 167.35L304.98 167.35C270.43 167.35 242.31 195.46 242.31 230.02L242.31 427.81ZM495.82 449.33 495.82 449.33C495.82 475.57 474.48 496.92 448.24 496.92L304.99 496.92C278.76 496.92 257.41 475.58 257.41 449.33L257.41 230.02C257.41 203.78 278.76 182.43 304.99 182.43L448.24 182.43C474.48 182.43 495.82 203.77 495.82 230.02L495.82 449.33Z" fill="#FFFFFF"/><path d="M332.88 262.69 305.52 262.69C299.89 262.69 295.29 258.08 295.29 252.46L295.29 224.86C295.29 219.23 299.9 214.63 305.52 214.63L447.7 214.63C453.35 214.63 457.93 219.22 457.93 224.86L457.93 252.46C457.93 258.1 453.35 262.69 447.7 262.69L365.39 262.69C361.23 262.69 357.85 266.07 357.85 270.23 357.85 274.39 361.23 277.77 365.39 277.77L447.7 277.77C461.66 277.77 473.01 266.41 473.01 252.45L473.01 224.85C473.01 210.9 461.66 199.53 447.7 199.53L305.52 199.53C291.54 199.53 280.2 210.86 280.2 224.85L280.2 252.45C280.2 266.43 291.53 277.77 305.52 277.77L332.88 277.77C337.04 277.77 340.42 274.39 340.42 270.23 340.42 266.07 337.04 262.69 332.88 262.69Z" fill="#FFFFFF"/><path d="M295.99 415.75 321.76 415.75C330.47 415.75 337.54 408.67 337.54 399.97L337.54 374.21C337.54 365.5 330.46 358.43 321.76 358.43L295.99 358.43C287.29 358.43 280.21 365.51 280.21 374.21L280.21 399.97C280.21 408.68 287.3 415.75 295.99 415.75ZM295.29 374.21C295.29 373.82 295.61 373.51 295.99 373.51L321.76 373.51C322.14 373.51 322.46 373.82 322.46 374.21L322.46 399.97C322.46 400.36 322.14 400.67 321.76 400.67L295.99 400.67C295.61 400.67 295.29 400.36 295.29 399.97L295.29 374.21Z" fill="#FFFFFF"/><path d="M458.05 291.07 432.29 291.07C423.58 291.07 416.51 298.15 416.51 306.85L416.51 332.61C416.51 341.32 423.59 348.39 432.29 348.39L458.05 348.39C466.76 348.39 473.83 341.31 473.83 332.61L473.83 306.85C473.83 298.14 466.75 291.07 458.05 291.07ZM458.75 332.61C458.75 333 458.44 333.31 458.05 333.31L432.29 333.31C431.91 333.31 431.59 333 431.59 332.61 431.9 307.12 430.94 306.15 432.29 306.15L458.05 306.15C458.44 306.15 458.75 306.46 458.75 306.85L458.75 332.61Z" fill="#FFFFFF"/><path d="M295.99 348.39 321.76 348.39C330.47 348.39 337.54 341.31 337.54 332.61L337.54 306.85C337.54 298.14 330.46 291.07 321.76 291.07L295.99 291.07C287.29 291.07 280.21 298.15 280.21 306.85L280.21 332.61C280.21 341.32 287.3 348.39 295.99 348.39ZM295.29 306.85C295.29 306.46 295.61 306.15 295.99 306.15L321.76 306.15C322.14 306.15 322.46 306.46 322.46 306.85L322.46 332.61C322.46 333 322.14 333.31 321.76 333.31L295.99 333.31C295.61 333.31 295.29 333 295.29 332.61L295.29 306.85Z" fill="#FFFFFF"/><path d="M333.57 427.81C330.67 424.55 326.45 422.49 321.76 422.49L295.99 422.49C291.29 422.49 287.07 424.55 284.19 427.81 278.71 433.95 280.57 440.65 280.21 443.9L280.21 464.04C280.21 472.75 287.3 479.82 295.99 479.82L321.76 479.82C330.47 479.82 337.54 472.74 337.54 464.04L337.54 443.9C337.18 440.72 339.02 433.96 333.57 427.81ZM321.76 464.74C296.3 464.43 295.29 465.39 295.29 464.04 295.29 436.76 294.99 437.58 295.99 437.58L321.76 437.58C323 437.58 322.23 439.3 322.46 443.9 322.46 443.9 323.11 464.74 321.76 464.74Z" fill="#FFFFFF"/><path d="M454.05 358.43 436.29 358.43C425.38 358.43 416.5 367.31 416.5 378.22L416.5 458.22C416.5 470.13 426.19 479.83 438.1 479.83L452.24 479.83C464.15 479.83 473.84 470.14 473.84 458.22L473.84 378.22C473.84 367.31 464.97 358.43 454.05 358.43ZM458.75 458.21C458.75 461.81 455.84 464.74 452.24 464.74L438.1 464.74C434.51 464.74 431.58 461.81 431.58 458.21L431.58 378.21C431.58 375.62 433.69 373.5 436.28 373.5L454.04 373.5C456.63 373.5 458.74 375.61 458.74 378.21L458.74 458.21Z" fill="#FFFFFF"/><path d="M194.1 219.03C184.91 215.65 178.26 213.21 178.26 204.69 178.26 196.93 183.42 192.99 193.58 192.99 204.37 192.99 207.28 197.74 211.08 197.74 215.22 197.74 217.51 193.35 217.51 190.31 217.51 184.03 207.26 180.91 198.1 180.09L198.1 174.43C198.1 170.49 194.89 167.29 190.95 167.29 187.01 167.29 183.8 170.49 183.8 174.43L183.8 181C171.28 183.97 164.39 192.62 164.39 205.44 164.39 222.99 177.31 227.84 187.69 231.75 197.86 235.57 205.89 238.59 205.89 250.2 205.89 259.79 200.57 264.65 190.07 264.65 174.7 264.65 174.56 254.27 168.7 254.27 165.07 254.27 162.15 258.33 162.15 261.7 162.15 267.64 171 275.45 183.81 277.48L183.81 282.95C183.81 286.89 187.01 290.1 190.95 290.1 194.89 290.1 198.1 286.89 198.1 282.95L198.1 277.33C211.88 274.74 219.76 264.62 219.76 249.45 219.76 228.46 205.53 223.24 194.09 219.03Z" fill="#FFFFFF"/><path d="M389.5 422.49 363.73 422.49C359.03 422.49 354.81 424.55 351.92 427.81 346.46 433.96 348.31 440.65 347.95 443.9L347.95 464.04C347.95 472.75 355.03 479.82 363.73 479.82L389.5 479.82C398.2 479.82 405.27 472.74 405.27 464.04L405.27 438.27C405.27 433.82 403.41 429.79 400.43 426.92 397.6 424.19 393.73 422.5 389.49 422.5ZM389.5 464.74C364.04 464.43 363.03 465.39 363.03 464.04L363.03 438.27C363.03 437.89 363.35 437.58 363.73 437.58L389.5 437.58C389.88 437.58 390.19 437.89 390.19 438.27 389.89 463.79 390.83 464.74 389.5 464.74Z" fill="#FFFFFF"/><path d="M389.5 291.07 363.73 291.07C355.02 291.07 347.95 298.15 347.95 306.85L347.95 332.61C347.95 341.32 355.03 348.39 363.73 348.39L389.5 348.39C391.53 348.39 393.46 348.01 395.24 347.3 401.11 345 405.27 339.28 405.27 332.6L405.27 306.84C405.27 298.1 398.15 291.06 389.49 291.06ZM390.2 332.61C390.2 333 389.89 333.31 389.51 333.31L363.74 333.31C363.36 333.31 363.04 333 363.04 332.61L363.04 306.85C363.04 305.49 363.98 306.45 389.51 306.15 389.89 306.15 390.2 306.46 390.2 306.85L390.2 332.61Z" fill="#FFFFFF"/><path d="M395.24 359.51C393.46 358.81 391.53 358.42 389.5 358.42L363.73 358.42C355.02 358.42 347.95 365.5 347.95 374.2L347.95 399.96C347.95 408.67 355.03 415.74 363.73 415.74L389.5 415.74C398.2 415.74 405.27 408.66 405.27 399.96L405.27 374.2C405.27 367.53 401.11 361.8 395.24 359.5ZM390.2 399.97C390.2 400.36 389.89 400.67 389.51 400.67L363.74 400.67C363.36 400.67 363.04 400.36 363.04 399.97L363.04 374.21C363.04 373.82 363.36 373.51 363.74 373.51L389.51 373.51C389.89 373.51 390.2 373.82 390.2 374.21L390.2 399.97Z" fill="#FFFFFF"/><path d="M327.04 118.12 345.98 118.12C350.14 118.12 353.52 114.75 353.52 110.58 353.52 106.42 350.14 103.04 345.98 103.04L327.04 103.04C322.88 103.04 319.5 106.42 319.5 110.58 319.5 114.74 322.88 118.12 327.04 118.12Z" fill="#FFFFFF"/><path d="M163.16 118.12 296.88 118.12C301.04 118.12 304.42 114.75 304.42 110.58 304.42 106.42 301.04 103.04 296.88 103.04L163.17 103.04C159.01 103.04 155.63 106.42 155.63 110.58 155.63 114.74 159.01 118.12 163.17 118.12Z" fill="#FFFFFF"/><path d="M187.13 155.55C191.29 155.55 194.67 152.17 194.67 148.01 194.67 143.85 191.29 140.47 187.13 140.47L163.16 140.47C159 140.47 155.62 143.85 155.62 148.01 155.62 152.17 159 155.55 163.16 155.55L187.13 155.55Z" fill="#FFFFFF"/><path d="M353.52 148.01C353.52 143.85 350.14 140.47 345.98 140.47L217.29 140.47C213.13 140.47 209.75 143.85 209.75 148.01 209.75 152.17 213.13 155.55 217.29 155.55L345.98 155.55C350.14 155.55 353.52 152.17 353.52 148.01Z" fill="#FFFFFF"/><path d="M91.68 425.16C91.68 423.26 92.38 422.72 93.03 422.36 95.06 421.24 99.7 420.91 103.96 423.1 105.09 423.68 106.37 424.34 108.04 424.34 115.48 424.34 121.36 410.52 103.59 407.47L103.59 406.99C103.59 402.78 100.16 399.35 95.95 399.35 91.74 399.35 88.31 402.78 88.31 406.99L88.31 408.44C80.87 411.14 76.65 417.28 76.65 425.61 76.65 438.47 85.99 441.98 92.82 444.54 99.33 446.99 101.58 448.06 101.58 452.48 101.58 455.25 100.84 457.81 95.43 457.81 87.55 457.81 88.49 451.58 82.59 451.58 78.42 451.58 75.3 455.7 75.3 459.39 75.3 464.61 80.73 469.57 88.31 471.58L88.31 472.15C88.31 476.36 91.74 479.79 95.95 479.79 100.16 479.79 103.59 476.36 103.59 472.15L103.59 471.38C111.79 468.74 116.6 461.69 116.6 452.03 116.6 429.12 91.68 432.56 91.68 425.15Z" fill="#FFFFFF"/></svg>