<svg viewBox="0 0 496 500.08" xmlns="http://www.w3.org/2000/svg" xmlns:xlink="http://www.w3.org/1999/xlink" id="Layer_2" overflow="hidden"><style>
.MsftOfcThm_Accent1_Fill_v2 {
 fill:#173863; 
}
</style>
<path d="M40 231.28C62.09 231.28 80 213.37 80 191.28 80 169.19 62.09 151.28 40 151.28 17.91 151.28 0 169.19 0 191.28 0 213.37 17.91 231.28 40 231.28ZM40 167.28C53.25 167.28 64 178.03 64 191.28 64 204.53 53.25 215.28 40 215.28 26.75 215.28 16 204.53 16 191.28 16 178.03 26.75 167.28 40 167.28Z" class="MsftOfcThm_Accent1_Fill_v2" fill="#173863"/><path d="M456 152C433.91 152 416 169.91 416 192 416 214.09 433.91 232 456 232 478.09 232 496 214.09 496 192 496 169.91 478.09 152 456 152ZM456 216C442.75 216 432 205.25 432 192 432 178.75 442.75 168 456 168 469.25 168 480 178.75 480 192 480 205.25 469.25 216 456 216Z" class="MsftOfcThm_Accent1_Fill_v2" fill="#173863"/><path d="M248 80C270.09 80 288 62.09 288 40 288 17.91 270.09 0 248 0 225.91 0 208 17.91 208 40 208 62.09 225.91 80 248 80ZM248 16C261.25 16 272 26.75 272 40 272 53.25 261.25 64 248 64 234.75 64 224 53.25 224 40 224 26.75 234.75 16 248 16Z" class="MsftOfcThm_Accent1_Fill_v2" fill="#173863"/><path d="M120 400C97.91 400 80 417.91 80 440 80 462.09 97.91 480 120 480 142.09 480 160 462.09 160 440 160 417.91 142.09 400 120 400ZM120 464C106.75 464 96 453.25 96 440 96 426.75 106.75 416 120 416 133.25 416 144 426.75 144 440 144 453.25 133.25 464 120 464Z" class="MsftOfcThm_Accent1_Fill_v2" fill="#173863"/><path d="M376 400C353.91 400 336 417.91 336 440 336 462.09 353.91 480 376 480 398.09 480 416 462.09 416 440 416 417.91 398.09 400 376 400ZM376 464C362.75 464 352 453.25 352 440 352 426.75 362.75 416 376 416 389.25 416 400 426.75 400 440 400 453.25 389.25 464 376 464Z" class="MsftOfcThm_Accent1_Fill_v2" fill="#173863"/><path d="M217.44 461.6 231.36 454.64 224 440 188.24 458C185.94 459.19 184.36 461.43 184 464 183.57 466.45 184.31 468.97 186 470.8L213.28 500.08 224.96 489.2 213.84 477.2C225.14 479.02 236.56 479.96 248 480 270.51 480.03 292.9 476.66 314.4 470L309.6 454.72C279.78 463.88 248.29 466.23 217.44 461.6Z" class="MsftOfcThm_Accent1_Fill_v2" fill="#173863"/><path d="M456 256C456.03 291.87 446.74 327.13 429.04 358.32L426.96 343.28 410.96 345.44 416.32 385.44C416.67 387.95 418.18 390.14 420.4 391.36 421.56 392.06 422.89 392.42 424.24 392.4 425.37 392.4 426.49 392.15 427.52 391.68L464.08 375.68 457.52 361.04 442.16 367.92C461.81 333.9 472.11 295.29 472 256L456 256Z" class="MsftOfcThm_Accent1_Fill_v2" fill="#173863"/><path d="M158.48 68.24 152.8 81.68 168 88 184 51.2C184.97 48.88 184.79 46.25 183.52 44.08 182.18 41.68 179.7 40.14 176.96 40L136.96 35.28 135.12 51.28 152.56 53.36C117.75 69.71 87.77 94.79 65.52 126.16L78.48 135.44C98.99 106.6 126.53 83.47 158.48 68.24Z" class="MsftOfcThm_Accent1_Fill_v2" fill="#173863"/><path d="M401.36 115.76 385.36 112.88 382.48 128.88 421.84 136.08 424 136C426.02 136 427.96 135.22 429.44 133.84 431.28 132.15 432.23 129.69 432 127.2L427.92 87.2 411.92 88.88 413.6 104.88C386.66 75.5 352.4 53.8 314.32 42L309.68 57.28C344.86 68.35 376.49 88.52 401.36 115.76Z" class="MsftOfcThm_Accent1_Fill_v2" fill="#173863"/><path d="M42.4 286.24 54 298.32 65.52 287.2 37.76 258.48C36.02 256.67 33.53 255.78 31.04 256.08 28.53 256.37 26.31 257.82 25.04 260L5.2 294.72 19.12 302.72 26.72 289.44C31.98 325.38 45.99 359.47 67.52 388.72L80.4 379.28C60.26 351.87 47.21 319.91 42.4 286.24Z" class="MsftOfcThm_Accent1_Fill_v2" fill="#173863"/><path d="M212 319.44 212 348C212 367.88 228.12 384 248 384 267.88 384 284 367.88 284 348L284 319.44C323.46 299.56 339.32 251.45 319.44 212 299.56 172.54 251.45 156.68 212 176.56 185.02 190.16 168 217.79 168 248 168 278.21 185.02 305.84 212 319.44ZM268 348C268 359.05 259.05 368 248 368 236.95 368 228 359.05 228 348L228 336 268 336 268 348ZM248 184C283.35 184 311.99 212.67 311.99 248.01 311.99 273.73 296.58 296.95 272.88 306.96 269.92 308.21 268 311.11 268 314.32L268 320 256 320 256 288C255.99 286.43 255.51 284.9 254.64 283.6L234.16 252.8 246.08 255.76C247.34 256.07 248.66 256.07 249.92 255.76L264 252.32 257.04 264 270.96 272 286.96 244C289.33 240.27 288.22 235.33 284.49 232.96 282.58 231.75 280.25 231.4 278.08 232L248 240 217.92 232C214.72 231.19 211.35 232.43 209.44 235.12 207.57 237.84 207.57 241.44 209.44 244.16L240 290.4 240 320 228 320 228 314.32C228 311.11 226.08 308.21 223.12 306.96 190.56 293.21 175.31 255.67 189.05 223.11 199.06 199.41 222.27 184.01 248 184Z" class="MsftOfcThm_Accent1_Fill_v2" fill="#173863"/><rect x="344" y="240" width="24" height="16" class="MsftOfcThm_Accent1_Fill_v2" fill="#173863"/><rect x="128" y="240" width="24" height="16" class="MsftOfcThm_Accent1_Fill_v2" fill="#173863"/><rect x="312.31" y="163.57" width="24" height="16" class="MsftOfcThm_Accent1_Fill_v2" fill="#173863" transform="matrix(0.707107 -0.707107 0.707107 0.707107 -26.33 279.57)"/><rect x="159.59" y="316.43" width="24" height="16" class="MsftOfcThm_Accent1_Fill_v2" fill="#173863" transform="matrix(0.707107 -0.707107 0.707107 0.707107 -179.15 216.35)"/><rect x="316.33" y="312.4" width="16" height="24" class="MsftOfcThm_Accent1_Fill_v2" fill="#173863" transform="matrix(0.707107 -0.707107 0.707107 0.707107 -134.39 324.35)"/><rect x="163.56" y="159.6" width="16" height="24" class="MsftOfcThm_Accent1_Fill_v2" fill="#173863" transform="matrix(0.707107 -0.707107 0.707107 0.707107 -71.09 171.57)"/><rect x="240" y="128" width="16" height="24" class="MsftOfcThm_Accent1_Fill_v2" fill="#173863"/></svg>