<svg viewBox="0 0 612.88 613" xmlns="http://www.w3.org/2000/svg" xmlns:xlink="http://www.w3.org/1999/xlink" id="Layer_1" overflow="hidden"><style>
.MsftOfcThm_Background1_Fill_v2 {
 fill:#FFFFFF; 
}
.MsftOfcThm_Background1_Stroke_v2 {
 stroke:#FFFFFF; 
}
</style>
<defs></defs><path d="M13.87 216.62 13.91 216.63 13.91 216.62 13.87 216.62Z" class="MsftOfcThm_Background1_Stroke_v2 MsftOfcThm_Background1_Fill_v2" stroke="#FFFFFF" stroke-linejoin="round" fill="#FFFFFF" fill-opacity="0.1"/><path d="M94 86.28 94.02 86.3C94.02 86.3 94.03 86.29 94.04 86.28L94 86.28Z" class="MsftOfcThm_Background1_Stroke_v2 MsftOfcThm_Background1_Fill_v2" stroke="#FFFFFF" stroke-linejoin="round" fill="#FFFFFF" fill-opacity="0.1"/><path d="M119.95 63.9 119.95 63.92C119.95 63.92 119.98 63.91 119.99 63.9L119.95 63.9Z" class="MsftOfcThm_Background1_Stroke_v2 MsftOfcThm_Background1_Fill_v2" stroke="#FFFFFF" stroke-linejoin="round" fill="#FFFFFF" fill-opacity="0.1"/><path d="M0.5 301.04 0.54 301.04 0.54 301.04 0.5 301.04Z" class="MsftOfcThm_Background1_Stroke_v2 MsftOfcThm_Background1_Fill_v2" stroke="#FFFFFF" stroke-linejoin="round" fill="#FFFFFF" fill-opacity="0.1"/><path d="M9.35 233.19 9.35 233.19 9.35 233.19 9.35 233.19Z" class="MsftOfcThm_Background1_Stroke_v2 MsftOfcThm_Background1_Fill_v2" stroke="#FFFFFF" stroke-linejoin="round" fill="#FFFFFF" fill-opacity="0.1"/><path d="M5.66 250.03 5.69 250.04 5.69 250.03 5.66 250.03Z" class="MsftOfcThm_Background1_Stroke_v2 MsftOfcThm_Background1_Fill_v2" stroke="#FFFFFF" stroke-linejoin="round" fill="#FFFFFF" fill-opacity="0.1"/><path d="M5.7 249.99C5.7 249.99 5.7 250.02 5.7 250.03L5.7 250.03 5.7 249.99Z" class="MsftOfcThm_Background1_Stroke_v2 MsftOfcThm_Background1_Fill_v2" stroke="#FFFFFF" stroke-linejoin="round" fill="#FFFFFF" fill-opacity="0.1"/><path d="M178.49 28.53 178.49 28.53C178.49 28.53 178.51 28.53 178.52 28.53L178.48 28.53Z" class="MsftOfcThm_Background1_Stroke_v2 MsftOfcThm_Background1_Fill_v2" stroke="#FFFFFF" stroke-linejoin="round" fill="#FFFFFF" fill-opacity="0.1"/><path d="M294.63 0.76 294.63 0.76C294.63 0.76 294.66 0.76 294.67 0.76L294.63 0.76Z" class="MsftOfcThm_Background1_Stroke_v2 MsftOfcThm_Background1_Fill_v2" stroke="#FFFFFF" stroke-linejoin="round" fill="#FFFFFF" fill-opacity="0.1"/><path d="M588.91 188.97C588.91 188.97 588.91 188.97 588.91 188.98L588.94 188.98C588.94 188.98 588.9 188.97 588.9 188.97Z" class="MsftOfcThm_Background1_Stroke_v2 MsftOfcThm_Background1_Fill_v2" stroke="#FFFFFF" stroke-linejoin="round" fill="#FFFFFF" fill-opacity="0.1"/><path d="M565.06 305.97C565.06 302.76 564.94 299.58 564.82 296.4L612.16 294.56C612.08 292.68 612.01 290.79 611.9 288.91L564.62 291.6C564.44 288.38 564.19 285.17 563.89 281.99L611.04 277.54C610.85 275.66 610.66 273.74 610.44 271.85L563.38 277.18C563.02 273.96 562.64 270.75 562.16 267.56L608.97 260.47C608.67 258.59 608.37 256.7 608.07 254.82L608.03 254.86 561.34 262.82C560.8 259.63 560.24 256.44 559.58 253.29L605.88 243.6C605.51 241.77 605.09 239.9 604.65 238.03L558.5 248.6C557.78 245.44 557.02 242.3 556.19 239.19L601.9 226.88C601.41 225.03 600.88 223.19 600.36 221.38L554.88 234.55C553.98 231.44 553.03 228.35 552.02 225.29L596.98 210.42C596.38 208.61 595.77 206.8 595.13 205.03L595.13 204.99 550.47 220.7C549.4 217.65 548.26 214.64 547.07 211.65L591.1 194.26C590.42 192.49 589.71 190.73 588.96 189L545.31 207.18C544.07 204.19 542.73 201.25 541.38 198.32L584.39 178.48C583.6 176.75 582.77 175.01 581.94 173.32L539.36 193.93C537.96 191.04 536.48 188.19 534.97 185.36L576.78 163.15C575.88 161.49 574.97 159.8 574.07 158.14L532.67 181.13C531.1 178.3 529.51 175.49 527.84 172.73L568.3 148.24C567.32 146.63 566.31 145.01 565.3 143.4L525.25 168.67C523.54 165.96 521.8 163.26 519.99 160.61L559.07 133.85C558.02 132.31 556.92 130.72 555.79 129.18L517.19 156.67C515.32 154.05 513.42 151.46 511.46 148.91L548.98 120.03C547.81 118.52 546.64 117.02 545.48 115.55L545.48 115.51 508.48 145.12C506.47 142.6 504.4 140.13 502.3 137.69L538.14 106.77C536.9 105.34 535.65 103.91 534.37 102.51L534.41 102.47 499.15 134.05C496.99 131.64 494.77 129.3 492.53 126.98L526.61 94.08C525.29 92.72 523.94 91.37 522.62 90.01L489.19 123.49C486.92 121.22 484.58 119.03 482.22 116.85L514.41 82.11C513.02 80.83 511.62 79.55 510.19 78.27L510.19 78.31 478.66 113.61C476.25 111.46 473.82 109.33 471.33 107.26L501.49 70.84C500.03 69.64 498.57 68.44 497.07 67.24L467.55 104.26C465.03 102.25 462.5 100.26 459.9 98.35L488 60.26C486.49 59.13 484.95 58.04 483.4 56.91L455.97 95.56C453.34 93.69 450.68 91.86 447.97 90.09L473.9 50.5C472.32 49.45 470.66 48.43 469.08 47.41L469.08 47.37 443.89 87.47C441.16 85.75 438.39 84.1 435.6 82.48L459.29 41.46C457.67 40.52 455.97 39.58 454.28 38.63L431.39 80.06C428.57 78.5 425.7 77.02 422.81 75.56L444.15 33.28C442.45 32.41 440.72 31.58 438.99 30.72L418.48 73.35C415.58 71.95 412.62 70.65 409.66 69.36L428.56 25.97C426.83 25.22 425.02 24.46 423.29 23.71L405.21 67.46C402.22 66.23 399.22 65.02 396.18 63.9L412.59 19.53C410.78 18.85 408.97 18.21 407.17 17.57L391.59 62.3C388.54 61.24 385.48 60.19 382.37 59.24L396.24 14.03C394.44 13.47 392.57 12.91 390.74 12.38L377.72 57.91C374.62 57.02 371.51 56.17 368.37 55.4L379.67 9.43C377.82 8.98 375.94 8.53 374.09 8.11L363.65 54.31C360.52 53.6 357.37 52.95 354.2 52.36L362.91 5.81C361.03 5.47 359.14 5.13 357.22 4.79L349.41 51.5C346.25 50.97 343.06 50.52 339.85 50.1L345.92 3.13C344.04 2.9 342.12 2.68 340.23 2.45L340.23 2.41 335.05 49.48C331.86 49.13 328.65 48.87 325.43 48.64L328.85 1.39C326.97 1.24 325.05 1.13 323.16 1.01L320.61 48.27C317.41 48.1 314.19 48.04 310.96 47.98L311.78 0.55C310.01 0.55 308.24 0.51 306.47 0.51L306.47 0.55 306.21 0.55 306.21 47.87C302.95 47.87 299.71 47.99 296.48 48.12L294.69 0.78C292.82 0.85 290.91 0.93 289 1.04L291.67 48.31C288.46 48.49 285.26 48.74 282.08 49.04L277.66 1.9C275.78 2.09 273.86 2.28 271.97 2.5L277.27 49.54C274.05 49.9 270.84 50.28 267.65 50.76 264.29 28.5 260.59 3.97 260.59 3.97 258.71 4.27 256.82 4.54 254.94 4.87L262.88 51.58C259.71 52.12 256.54 52.67 253.41 53.32L243.72 6.97 243.72 7.01C241.87 7.39 239.99 7.8 238.14 8.22L248.69 54.41C245.53 55.13 242.39 55.88 239.28 56.72L226.99 10.97 226.99 11.01C225.14 11.5 223.3 12.03 221.49 12.55L234.63 58.04C231.51 58.94 228.41 59.9 225.33 60.91L210.49 15.94C208.68 16.54 206.87 17.15 205.07 17.79L220.76 62.46C217.71 63.53 214.69 64.67 211.7 65.85L194.34 21.82 194.3 21.78C192.53 22.46 190.76 23.21 189.03 23.93L207.21 67.62C204.23 68.86 201.29 70.19 198.37 71.54L178.57 28.54C176.85 29.33 175.12 30.15 173.4 30.97L193.99 73.54C191.1 74.94 188.26 76.42 185.43 77.92L163.23 36.09 163.23 36.13C161.57 37.03 159.88 37.94 158.22 38.84L181.19 80.22C178.38 81.78 175.57 83.37 172.82 85.03L148.35 44.56 148.31 44.56C146.69 45.54 145.03 46.56 143.45 47.57L168.72 87.62C165.99 89.34 163.28 91.08 160.63 92.9L133.93 53.86 133.93 53.82C132.39 54.87 130.8 55.97 129.26 57.1L156.72 95.68C154.09 97.55 151.49 99.46 148.93 101.43L120.05 63.9C118.55 65.06 117.05 66.22 115.59 67.38L145.17 104.39C142.65 106.4 140.18 108.46 137.75 110.57 123.04 93.5 106.82 74.69 106.82 74.69 105.39 75.93 103.96 77.18 102.53 78.46L134.1 113.73C131.69 115.89 129.34 118.12 127.01 120.36L94.11 86.27C92.76 87.58 91.41 88.89 90.1 90.21L123.56 123.66C121.29 125.94 119.09 128.29 116.9 130.65L82.19 98.47C80.91 99.86 79.63 101.26 78.35 102.69L113.64 134.22C111.49 136.62 109.36 139.05 107.31 141.53L70.89 111.35 70.89 111.31C69.68 112.78 68.48 114.25 67.27 115.76L104.3 145.31C102.28 147.84 100.29 150.38 98.36 152.99L60.3 124.88 60.3 124.84C59.17 126.38 58.04 127.93 56.95 129.47L95.57 156.91C93.71 159.53 91.89 162.18 90.12 164.87L50.54 138.93 50.5 138.93C49.45 140.51 48.39 142.13 47.41 143.75L87.49 168.96C85.77 171.69 84.11 174.45 82.5 177.25L41.49 153.55C40.55 155.21 39.57 156.87 38.66 158.56L80.07 181.47C78.5 184.3 77.02 187.18 75.55 190.07L33.27 168.73 33.27 168.69C32.4 170.39 31.57 172.12 30.75 173.81L73.36 194.35C71.96 197.26 70.65 200.23 69.36 203.21L26.01 184.29 26.01 184.25C25.22 186.02 24.47 187.79 23.75 189.6L67.45 207.68C66.21 210.67 65.01 213.68 63.88 216.72L19.53 200.29 19.53 200.25C18.85 202.06 18.21 203.87 17.57 205.71L62.28 221.3C61.22 224.34 60.17 227.39 59.22 230.48L13.98 216.6C13.42 218.4 12.89 220.25 12.36 222.05L57.9 235.11C57.01 238.21 56.16 241.33 55.38 244.48L9.42 233.17C8.97 235.02 8.52 236.9 8.1 238.75L54.29 249.2C53.58 252.36 52.92 255.53 52.32 258.73L5.76 250.02C5.42 251.89 5.09 253.76 4.75 255.63L51.47 263.48C50.94 266.65 50.48 269.85 50.07 273.05L3.09 266.97 3.09 266.93C2.86 268.81 2.64 270.7 2.41 272.62L49.46 277.83C49.11 281.03 48.85 284.25 48.61 287.49L1.36 284.04 1.36 284C1.21 285.88 1.1 287.8 0.98 289.73L48.25 292.3C48.08 295.47 48.02 298.66 47.96 301.86L0.6 301.04 0.6 301.08C0.6 302.89 0.56 304.7 0.56 306.5L0.56 306.65 47.84 306.65C47.84 309.9 47.96 313.12 48.09 316.35L0.75 318.14C0.83 320.02 0.9 321.91 1.01 323.79L48.27 321.15C48.45 324.39 48.71 327.6 49 330.8L1.87 335.2C2.06 337.08 2.25 339 2.44 340.89L49.51 335.6C49.87 338.81 50.25 342.01 50.73 345.18L3.95 352.22C4.25 354.1 4.55 356.02 4.85 357.87L51.54 349.96C52.08 353.15 52.63 356.34 53.29 359.48L6.96 369.13C7.34 370.98 7.75 372.86 8.2 374.71L54.37 364.18C55.09 367.34 55.84 370.49 56.68 373.61L10.95 385.9C11.44 387.75 11.97 389.59 12.49 391.4L58 378.27C58.9 381.38 59.84 384.47 60.85 387.53L15.88 402.36C16.48 404.17 17.09 405.98 17.73 407.78L62.41 392.12C63.48 395.16 64.61 398.17 65.79 401.16L21.72 418.52C22.44 420.29 23.15 422.1 23.87 423.83L67.56 405.67C68.8 408.65 70.12 411.57 71.46 414.49L28.42 434.3C29.21 436 30.04 437.73 30.83 439.42L73.44 418.85C74.84 421.76 76.34 424.61 77.85 427.45L35.99 449.63C36.89 451.33 37.8 452.98 38.74 454.68L80.16 431.72C81.72 434.54 83.31 437.34 84.98 440.09L44.51 464.55C45.49 466.17 46.51 467.79 47.49 469.41L87.56 444.17C89.27 446.88 91 449.58 92.8 452.22L53.7 478.9C54.75 480.44 55.85 482.06 56.98 483.61L95.6 456.16C97.47 458.78 99.37 461.38 101.33 463.93L63.77 492.77C64.94 494.28 66.11 495.82 67.31 497.33L104.33 467.75C106.34 470.27 108.4 472.74 110.5 475.18L74.61 506.1C75.85 507.53 77.13 508.96 78.38 510.39L113.67 478.83C115.81 481.23 118.02 483.56 120.25 485.88L86.14 518.76C87.46 520.12 88.78 521.47 90.1 522.79L123.56 489.35C125.84 491.63 128.2 493.84 130.57 496.03L98.35 530.74C99.74 532.02 101.14 533.3 102.53 534.54L134.09 499.25C136.51 501.42 138.95 503.55 141.45 505.63L111.23 542.07C112.7 543.31 114.21 544.52 115.68 545.69L145.25 508.65C147.76 510.65 150.29 512.64 152.87 514.55L124.76 552.58C126.27 553.71 127.81 554.84 129.39 555.93L156.82 517.36C159.43 519.21 162.06 521.03 164.74 522.79L138.73 562.37C140.31 563.42 141.97 564.48 143.63 565.53L168.87 525.43C171.59 527.14 174.35 528.8 177.14 530.42L153.42 571.41C155.04 572.35 156.74 573.33 158.43 574.24L181.36 532.85C184.17 534.41 187.04 535.89 189.91 537.35L168.52 579.63C170.22 580.5 171.99 581.36 173.72 582.19L194.26 539.58C197.17 540.98 200.13 542.28 203.1 543.58L184.16 586.98C185.93 587.77 187.7 588.49 189.47 589.24L207.58 545.51C210.55 546.74 213.55 547.93 216.58 549.06L200.13 593.43C201.94 594.11 203.75 594.75 205.52 595.39L221.15 550.66C224.22 551.73 227.29 552.79 230.41 553.75L216.52 598.97C218.33 599.54 220.17 600.06 221.98 600.59L235.05 555.07C238.13 555.95 241.22 556.8 244.34 557.58L232.98 603.53C234.83 603.98 236.71 604.43 238.59 604.85L249.07 558.67C252.21 559.38 255.37 560.04 258.55 560.64L249.81 607.18C251.69 607.56 253.61 607.86 255.46 608.2L263.3 561.49C266.48 562.02 269.68 562.49 272.89 562.9L266.79 609.89C268.67 610.12 270.59 610.38 272.48 610.57L277.71 563.51C280.9 563.86 284.11 564.12 287.33 564.36L283.86 611.59C285.74 611.74 287.66 611.85 289.55 611.97L292.15 564.73C295.33 564.9 298.54 564.97 301.74 565.02L300.89 612.42C302.74 612.46 304.58 612.5 306.47 612.5L306.55 612.5 306.55 565.15C309.79 565.15 312.99 565.02 316.2 564.91L317.96 612.24C319.88 612.16 321.76 612.09 323.65 611.98L321.02 564.72C324.26 564.54 327.47 564.28 330.67 563.99L335.06 611.11C336.94 610.92 338.86 610.73 340.75 610.54L335.48 563.49C338.69 563.13 341.9 562.75 345.07 562.27L352.09 609.07C353.97 608.81 355.89 608.51 357.74 608.17L349.84 561.46C353.03 560.92 356.22 560.37 359.38 559.72L369.05 606.03C370.9 605.65 372.74 605.24 374.59 604.82L364.09 558.63C367.25 557.91 370.39 557.16 373.5 556.33L385.74 602.07C387.59 601.58 389.43 601.05 391.28 600.53L378.18 555.01C381.28 554.12 384.35 553.18 387.39 552.18L402.2 597.14C404.01 596.54 405.85 595.93 407.62 595.29L391.98 550.62C395.04 549.55 398.06 548.41 401.06 547.23L418.4 591.33C420.21 590.61 421.98 589.9 423.71 589.18L405.55 545.45C408.53 544.21 411.46 542.89 414.38 541.55L434.14 584.58C435.87 583.79 437.61 582.96 439.34 582.13 439.34 582.13 428.56 559.79 418.78 539.55 421.68 538.15 424.52 536.66 427.35 535.16L449.51 577.01C451.17 576.14 452.86 575.2 454.52 574.3L431.59 532.88C434.41 531.32 437.21 529.73 439.97 528.06L464.43 568.57C466.05 567.59 467.67 566.61 469.29 565.59L444.05 525.48C446.79 523.76 449.51 522.02 452.18 520.2L478.87 559.27C480.45 558.22 482 557.12 483.54 556.03L456.11 517.41C458.73 515.55 461.32 513.66 463.86 511.7L492.69 549.25C494.2 548.08 495.74 546.88 497.21 545.71L467.68 508.7C470.19 506.7 472.65 504.65 475.08 502.56L506 538.47C507.43 537.23 508.86 535.98 510.26 534.74L478.7 499.42C481.12 497.26 483.47 495.04 485.81 492.79L518.66 526.93C520.02 525.61 521.41 524.26 522.77 522.9L489.33 489.43C491.6 487.16 493.8 484.81 495.98 482.46L530.68 514.69C531.96 513.3 533.24 511.9 534.48 510.51L499.21 478.94C501.38 476.52 503.51 474.08 505.59 471.58L542.01 501.81C543.22 500.34 544.42 498.87 545.59 497.4L508.59 467.82C510.6 465.3 512.6 462.77 514.51 460.18L552.56 488.32C553.69 486.78 554.82 485.23 555.91 483.69L517.31 456.24C519.18 453.61 521.01 450.96 522.79 448.26L562.35 474.24C563.4 472.66 564.42 471.04 565.44 469.46 565.44 469.46 544.44 456.22 525.39 444.21 527.11 441.49 528.76 438.73 530.38 435.94L571.39 459.7C572.33 458.04 573.31 456.35 574.22 454.69L532.8 431.73C534.37 428.9 535.86 426.03 537.33 423.13L579.61 444.52C580.48 442.82 581.34 441.09 582.13 439.4L539.53 418.83C540.93 415.92 542.24 412.96 543.54 410L586.92 428.97C587.67 427.24 588.43 425.43 589.18 423.66L545.47 405.53C546.7 402.56 547.89 399.56 549.02 396.53L593.36 413C594.04 411.19 594.68 409.38 595.32 407.58L550.63 391.95C551.69 388.91 552.75 385.86 553.7 382.77L598.89 396.7C599.45 394.89 600.02 393.05 600.55 391.2L555.02 378.11C555.91 375 556.78 371.88 557.56 368.72L603.53 380.08C603.98 378.23 604.43 376.35 604.85 374.5L558.65 364.01C559.36 360.87 560.03 357.71 560.63 354.52L607.19 363.27C607.53 361.39 607.87 359.5 608.21 357.66L561.48 349.78C562.02 346.6 562.48 343.41 562.9 340.19L609.87 346.31C610.13 344.43 610.36 342.51 610.55 340.58L563.52 335.34C563.87 332.15 564.14 328.94 564.37 325.72L611.6 329.2C611.75 327.28 611.86 325.4 611.98 323.51L564.73 320.9C564.9 317.72 564.97 314.51 565.03 311.31L612.43 312.18C612.43 310.3 612.47 308.38 612.47 306.49L612.47 305.81C612.47 305.81 587.65 305.89 565.14 305.96ZM331.13 395.7C341.68 399.35 352.41 403.31 363.3 407.68L363.3 407.68C363.3 407.68 394.42 421.17 394.42 421.17 396.3 422.04 398.11 423.28 400 424.15L407.12 427.54C401.02 437.49 393.48 446.45 384.82 454.14 378.45 449.66 371.33 444.87 363.31 439.79L332.19 421.18C324.02 416.62 315.43 411.99 306.42 407.47 297.42 411.99 288.83 416.59 280.65 421.18L249.53 439.79C241.51 444.91 234.39 449.7 228.02 454.14 219.32 446.42 211.82 437.49 205.72 427.54 208.13 426.41 210.47 425.28 212.84 424.15 214.72 423.28 216.53 422.04 218.42 421.17L249.54 407.68C260.39 403.35 271.13 399.35 281.67 395.7 253.42 383.01 221.96 371.67 188.4 363.76 188.4 362.89 188.4 362.03 188.48 361.16 215.57 365.04 257.94 372.76 306.39 387.64 354.87 372.76 397.25 365 424.34 361.16L424.42 363.76C390.82 371.67 359.4 383.01 331.15 395.7ZM291.2 177.82C291.28 177.37 291.39 176.77 291.54 176.12 292.56 171.6 294.97 163.5 300.28 157.21 302.31 157.06 304.39 156.98 306.42 156.98 308.45 156.98 310.56 157.02 312.64 157.21L312.75 157.21C318.02 163.46 320.4 171.56 321.34 176.12 321.49 176.76 321.6 177.33 321.68 177.82 321.87 178.91 321.94 179.55 321.94 179.55 328.42 173.3 340.89 169.45 353.73 168.7L366.84 176.95C366.16 177.25 365.48 177.59 364.84 177.97 364.8 177.97 364.73 178.01 364.65 178.05 353.99 182.83 342.2 189.2 337.38 193.38 352.26 191.95 367.63 190.97 383.15 191.99 388.57 198.24 393.25 205.14 397.09 212.6 378.74 210.57 360.02 210.34 341.3 211.96 357.39 214.86 380.52 220.1 403.68 228.95 405.83 235.92 407.22 243.23 407.79 250.72 387.52 242.39 368.46 237.76 352.68 235.31 368.58 245.37 388.58 262.96 405.23 282.74 403.65 289.33 401.43 295.7 398.56 301.73 378.9 278.07 356.63 257.43 339.3 249.44 353.31 269.07 368.98 311.33 366.12 340.94 363.6 342.79 361 344.52 358.32 346.1 354.89 325.91 348 302.06 333.23 281.53 333.23 281.49 333.19 281.42 333.12 281.38 326.45 272.08 318.16 263.45 307.88 256.14 306.75 255.31 306.45 254.71 306.45 254.6 295.9 261.61 287.28 270.61 280.27 280.67 266.26 300.71 258.68 325.01 254.84 346.33 254.76 346.29 254.65 346.22 254.58 346.18 251.91 344.64 249.31 342.9 246.78 341.06 243.92 311.49 259.59 269.18 273.6 249.56 256.31 257.55 234.01 278.15 214.34 301.81 211.48 295.78 209.25 289.45 207.67 282.82 224.32 263.04 244.32 245.49 260.22 235.39 244.47 237.88 225.37 242.51 205.11 250.8 205.67 243.27 207.07 236 209.25 229.03L209.21 228.95C232.38 220.1 255.51 214.86 271.55 211.96 252.83 210.34 234.11 210.6 215.76 212.6 219.56 205.14 224.24 198.25 229.66 191.99 245.14 190.97 260.51 191.99 275.43 193.38 270.57 189.2 258.82 182.83 248.16 178.05 248.12 178.05 248.01 178.01 247.97 177.97 247.25 177.67 246.54 177.37 245.82 177.07 245.86 177.07 245.9 177.03 245.97 176.96 250.11 173.91 254.48 171.12 259.08 168.71 271.96 169.43 284.43 173.31 290.91 179.56 290.91 179.56 290.99 178.92 291.17 177.83Z" class="MsftOfcThm_Background1_Stroke_v2 MsftOfcThm_Background1_Fill_v2" stroke="#FFFFFF" stroke-linejoin="round" fill="#FFFFFF" fill-opacity="0.1"/><path d="M604.62 237.98C604.62 237.98 604.62 238.01 604.62 238.02L604.65 238.02C604.65 238.02 604.61 237.98 604.61 237.98Z" class="MsftOfcThm_Background1_Stroke_v2 MsftOfcThm_Background1_Fill_v2" stroke="#FFFFFF" stroke-linejoin="round" fill="#FFFFFF" fill-opacity="0.1"/><path d="M390.65 12.33C390.65 12.33 390.67 12.33 390.68 12.34L390.68 12.34C390.68 12.34 390.64 12.33 390.64 12.33Z" class="MsftOfcThm_Background1_Stroke_v2 MsftOfcThm_Background1_Fill_v2" stroke="#FFFFFF" stroke-linejoin="round" fill="#FFFFFF" fill-opacity="0.1"/><path d="M565.26 143.35C565.26 143.35 565.26 143.36 565.27 143.37L565.3 143.35 565.26 143.35Z" class="MsftOfcThm_Background1_Stroke_v2 MsftOfcThm_Background1_Fill_v2" stroke="#FFFFFF" stroke-linejoin="round" fill="#FFFFFF" fill-opacity="0.1"/><path d="M497 67.18C497 67.18 497.02 67.19 497.02 67.2L497.02 67.18C497.02 67.18 497 67.18 497 67.18Z" class="MsftOfcThm_Background1_Stroke_v2 MsftOfcThm_Background1_Fill_v2" stroke="#FFFFFF" stroke-linejoin="round" fill="#FFFFFF" fill-opacity="0.1"/></svg>