<svg viewBox="0 0 512 406.86" xmlns="http://www.w3.org/2000/svg" xmlns:xlink="http://www.w3.org/1999/xlink" id="Layer_1" overflow="hidden"><style>
.MsftOfcThm_Accent1_Fill_v2 {
 fill:#173863; 
}
</style>
<path d="M503.29 48.06 503.29 48.06 413.09 18.87C408.41 17.22 403.09 21.09 403.22 26.05L403.22 140.24 362.23 140.24C352.52 140.24 344.62 148.14 344.62 157.85L344.62 188.02C344.62 191.76 345.8 195.23 347.8 198.09 345.8 200.95 344.62 204.41 344.62 208.16L344.62 238.33C344.62 242.07 345.8 245.54 347.8 248.4 345.8 251.26 344.62 254.72 344.62 258.47L344.62 288.64C344.62 292.38 345.8 295.85 347.8 298.71 345.8 301.57 344.62 305.03 344.62 308.78L344.62 338.95C344.62 342.69 345.8 346.16 347.8 349.02 345.8 351.88 344.62 355.34 344.62 359.09L344.62 389.26C344.62 390.12 344.7 390.95 344.82 391.78L198.39 391.78C197 391.78 195.87 390.65 195.87 389.26L195.87 359.09C195.87 357.7 197 356.57 198.39 356.57L295.46 356.57C296.85 356.57 297.98 357.7 297.98 359.09L297.98 362.15C297.98 366.32 301.36 369.7 305.53 369.7 309.7 369.7 313.08 366.32 313.08 362.15L313.08 359.09C313.08 355.35 311.9 351.88 309.9 349.02 311.9 346.16 313.08 342.7 313.08 338.95L313.08 308.78C313.08 305.04 311.9 301.57 309.9 298.71 311.9 295.85 313.08 292.39 313.08 288.64L313.08 258.47C313.08 248.76 305.18 240.86 295.47 240.86L278 240.86C276.53 236.08 273.51 231.81 269.38 228.82L279.93 187.37C282.96 175.44 277.92 163.17 267.37 156.83 267.33 156.8 267.28 156.78 267.24 156.75L239.57 140.84C240.1 139.58 240.59 138.3 240.99 136.99L246.68 118.46 258.92 125.16C270.2 131.33 284.1 128.99 292.73 119.45L333.5 74.42C337.47 70.13 338.64 63.55 336.42 58.17 335.52 55.9 334.09 53.85 332.19 52.19 332.19 52.19 332.19 52.19 332.19 52.19L321.57 42.92C315.91 37.98 307.54 37.9 301.77 42.36 300.48 39.61 297.59 37.79 294.37 38.03 290.21 38.34 287.1 41.97 287.41 46.13L288.22 56.94 268.48 78.75 243.33 64.98C243.09 64.85 242.85 64.73 242.61 64.61 251 60.41 255.81 50.88 253.65 41.36L250.67 28.22C249.69 19.7 245.26 11.85 238.46 6.61 231.42 1.2 222.7-1 213.91 0.43 198.32 2.96 186.86 16.77 187.24 32.55 187.46 41.48 191.35 49.75 197.88 55.56 193.77 55.09 189.62 55.17 185.51 55.82L137.83 63.44C125.16 65.47 115.62 75.8 114.61 88.58L108.33 152.6C107.92 156.82 109.19 160.93 111.92 164.17 114.65 167.41 118.48 169.37 122.71 169.68L137.97 170.76C145.63 170.76 152.08 165.26 153.31 157.69 154.06 157.93 154.83 158.05 155.61 158.05 157.29 158.05 158.97 157.49 160.35 156.37L138.1 198.09 83.82 201.04C73.77 201.59 65.42 208.53 63.04 218.31L59.06 234.71C56.12 246.85 63.59 259.11 75.73 262.06 77.52 262.49 79.3 262.7 81.07 262.7 91.28 262.7 100.57 255.74 103.08 245.39L103.08 245.35C103.08 245.35 152.28 242.67 152.28 242.67 161.63 241.77 168.22 238.8 177.63 225.11 183.9 215.96 202.51 186.3 204.2 183.61 205.77 181.35 208.88 180.43 211.43 181.48L232.55 189.87 221.35 233.86C220.77 236.15 220.56 238.51 220.7 240.84L198.4 240.84C188.69 240.84 180.79 248.74 180.79 258.45L180.79 288.62C180.79 292.36 181.97 295.83 183.97 298.69 181.97 301.55 180.79 305.01 180.79 308.76L180.79 338.93C180.79 342.67 181.97 346.14 183.97 349 181.97 351.86 180.79 355.32 180.79 359.07L180.79 389.24C180.79 390.1 180.87 390.93 180.99 391.76L148.03 391.76C148.15 390.94 148.23 390.1 148.23 389.24L148.23 359.07C148.23 355.33 147.05 351.86 145.05 349 147.05 346.14 148.23 342.68 148.23 338.93L148.23 308.76C148.23 299.05 140.33 291.15 130.62 291.15L33.53 291.15C23.82 291.15 15.92 299.05 15.92 308.76L15.92 338.93C15.92 342.67 17.1 346.14 19.1 349 17.1 351.86 15.92 355.32 15.92 359.07L15.92 389.24C15.92 390.1 16 390.93 16.12 391.76L7.55 391.76C3.38 391.76 0 395.14 0 399.31 0 403.48 3.38 406.86 7.55 406.86L485.28 406.86C489.45 406.86 492.83 403.48 492.83 399.31 492.83 395.14 489.45 391.76 485.28 391.76L476.71 391.76C476.83 390.94 476.91 390.1 476.91 389.24L476.91 359.07C476.91 355.33 475.73 351.86 473.73 349 475.73 346.14 476.91 342.68 476.91 338.93L476.91 308.76C476.91 305.02 475.73 301.55 473.73 298.69 475.73 295.83 476.91 292.37 476.91 288.62L476.91 258.45C476.91 254.71 475.73 251.24 473.73 248.38 475.73 245.52 476.91 242.06 476.91 238.31L476.91 208.14C476.91 204.4 475.73 200.93 473.73 198.07 475.73 195.21 476.91 191.75 476.91 188L476.91 157.83C476.91 148.12 469.01 140.22 459.3 140.22L418.32 140.22 418.32 99.48 503.3 71.98C508.51 70.29 512.01 65.48 512.01 60.01 512.01 54.54 508.51 49.72 503.3 48.04ZM310.92 54.35C311.01 54.25 311.14 54.19 311.26 54.19 311.39 54.19 311.52 54.22 311.62 54.31L322.24 63.58C322.46 63.7 322.43 64.22 322.28 64.3L311.73 75.96 300.35 66.03 310.92 54.36ZM216.31 15.33C220.95 14.58 225.54 15.73 229.23 18.57 232.93 21.42 234.68 25.63 235.68 30.19 236.66 34.69 238.91 44.69 238.91 44.69 239.93 49.03 235.87 52.32 231.74 51.75 228.04 51.65 224.74 54.23 224.05 57.9L221.98 68.93 211.24 66.91 213.7 53.83C214.28 50.77 212.91 47.66 210.26 46.02 205.43 43.03 202.47 37.85 202.33 32.16 202.13 23.88 208.15 16.64 216.32 15.31ZM138.41 155.2C138.38 155.47 138.14 155.67 137.87 155.65L123.8 154.61C123.5 154.65 123.23 154.12 123.35 153.87L124.89 138.5 139.99 139.45 138.4 155.18ZM151.19 91.87C147.36 92.48 144.41 95.6 144.02 99.46L141.5 124.42 126.33 123.46 129.62 89.96C129.62 89.91 129.63 89.85 129.64 89.8L129.64 89.8C130.09 83.97 134.43 79.26 140.2 78.34L187.87 70.72C190.7 70.27 193.56 70.24 196.39 70.59 196.79 72.35 197.51 74.04 198.56 75.58 200.75 78.78 204.05 80.93 207.85 81.64 209.88 81.94 220.62 84.26 222.46 84.13 227.42 84.13 231.99 81.55 234.62 77.48L266.43 94.85C269.49 96.53 273.31 95.89 275.65 93.3L290.21 77.21 301.59 87.14 281.51 109.31C277.58 113.64 271.27 114.71 266.14 111.91L246.86 101.35C244.59 100.11 241.92 99.96 239.53 100.93 237.14 101.9 235.33 103.88 234.58 106.34L226.53 132.54C226.1 133.94 225.54 135.29 224.88 136.59L179.26 141.18 178.76 136.56C177.39 123.99 178.34 111.41 181.58 99.19 182.32 96.38 181.61 93.41 179.66 91.26 177.71 89.11 174.84 88.09 171.97 88.55L151.18 91.87ZM155.19 139.43 158.54 105.99 164.86 104.98C162.92 115.93 162.54 127.06 163.76 138.2L164.82 147.95 163.1 151.17C163.29 149.02 162.57 146.81 160.92 145.16L160.92 145.16 155.19 139.43ZM216.98 167.46C213.7 166.16 210.12 165.69 206.62 166.11 200.55 166.84 195.09 170.15 191.64 175.2 191.58 175.28 171.41 207.45 165.15 216.58 158.18 226.75 155.37 227.18 151.24 227.61L98.13 230.5C93.89 230.73 90.36 233.66 89.36 237.79L88.38 241.83C87.4 245.88 83.31 248.37 79.26 247.39 75.21 246.41 72.72 242.32 73.7 238.28L77.68 221.88C78.47 218.62 81.25 216.3 84.61 216.12L142 213C145.32 212.82 148.35 210.89 149.92 207.95L177.33 156.56 227.77 151.49 259.61 169.8C264.36 172.69 266.63 178.25 265.26 183.65L253.72 229C252.67 233.12 254.41 237.36 258.06 239.56L259.91 240.67C260.01 240.73 260.09 240.8 260.19 240.86L235.86 240.86C235.66 239.78 235.68 238.67 235.95 237.6L235.95 237.6C235.95 237.6 248.34 188.89 248.34 188.89 249.52 184.25 247.06 179.41 242.6 177.64L216.96 167.46ZM195.87 258.46C195.87 257.07 197 255.94 198.39 255.94L295.46 255.94C296.85 255.94 297.98 257.07 297.98 258.46L297.98 288.63C297.98 290.02 296.85 291.15 295.46 291.15L198.39 291.15C197 291.15 195.87 290.02 195.87 288.63L195.87 258.46ZM195.87 308.77C195.87 307.38 197 306.25 198.39 306.25L295.46 306.25C296.85 306.25 297.98 307.38 297.98 308.77L297.98 338.94C297.98 340.33 296.85 341.46 295.46 341.46L198.39 341.46C197 341.46 195.87 340.33 195.87 338.94L195.87 308.77ZM133.12 338.94C133.12 340.33 131.99 341.46 130.6 341.46L107.39 341.46C103.22 341.46 99.84 344.84 99.84 349.01 99.84 353.18 103.22 356.56 107.39 356.56L130.6 356.56C131.99 356.56 133.12 357.69 133.12 359.08L133.12 389.25C133.12 390.64 131.99 391.77 130.6 391.77L33.53 391.77C32.14 391.77 31.01 390.64 31.01 389.25L31.01 359.08C31.01 357.69 32.14 356.56 33.53 356.56L70.96 356.56C75.13 356.56 78.51 353.18 78.51 349.01 78.51 344.84 75.13 341.46 70.96 341.46L33.53 341.46C32.14 341.46 31.01 340.33 31.01 338.94L31.01 308.77C31.01 307.38 32.14 306.25 33.53 306.25L130.6 306.25C131.99 306.25 133.12 307.38 133.12 308.77L133.12 338.94ZM461.82 389.24C461.82 390.63 460.69 391.76 459.3 391.76L362.23 391.76C360.84 391.76 359.71 390.63 359.71 389.24L359.71 359.07C359.71 357.68 360.84 356.55 362.23 356.55L459.3 356.55C460.69 356.55 461.82 357.68 461.82 359.07L461.82 389.24ZM461.82 338.94C461.82 340.33 460.69 341.46 459.3 341.46L362.23 341.46C360.84 341.46 359.71 340.33 359.71 338.94L359.71 308.77C359.71 307.38 360.84 306.25 362.23 306.25L459.3 306.25C460.69 306.25 461.82 307.38 461.82 308.77L461.82 338.94ZM461.82 288.64C461.82 290.03 460.69 291.16 459.3 291.16L362.23 291.16C360.84 291.16 359.71 290.03 359.71 288.64L359.71 258.47C359.71 257.08 360.84 255.95 362.23 255.95L459.3 255.95C460.69 255.95 461.82 257.08 461.82 258.47L461.82 288.64ZM459.3 155.34C460.69 155.34 461.82 156.47 461.82 157.86L461.82 188.03C461.82 189.42 460.69 190.55 459.3 190.55L413.82 190.55C409.65 190.55 406.27 193.93 406.27 198.1 406.27 202.27 409.65 205.65 413.82 205.65L459.3 205.65C460.69 205.65 461.82 206.78 461.82 208.17L461.82 238.34C461.82 239.73 460.69 240.86 459.3 240.86L362.23 240.86C360.84 240.86 359.71 239.73 359.71 238.34L359.71 208.17C359.71 206.78 360.84 205.65 362.23 205.65L377.71 205.65C381.88 205.65 385.26 202.27 385.26 198.1 385.26 193.93 381.88 190.55 377.71 190.55L362.23 190.55C360.84 190.55 359.71 189.42 359.71 188.03L359.71 157.86C359.71 156.47 360.84 155.34 362.23 155.34L459.3 155.34ZM418.31 83.64 418.31 36.43 491.24 60.03 418.31 83.63Z" class="MsftOfcThm_Accent1_Fill_v2" fill="#173863"/></svg>