<svg viewBox="0 0 480 416" xmlns="http://www.w3.org/2000/svg" xmlns:xlink="http://www.w3.org/1999/xlink" id="Layer_2" overflow="hidden"><style>
.MsftOfcThm_Accent2_Fill_v2 {
 fill:#768394; 
}
</style>
<path d="M314.32 376 314.32 376C317.4 375.99 320.44 375.36 323.28 374.16L353.2 361.84C358.92 359.5 363.47 354.98 365.84 349.28 368.28 343.47 368.28 336.93 365.84 331.12 364.66 328.37 365.33 325.17 367.52 323.12 374.57 317.38 381.05 310.98 386.88 304 389.02 301.57 392.49 300.82 395.44 302.16 407.23 307.07 420.76 301.51 425.68 289.72 425.71 289.65 425.74 289.59 425.76 289.52L438.16 259.68C440.56 253.97 440.56 247.55 438.16 241.84 435.94 236.31 431.62 231.89 426.16 229.52L425.2 229.04C422.35 227.95 420.56 225.12 420.8 222.08 421.6 212.82 421.6 203.5 420.8 194.24 420.85 191.23 422.71 188.54 425.52 187.44 431.25 185.08 435.8 180.53 438.16 174.8 440.56 169.12 440.56 162.72 438.16 157.04L425.84 127.12C423.5 121.4 418.98 116.85 413.28 114.48 407.47 112.04 400.93 112.04 395.12 114.48 392.36 115.61 389.19 114.95 387.12 112.8 381.39 105.64 374.99 99.05 368 93.12 366.43 91.75 365.53 89.76 365.52 87.68 365.51 86.61 365.73 85.54 366.16 84.56 371.07 72.77 365.51 59.24 353.72 54.32 353.65 54.29 353.59 54.26 353.52 54.24L323.68 41.84C320.72 40.59 317.53 39.97 314.32 40 304.91 39.99 296.43 45.68 292.88 54.4 291.68 57.45 288.62 59.34 285.36 59.04 276.23 58.28 267.05 58.28 257.92 59.04 254.91 58.99 252.22 57.13 251.12 54.32 248.76 48.59 244.21 44.04 238.48 41.68 232.8 39.28 226.4 39.28 220.72 41.68L190.8 54C182.07 57.58 176.38 66.09 176.4 75.52 176.37 78.6 176.97 81.64 178.16 84.48 179.05 86.76 178.84 89.33 177.6 91.44L190.96 100.24C195.2 93.71 195.92 85.49 192.88 78.32 192.55 77.42 192.39 76.47 192.4 75.52 192.42 72.59 194.18 69.95 196.88 68.8L226.88 56.4C228.65 55.68 230.63 55.68 232.4 56.4 234.2 57.14 235.61 58.59 236.32 60.4 239.93 69.16 248.44 74.9 257.92 74.96L260.08 74.96C268.06 74.24 276.1 74.24 284.08 74.96 294.38 75.78 304.05 69.91 308.08 60.4 309.53 56.74 313.66 54.95 317.32 56.4 317.39 56.43 317.45 56.45 317.52 56.48L347.44 68.96C349.22 69.64 350.64 71.03 351.36 72.8 352.12 74.53 352.12 76.51 351.36 78.24 349.94 81.3 349.21 84.63 349.2 88 349.07 94.8 352.01 101.29 357.2 105.68 363.38 110.98 369.11 116.79 374.32 123.04 380.93 130.82 391.86 133.33 401.2 129.2 402.99 128.44 405.01 128.44 406.8 129.2 408.58 129.93 409.99 131.34 410.72 133.12L423.12 163.12C423.84 164.89 423.84 166.87 423.12 168.64 422.38 170.44 420.93 171.85 419.12 172.56 410.36 176.17 404.62 184.68 404.56 194.16 404.5 194.85 404.5 195.55 404.56 196.24 405.3 204.22 405.3 212.26 404.56 220.24 403.69 230.04 409.2 239.3 418.24 243.2L419.2 243.68C420.98 244.36 422.4 245.75 423.12 247.52 423.84 249.32 423.84 251.32 423.12 253.12L410.64 283.04C409.96 284.82 408.57 286.24 406.8 286.96 405.07 287.72 403.09 287.72 401.36 286.96 391.9 283.13 381.06 285.7 374.32 293.36 369.04 299.56 363.23 305.29 356.96 310.48 349.18 317.09 346.67 328.02 350.8 337.36 351.56 339.15 351.56 341.17 350.8 342.96 350.07 344.74 348.66 346.15 346.88 346.88L316.88 359.28C315.11 360 313.13 360 311.36 359.28 309.56 358.54 308.15 357.09 307.44 355.28 303.83 346.52 295.32 340.78 285.84 340.72L284 340.72C276.02 341.46 267.98 341.46 260 340.72 250.16 339.81 240.87 345.38 237.04 354.48L236.56 355.36C235.88 357.14 234.49 358.56 232.72 359.28 230.92 360 228.92 360 227.12 359.28L197.2 346.8C195.42 346.12 194 344.73 193.28 342.96 192.52 341.23 192.52 339.25 193.28 337.52 196.52 330.02 195.61 321.38 190.88 314.72L177.92 324C178.72 325.24 179.17 326.68 179.2 328.16 179.21 329.23 178.99 330.3 178.56 331.28 173.65 343.07 179.21 356.6 191 361.52 191.07 361.55 191.13 361.58 191.2 361.6L221.04 374C226.75 376.4 233.17 376.4 238.88 374 244.43 371.76 248.86 367.42 251.2 361.92 251.26 361.63 251.26 361.33 251.2 361.04 252.36 358.22 255.19 356.45 258.24 356.64 267.5 357.44 276.82 357.44 286.08 356.64 289.09 356.69 291.78 358.55 292.88 361.36 295.24 367.09 299.79 371.64 305.52 374 308.29 375.25 311.28 375.93 314.32 376Z" class="MsftOfcThm_Accent2_Fill_v2" fill="#768394"/><path d="M272 304C253.72 304.05 235.79 298.98 220.24 289.36L211.76 302.96C229.87 314.12 250.73 320.02 272 320 334.2 320.31 384.92 270.2 385.36 208 385.46 178.47 373.7 150.14 352.72 129.36 331.37 107.87 302.29 95.86 272 96 250.73 95.98 229.87 101.88 211.76 113.04L220.24 126.64C259.03 102.77 309.12 108.55 341.44 140.64 359.34 158.48 369.39 182.73 369.36 208 368.92 261.37 325.37 304.31 272 304Z" class="MsftOfcThm_Accent2_Fill_v2" fill="#768394"/><path d="M92.88 277.12 77.92 282.88C104.62 351.79 165.79 401.43 238.72 413.36L241.28 397.36C173.97 386.47 117.49 340.71 92.88 277.12Z" class="MsftOfcThm_Accent2_Fill_v2" fill="#768394"/><path d="M302.72 397.52 302.72 397.52C302.72 397.52 305.28 413.52 305.28 413.52 393.86 399.37 463.29 329.87 477.36 241.28L461.36 238.72C448.38 320.39 384.38 384.46 302.72 397.52Z" class="MsftOfcThm_Accent2_Fill_v2" fill="#768394"/><path d="M461.52 177.28 461.52 177.28 477.52 174.72C463.37 86.14 393.87 16.71 305.28 2.64L302.72 18.64C384.39 31.62 448.46 95.62 461.52 177.28Z" class="MsftOfcThm_Accent2_Fill_v2" fill="#768394"/><path d="M241.28 18.48 238.72 2.48C165.79 14.41 104.62 64.05 77.92 132.96L92.88 138.72C117.49 75.13 173.97 29.37 241.28 18.48Z" class="MsftOfcThm_Accent2_Fill_v2" fill="#768394"/><path d="M136 296C136 299.01 137.71 301.76 140.4 303.12 142.99 304.36 146.04 304.11 148.4 302.48L268.4 214.48C271.98 211.89 272.78 206.89 270.19 203.31 269.69 202.62 269.09 202.02 268.4 201.52L151.36 115.44 148.72 113.52C146.36 111.89 143.31 111.64 140.72 112.88 137.91 114.14 136.07 116.91 136 120L136 160 24 160C10.75 160 0 170.75 0 184L0 232C0 245.25 10.75 256 24 256L136 256 136 296ZM24 240C19.58 240 16 236.42 16 232L16 184C16 179.58 19.58 176 24 176L144 176C148.42 176 152 172.42 152 168L152 136 250.48 208 152 280 152 248C152 243.58 148.42 240 144 240L24 240Z" class="MsftOfcThm_Accent2_Fill_v2" fill="#768394"/><rect x="264" y="0" width="16" height="16" class="MsftOfcThm_Accent2_Fill_v2" fill="#768394"/><rect x="464" y="200" width="16" height="16" class="MsftOfcThm_Accent2_Fill_v2" fill="#768394"/><rect x="264" y="400" width="16" height="16" class="MsftOfcThm_Accent2_Fill_v2" fill="#768394"/></svg>