<svg viewBox="0 0 425.1 340.3" xmlns="http://www.w3.org/2000/svg" xmlns:xlink="http://www.w3.org/1999/xlink" id="Layer_1" overflow="hidden"><defs></defs><path d="M130.1 329.2 130.1 164.9C130.1 144.8 134.7 125.8 143 108.7L143 108.7C150.1 107.4 157.4 106.7 164.8 106.7 172.2 106.7 181.6 107.6 189.6 109.3 190.5 109.5 191.4 109.7 192.3 109.9 197.8 111.2 203.1 112.9 208.2 114.9 209.1 115.3 210 115.6 210.9 116 214.3 117.4 217.5 119 220.7 120.7 221.6 121.2 222.5 121.7 223.4 122.2 231.4 126.7 238.7 132.2 245.4 138.4 246.3 139.3 247.2 140.1 248.1 141 251.2 144 254 147.2 256.7 150.6 257.6 151.8 258.5 152.9 259.4 154.1 262.7 158.6 265.8 163.3 268.4 168.2 269.4 170 270.3 171.7 271.1 173.6 278.3 188.7 282.4 205.7 282.4 223.5L282.4 329.2 406.7 329.2 406.7 164.9C406.7 95.9 352.2 39.2 282.4 32.4 277.7 31.9 273 31.7 268.2 31.7 237.8 31.7 209.6 41.2 186.7 57.2L186.7 57.2 175.4 66.1 175.3 66.1 175.3 66.3 129.9 101.8 93.2 130.5 93.2 130.5C93.2 130.6 89.8 133.3 89.8 133.3L89.8 133.3C63.7 154.8 47 187.2 47 223.5L47 329.2 130.2 329.2Z" fill="#FFFFFF"/></svg>