<svg viewBox="0 0 228.03 290.85" xmlns="http://www.w3.org/2000/svg" xmlns:xlink="http://www.w3.org/1999/xlink" id="Layer_1" overflow="hidden"><style>
.MsftOfcThm_Background1_Fill_v2 {
 fill:#FFFFFF; 
}
</style>
<defs/><path d="M88.61 16.15 88.61 16.15C103.13 5.95 121.06 0 140.28 0 144.81 0 146.26 0 149.25 0.42 193.45 4.67 228.04 40.57 228.04 84.13L228.04 290.42 149.25 290.42 149.25 121.31C149.25 110.05 146.69 99.43 142.2 89.87 141.56 88.81 141.13 87.53 140.49 86.47 138.78 83.28 136.86 80.31 134.73 77.55 134.09 76.7 133.66 76.06 133.02 75.43 131.31 73.31 129.39 71.39 127.47 69.48 126.83 68.84 126.4 68.42 125.76 67.78 121.49 63.96 116.79 60.34 111.88 57.58 111.24 57.16 110.81 56.94 110.17 56.73 108.25 55.67 106.11 54.61 103.98 53.76 103.34 53.55 102.91 53.34 102.27 53.12 99.07 51.85 95.65 50.78 92.23 49.93 91.59 49.93 91.16 49.72 90.52 49.51 85.4 48.45 80.27 47.81 74.72 47.81 69.17 47.81 65.33 48.23 60.84 49.08L60.84 49.08C55.5 59.92 52.73 71.81 52.73 84.56L52.73 290.85 0 290.85 0 121.74C0 98.79 10.68 78.4 27.12 64.8L27.12 64.8 29.26 63.1 29.26 63.1 52.53 45.04 81.35 22.52 81.35 22.52 88.61 16.15Z" class="MsftOfcThm_Background1_Fill_v2" fill="#FFFFFF" fill-rule="evenodd" fill-opacity="0.75"/></svg>