<svg viewBox="0 0 512 418.59" xmlns="http://www.w3.org/2000/svg" xmlns:xlink="http://www.w3.org/1999/xlink" id="Layer_2" overflow="hidden"><style>
.MsftOfcThm_Accent4_Fill_v2 {
 fill:#7080AB; 
}
</style>
<path d="M251.99 357.04 251.99 357.04C251.99 357.04 159.66 357.04 159.66 357.04 157.03 357.04 154.59 358.42 153.23 360.68L131.67 396.56 110.2 360.69C108.85 358.43 106.4 357.04 103.76 357.04L22.5 357.04C18.36 357.04 15 353.68 15 349.54L15 146.75C15 142.61 18.36 139.25 22.5 139.25L62.13 139.25C62.09 167.11 75.68 193.24 98.58 209.23 104.93 213.66 108.72 220.77 108.72 228.25L108.72 272.17C108.72 278.6 112.93 284.06 118.73 285.96L127.09 305.54C128.27 308.3 130.98 310.1 133.99 310.1L160.58 310.1C163.58 310.1 166.3 308.31 167.48 305.54L175.84 285.96C181.64 284.07 185.85 278.6 185.85 272.17L185.85 228.63C185.85 220.95 189.73 213.64 196.24 209.05 218.91 193.1 232.45 167.06 232.45 139.39L232.45 139.25 355.26 139.25C359.4 139.25 362.76 135.89 362.76 131.75 362.76 127.61 359.4 124.25 355.26 124.25L231.12 124.25C222.96 69.83 157.34 36.93 108.84 63.46 105.15 65.34 103.69 69.86 105.57 73.55 107.45 77.24 111.97 78.7 115.66 76.82 193.28 39.03 257.32 146.09 187.61 196.79 177.11 204.18 170.85 216.08 170.85 228.63L170.85 240.61 154.79 240.61 154.79 188.26 184.59 143.55C186.89 140.1 185.96 135.45 182.51 133.15 179.06 130.85 174.41 131.78 172.11 135.23L147.29 172.47 122.47 135.23C120.17 131.78 115.52 130.85 112.07 133.15 108.62 135.45 107.69 140.1 109.99 143.55L139.79 188.26 139.79 240.61 123.73 240.61 123.73 228.25C123.73 215.87 117.54 204.16 107.17 196.93 74.39 174.95 67.11 126.03 92.57 95.64 95.16 92.41 94.64 87.69 91.41 85.1 88.18 82.51 83.46 83.03 80.87 86.26 72 97.33 66.05 110.46 63.52 124.25L22.5 124.25C10.09 124.25 0 134.34 0 146.75L0 349.54C0 361.95 10.09 372.04 22.5 372.04L99.52 372.04 125.23 414.99C127.91 419.79 135.41 419.79 138.09 415L163.9 372.04 251.99 372.04C256.13 372.04 259.49 368.68 259.49 364.54 259.49 360.4 256.13 357.04 251.99 357.04ZM155.62 295.09 138.93 295.09 135.33 286.66 159.21 286.66 155.61 295.09ZM123.72 255.61 170.84 255.61 170.84 271.67 123.72 271.67 123.72 255.61Z" class="MsftOfcThm_Accent4_Fill_v2" fill="#7080AB"/><path d="M489.5 124.25 489.5 124.25C489.5 124.25 387.94 124.25 387.94 124.25 383.8 124.25 380.44 127.61 380.44 131.75 380.44 135.89 383.8 139.25 387.94 139.25L489.5 139.25C493.64 139.25 497 142.61 497 146.75L497 349.54C497 353.68 493.64 357.04 489.5 357.04L284.68 357.04C280.54 357.04 277.18 360.4 277.18 364.54 277.18 368.68 280.54 372.04 284.68 372.04L489.5 372.04C501.91 372.04 512 361.95 512 349.54L512 146.75C512 134.34 501.91 124.25 489.5 124.25Z" class="MsftOfcThm_Accent4_Fill_v2" fill="#7080AB"/><path d="M457.91 176.25 271.54 176.25C267.4 176.25 264.04 179.61 264.04 183.75 264.04 187.89 267.4 191.25 271.54 191.25L457.91 191.25C462.05 191.25 465.41 187.89 465.41 183.75 465.41 179.61 462.05 176.25 457.91 176.25Z" class="MsftOfcThm_Accent4_Fill_v2" fill="#7080AB"/><path d="M457.91 207.27 271.54 207.27C267.4 207.27 264.04 210.63 264.04 214.77 264.04 218.91 267.4 222.27 271.54 222.27L457.91 222.27C462.05 222.27 465.41 218.91 465.41 214.77 465.41 210.63 462.05 207.27 457.91 207.27Z" class="MsftOfcThm_Accent4_Fill_v2" fill="#7080AB"/><path d="M457.91 238.3 271.54 238.3C267.4 238.3 264.04 241.66 264.04 245.8 264.04 249.94 267.4 253.3 271.54 253.3L457.91 253.3C462.05 253.3 465.41 249.94 465.41 245.8 465.41 241.66 462.05 238.3 457.91 238.3Z" class="MsftOfcThm_Accent4_Fill_v2" fill="#7080AB"/><path d="M457.91 269.32 271.54 269.32C267.4 269.32 264.04 272.68 264.04 276.82 264.04 280.96 267.4 284.32 271.54 284.32L457.91 284.32C462.05 284.32 465.41 280.96 465.41 276.82 465.41 272.68 462.05 269.32 457.91 269.32Z" class="MsftOfcThm_Accent4_Fill_v2" fill="#7080AB"/><path d="M387.75 307.84 387.75 307.84C387.75 303.7 384.39 300.34 380.25 300.34L271.53 300.34C267.39 300.34 264.03 303.7 264.03 307.84 264.03 311.98 267.39 315.34 271.53 315.34L380.25 315.34C384.39 315.34 387.75 311.98 387.75 307.84Z" class="MsftOfcThm_Accent4_Fill_v2" fill="#7080AB"/><path d="M147.28 30.53C151.42 30.53 154.78 27.17 154.78 23.03L154.78 7.5C154.78 3.36 151.42 0 147.28 0 143.14 0 139.78 3.36 139.78 7.5L139.78 23.03C139.78 27.17 143.14 30.53 147.28 30.53Z" class="MsftOfcThm_Accent4_Fill_v2" fill="#7080AB"/><path d="M213.42 48.25C216.94 50.3 221.58 49.13 223.66 45.51L231.43 32.06C233.5 28.47 232.27 23.89 228.69 21.81 225.1 19.74 220.52 20.97 218.45 24.56L210.68 38.01C208.61 41.6 209.84 46.18 213.42 48.25Z" class="MsftOfcThm_Accent4_Fill_v2" fill="#7080AB"/><path d="M272.08 99.42 285.53 91.65C289.12 89.58 290.35 84.99 288.27 81.41 286.2 77.82 281.61 76.59 278.03 78.67L264.58 86.44C260.99 88.51 259.76 93.1 261.84 96.68 263.23 99.09 267.23 102.09 272.08 99.42Z" class="MsftOfcThm_Accent4_Fill_v2" fill="#7080AB"/><path d="M70.9 45.51C72.98 49.13 77.62 50.31 81.15 48.25 84.74 46.18 85.97 41.59 83.89 38.01L76.12 24.56C74.05 20.97 69.46 19.75 65.87 21.82 62.28 23.89 61.05 28.48 63.13 32.06L70.9 45.51Z" class="MsftOfcThm_Accent4_Fill_v2" fill="#7080AB"/><path d="M9.03 91.65 22.48 99.42C26 101.47 30.64 100.3 32.72 96.68 34.79 93.09 33.56 88.51 29.98 86.44L16.53 78.67C12.94 76.6 8.36 77.83 6.29 81.41 4.22 85 5.45 89.58 9.03 91.65Z" class="MsftOfcThm_Accent4_Fill_v2" fill="#7080AB"/></svg>