<svg viewBox="0 0 162.43 162.46" xmlns="http://www.w3.org/2000/svg" xmlns:xlink="http://www.w3.org/1999/xlink" id="Layer_1" overflow="hidden"><defs></defs><path d="M3.55 57.37 3.56 57.37 3.56 57.37 3.55 57.37Z" fill="#283477" fill-opacity="0.05"/><path d="M24.82 22.77 24.82 22.78 24.83 22.77 24.82 22.77Z" fill="#283477" fill-opacity="0.05"/><path d="M31.71 16.83 31.71 16.83 31.72 16.83 31.71 16.83Z" fill="#283477" fill-opacity="0.05"/><path d="M0 79.78 0.01 79.78 0.01 79.78 0 79.78Z" fill="#283477" fill-opacity="0.05"/><path d="M1.37 66.24 1.38 66.24 1.38 66.24 1.37 66.24Z" fill="#283477" fill-opacity="0.05"/><path d="M1.38 66.23 1.38 66.24 1.38 66.24 1.38 66.23Z" fill="#283477" fill-opacity="0.05"/><path d="M47.25 7.44 47.25 7.44 47.26 7.44 47.25 7.44Z" fill="#283477" fill-opacity="0.05"/><path d="M78.08 0.07 78.08 0.07 78.09 0.07 78.08 0.07Z" fill="#283477" fill-opacity="0.05"/><path d="M156.2 50.03 156.2 50.03 156.21 50.03 156.2 50.03Z" fill="#283477" fill-opacity="0.05"/><path d="M149.87 81.09C149.87 80.24 149.84 79.39 149.81 78.55L162.38 78.06C162.36 77.56 162.34 77.06 162.31 76.56L149.76 77.27C149.71 76.41 149.65 75.56 149.57 74.72L162.09 73.54C162.04 73.04 161.99 72.53 161.93 72.03L149.44 73.44C149.34 72.59 149.24 71.73 149.12 70.89L161.55 69.01C161.47 68.51 161.39 68.01 161.31 67.51L161.31 67.51C161.31 67.51 148.92 69.63 148.92 69.63 148.78 68.78 148.63 67.94 148.45 67.1L160.74 64.53C160.64 64.04 160.53 63.55 160.41 63.05L148.16 65.86C147.97 65.02 147.77 64.19 147.55 63.36L159.68 60.09C159.55 59.6 159.41 59.11 159.27 58.63L147.2 62.13C146.96 61.3 146.71 60.48 146.44 59.67L158.37 55.72C158.21 55.24 158.05 54.76 157.88 54.29L157.88 54.29C157.88 54.29 146.02 58.45 146.02 58.45 145.74 57.64 145.43 56.84 145.12 56.05L156.81 51.43C156.63 50.96 156.44 50.49 156.24 50.03L144.65 54.85C144.32 54.06 143.97 53.28 143.61 52.5L155.03 47.23C154.82 46.77 154.6 46.31 154.38 45.86L143.08 51.33C142.71 50.56 142.31 49.81 141.91 49.06L153.01 43.16C152.77 42.72 152.53 42.27 152.29 41.83L141.3 47.93C140.88 47.18 140.46 46.43 140.02 45.7L150.76 39.2C150.5 38.77 150.23 38.34 149.96 37.91L139.33 44.62C138.88 43.9 138.42 43.18 137.93 42.48L148.3 35.38C148.02 34.97 147.73 34.55 147.43 34.14L137.18 41.44C136.68 40.74 136.18 40.06 135.66 39.38L145.62 31.71C145.31 31.31 145 30.91 144.69 30.52L144.69 30.52C144.69 30.52 134.87 38.37 134.87 38.37 134.34 37.7 133.79 37.05 133.23 36.4L142.74 28.19C142.41 27.81 142.08 27.43 141.74 27.06L141.75 27.06C141.75 27.06 132.39 35.43 132.39 35.43 131.82 34.79 131.23 34.17 130.63 33.55L139.68 24.82C139.33 24.46 138.97 24.1 138.62 23.74L129.74 32.63C129.14 32.03 128.52 31.45 127.89 30.87L136.44 21.65C136.07 21.31 135.7 20.97 135.32 20.63L135.32 20.63C135.32 20.63 126.95 30.01 126.95 30.01 126.31 29.44 125.67 28.87 125.01 28.33L133.02 18.66C132.63 18.34 132.24 18.02 131.85 17.7L124.01 27.53C123.34 27 122.67 26.47 121.98 25.96L129.44 15.85C129.04 15.55 128.63 15.26 128.22 14.96L120.94 25.22C120.24 24.72 119.54 24.24 118.82 23.77L125.7 13.26C125.28 12.98 124.84 12.71 124.42 12.44L124.42 12.44C124.42 12.44 117.73 23.07 117.73 23.07 117.01 22.61 116.27 22.17 115.53 21.75L121.82 10.86C121.39 10.61 120.94 10.36 120.49 10.11L114.41 21.11C113.66 20.7 112.9 20.3 112.13 19.92L117.79 8.7C117.34 8.47 116.88 8.25 116.42 8.02L110.98 19.34C110.21 18.97 109.42 18.62 108.64 18.28L113.66 6.76C113.2 6.56 112.72 6.36 112.26 6.16L107.46 17.77C106.67 17.44 105.87 17.12 105.06 16.82L109.42 5.04C108.94 4.86 108.46 4.69 107.98 4.52L103.84 16.39C103.03 16.11 102.22 15.83 101.39 15.58L105.07 3.58C104.59 3.43 104.1 3.28 103.61 3.14L100.15 15.23C99.33 14.99 98.5 14.77 97.67 14.56L100.67 2.36C100.18 2.24 99.68 2.12 99.19 2.01L96.42 14.27C95.59 14.08 94.75 13.91 93.91 13.75L96.22 1.39C95.72 1.3 95.22 1.21 94.71 1.12L92.64 13.52C91.8 13.38 90.95 13.26 90.1 13.15L91.71 0.68C91.21 0.62 90.7 0.56 90.2 0.5L90.2 0.5C90.2 0.5 88.82 12.99 88.82 12.99 87.97 12.9 87.12 12.83 86.27 12.77L87.18 0.23C86.68 0.19 86.17 0.16 85.67 0.13L84.99 12.68C84.14 12.63 83.29 12.62 82.43 12.6L82.62 0.01C82.15 0.01 81.68 0 81.21 0L81.21 0C81.21 0 81.14 0.01 81.14 0.01L81.14 12.57C80.27 12.57 79.41 12.6 78.56 12.64L78.08 0.07C77.58 0.09 77.08 0.11 76.57 0.14L77.28 12.69C76.43 12.74 75.58 12.8 74.73 12.88L73.56 0.37C73.06 0.42 72.55 0.47 72.05 0.53L73.46 13.02C72.61 13.12 71.75 13.22 70.91 13.34 70.02 7.43 69.04 0.92 69.04 0.92 68.54 1 68.04 1.07 67.54 1.16L69.65 13.56C68.81 13.7 67.97 13.85 67.14 14.02L64.57 1.72 64.57 1.72C64.08 1.83 63.58 1.94 63.09 2.05L65.89 14.31C65.05 14.5 64.22 14.7 63.39 14.92L60.13 2.78 60.13 2.78C59.64 2.92 59.15 3.06 58.67 3.2L62.16 15.27C61.33 15.51 60.51 15.76 59.69 16.03L55.75 4.09C55.27 4.25 54.79 4.41 54.31 4.58L58.48 16.44C57.67 16.72 56.87 17.03 56.07 17.34L51.46 5.65 51.45 5.65C50.98 5.82 50.51 6.02 50.05 6.21L54.88 17.81C54.09 18.14 53.31 18.49 52.53 18.85L47.27 7.44C46.81 7.65 46.36 7.87 45.9 8.09L51.37 19.39C50.6 19.76 49.85 20.16 49.1 20.55L43.21 9.45 43.21 9.45C42.77 9.7 42.32 9.94 41.88 10.18L47.98 21.17C47.23 21.58 46.49 22.01 45.76 22.45L39.26 11.71 39.26 11.71C38.83 11.97 38.39 12.24 37.97 12.51L44.68 23.14C43.96 23.6 43.24 24.06 42.53 24.54L35.44 14.18 35.44 14.18C35.03 14.45 34.61 14.74 34.2 15.04L41.49 25.28C40.79 25.78 40.1 26.28 39.42 26.81L31.75 16.85C31.35 17.16 30.95 17.47 30.57 17.78L38.42 27.6C37.75 28.13 37.1 28.68 36.45 29.24 32.54 24.71 28.24 19.72 28.24 19.72 27.86 20.05 27.48 20.38 27.1 20.72L35.48 30.08C34.84 30.65 34.22 31.24 33.6 31.84L24.87 22.79C24.51 23.14 24.15 23.49 23.81 23.83L32.69 32.71C32.09 33.31 31.5 33.94 30.92 34.57L21.71 26.03C21.37 26.4 21.03 26.77 20.69 27.15L30.06 35.52C29.49 36.16 28.93 36.8 28.38 37.46L18.71 29.45 18.71 29.45C18.39 29.83 18.07 30.22 17.75 30.62L27.58 38.47C27.04 39.14 26.51 39.82 26 40.51L15.9 33.05 15.9 33.05C15.6 33.45 15.3 33.86 15.01 34.27L25.26 41.55C24.77 42.25 24.28 42.95 23.81 43.66L13.3 36.77 13.29 36.77C13.01 37.19 12.73 37.62 12.47 38.05L23.11 44.74C22.65 45.46 22.21 46.2 21.78 46.94L10.89 40.65C10.64 41.09 10.38 41.53 10.14 41.98L21.13 48.06C20.71 48.81 20.32 49.58 19.93 50.34L8.71 44.68 8.71 44.68C8.48 45.12 8.26 45.58 8.04 46.03L19.35 51.48C18.98 52.25 18.63 53.04 18.29 53.83L6.78 48.81 6.78 48.81C6.57 49.27 6.37 49.74 6.18 50.22L17.78 55.02C17.45 55.81 17.13 56.61 16.83 57.42L5.06 53.06 5.06 53.06C4.88 53.53 4.71 54.01 4.54 54.5L16.41 58.64C16.13 59.45 15.85 60.26 15.6 61.08L3.59 57.4C3.44 57.88 3.3 58.37 3.16 58.85L15.25 62.32C15.01 63.14 14.79 63.97 14.58 64.81L2.38 61.81C2.26 62.3 2.14 62.8 2.03 63.29L14.29 66.06C14.1 66.9 13.93 67.74 13.77 68.59L1.41 66.28C1.32 66.78 1.23 67.27 1.14 67.77L13.54 69.85C13.4 70.69 13.28 71.54 13.17 72.39L0.7 70.78 0.7 70.78C0.64 71.27 0.58 71.77 0.52 72.28L13.01 73.66C12.92 74.51 12.85 75.37 12.79 76.22L0.25 75.3 0.21 75.3C0.17 75.79 0.14 76.3 0.11 76.81L12.66 77.49C12.61 78.33 12.6 79.18 12.58 80.03L0.01 79.78 0.01 79.78C0.01 80.27 0 80.75 0 81.23L0 81.27 12.55 81.27C12.55 82.13 12.58 82.99 12.62 83.84L0.05 84.32C0.07 84.82 0.09 85.32 0.12 85.82L12.67 85.12C12.72 85.98 12.79 86.83 12.86 87.68L0.35 88.85C0.4 89.35 0.45 89.86 0.5 90.36L12.99 88.96C13.09 89.81 13.19 90.66 13.31 91.5L0.89 93.37C0.97 93.87 1.05 94.38 1.13 94.87L13.52 92.77C13.66 93.62 13.81 94.46 13.98 95.3L1.68 97.86C1.78 98.35 1.89 98.85 2.01 99.34L14.27 96.55C14.46 97.39 14.66 98.23 14.88 99.05L2.74 102.31C2.87 102.8 3.01 103.29 3.15 103.77L15.23 100.29C15.47 101.12 15.72 101.94 15.99 102.75L4.05 106.69C4.21 107.17 4.37 107.65 4.54 108.13L16.4 103.97C16.68 104.78 16.98 105.58 17.3 106.37L5.6 110.98C5.79 111.45 5.98 111.93 6.17 112.39L17.77 107.57C18.1 108.36 18.45 109.14 18.81 109.91L7.39 115.17C7.6 115.62 7.82 116.08 8.03 116.53L19.34 111.07C19.71 111.84 20.11 112.6 20.51 113.35L9.4 119.24C9.64 119.69 9.88 120.13 10.13 120.58L21.12 114.48C21.53 115.23 21.96 115.97 22.4 116.7L11.66 123.19C11.92 123.62 12.19 124.05 12.45 124.48L23.09 117.78C23.54 118.5 24 119.22 24.48 119.92L14.1 127C14.38 127.41 14.67 127.84 14.97 128.25L25.22 120.96C25.72 121.66 26.22 122.35 26.74 123.02L16.77 130.68C17.08 131.08 17.39 131.49 17.71 131.89L27.54 124.04C28.07 124.71 28.62 125.36 29.18 126.01L19.65 134.22C19.98 134.6 20.32 134.98 20.65 135.36L30.02 126.98C30.59 127.62 31.18 128.24 31.77 128.85L22.71 137.58C23.06 137.94 23.41 138.3 23.76 138.65L32.64 129.77C33.25 130.38 33.87 130.96 34.5 131.54L25.95 140.75C26.32 141.09 26.69 141.43 27.06 141.76L35.44 132.39C36.08 132.96 36.73 133.53 37.39 134.08L29.37 143.75C29.76 144.08 30.16 144.4 30.55 144.71L38.4 134.88C39.07 135.41 39.74 135.94 40.42 136.45L32.96 146.54C33.36 146.84 33.77 147.14 34.19 147.43L41.47 137.19C42.16 137.68 42.86 138.16 43.57 138.63L36.67 149.14C37.09 149.42 37.53 149.7 37.97 149.98L44.67 139.34C45.39 139.8 46.12 140.23 46.87 140.66L40.57 151.54C41 151.79 41.45 152.05 41.9 152.29L47.99 141.3C48.74 141.71 49.5 142.11 50.26 142.49L44.58 153.71C45.03 153.94 45.5 154.17 45.96 154.39L51.41 143.08C52.18 143.45 52.97 143.8 53.76 144.14L48.73 155.66C49.2 155.87 49.67 156.06 50.14 156.26L54.95 144.65C55.74 144.98 56.53 145.29 57.34 145.59L52.97 157.37C53.45 157.55 53.93 157.72 54.4 157.89L58.55 146.02C59.36 146.3 60.18 146.59 61.01 146.84L57.32 158.84C57.8 158.99 58.29 159.13 58.77 159.27L62.24 147.19C63.06 147.42 63.88 147.65 64.71 147.86L61.69 160.06C62.18 160.18 62.68 160.3 63.18 160.41L65.96 148.15C66.79 148.34 67.63 148.51 68.48 148.67L66.16 161.03C66.66 161.13 67.17 161.21 67.66 161.3L69.74 148.9C70.58 149.04 71.43 149.16 72.29 149.28L70.67 161.75C71.17 161.81 71.68 161.88 72.18 161.93L73.57 149.44C74.42 149.53 75.27 149.6 76.12 149.67L75.2 162.21C75.7 162.25 76.21 162.28 76.71 162.31L77.4 149.77C78.24 149.82 79.1 149.83 79.95 149.85L79.72 162.43C80.21 162.44 80.7 162.45 81.2 162.45L81.22 162.45 81.22 149.88C82.08 149.88 82.93 149.85 83.78 149.82L84.25 162.39C84.76 162.37 85.26 162.35 85.76 162.32L85.06 149.78C85.92 149.73 86.77 149.66 87.62 149.59L88.78 162.1C89.28 162.05 89.79 162 90.29 161.95L88.89 149.46C89.74 149.36 90.59 149.26 91.44 149.14L93.3 161.56C93.8 161.49 94.31 161.41 94.8 161.32L92.7 148.92C93.55 148.78 94.39 148.63 95.23 148.46L97.8 160.75C98.29 160.65 98.78 160.54 99.27 160.43L96.48 148.17C97.32 147.98 98.15 147.78 98.98 147.56L102.23 159.7C102.72 159.57 103.21 159.43 103.7 159.29L100.22 147.21C101.04 146.97 101.86 146.72 102.67 146.46L106.6 158.4C107.08 158.24 107.57 158.08 108.04 157.91L103.89 146.05C104.7 145.77 105.5 145.46 106.3 145.15L110.9 156.86C111.38 156.67 111.85 156.48 112.31 156.29L107.49 144.68C108.28 144.35 109.06 144 109.83 143.64L115.08 155.06C115.54 154.85 116 154.63 116.46 154.41 116.46 154.41 113.6 148.48 111 143.11 111.77 142.74 112.52 142.34 113.28 141.94L119.16 153.05C119.6 152.82 120.05 152.57 120.49 152.33L114.4 141.33C115.15 140.92 115.89 140.49 116.62 140.05L123.11 150.8C123.54 150.54 123.97 150.28 124.4 150.01L117.7 139.36C118.43 138.9 119.15 138.44 119.86 137.96L126.94 148.33C127.36 148.05 127.77 147.76 128.18 147.47L120.9 137.22C121.59 136.73 122.28 136.22 122.96 135.7L130.61 145.67C131.01 145.36 131.42 145.04 131.81 144.73L123.97 134.91C124.64 134.38 125.29 133.84 125.93 133.28L134.14 142.81C134.52 142.48 134.9 142.15 135.27 141.82L126.89 132.45C127.53 131.88 128.16 131.29 128.78 130.69L137.5 139.75C137.86 139.4 138.23 139.04 138.59 138.68L129.71 129.8C130.31 129.2 130.9 128.57 131.48 127.95L140.69 136.51C141.03 136.14 141.37 135.77 141.7 135.4L132.34 127.02C132.92 126.38 133.48 125.73 134.03 125.07L143.7 133.1C144.02 132.71 144.34 132.32 144.65 131.93L134.83 124.08C135.36 123.41 135.89 122.74 136.4 122.05L146.5 129.52C146.8 129.11 147.1 128.7 147.39 128.29L137.14 121C137.64 120.3 138.12 119.6 138.59 118.88L149.09 125.78C149.37 125.36 149.64 124.93 149.91 124.51 149.91 124.51 144.34 121 139.28 117.81 139.74 117.09 140.18 116.36 140.6 115.62L151.49 121.93C151.74 121.49 152 121.04 152.24 120.6L141.25 114.5C141.67 113.75 142.06 112.99 142.45 112.22L153.67 117.9C153.9 117.45 154.13 116.99 154.34 116.54L143.03 111.08C143.4 110.31 143.75 109.52 144.09 108.73L155.6 113.76C155.8 113.3 156 112.82 156.2 112.35L144.6 107.54C144.93 106.75 145.24 105.96 145.54 105.15L157.31 109.52C157.49 109.04 157.66 108.56 157.83 108.08L145.97 103.93C146.25 103.12 146.53 102.31 146.79 101.49L158.79 105.19C158.94 104.71 159.09 104.22 159.23 103.73L147.14 100.26C147.38 99.43 147.61 98.61 147.81 97.77L160.01 100.79C160.13 100.3 160.25 99.8 160.36 99.31L148.1 96.53C148.29 95.7 148.47 94.86 148.62 94.01L160.98 96.33C161.07 95.83 161.16 95.33 161.25 94.84L148.84 92.75C148.98 91.91 149.11 91.06 149.22 90.21L161.69 91.84C161.76 91.34 161.82 90.83 161.87 90.32L149.38 88.93C149.47 88.08 149.54 87.23 149.61 86.38L162.15 87.3C162.19 86.79 162.22 86.29 162.25 85.79L149.71 85.1C149.76 84.26 149.77 83.4 149.79 82.55L162.37 82.78C162.37 82.28 162.38 81.77 162.38 81.27L162.38 81.09C162.38 81.09 155.79 81.11 149.82 81.13ZM87.77 104.91C90.57 105.88 93.42 106.93 96.31 108.09L96.31 108.09C96.31 108.09 104.57 111.67 104.57 111.67 105.07 111.9 105.55 112.23 106.05 112.46L107.94 113.36C106.32 116 104.32 118.38 102.02 120.42 100.33 119.23 98.44 117.96 96.31 116.61L88.05 111.67C85.88 110.46 83.6 109.23 81.21 108.03 78.82 109.23 76.54 110.45 74.37 111.67L66.11 116.61C63.98 117.97 62.09 119.24 60.4 120.42 58.09 118.37 56.1 116 54.48 113.36 55.12 113.06 55.74 112.76 56.37 112.46 56.87 112.23 57.35 111.9 57.85 111.67L66.11 108.09C68.99 106.94 71.84 105.88 74.64 104.91 67.14 101.54 58.79 98.53 49.88 96.43 49.88 96.2 49.88 95.97 49.9 95.74 57.09 96.77 68.34 98.82 81.2 102.77 94.07 98.82 105.32 96.76 112.51 95.74L112.53 96.43C103.61 98.53 95.27 101.54 87.77 104.91ZM77.17 47.07C77.19 46.95 77.22 46.79 77.26 46.62 77.53 45.42 78.17 43.27 79.58 41.6 80.12 41.56 80.67 41.54 81.21 41.54 81.75 41.54 82.31 41.55 82.86 41.6L82.89 41.6C84.29 43.26 84.92 45.41 85.17 46.62 85.21 46.79 85.24 46.94 85.26 47.07 85.31 47.36 85.33 47.53 85.33 47.53 87.05 45.87 90.36 44.85 93.77 44.65L97.25 46.84C97.07 46.92 96.89 47.01 96.72 47.11 96.71 47.11 96.69 47.12 96.67 47.13 93.84 48.4 90.71 50.09 89.43 51.2 93.38 50.82 97.46 50.56 101.58 50.83 103.02 52.49 104.26 54.32 105.28 56.3 100.41 55.76 95.44 55.7 90.47 56.13 94.74 56.9 100.88 58.29 107.03 60.64 107.6 62.49 107.97 64.43 108.12 66.42 102.74 64.21 97.68 62.98 93.49 62.33 97.71 65 103.02 69.67 107.44 74.92 107.02 76.67 106.43 78.36 105.67 79.96 100.45 73.68 94.54 68.2 89.94 66.08 93.66 71.29 97.82 82.51 97.06 90.37 96.39 90.86 95.7 91.32 94.99 91.74 94.08 86.38 92.25 80.05 88.33 74.6 88.33 74.59 88.32 74.57 88.3 74.56 86.53 72.09 84.33 69.8 81.6 67.86 81.3 67.64 81.22 67.48 81.22 67.45 78.42 69.31 76.13 71.7 74.27 74.37 70.55 79.69 68.54 86.14 67.52 91.8 67.5 91.79 67.47 91.77 67.45 91.76 66.74 91.35 66.05 90.89 65.38 90.4 64.62 82.55 68.78 71.32 72.5 66.11 67.91 68.23 61.99 73.7 56.77 79.98 56.01 78.38 55.42 76.7 55 74.94 59.42 69.69 64.73 65.03 68.95 62.35 64.77 63.01 59.7 64.24 54.32 66.44 54.47 64.44 54.84 62.51 55.42 60.66L55.42 60.64C61.56 58.29 67.7 56.9 71.96 56.13 66.99 55.7 62.02 55.77 57.15 56.3 58.16 54.32 59.4 52.49 60.84 50.83 64.95 50.56 69.03 50.83 72.99 51.2 71.7 50.09 68.58 48.4 65.75 47.13 65.74 47.13 65.71 47.12 65.7 47.11 65.51 47.03 65.32 46.95 65.13 46.87 65.14 46.87 65.15 46.86 65.17 46.84 66.27 46.03 67.43 45.29 68.65 44.65 72.07 44.84 75.38 45.87 77.1 47.53 77.1 47.53 77.12 47.36 77.17 47.07Z" fill="#283477" fill-opacity="0.05"/><path d="M160.37 63.04 160.37 63.05 160.38 63.05 160.37 63.04Z" fill="#283477" fill-opacity="0.05"/><path d="M103.57 3.14 103.58 3.14 103.58 3.14 103.57 3.14Z" fill="#283477" fill-opacity="0.05"/><path d="M149.92 37.92 149.92 37.92 149.93 37.92 149.92 37.92Z" fill="#283477" fill-opacity="0.05"/><path d="M131.8 17.7 131.81 17.7 131.81 17.7 131.8 17.7Z" fill="#283477" fill-opacity="0.05"/></svg>