<svg viewBox="0 0 666.55 290.85" xmlns="http://www.w3.org/2000/svg" xmlns:xlink="http://www.w3.org/1999/xlink" id="Layer_1" overflow="hidden"><defs/><path d="M527.12 16.15 527.12 16.15C541.64 5.95 559.57 0 578.79 0 583.32 0 584.77 0 587.76 0.42 631.96 4.67 666.55 40.57 666.55 84.13L666.55 290.42 587.76 290.42 587.76 121.31C587.76 110.05 585.2 99.43 580.71 89.87 580.07 88.81 579.64 87.53 579 86.47 577.29 83.28 575.37 80.31 573.24 77.55 572.6 76.7 572.17 76.06 571.53 75.43 569.82 73.31 567.9 71.39 565.98 69.48 565.34 68.84 564.91 68.42 564.27 67.78 560 63.96 555.3 60.34 550.39 57.58 549.75 57.16 549.32 56.94 548.68 56.73 546.76 55.67 544.62 54.61 542.49 53.76 541.85 53.55 541.42 53.34 540.78 53.12 537.58 51.85 534.16 50.78 530.74 49.93 530.1 49.93 529.67 49.72 529.03 49.51 523.91 48.45 518.78 47.81 513.23 47.81 507.68 47.81 503.84 48.23 499.35 49.08L499.35 49.08C494.01 59.92 491.24 71.81 491.24 84.56L491.24 290.85 438.5 290.85 438.5 121.74C438.5 98.79 449.18 78.4 465.62 64.8L465.62 64.8 467.76 63.1 467.76 63.1 491.03 45.04 519.85 22.52 519.85 22.52 527.11 16.15Z" fill="#FFFFFF" fill-rule="evenodd"/><path d="M559.55 237.6 559.55 290.85 557.79 290.85 557.79 236.54 559.55 237.6 559.55 237.6 559.55 237.6Z" fill="#FFFFFF" fill-rule="evenodd"/><path d="M559.55 104.24 559.55 154.19 557.79 153.11 557.79 103.37 559.55 104.24 559.55 104.24 559.55 104.24Z" fill="#FFFFFF" fill-rule="evenodd"/><path d="M554.29 234.11 554.29 290.85 552.53 290.85 552.53 233.03 554.29 234.11 554.29 234.11 554.29 234.11Z" fill="#FFFFFF" fill-rule="evenodd"/><path d="M554.29 102.48 554.29 152.43 552.53 151.36 552.53 101.62 554.29 102.48 554.29 102.48 554.29 102.48Z" fill="#FFFFFF" fill-rule="evenodd"/><path d="M550.78 230.4 550.78 290.85 549.02 290.85 549.02 229.53 550.78 230.4 550.78 230.4 550.78 230.4Z" fill="#FFFFFF" fill-rule="evenodd"/><path d="M550.78 99.2 550.78 148.93 549.02 148.07 549.02 98.12 550.78 99.2 550.78 99.2 550.78 99.2Z" fill="#FFFFFF" fill-rule="evenodd"/><path d="M550.78 57.11 550.78 84.11 549.03 83.07 549.03 56.07C549.69 56.28 550.13 56.69 550.78 56.9" fill="#FFFFFF" fill-rule="evenodd"/><path d="M566.57 68.09 566.57 108.63 564.82 107.77 564.82 66.58C565.48 67.23 565.92 67.66 566.57 68.31" fill="#FFFFFF" fill-rule="evenodd"/><path d="M573.58 75.94 573.58 161.2 571.83 160.13 571.83 73.59C572.49 74.23 572.93 75.09 573.58 75.73" fill="#FFFFFF" fill-rule="evenodd"/><path d="M542.01 51.57 542.01 143.67 527.98 136.21 527.98 47.31C528.64 47.31 529.08 47.52 529.73 47.74L529.73 135.15 540.04 140.69 540.04 50.72C540.7 50.93 541.14 51.15 541.79 51.36" fill="#FFFFFF" fill-rule="evenodd"/><path d="M580.51 163.99 580.51 89.26C579.88 88.2 579.47 86.92 578.84 85.85L578.84 165.05 587.61 169.95 587.61 168.03 580.72 163.98 580.51 163.98Z" fill="#FFFFFF" fill-rule="evenodd"/><path d="M573.58 189.08 573.58 290.85 571.87 290.85 571.87 189.93 566.52 186.95 566.52 240.82 564.81 239.97 564.81 183.97 573.58 189.08 573.58 189.08 573.58 189.08Z" fill="#FFFFFF" fill-rule="evenodd"/><path d="M589.37 180.13 589.37 182.22 588.08 181.39 587.44 181.18 527.98 149.05 527.98 147.18 587.44 179.09 589.37 180.13 589.37 180.13 589.37 180.13Z" fill="#FFFFFF" fill-rule="evenodd"/><path d="M589.37 187.26 589.37 189.23 588.08 188.57 587.44 188.13 527.98 154.62 527.98 152.43 587.44 186.16 589.37 187.26 589.37 187.26 589.37 187.26Z" fill="#FFFFFF" fill-rule="evenodd"/><path d="M550.78 175.01 550.78 177.16 548.97 176.08 542.42 172.64 542.42 290.85 527.98 290.85 527.98 162.95 530.01 163.81 530.01 289.13 540.62 289.13 540.62 169.62 548.97 174.14 550.78 175.01 550.78 175.01 550.78 175.01Z" fill="#FFFFFF" fill-rule="evenodd"/><path d="M587.68 195.93 578.84 190.98 578.84 290.85 589.36 290.85 589.36 197.01 587.47 195.93 587.68 195.93ZM587.89 288.91 580.73 288.91 580.73 193.77 587.68 197.86 587.68 197.86 587.68 288.91 587.89 288.91Z" fill="#FFFFFF" fill-rule="evenodd"/><path d="M566.15 106.38 568.32 108.13 568.32 110.38 566.15 108.63 564.81 107.63 564.81 105.13 566.15 106.38 566.15 106.38 566.15 106.38Z" fill="#FFFFFF" fill-rule="evenodd"/><path d="M573.58 109.88 573.58 112.14 571.83 110.88 571.83 108.63 573.58 109.88 573.58 109.88 573.58 109.88Z" fill="#FFFFFF" fill-rule="evenodd"/><path d="M549.02 175.21 549.02 177.08 549.02 205.92 550.78 206.75 550.78 178.12 550.78 176.04 549.02 175.21 549.02 175.21 549.02 175.21Z" fill="#FFFFFF" fill-rule="evenodd"/><path d="M568.32 239.54 568.32 241.79 566.15 240.04 564.81 238.79 564.81 236.54 566.15 237.79 568.32 239.54 568.32 239.54 568.32 239.54Z" fill="#FFFFFF" fill-rule="evenodd"/><path d="M95.62 190.37C95.41 188.68 95.19 187.2 94.76 185.72L86.18 186.99C86.39 188.68 86.82 190.16 87.04 191.64 87.25 193.12 87.47 194.6 87.68 195.87L87.68 206.65 81.68 206.65C81.04 206.65 80.18 206.65 79.54 206.23 79.11 206.23 78.9 205.81 78.47 205.6 78.9 203.7 79.33 201.37 79.33 198.84L79.33 188.7 70.54 188.7 70.54 198.84C70.54 201.16 70.54 202.85 70.11 203.91 69.9 204.97 69.47 205.81 68.82 206.02 68.18 206.44 67.32 206.65 66.03 206.65L61.96 206.65 61.96 185.73 33.66 185.73C30.87 185.73 28.3 186.15 26.16 187 24.02 187.85 22.3 189.11 21.23 190.59 20.16 192.28 19.51 194.18 19.51 196.72 19.51 199.26 19.72 199.68 20.37 200.73 20.8 201.79 21.66 202.84 22.94 203.48 24.01 204.33 25.51 204.96 27.23 205.59 28.95 206.22 31.09 207.07 33.45 207.7 35.38 208.33 36.88 208.76 37.95 209.18 39.02 209.6 39.67 210.24 40.09 210.87 40.52 211.5 40.73 212.35 40.73 213.62 40.73 215.73 40.09 217.42 39.01 218.69 37.94 219.75 36.22 220.38 33.86 220.38L17.78 220.38C15.85 220.38 14.35 220.17 12.85 219.53 11.56 218.9 10.49 218.05 9.63 217.21 8.77 216.15 8.56 215.1 8.56 213.62 8.56 212.14 8.56 211.72 8.77 209.82 8.77 208.13 9.2 206.02 9.63 203.69L1.05 202.63C0.84 204.32 0.62 205.8 0.41 207.28 0.41 208.76-0.02 210.03-0.02 211.08L-0.02 213.83C-0.02 215.73 0.41 217.63 1.27 219.32 2.13 221.01 3.41 222.49 5.13 223.76 6.85 225.03 8.56 226.08 10.92 226.72 13.06 227.35 15.42 227.78 17.99 227.78L34.07 227.78C37.29 227.78 39.86 227.15 42.22 226.09 44.58 224.82 46.29 223.34 47.58 221.23 48.87 219.12 49.51 216.79 49.51 214.05 49.51 211.31 49.08 209.61 48.01 208.13 46.94 206.65 45.44 205.17 43.51 204.12 41.58 203.06 39.22 202.01 36.22 201.16 34.93 200.74 33.65 200.31 32.36 199.89 31.29 199.47 30.22 199.04 29.57 198.62 28.93 198.2 28.5 197.35 28.5 196.51 28.5 195.67 28.93 194.61 29.57 193.97 30.43 193.34 31.71 193.12 33.64 193.12L53.36 193.12 53.36 214.04 66.01 214.04C69.01 214.04 71.58 213.62 73.51 212.56 73.72 212.56 74.15 212.14 74.37 212.14 75.23 212.56 75.87 212.99 76.73 213.2 78.45 213.83 79.95 214.05 81.66 214.05L96.45 214.05 96.45 198.62C96.45 197.77 96.45 196.51 96.24 195.03 96.24 193.55 95.81 191.86 95.6 190.17L95.6 190.38Z" fill="#FFFFFF" fill-rule="evenodd"/><path d="M182.36 213.91 191.2 213.91 191.2 175.21 182.36 175.21 182.36 206.67 170.07 206.67 170.07 200.25C170.07 196.73 169.42 194.04 168.35 191.97 167.27 189.9 165.55 188.45 163.18 187.42 160.81 186.39 158.01 185.97 154.56 185.97 151.11 185.97 150.03 185.97 147.88 186.38 145.94 186.79 144.43 187 143.57 187.41 143.35 188.24 143.14 189.27 142.92 190.72 142.7 192.17 142.49 193.62 142.27 195.27 142.27 196.93 142.05 198.79 142.05 200.44 142.05 202.09 142.05 203.96 142.27 205.61L142.27 206.44 129.98 206.44 129.98 185.95 116.62 185.95C113.39 185.95 110.8 186.57 108.43 187.61 106.27 188.64 104.55 190.3 103.47 192.37 102.39 194.44 101.75 197.13 101.75 200.03 101.75 202.93 102.4 205.62 103.47 207.69 104.55 209.76 106.27 211.21 108.43 212.24 110.59 213.27 113.39 213.69 116.62 213.69L121.15 213.69 121.15 215.35C121.15 217.21 120.5 218.45 119.43 219.28 118.35 220.11 116.41 220.52 113.83 220.52L110.38 220.52C109.09 220.52 107.36 220.31 105.64 220.11L104.35 226.73C106.07 227.14 107.8 227.35 109.31 227.56 110.82 227.56 112.33 227.77 113.84 227.77 117.07 227.77 119.88 227.36 122.25 226.32 124.62 225.29 126.56 223.84 127.85 221.97 129.14 220.11 129.79 217.83 129.79 215.35L129.79 213.69 182.39 213.69 182.39 213.9 182.39 213.9ZM120.92 206.87 116.39 206.87C114.88 206.87 113.8 206.87 112.94 206.46 112.08 206.25 111.43 205.63 111 204.6 110.57 203.77 110.35 202.32 110.35 200.46 110.35 198.6 110.57 196.94 111 195.91 111.43 194.88 112.08 194.25 112.94 194.05 113.8 193.64 114.88 193.64 116.17 193.64L120.7 193.64 120.7 206.88 120.92 206.88ZM161.23 206.87 150.88 206.87C150.88 206.25 150.88 205.63 150.66 204.8L150.66 196.73C150.66 195.7 150.88 194.45 151.09 193.42L154.54 193.42C156.26 193.42 157.77 193.42 158.85 194.04 159.93 194.45 160.57 195.07 161.01 196.11 161.44 197.14 161.66 198.59 161.66 200.25L161.66 206.67 161.23 206.88 161.23 206.88Z" fill="#FFFFFF" fill-rule="evenodd"/><path d="M199.96 175.21 208.73 175.21 208.73 213.76 199.96 213.76 199.96 175.21 199.96 175.21Z" fill="#FFFFFF" fill-rule="evenodd"/><path d="M270.26 226.3C272.62 225.03 274.33 223.55 275.62 221.44 276.91 219.33 277.55 217 277.55 214.26 277.55 211.52 277.12 209.82 276.05 208.34 274.98 206.86 273.48 205.38 271.55 204.33 269.62 203.27 267.26 202.22 264.26 201.37 262.97 200.95 261.69 200.52 260.4 200.1 259.33 199.68 258.26 199.25 257.61 198.83 256.97 198.41 256.54 197.56 256.54 196.72 256.54 195.88 256.97 194.82 257.61 194.18 258.47 193.55 259.75 193.33 261.68 193.33L281.4 193.33 281.4 214.25 294.05 214.25C297.05 214.25 299.62 213.83 301.55 212.77 301.76 212.77 302.19 212.35 302.41 212.35 303.27 212.77 303.91 213.2 304.77 213.41 306.49 214.04 307.99 214.26 309.7 214.26L324.49 214.26 324.49 198.83C324.49 197.98 324.49 196.72 324.28 195.24 324.28 193.76 323.85 192.07 323.64 190.38 323.43 188.69 323.21 187.21 322.78 185.73L314.2 187C314.41 188.69 314.84 190.17 315.06 191.65 315.27 193.13 315.49 194.61 315.7 195.88L315.7 206.66 309.7 206.66C309.06 206.66 308.2 206.66 307.56 206.24 307.13 206.24 306.92 205.82 306.49 205.61 306.92 203.71 307.35 201.38 307.35 198.85L307.35 188.71 298.56 188.71 298.56 198.85C298.56 201.17 298.56 202.86 298.13 203.92 297.92 204.98 297.49 205.82 296.84 206.03 296.2 206.45 295.34 206.66 294.05 206.66L289.98 206.66 289.98 185.74 261.68 185.74C258.89 185.74 256.32 186.16 254.18 187.01 252.04 187.86 250.32 189.12 249.25 190.6 248.18 192.29 247.53 194.19 247.53 196.73 247.53 199.27 247.74 199.69 248.39 200.74 249.03 201.8 249.68 202.85 250.96 203.49 252.03 204.34 253.53 204.97 255.25 205.6 256.97 206.23 259.11 207.08 261.47 207.71 263.4 208.34 264.9 208.77 265.97 209.19 267.04 209.61 267.69 210.25 268.11 210.88 268.54 211.51 268.75 212.36 268.75 213.63 268.75 215.74 268.11 217.43 267.03 218.7 265.96 219.76 264.24 220.39 261.88 220.39L245.8 220.39C243.87 220.39 242.37 220.18 240.87 219.54 239.58 218.91 238.51 218.06 237.65 217.22 236.79 216.16 236.58 215.11 236.58 213.63 236.58 212.15 236.58 211.73 236.79 209.83 236.79 208.14 237.22 206.03 237.65 203.7L229.07 202.64C228.86 204.33 228.64 205.81 228.43 207.29 228.43 208.77 228 210.04 228 211.09L228 213.84C228 215.74 228.43 217.64 229.29 219.33 230.15 221.02 231.43 222.5 233.15 223.77 234.87 225.04 236.58 226.09 238.94 226.73 241.08 227.36 243.44 227.79 246.01 227.79L262.09 227.79C265.31 227.79 267.88 227.16 270.24 226.1L270.24 226.31Z" fill="#FFFFFF" fill-rule="evenodd"/><path d="M398.17 200.69C398.17 197 397.52 194.18 396.45 192.02 395.37 189.85 393.65 188.33 391.29 187.25 388.92 186.17 386.13 185.73 382.47 185.73 378.81 185.73 377.95 185.73 375.8 186.16 373.86 186.59 372.36 186.81 371.5 187.24 371.28 188.11 371.07 189.19 370.85 190.71 370.63 192.23 370.42 193.75 370.2 195.48 370.2 197.21 369.98 199.17 369.98 200.9 369.98 202.63 369.98 204.59 370.2 206.32L370.2 207.19 357.94 207.19 357.94 185.72 344.6 185.72C341.37 185.72 338.79 186.37 336.43 187.45 334.28 188.53 332.56 190.27 331.48 192.44 330.4 194.61 329.76 197.43 329.76 200.46 329.76 203.49 330.41 206.31 331.48 208.48 332.56 210.65 334.28 212.17 336.43 213.25 338.58 214.33 341.38 214.77 344.6 214.77L349.12 214.77 349.12 216.5C349.12 218.45 348.47 219.75 347.4 220.62 346.32 221.49 344.39 221.92 341.81 221.92L338.37 221.92C337.08 221.92 335.36 221.7 333.64 221.49L332.35 228.43C334.07 228.86 335.79 229.08 337.3 229.3 338.81 229.3 340.31 229.52 341.82 229.52 345.05 229.52 347.84 229.09 350.21 228 352.58 226.92 354.51 225.4 355.8 223.45 357.09 221.5 357.74 219.11 357.74 216.51L357.74 214.78 397.97 214.78 397.97 200.47 398.19 200.69 398.19 200.69ZM349.34 207.41 344.82 207.41C343.31 207.41 342.24 207.41 341.38 206.98 340.52 206.76 339.87 206.11 339.44 205.03 339.01 204.16 338.79 202.64 338.79 200.69 338.79 198.74 339.01 197 339.44 195.92 339.87 194.84 340.52 194.19 341.38 193.97 342.24 193.54 343.32 193.54 344.61 193.54L349.13 193.54 349.13 207.42 349.35 207.42ZM389.57 207.41 379.24 207.41C379.24 206.76 379.24 206.11 379.02 205.24L379.02 196.78C379.02 195.7 379.24 194.39 379.45 193.31L382.89 193.31C384.61 193.31 386.12 193.31 387.19 193.96 388.27 194.39 388.91 195.04 389.34 196.13 389.77 197.21 389.99 198.73 389.99 200.47L389.99 207.19 389.56 207.41 389.56 207.41Z" fill="#FFFFFF" fill-rule="evenodd"/><path d="M32.45 272.89 23.41 243.54 8.77 243.54 8.77 287.35 17.81 287.35 17.81 254.86 18.67 254.86 28.14 286.09 36.76 286.09 46.01 254.86 47.09 254.86 47.09 287.35 56.13 287.35 56.13 243.54 41.28 243.54 32.45 272.89 32.45 272.89 32.45 272.89Z" fill="#FFFFFF" fill-rule="evenodd"/><path d="M85.95 255.81C83.76 254.5 80.69 254.06 76.96 254.06 73.23 254.06 70.38 254.72 67.97 255.81 65.56 257.12 64.02 258.88 62.93 261.5 61.83 264.13 61.4 267.19 61.4 271.36 61.4 275.53 61.84 278.81 62.93 281.43 64.03 284.06 65.56 286.03 67.97 287.12 70.38 288.43 73.23 289.09 77.18 289.09 81.13 289.09 84.2 288.43 86.39 287.12 88.8 285.81 90.34 283.83 91.43 281.43 92.53 278.8 92.96 275.52 92.96 271.36 92.96 267.2 92.52 264.13 91.43 261.5 90.33 258.87 88.58 257.12 86.39 255.81L85.95 255.81ZM82.88 277.27C82.44 278.8 82 279.9 80.91 280.56 80.03 281.22 78.5 281.66 76.74 281.66 74.98 281.66 73.45 281.22 72.57 280.56 71.69 279.9 71.04 278.81 70.6 277.27 70.16 275.74 70.16 273.77 70.16 271.14 70.16 268.51 70.16 266.76 70.82 265.23 71.26 263.7 71.92 262.82 72.79 262.16 73.67 261.5 74.98 261.28 76.74 261.28 78.5 261.28 79.81 261.5 80.69 262.16 81.57 262.82 82.22 263.91 82.66 265.23 83.1 266.76 83.32 268.73 83.32 271.14 83.32 273.55 83.32 275.74 82.88 277.27L82.88 277.27Z" fill="#FFFFFF" fill-rule="evenodd"/><path d="M117.9 269.63C116.2 268.98 114.08 268.33 111.53 267.9 109.62 267.68 108.35 267.47 107.29 267.03 106.23 266.81 105.59 266.38 105.38 265.95 104.96 265.52 104.96 265.08 104.96 264.44 104.96 263.57 104.96 262.93 105.6 262.49 106.02 262.06 106.66 261.62 107.3 261.62 108.15 261.62 109 261.4 110.06 261.4L113.67 261.4C115.16 261.4 116.43 261.4 117.91 261.83 119.4 261.83 120.67 262.05 121.73 262.26L121.73 255.55C121.09 255.33 119.82 255.12 118.34 254.9 116.85 254.68 115.37 254.47 113.88 254.25 112.18 254.25 110.7 254.03 109.21 254.03 106.88 254.03 104.75 254.25 102.84 254.9 100.93 255.55 99.45 256.63 98.17 258.14 96.9 259.65 96.47 261.82 96.47 264.63 96.47 267.44 96.89 268.74 97.53 270.04 98.17 271.34 99.44 272.42 100.92 273.07 102.41 273.72 104.53 274.15 106.86 274.58 108.77 274.8 110.26 275.23 111.32 275.45 112.38 275.67 113.02 276.1 113.44 276.53 113.86 276.96 114.08 277.4 114.08 278.26 114.08 279.12 113.87 279.99 113.44 280.42 113.02 280.85 112.38 281.29 111.53 281.5 110.68 281.72 109.62 281.93 108.35 281.93L104.96 281.93C103.69 281.93 102.2 281.71 100.72 281.5 99.23 281.5 97.96 281.07 96.9 281.07L96.9 287.56C97.54 287.78 98.81 287.99 100.29 288.21 101.78 288.43 103.26 288.64 104.75 288.86 106.45 288.86 107.93 289.08 109.42 289.08 113.66 289.08 117.06 288.21 119.39 286.7 121.72 285.19 122.78 282.37 122.78 278.26 122.78 274.15 122.36 274.15 121.72 272.85 121.08 271.55 119.81 270.47 118.33 269.82L117.91 269.6Z" fill="#FFFFFF" fill-rule="evenodd"/><path d="M155.17 279.39 155.17 264.73C155.17 262.01 154.76 259.91 153.72 258.45 152.89 256.98 151.44 255.73 149.58 255.1 147.72 254.47 145.44 254.05 142.75 254.05 140.06 254.05 139.85 254.05 137.99 254.26 136.33 254.26 134.68 254.68 133.23 254.89 131.78 255.1 130.33 255.52 129.3 255.73L129.3 261.8C130.75 261.8 131.99 261.59 133.44 261.38 134.89 261.38 136.55 261.17 138 260.96L142.14 260.96C143.38 260.96 144.83 261.17 145.45 261.8 146.28 262.43 146.69 263.47 146.69 264.94L146.69 266.82 139.03 267.45C136.54 267.45 134.68 267.87 133.02 268.5 131.36 269.13 130.12 270.17 129.29 271.43 128.46 272.69 128.05 274.57 128.05 277.08 128.05 280.43 128.88 282.94 130.54 284.83 132.2 286.5 134.68 287.34 137.99 287.34 141.3 287.34 140.68 287.34 141.92 286.92 143.16 286.71 144.4 286.29 145.65 285.87 146.69 285.45 147.72 285.24 148.34 284.82 148.75 285.24 149.38 285.66 150 286.08 150.62 286.5 151.45 286.71 152.49 286.92L157.87 286.92 157.87 281.06C157.25 281.06 156.63 280.64 156.21 280.43 155.59 280.01 155.38 279.59 155.17 278.96L155.17 279.38ZM146.68 279.81C146.27 280.02 145.64 280.23 144.82 280.44 143.99 280.65 143.16 280.86 142.33 281.07 141.5 281.07 140.67 281.28 139.84 281.28 138.6 281.28 137.77 280.86 137.15 280.23 136.53 279.6 136.32 278.56 136.32 277.3 136.32 276.04 136.53 275 137.15 274.37 137.77 273.74 138.81 273.32 140.26 273.11L146.68 272.48 146.68 279.81 146.68 279.81Z" fill="#FFFFFF" fill-rule="evenodd"/><path d="M185.02 243.54 173.66 287.34 182.66 287.34 185.02 278.54 200.67 278.54 203.24 287.34 212.24 287.34 200.88 243.54 185.02 243.54ZM186.3 271.42 191.45 250.88 194.24 250.88 199.39 271.42 186.31 271.42Z" fill="#FFFFFF" fill-rule="evenodd"/><path d="M217.5 241.79 226.28 241.79 226.28 287.35 217.5 287.35 217.5 241.79 217.5 241.79Z" fill="#FFFFFF" fill-rule="evenodd"/><path d="M271 272.89 261.96 243.54 247.32 243.54 247.32 287.35 256.37 287.35 256.37 254.86 257.23 254.86 266.7 286.09 275.31 286.09 284.57 254.86 285.64 254.86 285.64 287.35 294.68 287.35 294.68 243.54 279.83 243.54 271 272.89 271 272.89 271 272.89Z" fill="#FFFFFF" fill-rule="evenodd"/><path d="M324.89 255.81C322.82 254.5 319.92 254.06 316.4 254.06 312.88 254.06 310.19 254.72 307.91 255.81 305.63 257.12 304.18 258.88 303.15 261.5 302.11 264.13 301.7 267.19 301.7 271.36 301.7 275.53 302.11 278.81 303.15 281.43 304.19 284.06 305.63 286.03 307.91 287.12 310.19 288.43 312.88 289.09 316.61 289.09 320.34 289.09 323.24 288.43 325.31 287.12 327.59 285.81 329.04 283.83 330.07 281.43 331.11 278.8 331.52 275.52 331.52 271.36 331.52 267.2 331.11 264.13 330.07 261.5 329.03 258.87 327.38 257.12 325.31 255.81L324.9 255.81ZM322.2 277.27C321.79 278.8 321.37 279.9 320.34 280.56 319.51 281.22 318.06 281.66 316.41 281.66 314.76 281.66 313.3 281.22 312.48 280.56 311.65 279.9 311.03 278.81 310.62 277.27 310.21 275.74 310.21 273.77 310.21 271.14 310.21 268.51 310.21 266.76 310.83 265.23 311.24 263.7 311.87 262.82 312.69 262.16 313.52 261.5 314.76 261.28 316.42 261.28 318.08 261.28 319.32 261.5 320.15 262.16 320.98 262.82 321.6 263.91 322.01 265.23 322.42 266.76 322.63 268.73 322.63 271.14 322.63 273.55 322.63 275.74 322.22 277.27L322.22 277.27Z" fill="#FFFFFF" fill-rule="evenodd"/><path d="M358.21 269.63C356.51 268.98 354.39 268.33 351.84 267.9 349.93 267.68 348.66 267.47 347.6 267.03 346.54 266.81 345.9 266.38 345.69 265.95 345.27 265.52 345.27 265.08 345.27 264.44 345.27 263.57 345.27 262.93 345.91 262.49 346.33 262.06 346.97 261.62 347.61 261.62 348.46 261.62 349.31 261.4 350.37 261.4L353.98 261.4C355.47 261.4 356.74 261.4 358.22 261.83 359.71 261.83 360.98 262.05 362.04 262.26L362.04 255.55C361.4 255.33 360.13 255.12 358.65 254.9 357.16 254.68 355.68 254.47 354.19 254.25 352.7 254.03 351.01 254.03 349.52 254.03 347.19 254.03 345.06 254.25 343.15 254.9 341.24 255.55 339.76 256.63 338.48 258.14 337.21 259.65 336.78 261.82 336.78 264.63 336.78 267.44 337.2 268.74 337.84 270.04 338.48 271.34 339.75 272.42 341.23 273.07 342.72 273.72 344.84 274.15 347.17 274.58 349.08 274.8 350.56 275.23 351.63 275.45 352.69 275.67 353.33 276.1 353.75 276.53 354.17 276.96 354.39 277.4 354.39 278.26 354.39 279.12 354.18 279.99 353.75 280.42 353.33 280.85 352.69 281.29 351.84 281.5 350.99 281.72 349.93 281.93 348.66 281.93L345.27 281.93C344 281.93 342.51 281.71 341.03 281.5 339.54 281.5 338.27 281.07 337.21 281.07L337.21 287.56C337.85 287.78 339.12 287.99 340.6 288.21 342.09 288.43 343.57 288.64 345.06 288.86 346.76 288.86 348.24 289.08 349.73 289.08 353.97 289.08 357.37 288.21 359.7 286.7 362.03 285.19 363.09 282.37 363.09 278.26 363.09 274.15 362.67 274.15 362.03 272.85 361.39 271.55 360.12 270.47 358.64 269.82L358.22 269.6Z" fill="#FFFFFF" fill-rule="evenodd"/><path d="M396.42 280.86C395.76 280.44 395.54 280.02 395.32 279.39L395.32 264.73C395.32 262.01 394.88 259.91 393.79 258.45 392.91 256.98 391.38 255.73 389.4 255.1 387.43 254.47 385.01 254.05 382.16 254.05 379.31 254.05 379.09 254.05 377.12 254.26 375.37 254.26 373.61 254.68 372.08 254.89 370.55 255.1 369.01 255.52 367.91 255.73L367.91 261.8C369.44 261.8 370.76 261.59 372.3 261.38 373.83 261.38 375.59 261.17 377.12 260.96L381.51 260.96C382.83 260.96 384.36 261.17 385.02 261.8 385.9 262.43 386.34 263.47 386.34 264.94L386.34 266.82 378.23 267.45C375.6 267.45 373.63 267.87 371.87 268.5 370.12 269.13 368.8 270.17 367.92 271.43 367.04 272.69 366.6 274.57 366.6 277.08 366.6 280.43 367.48 282.94 369.23 284.83 370.98 286.5 373.62 287.34 377.12 287.34 380.62 287.34 379.97 287.34 381.29 286.92 382.61 286.71 383.92 286.29 385.24 285.87 386.56 285.45 387.43 285.24 388.09 284.82 388.53 285.24 389.19 285.66 389.84 286.08 390.5 286.5 391.37 286.71 392.47 286.92L398.17 286.92 398.17 281.06C397.51 281.06 396.85 280.64 396.42 280.43L396.42 280.85ZM386.33 279.81C385.89 280.02 385.23 280.23 384.36 280.44 383.48 280.65 382.61 280.86 381.73 281.07 380.85 281.07 379.98 281.28 379.1 281.28 377.78 281.28 376.91 280.86 376.25 280.23 375.59 279.6 375.37 278.56 375.37 277.3 375.37 276.04 375.59 275 376.25 274.37 376.91 273.74 378 273.32 379.54 273.11L386.34 272.48 386.34 279.81 386.34 279.81Z" fill="#FFFFFF" fill-rule="evenodd"/></svg>