<svg viewBox="0 0 496 451.65" xmlns="http://www.w3.org/2000/svg" xmlns:xlink="http://www.w3.org/1999/xlink" id="Layer_1" overflow="hidden"><path d="M410.63 278.48 368.96 278.48C364.54 278.48 360.96 282.06 360.96 286.48L360.96 402.11C360.96 406.53 364.54 410.11 368.96 410.11L410.63 410.11C415.05 410.11 418.63 406.53 418.63 402.11L418.63 286.48C418.63 282.06 415.05 278.48 410.63 278.48ZM402.63 394.11 376.96 394.11 376.96 294.48 402.63 294.48 402.63 394.11Z" fill="#FFFFFF"/><path d="M488 206.46 446.33 206.46C441.91 206.46 438.33 210.04 438.33 214.46L438.33 402.11C438.33 406.53 441.91 410.11 446.33 410.11L488 410.11C492.42 410.11 496 406.53 496 402.11L496 214.46C496 210.04 492.42 206.46 488 206.46ZM480 394.11 454.33 394.11 454.33 222.46 480 222.46 480 394.11Z" fill="#FFFFFF"/><path d="M175.2 208.12C132.93 208.12 98.54 242.51 98.54 284.78 98.54 327.05 132.93 361.44 175.2 361.44 217.47 361.44 251.86 327.05 251.86 284.78 251.86 242.51 217.47 208.12 175.2 208.12ZM175.2 345.43C141.75 345.43 114.54 318.22 114.54 284.77 114.54 251.32 141.75 224.11 175.2 224.11 208.65 224.11 235.86 251.32 235.86 284.77 235.86 318.22 208.65 345.43 175.2 345.43Z" fill="#FFFFFF"/><path d="M333.26 261.12 291.59 261.12C287.17 261.12 283.59 264.7 283.59 269.12L283.59 402.11C283.59 406.53 287.17 410.11 291.59 410.11L333.26 410.11C337.68 410.11 341.26 406.53 341.26 402.11L341.26 269.12C341.26 264.7 337.68 261.12 333.26 261.12ZM325.26 394.11 299.59 394.11 299.59 277.12 325.26 277.12 325.26 394.11Z" fill="#FFFFFF"/><path d="M294.95 123.99 294.95 123.99C291.83 120.87 286.76 120.87 283.64 123.99L264.96 142.67C261.82 141.16 258.3 140.31 254.58 140.31 241.32 140.31 230.53 151.1 230.53 164.36 230.53 177.62 241.32 188.4 254.58 188.4 267.84 188.4 278.62 177.61 278.62 164.36 278.62 160.65 277.77 157.13 276.26 153.98L294.94 135.3C298.06 132.18 298.07 127.11 294.94 123.99ZM254.58 172.4C250.14 172.4 246.53 168.79 246.53 164.36 246.53 159.93 250.14 156.31 254.58 156.31 259.02 156.31 262.62 159.92 262.62 164.36 262.62 168.8 259.01 172.4 254.58 172.4Z" fill="#FFFFFF"/><path d="M314 211.86 387.11 235.58C389.98 236.51 393.13 235.75 395.26 233.6L456.7 171.63 456.41 174.22C455.92 178.61 459.08 182.57 463.47 183.06 463.77 183.09 464.07 183.11 464.37 183.11 468.39 183.11 471.85 180.09 472.31 176L475.12 150.87C475.39 148.49 474.57 146.11 472.89 144.39 471.21 142.67 468.86 141.8 466.47 142.01L441.28 144.22C436.88 144.61 433.62 148.49 434.01 152.89 434.4 157.29 438.27 160.53 442.68 160.16L445.81 159.89 387.36 218.84 314.9 195.33C312.38 194.51 309.61 195 307.52 196.63L259.49 234.03C242.24 205.49 210.91 186.37 175.2 186.37 120.94 186.37 76.79 230.52 76.79 284.78 76.79 303.29 81.93 320.63 90.86 335.43L71.96 353.77C70.12 353.03 68.15 352.61 66.11 352.58 61.76 352.48 57.67 354.14 54.57 357.15L4.92 405.33C1.81 408.34 0.07 412.38 0 416.72-0.07 421.06 1.56 425.16 4.57 428.26L22.49 446.73C25.66 450 29.9 451.65 34.13 451.65 38.36 451.65 42.28 450.13 45.42 447.08L95.07 398.9C98.17 395.89 99.92 391.84 99.98 387.5 100.01 385.46 99.65 383.47 98.97 381.61L117.02 364.09C133.33 376.08 153.44 383.17 175.19 383.17 186.03 383.17 196.46 381.4 206.22 378.15L206.22 402.09C206.22 406.51 209.8 410.09 214.22 410.09L255.89 410.09C260.31 410.09 263.89 406.51 263.89 402.09L263.89 327.37C270.11 314.47 273.6 300.01 273.6 284.76 273.6 272.02 271.17 259.83 266.74 248.64L314 211.84ZM83.94 387.42 83.94 387.42C83.94 387.42 34.29 435.6 34.29 435.6 34.22 435.67 34.05 435.67 33.98 435.6L16.05 417.13C16.05 417.13 16 417.08 16 416.98 16 416.88 16.04 416.84 16.06 416.83L65.71 368.65C65.71 368.65 65.76 368.6 65.86 368.6 65.94 368.57 66.01 368.64 66.02 368.66L83.94 387.13C83.94 387.13 83.99 387.19 83.99 387.29 83.99 387.39 83.95 387.43 83.93 387.44ZM88.83 369.17 84.09 364.28 100.31 348.54C101.78 350.27 103.32 351.94 104.9 353.57L88.83 369.17ZM247.9 394.11 222.23 394.11 222.23 371.2C231.87 365.93 240.54 359.09 247.9 351.04L247.9 394.12ZM175.2 367.18C129.76 367.18 92.79 330.21 92.79 284.77 92.79 239.33 129.76 202.36 175.2 202.36 220.64 202.36 257.61 239.33 257.61 284.77 257.61 330.21 220.64 367.18 175.2 367.18Z" fill="#FFFFFF"/><path d="M98.23 172.36 163.68 172.36C168.1 172.36 171.68 168.78 171.68 164.36 171.68 118.65 208.87 81.46 254.58 81.46 300.29 81.46 337.49 118.65 337.49 164.36 337.49 168.78 341.07 172.36 345.49 172.36L410.94 172.36C415.36 172.36 418.94 168.78 418.94 164.36 418.94 73.73 345.21 0 254.58 0 163.95 0 90.23 73.73 90.23 164.36 90.23 168.78 93.81 172.36 98.23 172.36ZM402.73 156.36 353.17 156.36C352.19 144.15 348.97 132.57 343.95 122L386.86 97.22C396 115.15 401.6 135.16 402.73 156.35ZM378.84 83.38 335.92 108.16C329.12 98.35 320.59 89.82 310.78 83.02L335.56 40.11C352.8 51.39 367.57 66.14 378.84 83.39ZM321.71 32.08 296.94 74.99C286.38 69.96 274.79 66.76 262.58 65.78L262.58 16.22C283.77 17.35 303.78 22.95 321.71 32.08ZM246.58 16.22 246.58 65.78C234.37 66.76 222.79 69.97 212.22 74.99L187.45 32.08C205.38 22.94 225.39 17.35 246.58 16.22ZM173.61 40.1 198.39 83.01C188.58 89.81 180.05 98.34 173.25 108.15L130.33 83.37C141.61 66.13 156.37 51.37 173.61 40.09ZM122.31 97.22 165.22 122C160.19 132.56 156.98 144.15 156 156.36L106.44 156.36C107.57 135.17 113.18 115.16 122.31 97.23Z" fill="#FFFFFF"/></svg>