<svg viewBox="0 0 454.52 492" xmlns="http://www.w3.org/2000/svg" xmlns:xlink="http://www.w3.org/1999/xlink" id="Layer_1" overflow="hidden"><style>
.MsftOfcThm_Background1_Fill_v2 {
 fill:#FFFFFF; 
}
</style>
<path d="M114.32 333.3C114.09 333.53 113.84 333.78 113.58 334.01 121.09 337.98 128.89 341.21 136.88 343.65 136.85 343.31 136.85 342.97 136.85 342.63L136.85 338.01C130.22 335.88 123.78 333.22 117.57 330.05L117.57 330.05C117.57 330.05 114.31 333.31 114.31 333.31Z" class="MsftOfcThm_Background1_Fill_v2" fill="#FFFFFF"/><path d="M216.74 343.65C224.73 341.21 232.56 337.98 240.07 334.01 239.81 333.78 239.56 333.53 239.3 333.3L236.04 330.04C229.83 333.19 223.4 335.85 216.76 338.01L216.76 338.01 216.76 342.63C216.76 342.97 216.76 343.31 216.73 343.65Z" class="MsftOfcThm_Background1_Fill_v2" fill="#FFFFFF"/><path d="M47.45 254.24 47.45 254.24C49.92 262.23 53.12 270.03 57.09 277.54 57.35 277.28 57.57 277.03 57.83 276.77L61.09 273.51C57.92 267.33 55.25 260.87 53.13 254.26L48.51 254.26C48.17 254.26 47.8 254.23 47.46 254.23Z" class="MsftOfcThm_Background1_Fill_v2" fill="#FFFFFF"/><path d="M328.37 55.43 328.37 55.43C327.39 55.69 326.45 56.18 325.67 56.95L175.46 207.16C173.11 209.51 173.11 213.31 175.46 215.66 177.81 217.98 181.61 217.98 183.94 215.66L334.15 65.45C334.93 64.67 335.42 63.73 335.69 62.74L341.04 64.17 352.18 67.18 385.97 33.39 391.13 28.23 379.99 25.25 368.85 22.24 365.87 11.13 362.89-0.01 357.73 5.15 323.94 38.94 326.92 50.05 328.37 55.42Z" class="MsftOfcThm_Background1_Fill_v2" fill="#FFFFFF"/><path d="M136.89 84.95C128.9 87.39 121.1 90.62 113.59 94.59 113.85 94.82 114.1 95.04 114.33 95.3L117.59 98.56C123.8 95.39 130.23 92.72 136.87 90.59L136.87 85.97C136.87 85.63 136.87 85.29 136.9 84.95Z" class="MsftOfcThm_Background1_Fill_v2" fill="#FFFFFF"/><path d="M314.93 232.47 314.93 232.47 314.93 196.13C314.93 190.74 310.54 186.35 305.15 186.35L291.46 186.35C288.62 174.73 284.03 163.47 277.66 153.02L287.33 143.33C291.16 139.53 291.16 133.32 287.33 129.5L287.22 129.39 250.8 165.81C273.34 200.11 269.54 246.68 239.35 276.84 204.82 311.37 148.84 311.37 114.31 276.84 79.78 242.31 79.78 186.3 114.31 151.78 144.47 121.62 191.02 117.82 225.34 140.36L261.76 103.93 261.62 103.82C257.82 99.99 251.61 99.99 247.79 103.82L238.12 113.49C227.63 107.11 216.38 102.52 204.78 99.69L204.78 86C204.78 80.61 200.39 76.22 195 76.22L158.66 76.22C153.27 76.22 148.85 80.61 148.85 86L148.85 99.69C137.26 102.52 126 107.12 115.51 113.49L105.84 103.82C102.04 99.99 95.81 99.99 92.01 103.82L66.3 129.5C62.5 133.33 62.5 139.54 66.3 143.33L75.99 153.02C69.58 163.48 64.99 174.73 62.19 186.35L48.5 186.35C43.11 186.35 38.72 190.74 38.72 196.13L38.72 232.47C38.72 237.86 43.11 242.25 48.5 242.25L62.19 242.25C65 253.84 69.62 265.13 75.99 275.58L66.3 285.28C62.5 289.08 62.5 295.29 66.3 299.11L92.01 324.79C95.81 328.62 102.04 328.62 105.84 324.79L115.51 315.12C126 321.5 137.25 326.09 148.85 328.92L148.85 342.61C148.85 348 153.27 352.39 158.66 352.39L195 352.39C200.39 352.39 204.78 348 204.78 342.61L204.78 328.92C216.37 326.08 227.63 321.49 238.12 315.12L247.79 324.79C251.62 328.62 257.82 328.62 261.62 324.79L274.49 311.95 287.33 299.11C291.16 295.28 291.16 289.07 287.33 285.28L277.66 275.58C284.04 265.12 288.63 253.84 291.44 242.24L305.16 242.24C310.55 242.24 314.94 237.85 314.94 232.46Z" class="MsftOfcThm_Background1_Fill_v2" fill="#FFFFFF"/><path d="M300.53 254.27C298.38 260.87 295.71 267.34 292.54 273.52L295.8 276.78C296.06 277.04 296.31 277.29 296.54 277.55 300.51 270.04 303.71 262.24 306.18 254.25 305.84 254.25 305.5 254.28 305.16 254.28L300.54 254.28Z" class="MsftOfcThm_Background1_Fill_v2" fill="#FFFFFF"/><path d="M53.12 174.33C55.25 167.73 57.91 161.26 61.09 155.08L57.83 151.82C57.57 151.56 57.35 151.31 57.09 151.06 53.12 158.57 49.92 166.37 47.45 174.36 47.79 174.36 48.16 174.33 48.5 174.33L53.12 174.33Z" class="MsftOfcThm_Background1_Fill_v2" fill="#FFFFFF"/><path d="M325.33 330.89 325.33 330.89C320.71 336.76 315.72 342.4 310.34 347.81 304.93 353.2 299.29 358.19 293.42 362.8L348.27 417.65 380.19 385.73 325.34 330.88Z" class="MsftOfcThm_Background1_Fill_v2" fill="#FFFFFF"/><path d="M301.83 339.31C366.57 274.57 370.63 172.09 313.93 102.65L295.67 120.91 295.78 121.02C300.14 125.36 302.24 131.08 302.16 136.78 310.64 150.47 316.64 165.24 320.24 180.46 324.35 184.43 326.9 189.99 326.9 196.14L326.9 232.48C326.9 238.63 324.35 244.19 320.24 248.16 316.64 263.38 310.63 278.15 302.16 291.84 302.25 297.54 300.15 303.26 295.78 307.6L270.1 333.31C265.76 337.65 260.01 339.77 254.31 339.66 240.65 348.13 225.88 354.17 210.66 357.74 206.69 361.85 201.13 364.4 194.98 364.4L158.64 364.4C152.49 364.4 146.91 361.85 142.94 357.74 127.72 354.17 112.98 348.13 99.29 339.66 93.59 339.77 87.87 337.65 83.53 333.31L57.82 307.6C53.48 303.26 51.36 297.54 51.44 291.84 42.96 278.15 36.95 263.38 33.38 248.16 29.27 244.19 26.69 238.63 26.69 232.48L26.69 196.14C26.69 189.99 29.27 184.43 33.38 180.46 36.95 165.24 42.99 150.47 51.44 136.78 51.35 131.08 53.48 125.36 57.82 121.02L83.53 95.31C87.87 90.97 93.59 88.85 99.29 88.96 112.98 80.48 127.72 74.45 142.94 70.88 146.91 66.77 152.49 64.22 158.64 64.22L194.98 64.22C201.13 64.22 206.69 66.77 210.66 70.88 225.88 74.45 240.65 80.49 254.31 88.96 260.01 88.85 265.76 90.97 270.1 95.31L270.21 95.45 288.47 77.19C219.03 20.49 116.53 24.52 51.79 89.29-17.26 158.31-17.26 270.28 51.79 339.31 120.84 408.36 232.78 408.36 301.83 339.31L301.83 339.31Z" class="MsftOfcThm_Background1_Fill_v2" fill="#FFFFFF"/><path d="M451.33 441.47 451.33 441.47C451.33 441.47 404.08 394.22 404.08 394.22 399.83 390 392.91 390 388.66 394.22L356.74 426.14C352.49 430.39 352.49 437.34 356.74 441.56L403.99 488.81C408.24 493.06 415.19 493.06 419.41 488.81L451.33 456.89C455.58 452.67 455.58 445.72 451.33 441.47Z" class="MsftOfcThm_Background1_Fill_v2" fill="#FFFFFF"/><path d="M236.04 98.56 236.04 98.56C236.04 98.56 239.3 95.3 239.3 95.3 239.56 95.04 239.81 94.82 240.07 94.59 232.56 90.62 224.73 87.39 216.74 84.95 216.77 85.29 216.77 85.63 216.77 85.97L216.77 90.59C223.4 92.74 229.84 95.41 236.05 98.56Z" class="MsftOfcThm_Background1_Fill_v2" fill="#FFFFFF"/><path d="M295.8 151.82 295.8 151.82C295.8 151.82 292.54 155.08 292.54 155.08 295.71 161.26 298.38 167.72 300.53 174.33L305.15 174.33C305.49 174.33 305.83 174.36 306.17 174.36 303.7 166.37 300.5 158.57 296.53 151.06 296.3 151.32 296.05 151.57 295.79 151.83Z" class="MsftOfcThm_Background1_Fill_v2" fill="#FFFFFF"/><path d="M187.51 178.13C174.7 174.36 160.27 177.54 150.15 187.63 135.44 202.37 135.44 226.24 150.15 240.98 164.89 255.69 188.76 255.69 203.47 240.98 213.59 230.86 216.76 216.43 212.97 203.59L192.45 224.14C185.42 231.17 174.03 231.17 166.99 224.14 159.95 217.11 159.96 205.72 166.99 198.69L187.51 178.14Z" class="MsftOfcThm_Background1_Fill_v2" fill="#FFFFFF"/><path d="M216.63 149.05 216.63 149.05C187.21 131.08 148.23 134.79 122.77 160.27 92.92 190.09 92.92 238.51 122.77 268.33 152.62 298.18 201.01 298.18 230.86 268.33 256.31 242.87 260.06 203.93 242.08 174.5L222.32 194.26C230.34 212.49 226.88 234.54 211.97 249.45 192.55 268.87 161.06 268.87 141.67 249.45 122.25 230.03 122.25 198.57 141.67 179.15 156.58 164.24 178.63 160.78 196.86 168.8L216.62 149.04Z" class="MsftOfcThm_Background1_Fill_v2" fill="#FFFFFF"/></svg>