<svg viewBox="0 0 512 512" xmlns="http://www.w3.org/2000/svg" xmlns:xlink="http://www.w3.org/1999/xlink" id="Layer_1" overflow="hidden"><path d="M457.37 97.94 473.19 97.94C478.71 97.94 483.18 93.46 483.18 87.95 483.18 82.44 478.7 77.96 473.19 77.96L435.21 77.96C429.69 77.96 425.22 82.44 425.22 87.95L425.22 125.93C425.22 131.45 429.69 135.92 435.21 135.92 440.73 135.92 445.2 131.44 445.2 125.93L445.2 114.93C475.52 155.52 492 204.78 492 256.01 492 386.15 386.13 492.02 255.99 492.02 125.85 492.02 19.99 386.14 19.99 256 19.99 125.86 125.86 19.99 256 19.99 265.62 19.99 275.31 20.57 284.79 21.73 290.26 22.39 295.25 18.5 295.92 13.02 296.59 7.54 292.69 2.56 287.21 1.89 276.93 0.64 266.43 0.01 256 0.01 187.62 0 123.33 26.63 74.98 74.98 26.63 123.33 0 187.62 0 256 0 324.38 26.63 388.67 74.98 437.02 123.33 485.37 187.62 512 256 512 324.38 512 388.67 485.37 437.02 437.02 485.37 388.67 512 324.38 512 256 512 198.3 492.72 142.9 457.37 97.94Z" fill="#FFFFFF"/><path d="M108.4 150.91C103.74 147.96 97.56 149.35 94.61 154.01 71.8 190.04 61.7 233.38 66.17 276.03 70.71 319.32 90.19 360.13 121.03 390.97 158.24 428.18 207.12 446.79 256 446.79 304.88 446.79 353.76 428.19 390.97 390.97 465.39 316.55 465.39 195.45 390.97 121.03 360.18 90.24 319.43 70.77 276.22 66.19 233.65 61.68 190.36 71.7 154.34 94.4 149.67 97.34 148.27 103.51 151.21 108.18 154.15 112.85 160.32 114.25 164.99 111.31 232.88 68.52 319.99 78.32 376.83 135.16 443.46 201.79 443.46 310.2 376.83 376.83 310.2 443.46 201.79 443.46 135.16 376.83 79.11 320.78 69.16 231.56 111.49 164.7 114.44 160.04 113.06 153.86 108.39 150.91Z" fill="#FFFFFF"/><path d="M385.92 266.16 398.24 266.16C403.76 266.16 408.23 261.68 408.23 256.17 408.23 250.66 403.76 246.18 398.24 246.18L385.92 246.18C380.4 246.18 375.93 250.66 375.93 256.17 375.93 261.68 380.4 266.16 385.92 266.16Z" fill="#FFFFFF"/><path d="M103.77 255.84C103.77 261.36 108.25 265.83 113.76 265.83L126.08 265.83C131.6 265.83 136.07 261.35 136.07 255.84 136.07 250.33 131.59 245.85 126.08 245.85L113.76 245.85C108.24 245.85 103.77 250.32 103.77 255.84Z" fill="#FFFFFF"/><path d="M266.16 126.08 266.16 113.76C266.16 108.24 261.68 103.77 256.17 103.77 250.66 103.77 246.18 108.25 246.18 113.76L246.18 126.08C246.18 131.6 250.66 136.07 256.17 136.07 261.68 136.07 266.16 131.59 266.16 126.08Z" fill="#FFFFFF"/><path d="M245.84 385.92 245.84 398.24C245.84 403.76 250.32 408.23 255.83 408.23 261.34 408.23 265.82 403.75 265.82 398.24L265.82 385.92C265.82 380.4 261.34 375.93 255.83 375.93 250.32 375.93 245.84 380.4 245.84 385.92Z" fill="#FFFFFF"/><path d="M205.91 191.78C202.01 187.88 195.68 187.88 191.78 191.78 187.88 195.68 187.88 202.01 191.78 205.91L225.65 239.78C223.05 244.62 221.58 250.14 221.58 256 221.58 274.98 237.02 290.43 256.01 290.43 275 290.43 290.44 274.99 290.44 256 290.44 250.14 288.96 244.61 286.37 239.78L354.71 171.44C358.61 167.54 358.61 161.21 354.71 157.31 350.81 153.41 344.48 153.41 340.58 157.31L272.24 225.65C267.4 223.05 261.88 221.58 256.02 221.58 250.16 221.58 244.63 223.06 239.8 225.65L205.93 191.78ZM256 241.56C263.96 241.56 270.44 248.04 270.44 256 270.44 263.96 263.96 270.44 256 270.44 248.04 270.44 241.56 263.96 241.56 256 241.56 248.04 248.04 241.56 256 241.56Z" fill="#FFFFFF"/><path d="M135.16 135.16C137.03 133.3 138.1 130.72 138.1 128.09 138.1 125.46 137.03 122.89 135.16 121.02 133.3 119.16 130.73 118.09 128.09 118.09 125.45 118.09 122.88 119.16 121.02 121.02 119.16 122.88 118.09 125.46 118.09 128.09 118.09 130.72 119.16 133.3 121.02 135.16 122.88 137.02 125.46 138.09 128.09 138.09 130.72 138.09 133.3 137.02 135.16 135.16Z" fill="#FFFFFF"/><path d="M325.22 29.86C327.86 29.86 330.44 28.8 332.3 26.93 334.16 25.07 335.23 22.5 335.23 19.86 335.23 17.22 334.16 14.65 332.3 12.79 330.44 10.93 327.86 9.86 325.22 9.86 322.58 9.86 320.01 10.93 318.16 12.79 316.3 14.65 315.23 17.23 315.23 19.86 315.23 22.49 316.3 25.07 318.16 26.93 320.02 28.8 322.6 29.86 325.22 29.86Z" fill="#FFFFFF"/></svg>