<svg viewBox="0 0 3048.32 614.12" xmlns="http://www.w3.org/2000/svg" xmlns:xlink="http://www.w3.org/1999/xlink" id="Layer_1" overflow="hidden"><defs><filter id="luminosity-noclip" color-interpolation-filters="sRGB" stroke="#768394" stroke-width="2.00003" stroke-miterlimit="10" stroke-opacity="0.3" fill="none" x="0" y="-140.89" width="3048.32" height="755.02" filterUnits="userSpaceOnUse" primitiveUnits="userSpaceOnUse"><feFlood flood-color="#FFFFFF" result="bg"/><feBlend in="SourceGraphic" in2="bg" mode="normal"/></filter><linearGradient x1="1524.16" y1="560.44" x2="1524.16" y2="-140.89" gradientUnits="userSpaceOnUse" id="linear-gradient"><stop offset="0.04" stop-opacity="0"/><stop offset="1"/></linearGradient><mask maskUnits="userSpaceOnUse" x="0" y="-140.89" width="3048.32" height="755.02" id="mask"><g filter="url(#luminosity-noclip)"><rect x="1" y="-140.89" width="3046.32" height="701.33" fill="url(#linear-gradient)"/></g></mask></defs><g mask="url(#mask)"><g><g><g><path d="M1365.63 315.77 1365.63 613.12 1393.63 613.12 1393.63 330.93 1412.1 340.87 1412.1 414.81" stroke="#768394" stroke-width="2.00003" stroke-miterlimit="10" stroke-opacity="0.3" fill="none"/><path d="M1512.29 395.48 1512.29 613.12 1484.28 613.12 1484.28 380.32 1512.29 395.48Z" stroke="#768394" stroke-width="2.00003" stroke-miterlimit="10" stroke-opacity="0.3" fill="none"/><line x1="1412.1" y1="473.99" x2="1412.1" y2="613.12" stroke="#768394" stroke-width="2.00003" stroke-miterlimit="10" stroke-opacity="0.3" fill="none"/><line x1="1423.45" y1="479.51" x2="1423.45" y2="613.12" stroke="#768394" stroke-width="2.00003" stroke-miterlimit="10" stroke-opacity="0.3" fill="none"/><line x1="1436" y1="486.43" x2="1436" y2="613.12" stroke="#768394" stroke-width="2.00003" stroke-miterlimit="10" stroke-opacity="0.3" fill="none"/><path d="M1467.72 613.12 1467.72 371.29 1449.45 361.05 1449.45 490.35 1458.58 495.17" stroke="#768394" stroke-width="2.00003" stroke-miterlimit="10" stroke-opacity="0.3" fill="none"/><path d="M1365.63 0 1365.63 297.35 1393.63 312.56 1393.63 15.16 1412.1 25.1 1412.1 99.03" stroke="#768394" stroke-width="2.00003" stroke-miterlimit="10" stroke-opacity="0.3" fill="none"/><path d="M1512.29 79.71 1512.29 375.3 1484.28 360.15 1484.28 64.55 1512.29 79.71Z" stroke="#768394" stroke-width="2.00003" stroke-miterlimit="10" stroke-opacity="0.3" fill="none"/><line x1="1412.1" y1="158.21" x2="1412.1" y2="322.1" stroke="#768394" stroke-width="2.00003" stroke-miterlimit="10" stroke-opacity="0.3" fill="none"/><line x1="1423.45" y1="163.73" x2="1423.45" y2="327.82" stroke="#768394" stroke-width="2.00003" stroke-miterlimit="10" stroke-opacity="0.3" fill="none"/><line x1="1436" y1="170.66" x2="1436" y2="334.15" stroke="#768394" stroke-width="2.00003" stroke-miterlimit="10" stroke-opacity="0.3" fill="none"/><path d="M1467.72 351.61 1467.72 55.51 1449.45 45.27 1449.45 174.57 1458.58 179.39" stroke="#768394" stroke-width="2.00003" stroke-miterlimit="10" stroke-opacity="0.3" fill="none"/></g><g><path d="M1195.05 315.77 1195.05 613.12 1223.06 613.12 1223.06 330.93 1241.53 340.87 1241.53 414.81" stroke="#768394" stroke-width="2.00003" stroke-miterlimit="10" stroke-opacity="0.3" fill="none"/><path d="M1341.71 395.48 1341.71 613.12 1313.71 613.12 1313.71 380.32 1341.71 395.48Z" stroke="#768394" stroke-width="2.00003" stroke-miterlimit="10" stroke-opacity="0.3" fill="none"/><line x1="1241.53" y1="473.99" x2="1241.53" y2="613.12" stroke="#768394" stroke-width="2.00003" stroke-miterlimit="10" stroke-opacity="0.3" fill="none"/><line x1="1252.87" y1="479.51" x2="1252.87" y2="613.12" stroke="#768394" stroke-width="2.00003" stroke-miterlimit="10" stroke-opacity="0.3" fill="none"/><line x1="1265.42" y1="486.43" x2="1265.42" y2="613.12" stroke="#768394" stroke-width="2.00003" stroke-miterlimit="10" stroke-opacity="0.3" fill="none"/><path d="M1297.14 613.12 1297.14 371.29 1278.87 361.05 1278.87 490.35 1288.01 495.17" stroke="#768394" stroke-width="2.00003" stroke-miterlimit="10" stroke-opacity="0.3" fill="none"/><path d="M1195.05 0 1195.05 297.35 1223.06 312.56 1223.06 15.16 1241.53 25.1 1241.53 99.03" stroke="#768394" stroke-width="2.00003" stroke-miterlimit="10" stroke-opacity="0.3" fill="none"/><path d="M1341.71 79.71 1341.71 375.3 1313.71 360.15 1313.71 64.55 1341.71 79.71Z" stroke="#768394" stroke-width="2.00003" stroke-miterlimit="10" stroke-opacity="0.3" fill="none"/><line x1="1241.53" y1="158.21" x2="1241.53" y2="322.1" stroke="#768394" stroke-width="2.00003" stroke-miterlimit="10" stroke-opacity="0.3" fill="none"/><line x1="1252.87" y1="163.73" x2="1252.87" y2="327.82" stroke="#768394" stroke-width="2.00003" stroke-miterlimit="10" stroke-opacity="0.3" fill="none"/><line x1="1265.42" y1="170.66" x2="1265.42" y2="334.15" stroke="#768394" stroke-width="2.00003" stroke-miterlimit="10" stroke-opacity="0.3" fill="none"/><path d="M1297.14 351.61 1297.14 55.51 1278.87 45.27 1278.87 174.57 1288.01 179.39" stroke="#768394" stroke-width="2.00003" stroke-miterlimit="10" stroke-opacity="0.3" fill="none"/></g><g><path d="M1024.47 315.77 1024.47 613.12 1052.48 613.12 1052.48 330.93 1070.95 340.87 1070.95 414.81" stroke="#768394" stroke-width="2.00003" stroke-miterlimit="10" stroke-opacity="0.3" fill="none"/><path d="M1171.13 395.48 1171.13 613.12 1143.13 613.12 1143.13 380.32 1171.13 395.48Z" stroke="#768394" stroke-width="2.00003" stroke-miterlimit="10" stroke-opacity="0.3" fill="none"/><line x1="1070.95" y1="473.99" x2="1070.95" y2="613.12" stroke="#768394" stroke-width="2.00003" stroke-miterlimit="10" stroke-opacity="0.3" fill="none"/><line x1="1082.29" y1="479.51" x2="1082.29" y2="613.12" stroke="#768394" stroke-width="2.00003" stroke-miterlimit="10" stroke-opacity="0.3" fill="none"/><line x1="1094.84" y1="486.43" x2="1094.84" y2="613.12" stroke="#768394" stroke-width="2.00003" stroke-miterlimit="10" stroke-opacity="0.3" fill="none"/><path d="M1126.56 613.12 1126.56 371.29 1108.29 361.05 1108.29 490.35 1117.43 495.17" stroke="#768394" stroke-width="2.00003" stroke-miterlimit="10" stroke-opacity="0.3" fill="none"/><path d="M1024.47 0 1024.47 297.35 1052.48 312.56 1052.48 15.16 1070.95 25.1 1070.95 99.03" stroke="#768394" stroke-width="2.00003" stroke-miterlimit="10" stroke-opacity="0.3" fill="none"/><path d="M1171.13 79.71 1171.13 375.3 1143.13 360.15 1143.13 64.55 1171.13 79.71Z" stroke="#768394" stroke-width="2.00003" stroke-miterlimit="10" stroke-opacity="0.3" fill="none"/><line x1="1070.95" y1="158.21" x2="1070.95" y2="322.1" stroke="#768394" stroke-width="2.00003" stroke-miterlimit="10" stroke-opacity="0.3" fill="none"/><line x1="1082.29" y1="163.73" x2="1082.29" y2="327.82" stroke="#768394" stroke-width="2.00003" stroke-miterlimit="10" stroke-opacity="0.3" fill="none"/><line x1="1094.84" y1="170.66" x2="1094.84" y2="334.15" stroke="#768394" stroke-width="2.00003" stroke-miterlimit="10" stroke-opacity="0.3" fill="none"/><path d="M1126.56 351.61 1126.56 55.51 1108.29 45.27 1108.29 174.57 1117.43 179.39" stroke="#768394" stroke-width="2.00003" stroke-miterlimit="10" stroke-opacity="0.3" fill="none"/></g><g><path d="M853.89 315.77 853.89 613.12 881.9 613.12 881.9 330.93 900.37 340.87 900.37 414.81" stroke="#768394" stroke-width="2.00003" stroke-miterlimit="10" stroke-opacity="0.3" fill="none"/><path d="M1000.56 395.48 1000.56 613.12 972.55 613.12 972.55 380.32 1000.56 395.48Z" stroke="#768394" stroke-width="2.00003" stroke-miterlimit="10" stroke-opacity="0.3" fill="none"/><line x1="900.37" y1="473.99" x2="900.37" y2="613.12" stroke="#768394" stroke-width="2.00003" stroke-miterlimit="10" stroke-opacity="0.3" fill="none"/><line x1="911.71" y1="479.51" x2="911.71" y2="613.12" stroke="#768394" stroke-width="2.00003" stroke-miterlimit="10" stroke-opacity="0.3" fill="none"/><line x1="924.26" y1="486.43" x2="924.26" y2="613.12" stroke="#768394" stroke-width="2.00003" stroke-miterlimit="10" stroke-opacity="0.3" fill="none"/><path d="M955.98 613.12 955.98 371.29 937.71 361.05 937.71 490.35 946.85 495.17" stroke="#768394" stroke-width="2.00003" stroke-miterlimit="10" stroke-opacity="0.3" fill="none"/><path d="M853.89 0 853.89 297.35 881.9 312.56 881.9 15.16 900.37 25.1 900.37 99.03" stroke="#768394" stroke-width="2.00003" stroke-miterlimit="10" stroke-opacity="0.3" fill="none"/><path d="M1000.56 79.71 1000.56 375.3 972.55 360.15 972.55 64.55 1000.56 79.71Z" stroke="#768394" stroke-width="2.00003" stroke-miterlimit="10" stroke-opacity="0.3" fill="none"/><line x1="900.37" y1="158.21" x2="900.37" y2="322.1" stroke="#768394" stroke-width="2.00003" stroke-miterlimit="10" stroke-opacity="0.3" fill="none"/><line x1="911.71" y1="163.73" x2="911.71" y2="327.82" stroke="#768394" stroke-width="2.00003" stroke-miterlimit="10" stroke-opacity="0.3" fill="none"/><line x1="924.26" y1="170.66" x2="924.26" y2="334.15" stroke="#768394" stroke-width="2.00003" stroke-miterlimit="10" stroke-opacity="0.3" fill="none"/><path d="M955.98 351.61 955.98 55.51 937.71 45.27 937.71 174.57 946.85 179.39" stroke="#768394" stroke-width="2.00003" stroke-miterlimit="10" stroke-opacity="0.3" fill="none"/></g><g><path d="M683.31 315.77 683.31 613.12 711.32 613.12 711.32 330.93 729.79 340.87 729.79 414.81" stroke="#768394" stroke-width="2.00003" stroke-miterlimit="10" stroke-opacity="0.3" fill="none"/><path d="M829.98 395.48 829.98 613.12 801.97 613.12 801.97 380.32 829.98 395.48Z" stroke="#768394" stroke-width="2.00003" stroke-miterlimit="10" stroke-opacity="0.3" fill="none"/><line x1="729.79" y1="473.99" x2="729.79" y2="613.12" stroke="#768394" stroke-width="2.00003" stroke-miterlimit="10" stroke-opacity="0.3" fill="none"/><line x1="741.14" y1="479.51" x2="741.14" y2="613.12" stroke="#768394" stroke-width="2.00003" stroke-miterlimit="10" stroke-opacity="0.3" fill="none"/><line x1="753.68" y1="486.43" x2="753.68" y2="613.12" stroke="#768394" stroke-width="2.00003" stroke-miterlimit="10" stroke-opacity="0.3" fill="none"/><path d="M785.41 613.12 785.41 371.29 767.14 361.05 767.14 490.35 776.27 495.17" stroke="#768394" stroke-width="2.00003" stroke-miterlimit="10" stroke-opacity="0.3" fill="none"/><path d="M683.31 0 683.31 297.35 711.32 312.56 711.32 15.16 729.79 25.1 729.79 99.03" stroke="#768394" stroke-width="2.00003" stroke-miterlimit="10" stroke-opacity="0.3" fill="none"/><path d="M829.98 79.71 829.98 375.3 801.97 360.15 801.97 64.55 829.98 79.71Z" stroke="#768394" stroke-width="2.00003" stroke-miterlimit="10" stroke-opacity="0.3" fill="none"/><line x1="729.79" y1="158.21" x2="729.79" y2="322.1" stroke="#768394" stroke-width="2.00003" stroke-miterlimit="10" stroke-opacity="0.3" fill="none"/><line x1="741.14" y1="163.73" x2="741.14" y2="327.82" stroke="#768394" stroke-width="2.00003" stroke-miterlimit="10" stroke-opacity="0.3" fill="none"/><line x1="753.68" y1="170.66" x2="753.68" y2="334.15" stroke="#768394" stroke-width="2.00003" stroke-miterlimit="10" stroke-opacity="0.3" fill="none"/><path d="M785.41 351.61 785.41 55.51 767.14 45.27 767.14 174.57 776.27 179.39" stroke="#768394" stroke-width="2.00003" stroke-miterlimit="10" stroke-opacity="0.3" fill="none"/></g><g><path d="M512.73 315.77 512.73 613.12 540.74 613.12 540.74 330.93 559.21 340.87 559.21 414.81" stroke="#768394" stroke-width="2.00003" stroke-miterlimit="10" stroke-opacity="0.3" fill="none"/><path d="M659.4 395.48 659.4 613.12 631.39 613.12 631.39 380.32 659.4 395.48Z" stroke="#768394" stroke-width="2.00003" stroke-miterlimit="10" stroke-opacity="0.3" fill="none"/><line x1="559.21" y1="473.99" x2="559.21" y2="613.12" stroke="#768394" stroke-width="2.00003" stroke-miterlimit="10" stroke-opacity="0.3" fill="none"/><line x1="570.56" y1="479.51" x2="570.56" y2="613.12" stroke="#768394" stroke-width="2.00003" stroke-miterlimit="10" stroke-opacity="0.3" fill="none"/><line x1="583.11" y1="486.43" x2="583.11" y2="613.12" stroke="#768394" stroke-width="2.00003" stroke-miterlimit="10" stroke-opacity="0.3" fill="none"/><path d="M614.83 613.12 614.83 371.29 596.56 361.05 596.56 490.35 605.69 495.17" stroke="#768394" stroke-width="2.00003" stroke-miterlimit="10" stroke-opacity="0.3" fill="none"/><path d="M512.73 0 512.73 297.35 540.74 312.56 540.74 15.16 559.21 25.1 559.21 99.03" stroke="#768394" stroke-width="2.00003" stroke-miterlimit="10" stroke-opacity="0.3" fill="none"/><path d="M659.4 79.71 659.4 375.3 631.39 360.15 631.39 64.55 659.4 79.71Z" stroke="#768394" stroke-width="2.00003" stroke-miterlimit="10" stroke-opacity="0.3" fill="none"/><line x1="559.21" y1="158.21" x2="559.21" y2="322.1" stroke="#768394" stroke-width="2.00003" stroke-miterlimit="10" stroke-opacity="0.3" fill="none"/><line x1="570.56" y1="163.73" x2="570.56" y2="327.82" stroke="#768394" stroke-width="2.00003" stroke-miterlimit="10" stroke-opacity="0.3" fill="none"/><line x1="583.11" y1="170.66" x2="583.11" y2="334.15" stroke="#768394" stroke-width="2.00003" stroke-miterlimit="10" stroke-opacity="0.3" fill="none"/><path d="M614.83 351.61 614.83 55.51 596.56 45.27 596.56 174.57 605.69 179.39" stroke="#768394" stroke-width="2.00003" stroke-miterlimit="10" stroke-opacity="0.3" fill="none"/></g><g><path d="M342.16 315.77 342.16 613.12 370.16 613.12 370.16 330.93 388.64 340.87 388.64 414.81" stroke="#768394" stroke-width="2.00003" stroke-miterlimit="10" stroke-opacity="0.3" fill="none"/><path d="M488.82 395.48 488.82 613.12 460.81 613.12 460.81 380.32 488.82 395.48Z" stroke="#768394" stroke-width="2.00003" stroke-miterlimit="10" stroke-opacity="0.3" fill="none"/><line x1="388.64" y1="473.99" x2="388.64" y2="613.12" stroke="#768394" stroke-width="2.00003" stroke-miterlimit="10" stroke-opacity="0.3" fill="none"/><line x1="399.98" y1="479.51" x2="399.98" y2="613.12" stroke="#768394" stroke-width="2.00003" stroke-miterlimit="10" stroke-opacity="0.3" fill="none"/><line x1="412.53" y1="486.43" x2="412.53" y2="613.12" stroke="#768394" stroke-width="2.00003" stroke-miterlimit="10" stroke-opacity="0.3" fill="none"/><path d="M444.25 613.12 444.25 371.29 425.98 361.05 425.98 490.35 435.11 495.17" stroke="#768394" stroke-width="2.00003" stroke-miterlimit="10" stroke-opacity="0.3" fill="none"/><path d="M342.16 0 342.16 297.35 370.16 312.56 370.16 15.16 388.64 25.1 388.64 99.03" stroke="#768394" stroke-width="2.00003" stroke-miterlimit="10" stroke-opacity="0.3" fill="none"/><path d="M488.82 79.71 488.82 375.3 460.81 360.15 460.81 64.55 488.82 79.71Z" stroke="#768394" stroke-width="2.00003" stroke-miterlimit="10" stroke-opacity="0.3" fill="none"/><line x1="388.64" y1="158.21" x2="388.64" y2="322.1" stroke="#768394" stroke-width="2.00003" stroke-miterlimit="10" stroke-opacity="0.3" fill="none"/><line x1="399.98" y1="163.73" x2="399.98" y2="327.82" stroke="#768394" stroke-width="2.00003" stroke-miterlimit="10" stroke-opacity="0.3" fill="none"/><line x1="412.53" y1="170.66" x2="412.53" y2="334.15" stroke="#768394" stroke-width="2.00003" stroke-miterlimit="10" stroke-opacity="0.3" fill="none"/><path d="M444.25 351.61 444.25 55.51 425.98 45.27 425.98 174.57 435.11 179.39" stroke="#768394" stroke-width="2.00003" stroke-miterlimit="10" stroke-opacity="0.3" fill="none"/></g><g><path d="M171.58 315.77 171.58 613.12 199.59 613.12 199.59 330.93 218.06 340.87 218.06 414.81" stroke="#768394" stroke-width="2.00003" stroke-miterlimit="10" stroke-opacity="0.3" fill="none"/><path d="M318.24 395.48 318.24 613.12 290.24 613.12 290.24 380.32 318.24 395.48Z" stroke="#768394" stroke-width="2.00003" stroke-miterlimit="10" stroke-opacity="0.3" fill="none"/><line x1="218.06" y1="473.99" x2="218.06" y2="613.12" stroke="#768394" stroke-width="2.00003" stroke-miterlimit="10" stroke-opacity="0.3" fill="none"/><line x1="229.4" y1="479.51" x2="229.4" y2="613.12" stroke="#768394" stroke-width="2.00003" stroke-miterlimit="10" stroke-opacity="0.3" fill="none"/><line x1="241.95" y1="486.43" x2="241.95" y2="613.12" stroke="#768394" stroke-width="2.00003" stroke-miterlimit="10" stroke-opacity="0.3" fill="none"/><path d="M273.67 613.12 273.67 371.29 255.4 361.05 255.4 490.35 264.54 495.17" stroke="#768394" stroke-width="2.00003" stroke-miterlimit="10" stroke-opacity="0.3" fill="none"/><path d="M171.58 0 171.58 297.35 199.59 312.56 199.59 15.16 218.06 25.1 218.06 99.03" stroke="#768394" stroke-width="2.00003" stroke-miterlimit="10" stroke-opacity="0.3" fill="none"/><path d="M318.24 79.71 318.24 375.3 290.24 360.15 290.24 64.55 318.24 79.71Z" stroke="#768394" stroke-width="2.00003" stroke-miterlimit="10" stroke-opacity="0.3" fill="none"/><line x1="218.06" y1="158.21" x2="218.06" y2="322.1" stroke="#768394" stroke-width="2.00003" stroke-miterlimit="10" stroke-opacity="0.3" fill="none"/><line x1="229.4" y1="163.73" x2="229.4" y2="327.82" stroke="#768394" stroke-width="2.00003" stroke-miterlimit="10" stroke-opacity="0.3" fill="none"/><line x1="241.95" y1="170.66" x2="241.95" y2="334.15" stroke="#768394" stroke-width="2.00003" stroke-miterlimit="10" stroke-opacity="0.3" fill="none"/><path d="M273.67 351.61 273.67 55.51 255.4 45.27 255.4 174.57 264.54 179.39" stroke="#768394" stroke-width="2.00003" stroke-miterlimit="10" stroke-opacity="0.3" fill="none"/></g><g><path d="M1 315.77 1 613.12 29.01 613.12 29.01 330.93 47.48 340.87 47.48 414.81" stroke="#768394" stroke-width="2.00003" stroke-miterlimit="10" stroke-opacity="0.3" fill="none"/><path d="M147.67 395.48 147.67 613.12 119.66 613.12 119.66 380.32 147.67 395.48Z" stroke="#768394" stroke-width="2.00003" stroke-miterlimit="10" stroke-opacity="0.3" fill="none"/><line x1="47.48" y1="473.99" x2="47.48" y2="613.12" stroke="#768394" stroke-width="2.00003" stroke-miterlimit="10" stroke-opacity="0.3" fill="none"/><line x1="58.82" y1="479.51" x2="58.82" y2="613.12" stroke="#768394" stroke-width="2.00003" stroke-miterlimit="10" stroke-opacity="0.3" fill="none"/><line x1="71.37" y1="486.43" x2="71.37" y2="613.12" stroke="#768394" stroke-width="2.00003" stroke-miterlimit="10" stroke-opacity="0.3" fill="none"/><path d="M103.09 613.12 103.09 371.29 84.82 361.05 84.82 490.35 93.96 495.17" stroke="#768394" stroke-width="2.00003" stroke-miterlimit="10" stroke-opacity="0.3" fill="none"/><path d="M1 0 1 297.35 29.01 312.56 29.01 15.16 47.48 25.1 47.48 99.03" stroke="#768394" stroke-width="2.00003" stroke-miterlimit="10" stroke-opacity="0.3" fill="none"/><path d="M147.67 79.71 147.67 375.3 119.66 360.15 119.66 64.55 147.67 79.71Z" stroke="#768394" stroke-width="2.00003" stroke-miterlimit="10" stroke-opacity="0.3" fill="none"/><line x1="47.48" y1="158.21" x2="47.48" y2="322.1" stroke="#768394" stroke-width="2.00003" stroke-miterlimit="10" stroke-opacity="0.3" fill="none"/><line x1="58.82" y1="163.73" x2="58.82" y2="327.82" stroke="#768394" stroke-width="2.00003" stroke-miterlimit="10" stroke-opacity="0.3" fill="none"/><line x1="71.37" y1="170.66" x2="71.37" y2="334.15" stroke="#768394" stroke-width="2.00003" stroke-miterlimit="10" stroke-opacity="0.3" fill="none"/><path d="M103.09 351.61 103.09 55.51 84.82 45.27 84.82 174.57 93.96 179.39" stroke="#768394" stroke-width="2.00003" stroke-miterlimit="10" stroke-opacity="0.3" fill="none"/></g></g><g><g><path d="M2900.66 315.77 2900.66 613.12 2928.67 613.12 2928.67 330.93 2947.14 340.87 2947.14 414.81" stroke="#768394" stroke-width="2.00003" stroke-miterlimit="10" stroke-opacity="0.3" fill="none"/><path d="M3047.32 395.48 3047.32 613.12 3019.32 613.12 3019.32 380.32 3047.32 395.48Z" stroke="#768394" stroke-width="2.00003" stroke-miterlimit="10" stroke-opacity="0.3" fill="none"/><line x1="2947.14" y1="473.99" x2="2947.14" y2="613.12" stroke="#768394" stroke-width="2.00003" stroke-miterlimit="10" stroke-opacity="0.3" fill="none"/><line x1="2958.48" y1="479.51" x2="2958.48" y2="613.12" stroke="#768394" stroke-width="2.00003" stroke-miterlimit="10" stroke-opacity="0.3" fill="none"/><line x1="2971.03" y1="486.43" x2="2971.03" y2="613.12" stroke="#768394" stroke-width="2.00003" stroke-miterlimit="10" stroke-opacity="0.3" fill="none"/><path d="M3002.75 613.12 3002.75 371.29 2984.48 361.05 2984.48 490.35 2993.62 495.17" stroke="#768394" stroke-width="2.00003" stroke-miterlimit="10" stroke-opacity="0.3" fill="none"/><path d="M2900.66 0 2900.66 297.35 2928.67 312.56 2928.67 15.16 2947.14 25.1 2947.14 99.03" stroke="#768394" stroke-width="2.00003" stroke-miterlimit="10" stroke-opacity="0.3" fill="none"/><path d="M3047.32 79.71 3047.32 375.3 3019.32 360.15 3019.32 64.55 3047.32 79.71Z" stroke="#768394" stroke-width="2.00003" stroke-miterlimit="10" stroke-opacity="0.3" fill="none"/><line x1="2947.14" y1="158.21" x2="2947.14" y2="322.1" stroke="#768394" stroke-width="2.00003" stroke-miterlimit="10" stroke-opacity="0.3" fill="none"/><line x1="2958.48" y1="163.73" x2="2958.48" y2="327.82" stroke="#768394" stroke-width="2.00003" stroke-miterlimit="10" stroke-opacity="0.3" fill="none"/><line x1="2971.03" y1="170.66" x2="2971.03" y2="334.15" stroke="#768394" stroke-width="2.00003" stroke-miterlimit="10" stroke-opacity="0.3" fill="none"/><path d="M3002.75 351.61 3002.75 55.51 2984.48 45.27 2984.48 174.57 2993.62 179.39" stroke="#768394" stroke-width="2.00003" stroke-miterlimit="10" stroke-opacity="0.3" fill="none"/></g><g><path d="M2730.08 315.77 2730.08 613.12 2758.09 613.12 2758.09 330.93 2776.56 340.87 2776.56 414.81" stroke="#768394" stroke-width="2.00003" stroke-miterlimit="10" stroke-opacity="0.3" fill="none"/><path d="M2876.75 395.48 2876.75 613.12 2848.74 613.12 2848.74 380.32 2876.75 395.48Z" stroke="#768394" stroke-width="2.00003" stroke-miterlimit="10" stroke-opacity="0.3" fill="none"/><line x1="2776.56" y1="473.99" x2="2776.56" y2="613.12" stroke="#768394" stroke-width="2.00003" stroke-miterlimit="10" stroke-opacity="0.3" fill="none"/><line x1="2787.9" y1="479.51" x2="2787.9" y2="613.12" stroke="#768394" stroke-width="2.00003" stroke-miterlimit="10" stroke-opacity="0.3" fill="none"/><line x1="2800.45" y1="486.43" x2="2800.45" y2="613.12" stroke="#768394" stroke-width="2.00003" stroke-miterlimit="10" stroke-opacity="0.3" fill="none"/><path d="M2832.17 613.12 2832.17 371.29 2813.9 361.05 2813.9 490.35 2823.04 495.17" stroke="#768394" stroke-width="2.00003" stroke-miterlimit="10" stroke-opacity="0.3" fill="none"/><path d="M2730.08 0 2730.08 297.35 2758.09 312.56 2758.09 15.16 2776.56 25.1 2776.56 99.03" stroke="#768394" stroke-width="2.00003" stroke-miterlimit="10" stroke-opacity="0.3" fill="none"/><path d="M2876.75 79.71 2876.75 375.3 2848.74 360.15 2848.74 64.55 2876.75 79.71Z" stroke="#768394" stroke-width="2.00003" stroke-miterlimit="10" stroke-opacity="0.3" fill="none"/><line x1="2776.56" y1="158.21" x2="2776.56" y2="322.1" stroke="#768394" stroke-width="2.00003" stroke-miterlimit="10" stroke-opacity="0.3" fill="none"/><line x1="2787.9" y1="163.73" x2="2787.9" y2="327.82" stroke="#768394" stroke-width="2.00003" stroke-miterlimit="10" stroke-opacity="0.3" fill="none"/><line x1="2800.45" y1="170.66" x2="2800.45" y2="334.15" stroke="#768394" stroke-width="2.00003" stroke-miterlimit="10" stroke-opacity="0.3" fill="none"/><path d="M2832.17 351.61 2832.17 55.51 2813.9 45.27 2813.9 174.57 2823.04 179.39" stroke="#768394" stroke-width="2.00003" stroke-miterlimit="10" stroke-opacity="0.3" fill="none"/></g><g><path d="M2559.5 315.77 2559.5 613.12 2587.51 613.12 2587.51 330.93 2605.98 340.87 2605.98 414.81" stroke="#768394" stroke-width="2.00003" stroke-miterlimit="10" stroke-opacity="0.3" fill="none"/><path d="M2706.17 395.48 2706.17 613.12 2678.16 613.12 2678.16 380.32 2706.17 395.48Z" stroke="#768394" stroke-width="2.00003" stroke-miterlimit="10" stroke-opacity="0.3" fill="none"/><line x1="2605.98" y1="473.99" x2="2605.98" y2="613.12" stroke="#768394" stroke-width="2.00003" stroke-miterlimit="10" stroke-opacity="0.3" fill="none"/><line x1="2617.33" y1="479.51" x2="2617.33" y2="613.12" stroke="#768394" stroke-width="2.00003" stroke-miterlimit="10" stroke-opacity="0.3" fill="none"/><line x1="2629.87" y1="486.43" x2="2629.87" y2="613.12" stroke="#768394" stroke-width="2.00003" stroke-miterlimit="10" stroke-opacity="0.3" fill="none"/><path d="M2661.6 613.12 2661.6 371.29 2643.33 361.05 2643.33 490.35 2652.46 495.17" stroke="#768394" stroke-width="2.00003" stroke-miterlimit="10" stroke-opacity="0.3" fill="none"/><path d="M2559.5 0 2559.5 297.35 2587.51 312.56 2587.51 15.16 2605.98 25.1 2605.98 99.03" stroke="#768394" stroke-width="2.00003" stroke-miterlimit="10" stroke-opacity="0.3" fill="none"/><path d="M2706.17 79.71 2706.17 375.3 2678.16 360.15 2678.16 64.55 2706.17 79.71Z" stroke="#768394" stroke-width="2.00003" stroke-miterlimit="10" stroke-opacity="0.3" fill="none"/><line x1="2605.98" y1="158.21" x2="2605.98" y2="322.1" stroke="#768394" stroke-width="2.00003" stroke-miterlimit="10" stroke-opacity="0.3" fill="none"/><line x1="2617.33" y1="163.73" x2="2617.33" y2="327.82" stroke="#768394" stroke-width="2.00003" stroke-miterlimit="10" stroke-opacity="0.3" fill="none"/><line x1="2629.87" y1="170.66" x2="2629.87" y2="334.15" stroke="#768394" stroke-width="2.00003" stroke-miterlimit="10" stroke-opacity="0.3" fill="none"/><path d="M2661.6 351.61 2661.6 55.51 2643.33 45.27 2643.33 174.57 2652.46 179.39" stroke="#768394" stroke-width="2.00003" stroke-miterlimit="10" stroke-opacity="0.3" fill="none"/></g><g><path d="M2388.92 315.77 2388.92 613.12 2416.93 613.12 2416.93 330.93 2435.4 340.87 2435.4 414.81" stroke="#768394" stroke-width="2.00003" stroke-miterlimit="10" stroke-opacity="0.3" fill="none"/><path d="M2535.59 395.48 2535.59 613.12 2507.58 613.12 2507.58 380.32 2535.59 395.48Z" stroke="#768394" stroke-width="2.00003" stroke-miterlimit="10" stroke-opacity="0.3" fill="none"/><line x1="2435.4" y1="473.99" x2="2435.4" y2="613.12" stroke="#768394" stroke-width="2.00003" stroke-miterlimit="10" stroke-opacity="0.3" fill="none"/><line x1="2446.75" y1="479.51" x2="2446.75" y2="613.12" stroke="#768394" stroke-width="2.00003" stroke-miterlimit="10" stroke-opacity="0.3" fill="none"/><line x1="2459.3" y1="486.43" x2="2459.3" y2="613.12" stroke="#768394" stroke-width="2.00003" stroke-miterlimit="10" stroke-opacity="0.3" fill="none"/><path d="M2491.02 613.12 2491.02 371.29 2472.75 361.05 2472.75 490.35 2481.88 495.17" stroke="#768394" stroke-width="2.00003" stroke-miterlimit="10" stroke-opacity="0.3" fill="none"/><path d="M2388.92 0 2388.92 297.35 2416.93 312.56 2416.93 15.16 2435.4 25.1 2435.4 99.03" stroke="#768394" stroke-width="2.00003" stroke-miterlimit="10" stroke-opacity="0.3" fill="none"/><path d="M2535.59 79.71 2535.59 375.3 2507.58 360.15 2507.58 64.55 2535.59 79.71Z" stroke="#768394" stroke-width="2.00003" stroke-miterlimit="10" stroke-opacity="0.3" fill="none"/><line x1="2435.4" y1="158.21" x2="2435.4" y2="322.1" stroke="#768394" stroke-width="2.00003" stroke-miterlimit="10" stroke-opacity="0.3" fill="none"/><line x1="2446.75" y1="163.73" x2="2446.75" y2="327.82" stroke="#768394" stroke-width="2.00003" stroke-miterlimit="10" stroke-opacity="0.3" fill="none"/><line x1="2459.3" y1="170.66" x2="2459.3" y2="334.15" stroke="#768394" stroke-width="2.00003" stroke-miterlimit="10" stroke-opacity="0.3" fill="none"/><path d="M2491.02 351.61 2491.02 55.51 2472.75 45.27 2472.75 174.57 2481.88 179.39" stroke="#768394" stroke-width="2.00003" stroke-miterlimit="10" stroke-opacity="0.3" fill="none"/></g><g><path d="M2218.35 315.77 2218.35 613.12 2246.35 613.12 2246.35 330.93 2264.82 340.87 2264.82 414.81" stroke="#768394" stroke-width="2.00003" stroke-miterlimit="10" stroke-opacity="0.3" fill="none"/><path d="M2365.01 395.48 2365.01 613.12 2337 613.12 2337 380.32 2365.01 395.48Z" stroke="#768394" stroke-width="2.00003" stroke-miterlimit="10" stroke-opacity="0.3" fill="none"/><line x1="2264.82" y1="473.99" x2="2264.82" y2="613.12" stroke="#768394" stroke-width="2.00003" stroke-miterlimit="10" stroke-opacity="0.3" fill="none"/><line x1="2276.17" y1="479.51" x2="2276.17" y2="613.12" stroke="#768394" stroke-width="2.00003" stroke-miterlimit="10" stroke-opacity="0.3" fill="none"/><line x1="2288.72" y1="486.43" x2="2288.72" y2="613.12" stroke="#768394" stroke-width="2.00003" stroke-miterlimit="10" stroke-opacity="0.3" fill="none"/><path d="M2320.44 613.12 2320.44 371.29 2302.17 361.05 2302.17 490.35 2311.3 495.17" stroke="#768394" stroke-width="2.00003" stroke-miterlimit="10" stroke-opacity="0.3" fill="none"/><path d="M2218.35 0 2218.35 297.35 2246.35 312.56 2246.35 15.16 2264.82 25.1 2264.82 99.03" stroke="#768394" stroke-width="2.00003" stroke-miterlimit="10" stroke-opacity="0.3" fill="none"/><path d="M2365.01 79.71 2365.01 375.3 2337 360.15 2337 64.55 2365.01 79.71Z" stroke="#768394" stroke-width="2.00003" stroke-miterlimit="10" stroke-opacity="0.3" fill="none"/><line x1="2264.82" y1="158.21" x2="2264.82" y2="322.1" stroke="#768394" stroke-width="2.00003" stroke-miterlimit="10" stroke-opacity="0.3" fill="none"/><line x1="2276.17" y1="163.73" x2="2276.17" y2="327.82" stroke="#768394" stroke-width="2.00003" stroke-miterlimit="10" stroke-opacity="0.3" fill="none"/><line x1="2288.72" y1="170.66" x2="2288.72" y2="334.15" stroke="#768394" stroke-width="2.00003" stroke-miterlimit="10" stroke-opacity="0.3" fill="none"/><path d="M2320.44 351.61 2320.44 55.51 2302.17 45.27 2302.17 174.57 2311.3 179.39" stroke="#768394" stroke-width="2.00003" stroke-miterlimit="10" stroke-opacity="0.3" fill="none"/></g><g><path d="M2047.77 315.77 2047.77 613.12 2075.78 613.12 2075.78 330.93 2094.25 340.87 2094.25 414.81" stroke="#768394" stroke-width="2.00003" stroke-miterlimit="10" stroke-opacity="0.3" fill="none"/><path d="M2194.43 395.48 2194.43 613.12 2166.43 613.12 2166.43 380.32 2194.43 395.48Z" stroke="#768394" stroke-width="2.00003" stroke-miterlimit="10" stroke-opacity="0.3" fill="none"/><line x1="2094.25" y1="473.99" x2="2094.25" y2="613.12" stroke="#768394" stroke-width="2.00003" stroke-miterlimit="10" stroke-opacity="0.3" fill="none"/><line x1="2105.59" y1="479.51" x2="2105.59" y2="613.12" stroke="#768394" stroke-width="2.00003" stroke-miterlimit="10" stroke-opacity="0.3" fill="none"/><line x1="2118.14" y1="486.43" x2="2118.14" y2="613.12" stroke="#768394" stroke-width="2.00003" stroke-miterlimit="10" stroke-opacity="0.3" fill="none"/><path d="M2149.86 613.12 2149.86 371.29 2131.59 361.05 2131.59 490.35 2140.73 495.17" stroke="#768394" stroke-width="2.00003" stroke-miterlimit="10" stroke-opacity="0.3" fill="none"/><path d="M2047.77 0 2047.77 297.35 2075.78 312.56 2075.78 15.16 2094.25 25.1 2094.25 99.03" stroke="#768394" stroke-width="2.00003" stroke-miterlimit="10" stroke-opacity="0.3" fill="none"/><path d="M2194.43 79.71 2194.43 375.3 2166.43 360.15 2166.43 64.55 2194.43 79.71Z" stroke="#768394" stroke-width="2.00003" stroke-miterlimit="10" stroke-opacity="0.3" fill="none"/><line x1="2094.25" y1="158.21" x2="2094.25" y2="322.1" stroke="#768394" stroke-width="2.00003" stroke-miterlimit="10" stroke-opacity="0.3" fill="none"/><line x1="2105.59" y1="163.73" x2="2105.59" y2="327.82" stroke="#768394" stroke-width="2.00003" stroke-miterlimit="10" stroke-opacity="0.3" fill="none"/><line x1="2118.14" y1="170.66" x2="2118.14" y2="334.15" stroke="#768394" stroke-width="2.00003" stroke-miterlimit="10" stroke-opacity="0.3" fill="none"/><path d="M2149.86 351.61 2149.86 55.51 2131.59 45.27 2131.59 174.57 2140.73 179.39" stroke="#768394" stroke-width="2.00003" stroke-miterlimit="10" stroke-opacity="0.3" fill="none"/></g><g><path d="M1877.19 315.77 1877.19 613.12 1905.2 613.12 1905.2 330.93 1923.67 340.87 1923.67 414.81" stroke="#768394" stroke-width="2.00003" stroke-miterlimit="10" stroke-opacity="0.3" fill="none"/><path d="M2023.85 395.48 2023.85 613.12 1995.85 613.12 1995.85 380.32 2023.85 395.48Z" stroke="#768394" stroke-width="2.00003" stroke-miterlimit="10" stroke-opacity="0.3" fill="none"/><line x1="1923.67" y1="473.99" x2="1923.67" y2="613.12" stroke="#768394" stroke-width="2.00003" stroke-miterlimit="10" stroke-opacity="0.3" fill="none"/><line x1="1935.01" y1="479.51" x2="1935.01" y2="613.12" stroke="#768394" stroke-width="2.00003" stroke-miterlimit="10" stroke-opacity="0.3" fill="none"/><line x1="1947.56" y1="486.43" x2="1947.56" y2="613.12" stroke="#768394" stroke-width="2.00003" stroke-miterlimit="10" stroke-opacity="0.3" fill="none"/><path d="M1979.28 613.12 1979.28 371.29 1961.01 361.05 1961.01 490.35 1970.15 495.17" stroke="#768394" stroke-width="2.00003" stroke-miterlimit="10" stroke-opacity="0.3" fill="none"/><path d="M1877.19 0 1877.19 297.35 1905.2 312.56 1905.2 15.16 1923.67 25.1 1923.67 99.03" stroke="#768394" stroke-width="2.00003" stroke-miterlimit="10" stroke-opacity="0.3" fill="none"/><path d="M2023.85 79.71 2023.85 375.3 1995.85 360.15 1995.85 64.55 2023.85 79.71Z" stroke="#768394" stroke-width="2.00003" stroke-miterlimit="10" stroke-opacity="0.3" fill="none"/><line x1="1923.67" y1="158.21" x2="1923.67" y2="322.1" stroke="#768394" stroke-width="2.00003" stroke-miterlimit="10" stroke-opacity="0.3" fill="none"/><line x1="1935.01" y1="163.73" x2="1935.01" y2="327.82" stroke="#768394" stroke-width="2.00003" stroke-miterlimit="10" stroke-opacity="0.3" fill="none"/><line x1="1947.56" y1="170.66" x2="1947.56" y2="334.15" stroke="#768394" stroke-width="2.00003" stroke-miterlimit="10" stroke-opacity="0.3" fill="none"/><path d="M1979.28 351.61 1979.28 55.51 1961.01 45.27 1961.01 174.57 1970.15 179.39" stroke="#768394" stroke-width="2.00003" stroke-miterlimit="10" stroke-opacity="0.3" fill="none"/></g><g><path d="M1706.61 315.77 1706.61 613.12 1734.62 613.12 1734.62 330.93 1753.09 340.87 1753.09 414.81" stroke="#768394" stroke-width="2.00003" stroke-miterlimit="10" stroke-opacity="0.3" fill="none"/><path d="M1853.28 395.48 1853.28 613.12 1825.27 613.12 1825.27 380.32 1853.28 395.48Z" stroke="#768394" stroke-width="2.00003" stroke-miterlimit="10" stroke-opacity="0.3" fill="none"/><line x1="1753.09" y1="473.99" x2="1753.09" y2="613.12" stroke="#768394" stroke-width="2.00003" stroke-miterlimit="10" stroke-opacity="0.3" fill="none"/><line x1="1764.43" y1="479.51" x2="1764.43" y2="613.12" stroke="#768394" stroke-width="2.00003" stroke-miterlimit="10" stroke-opacity="0.3" fill="none"/><line x1="1776.98" y1="486.43" x2="1776.98" y2="613.12" stroke="#768394" stroke-width="2.00003" stroke-miterlimit="10" stroke-opacity="0.3" fill="none"/><path d="M1808.7 613.12 1808.7 371.29 1790.43 361.05 1790.43 490.35 1799.57 495.17" stroke="#768394" stroke-width="2.00003" stroke-miterlimit="10" stroke-opacity="0.3" fill="none"/><path d="M1706.61 0 1706.61 297.35 1734.62 312.56 1734.62 15.16 1753.09 25.1 1753.09 99.03" stroke="#768394" stroke-width="2.00003" stroke-miterlimit="10" stroke-opacity="0.3" fill="none"/><path d="M1853.28 79.71 1853.28 375.3 1825.27 360.15 1825.27 64.55 1853.28 79.71Z" stroke="#768394" stroke-width="2.00003" stroke-miterlimit="10" stroke-opacity="0.3" fill="none"/><line x1="1753.09" y1="158.21" x2="1753.09" y2="322.1" stroke="#768394" stroke-width="2.00003" stroke-miterlimit="10" stroke-opacity="0.3" fill="none"/><line x1="1764.43" y1="163.73" x2="1764.43" y2="327.82" stroke="#768394" stroke-width="2.00003" stroke-miterlimit="10" stroke-opacity="0.3" fill="none"/><line x1="1776.98" y1="170.66" x2="1776.98" y2="334.15" stroke="#768394" stroke-width="2.00003" stroke-miterlimit="10" stroke-opacity="0.3" fill="none"/><path d="M1808.7 351.61 1808.7 55.51 1790.43 45.27 1790.43 174.57 1799.57 179.39" stroke="#768394" stroke-width="2.00003" stroke-miterlimit="10" stroke-opacity="0.3" fill="none"/></g><g><path d="M1536.03 315.77 1536.03 613.12 1564.04 613.12 1564.04 330.93 1582.51 340.87 1582.51 414.81" stroke="#768394" stroke-width="2.00003" stroke-miterlimit="10" stroke-opacity="0.3" fill="none"/><path d="M1682.7 395.48 1682.7 613.12 1654.69 613.12 1654.69 380.32 1682.7 395.48Z" stroke="#768394" stroke-width="2.00003" stroke-miterlimit="10" stroke-opacity="0.3" fill="none"/><line x1="1582.51" y1="473.99" x2="1582.51" y2="613.12" stroke="#768394" stroke-width="2.00003" stroke-miterlimit="10" stroke-opacity="0.3" fill="none"/><line x1="1593.86" y1="479.51" x2="1593.86" y2="613.12" stroke="#768394" stroke-width="2.00003" stroke-miterlimit="10" stroke-opacity="0.3" fill="none"/><line x1="1606.4" y1="486.43" x2="1606.4" y2="613.12" stroke="#768394" stroke-width="2.00003" stroke-miterlimit="10" stroke-opacity="0.3" fill="none"/><path d="M1638.13 613.12 1638.13 371.29 1619.86 361.05 1619.86 490.35 1628.99 495.17" stroke="#768394" stroke-width="2.00003" stroke-miterlimit="10" stroke-opacity="0.3" fill="none"/><path d="M1536.03 0 1536.03 297.35 1564.04 312.56 1564.04 15.16 1582.51 25.1 1582.51 99.03" stroke="#768394" stroke-width="2.00003" stroke-miterlimit="10" stroke-opacity="0.3" fill="none"/><path d="M1682.7 79.71 1682.7 375.3 1654.69 360.15 1654.69 64.55 1682.7 79.71Z" stroke="#768394" stroke-width="2.00003" stroke-miterlimit="10" stroke-opacity="0.3" fill="none"/><line x1="1582.51" y1="158.21" x2="1582.51" y2="322.1" stroke="#768394" stroke-width="2.00003" stroke-miterlimit="10" stroke-opacity="0.3" fill="none"/><line x1="1593.86" y1="163.73" x2="1593.86" y2="327.82" stroke="#768394" stroke-width="2.00003" stroke-miterlimit="10" stroke-opacity="0.3" fill="none"/><line x1="1606.4" y1="170.66" x2="1606.4" y2="334.15" stroke="#768394" stroke-width="2.00003" stroke-miterlimit="10" stroke-opacity="0.3" fill="none"/><path d="M1638.13 351.61 1638.13 55.51 1619.86 45.27 1619.86 174.57 1628.99 179.39" stroke="#768394" stroke-width="2.00003" stroke-miterlimit="10" stroke-opacity="0.3" fill="none"/></g></g></g></g></svg>