<svg viewBox="0 0 119.41 119.11" xmlns="http://www.w3.org/2000/svg" xmlns:xlink="http://www.w3.org/1999/xlink" id="Layer_1" overflow="hidden"><path d="M71.24 12.82C71.24 12.82 71.24 12.82 71.24 12.82 71.43 12.87 71.62 12.9 71.81 12.9 72.69 12.9 73.46 12.32 73.71 11.48L76.02 3.8C76.33 2.75 75.74 1.64 74.69 1.33 73.64 1.02 72.53 1.61 72.22 2.66L69.91 10.34C69.6 11.39 70.19 12.5 71.24 12.81Z" fill="#FFFFFF"/><path d="M84.33 15.99C84.33 15.99 84.33 15.99 84.33 15.99 85.29 16.51 86.5 16.16 87.02 15.2L90.86 8.12C91.38 7.16 91.03 5.95 90.06 5.43 89.1 4.91 87.89 5.26 87.37 6.23L83.53 13.31C83.01 14.27 83.36 15.48 84.33 16Z" fill="#FFFFFF"/><path d="M99.2 22.47C99.79 22.47 100.34 22.21 100.72 21.77L105.94 15.57C106.66 14.74 106.57 13.49 105.74 12.77 104.91 12.05 103.66 12.14 102.94 12.97 102.93 12.98 102.92 13 102.91 13.01L97.69 19.21C96.98 20.05 97.09 21.3 97.93 22.01 98.29 22.31 98.74 22.48 99.21 22.48Z" fill="#FFFFFF"/><path d="M111.31 32.33 111.31 32.33C111.78 32.33 112.23 32.17 112.59 31.87L118.74 26.71C119.57 25.99 119.65 24.73 118.93 23.91 118.23 23.11 117.02 23 116.19 23.67L110.04 28.83C109.2 29.54 109.09 30.79 109.8 31.63 110.18 32.08 110.73 32.34 111.32 32.34Z" fill="#FFFFFF"/><path d="M18.5 21.76C19.2 22.61 20.45 22.73 21.29 22.03 22.14 21.33 22.26 20.08 21.56 19.24 21.55 19.23 21.54 19.21 21.53 19.2L16.31 13C15.59 12.17 14.34 12.08 13.51 12.8 12.7 13.5 12.59 14.73 13.27 15.56L18.49 21.76Z" fill="#FFFFFF"/><path d="M32.19 15.19C32.71 16.15 33.92 16.51 34.88 15.99 35.84 15.47 36.2 14.26 35.68 13.3L31.84 6.22C31.32 5.26 30.11 4.9 29.15 5.42 28.19 5.94 27.83 7.15 28.35 8.11L32.19 15.19Z" fill="#FFFFFF"/><path d="M0.82 27.38 6.69 31.92C7.54 32.62 8.79 32.5 9.48 31.65 10.18 30.8 10.06 29.55 9.21 28.86 9.18 28.83 9.14 28.81 9.11 28.78L3.24 24.24C2.39 23.54 1.14 23.66 0.45 24.51-0.24 25.36-0.13 26.61 0.72 27.3 0.75 27.33 0.79 27.35 0.82 27.38Z" fill="#FFFFFF"/><path d="M45.49 11.48C45.74 12.32 46.51 12.89 47.39 12.9 47.58 12.9 47.78 12.87 47.96 12.82 49.01 12.51 49.61 11.4 49.29 10.35 49.29 10.35 49.29 10.35 49.29 10.35L46.98 2.67C46.67 1.62 45.56 1.02 44.51 1.34 43.46 1.65 42.86 2.76 43.18 3.81L45.49 11.49Z" fill="#FFFFFF"/><path d="M59.61 11.91C60.71 11.91 61.6 11.02 61.6 9.92L61.6 1.99C61.6 0.89 60.71 0 59.61 0 58.51 0 57.62 0.89 57.62 1.99L57.62 9.93C57.62 11.03 58.51 11.92 59.61 11.92Z" fill="#FFFFFF"/><path d="M32.62 73.58C21.66 68.58 12.05 61.05 4.56 51.62 8.37 46.86 12.72 42.54 17.52 38.77 18.38 38.09 18.53 36.84 17.86 35.98 17.18 35.12 15.93 34.97 15.07 35.64 9.61 39.94 4.71 44.9 0.47 50.4-0.08 51.12-0.08 52.11 0.47 52.83 8.49 63.34 18.98 71.71 31.01 77.2 32.01 77.65 33.19 77.2 33.63 76.19 34.08 75.19 33.63 74.01 32.62 73.57Z" fill="#FFFFFF"/><path d="M118.75 52.83C119.3 52.11 119.3 51.12 118.75 50.4 103.72 30.98 82.16 19.85 59.61 19.85 46 19.9 32.69 23.86 21.26 31.24 20.34 31.83 20.06 33.06 20.65 33.98 21.24 34.9 22.47 35.18 23.39 34.59 28.43 31.38 33.86 28.83 39.56 27.01 25.98 38.05 23.91 58 34.95 71.59 36.38 73.35 37.99 74.95 39.76 76.36L39.76 79.4C36.47 79.4 33.8 82.07 33.8 85.36 33.8 88.65 36.47 91.32 39.76 91.32L79.46 91.32C80.56 91.32 81.45 92.21 81.45 93.31 81.45 94.41 80.56 95.3 79.46 95.3L39.76 95.3C38.66 95.3 37.77 96.19 37.77 97.29 37.77 98.39 38.66 99.28 39.76 99.28 39.76 110.24 48.65 119.13 59.61 119.13 70.57 119.13 79.46 110.24 79.46 99.28 82.73 99.29 85.4 96.65 85.42 93.38 85.42 91.89 84.87 90.46 83.87 89.36 86.08 86.94 85.9 83.19 83.49 80.98 82.39 79.98 80.96 79.42 79.47 79.43L79.47 76.39C87.02 70.4 91.41 61.28 91.38 51.64 91.38 49.36 91.13 47.09 90.64 44.86 90.42 43.79 89.37 43.1 88.29 43.32 87.21 43.54 86.53 44.59 86.75 45.67 86.75 45.68 86.75 45.7 86.75 45.71 87.18 47.66 87.4 49.65 87.4 51.65 87.42 60.39 83.3 68.63 76.28 73.85 75.78 74.22 75.49 74.81 75.49 75.44L75.49 79.45 67.55 79.45 67.55 65.39C74.27 61.53 77.21 53.36 74.48 46.11 74.21 45.4 73.56 44.9 72.81 44.83 72.05 44.75 71.32 45.12 70.93 45.77 70.22 46.96 68.94 47.68 67.56 47.69 65.37 47.69 63.59 45.91 63.59 43.72 63.59 42.34 64.32 41.06 65.5 40.35 66.44 39.78 66.73 38.56 66.16 37.62 65.93 37.24 65.58 36.95 65.16 36.8 56.97 33.72 47.83 37.86 44.75 46.05 44.07 47.85 43.73 49.75 43.74 51.67 43.76 57.33 46.78 62.56 51.68 65.41L51.68 79.47 43.74 79.47 43.74 75.46C43.74 74.84 43.45 74.25 42.95 73.87 30.69 64.65 28.23 47.24 37.45 34.98 46.67 22.72 64.08 20.26 76.34 29.48 79.63 31.96 82.33 35.13 84.25 38.78 84.76 39.75 85.96 40.12 86.93 39.61 87.9 39.1 88.27 37.9 87.76 36.93 85.77 33.15 83.05 29.8 79.74 27.09 93.53 31.7 105.67 40.25 114.67 51.68 107.19 61.12 97.57 68.64 86.61 73.64 85.61 74.09 85.16 75.26 85.6 76.26 86.05 77.26 87.22 77.71 88.22 77.27 100.25 71.78 110.74 63.41 118.76 52.9ZM59.61 115.14C50.84 115.14 43.74 108.03 43.73 99.26L75.49 99.26C75.49 108.03 68.38 115.13 59.61 115.14ZM48.89 46.48C50.86 42.35 55.03 39.72 59.61 39.7 59.96 39.7 60.3 39.72 60.65 39.75 58.48 43.56 59.82 48.41 63.63 50.58 66.06 51.96 69.04 51.96 71.47 50.58 71.5 50.92 71.52 51.27 71.52 51.62 71.5 56.21 68.86 60.39 64.71 62.37 64.02 62.7 63.58 63.39 63.58 64.16L63.58 79.42 55.64 79.42 55.64 64.17C55.64 63.4 55.2 62.71 54.51 62.38 48.57 59.54 46.06 52.43 48.9 46.5ZM79.46 83.38C80.56 83.38 81.45 84.27 81.45 85.37 81.45 86.47 80.56 87.36 79.46 87.36L39.76 87.36C38.66 87.36 37.77 86.47 37.77 85.37 37.77 84.27 38.66 83.38 39.76 83.38L79.46 83.38Z" fill="#FFFFFF"/><path d="M100.71 78.63C100 77.79 98.75 77.69 97.91 78.4 97.07 79.11 96.97 80.36 97.68 81.2L102.9 87.4C103.61 88.24 104.86 88.34 105.7 87.64 106.54 86.93 106.64 85.68 105.94 84.84L100.72 78.63Z" fill="#FFFFFF"/><path d="M112.58 68.53C111.77 67.8 110.51 67.86 109.78 68.68 109.05 69.5 109.11 70.75 109.93 71.48 109.96 71.51 110 71.54 110.04 71.57L116.19 76.73C117.05 77.42 118.3 77.28 118.98 76.42 119.64 75.59 119.54 74.39 118.74 73.69L112.58 68.53Z" fill="#FFFFFF"/><path d="M18.53 78.6C18.53 78.6 18.51 78.63 18.5 78.64L18.5 78.64C18.5 78.64 13.28 84.83 13.28 84.83 12.57 85.67 12.68 86.92 13.52 87.63 14.36 88.34 15.61 88.23 16.32 87.39L21.54 81.2C22.26 80.37 22.17 79.12 21.34 78.4 20.51 77.68 19.26 77.77 18.54 78.6Z" fill="#FFFFFF"/><path d="M6.79 68.4C6.79 68.4 6.72 68.45 6.69 68.48L0.82 73.01C-0.07 73.65-0.27 74.89 0.37 75.78 1.01 76.67 2.25 76.87 3.14 76.23 3.17 76.21 3.21 76.18 3.24 76.15L9.11 71.62C10 70.98 10.2 69.74 9.56 68.85 8.92 67.96 7.68 67.76 6.79 68.4Z" fill="#FFFFFF"/></svg>