<svg viewBox="0 0 460.8 460.29" xmlns="http://www.w3.org/2000/svg" xmlns:xlink="http://www.w3.org/1999/xlink" id="Layer_1" overflow="hidden"><style>
.MsftOfcThm_Background1_Fill_v2 {
 fill:#FFFFFF; 
}
</style>
<path d="M309.25 199.68 309.25 199.68C311.3 194.56 312.83 188.93 312.83 183.3L312.83 172.04C312.83 149.51 294.4 131.59 272.38 131.59 251.9 131.59 235 146.44 232.44 165.89 229.88 165.38 227.83 165.38 225.27 165.38 222.71 165.38 220.15 165.89 218.1 165.89 215.03 146.43 198.13 131.59 178.16 131.59 155.63 131.59 137.71 150.02 137.71 172.04L137.71 183.3C137.71 189.44 139.25 195.08 141.29 199.68 123.88 211.97 113.64 231.42 113.64 252.42L113.64 269.83C113.64 281.61 123.37 291.85 135.66 291.85L161.26 291.85 161.26 303.63C161.26 315.41 170.99 325.65 183.28 325.65L269.3 325.65C281.59 325.65 291.32 315.92 291.32 303.63L291.32 291.85 316.92 291.85C329.21 291.85 338.94 282.12 338.94 269.83L338.94 252.42C337.4 231.43 326.65 211.97 309.24 199.68ZM272.38 146.94C286.2 146.94 297.47 158.2 297.47 172.03L297.47 183.29C297.47 197.11 286.21 208.38 272.38 208.38 269.82 208.38 267.77 207.87 265.72 207.36L265.72 205.82C265.72 191.48 258.55 179.2 247.29 172.03 247.29 157.69 258.55 146.94 272.38 146.94ZM225.28 180.74C239.1 180.23 250.37 192 250.37 205.83L250.37 217.09C250.37 230.91 239.11 242.18 225.28 242.18 211.45 242.18 200.19 230.92 200.19 217.09L200.19 205.83C200.19 192.01 211.45 180.74 225.28 180.74ZM152.58 172.03C152.58 158.21 163.84 146.94 177.67 146.94 191.5 146.94 202.76 158.2 202.76 172.03 191.5 179.2 184.33 192 184.33 205.82L184.33 207.36C182.28 207.87 179.72 208.38 177.67 208.38 163.85 208.38 152.58 197.12 152.58 183.29L152.58 172.03ZM161.28 276.99 135.17 276.99C131.07 276.48 128.51 273.92 128.51 270.33L128.51 252.92C128.51 236.54 136.7 221.69 150.01 212.47 157.18 219.64 167.42 223.73 178.17 223.73 180.73 223.73 183.29 223.22 185.34 223.22 185.85 226.8 186.88 230.39 188.41 233.97 174.07 244.21 164.35 259.57 161.27 276.98ZM274.94 304.13 274.43 304.13C274.43 307.71 271.36 310.79 267.77 310.79L182.27 310.79C178.69 310.79 175.61 307.72 175.61 304.13L175.61 286.72C175.61 270.34 183.8 255.49 197.11 246.27 204.28 253.44 214.52 257.53 225.27 257.53 236.02 257.53 246.26 253.43 253.43 246.27 266.74 255.49 274.93 270.33 274.93 286.72L274.93 304.13ZM322.05 270.34C322.05 273.92 318.98 277 315.39 277L289.28 277C286.72 259.59 276.99 244.23 262.14 233.99 263.68 230.92 264.7 227.33 265.21 223.24 267.77 223.75 269.82 223.75 272.38 223.75 283.13 223.75 293.37 219.65 300.54 212.49 313.85 221.71 322.04 236.55 322.04 252.94L322.04 270.35Z" class="MsftOfcThm_Background1_Fill_v2" fill="#FFFFFF"/><path d="M452.61 236.03C456.71 236.03 460.29 232.45 460.29 228.35 460.29 224.25 457.22 220.67 453.12 220.67L394.24 220.67C390.14 133.63 320 63.49 232.96 59.39L232.96 7.68C232.96 3.58 229.38 0 225.28 0 221.18 0 217.6 3.58 217.6 7.68L217.6 59.9C130.56 64 59.9 134.14 56.32 221.18L7.68 221.18C3.58 221.18 0 224.76 0 228.86 0 232.96 3.58 236.54 7.68 236.54L55.81 236.54C59.91 323.58 130.05 393.72 217.09 397.82L217.09 452.6C217.09 456.7 220.67 460.28 224.77 460.28 228.87 460.28 232.45 456.7 232.45 452.6L232.45 397.3C319.49 393.2 390.15 323.06 393.73 236.02L452.61 236.02ZM225.28 381.95C140.29 381.95 71.17 312.83 71.17 228.35 71.17 143.87 140.29 74.75 225.28 74.75 310.27 74.75 379.39 143.87 379.39 228.35 378.88 313.34 309.76 381.95 225.28 381.95Z" class="MsftOfcThm_Background1_Fill_v2" fill="#FFFFFF"/><path d="M7.68 116.22 45.57 116.22C49.67 116.22 53.25 112.64 53.25 108.54L53.25 53.24 108.55 53.24C112.65 53.24 116.23 49.66 116.23 45.56L116.23 7.68C116.23 3.58 112.65 0 108.55 0L7.68 0C3.58 0 0 3.58 0 7.68L0 108.54C0 112.64 3.58 116.22 7.68 116.22ZM15.36 15.36 100.86 15.36 100.86 37.89 45.56 37.89C41.46 37.89 37.88 41.47 37.88 45.57L37.88 100.87 15.36 100.87 15.36 15.36Z" class="MsftOfcThm_Background1_Fill_v2" fill="#FFFFFF"/><path d="M453.12 0 352.26 0C348.16 0 344.58 3.58 344.58 7.68L344.58 45.57C344.58 49.67 348.16 53.25 352.26 53.25L407.56 53.25 407.56 108.55C407.56 112.65 411.14 116.23 415.24 116.23L453.13 116.23C457.23 116.23 460.81 112.65 460.81 108.55L460.81 7.68C460.81 3.58 457.23 0 453.13 0ZM445.44 100.86 422.91 100.86 422.91 45.56C422.91 41.46 419.33 37.88 415.23 37.88L359.93 37.88 359.93 15.36 445.43 15.36 445.43 100.86Z" class="MsftOfcThm_Background1_Fill_v2" fill="#FFFFFF"/><path d="M108.54 406.53 108.54 406.53C108.54 406.53 53.24 406.53 53.24 406.53L53.24 351.23C53.24 347.13 49.66 343.55 45.56 343.55L7.68 343.55C3.58 343.55 0 347.13 0 351.23L0 452.09C0 456.19 3.58 459.77 7.68 459.77L108.54 459.77C112.64 459.77 116.22 456.19 116.22 452.09L116.22 414.2C116.22 410.1 113.15 406.52 108.54 406.52ZM100.86 444.42 15.36 444.42 15.36 358.92 37.89 358.92 37.89 414.22C37.89 418.32 41.47 421.9 45.57 421.9L100.87 421.9 100.87 444.43Z" class="MsftOfcThm_Background1_Fill_v2" fill="#FFFFFF"/><path d="M453.12 343.55 415.23 343.55C411.13 343.55 407.55 347.13 407.55 351.23L407.55 406.53 352.25 406.53C348.15 406.53 344.57 410.11 344.57 414.21L344.57 452.1C344.57 456.2 348.15 459.78 352.25 459.78L453.11 459.78C457.21 459.78 460.79 456.2 460.79 452.1L460.79 351.24C460.79 347.14 457.21 343.56 453.11 343.56ZM445.44 444.42 359.94 444.42 359.94 421.89 415.24 421.89C419.34 421.89 422.92 418.31 422.92 414.21L422.92 358.91 445.45 358.91 445.45 444.41Z" class="MsftOfcThm_Background1_Fill_v2" fill="#FFFFFF"/></svg>