<svg viewBox="0 0 28.13 27.5" xmlns="http://www.w3.org/2000/svg" xmlns:xlink="http://www.w3.org/1999/xlink" id="Layer_1" overflow="hidden"><style>
.MsftOfcThm_Background1_Fill_v2 {
 fill:#FFFFFF; 
}
</style>
<path d="M15.02 9.61C14.71 9.54 14.38 9.5 14.06 9.5 13.74 9.5 13.41 9.54 13.1 9.62 14 10.47 14.05 11.89 13.2 12.79 12.35 13.69 10.93 13.74 10.03 12.89 9.99 12.86 9.96 12.82 9.93 12.79 9.4 15.07 10.83 17.35 13.11 17.88 15.39 18.41 17.67 16.98 18.2 14.7 18.73 12.42 17.3 10.14 15.02 9.61Z" class="MsftOfcThm_Background1_Fill_v2" fill="#FFFFFF"/><path d="M27.32 11.81C27.32 11.81 27.32 11.81 27.32 11.81L25.91 10.4C19.36 3.87 8.77 3.87 2.22 10.4L0.81 11.81C-0.26 12.88-0.26 14.62 0.81 15.7 0.81 15.7 0.81 15.7 0.81 15.7L2.22 17.11C8.77 23.64 19.36 23.64 25.91 17.11L27.32 15.7C28.39 14.63 28.39 12.89 27.32 11.81ZM17.76 18.15C16.72 19.02 15.41 19.5 14.06 19.5 10.89 19.5 8.31 16.93 8.31 13.76 8.31 12.4 8.79 11.09 9.66 10.05 9.84 9.77 10.08 9.53 10.36 9.35 12.79 7.31 16.42 7.62 18.46 10.05 20.5 12.48 20.19 16.11 17.76 18.15Z" class="MsftOfcThm_Background1_Fill_v2" fill="#FFFFFF"/><path d="M14.06 3.5C14.47 3.5 14.81 3.16 14.81 2.75L14.81 0.75C14.81 0.34 14.47 0 14.06 0 13.65 0 13.31 0.34 13.31 0.75L13.31 2.75C13.31 3.16 13.65 3.5 14.06 3.5Z" class="MsftOfcThm_Background1_Fill_v2" fill="#FFFFFF"/><path d="M20.06 4.5C20.34 4.5 20.6 4.34 20.73 4.09L21.73 2.09C21.91 1.72 21.76 1.27 21.39 1.09 21.02 0.9 20.57 1.05 20.38 1.42L19.38 3.42C19.33 3.52 19.3 3.64 19.3 3.75 19.3 4.16 19.63 4.5 20.05 4.5Z" class="MsftOfcThm_Background1_Fill_v2" fill="#FFFFFF"/><path d="M7.39 4.09C7.52 4.34 7.78 4.5 8.06 4.5 8.18 4.5 8.29 4.47 8.39 4.42 8.76 4.23 8.91 3.78 8.73 3.41L7.73 1.41C7.54 1.04 7.1 0.89 6.73 1.08 6.36 1.26 6.21 1.71 6.39 2.09L7.39 4.09Z" class="MsftOfcThm_Background1_Fill_v2" fill="#FFFFFF"/><path d="M14.06 24C13.65 24 13.31 24.34 13.31 24.75L13.31 26.75C13.31 27.16 13.65 27.5 14.06 27.5 14.47 27.5 14.81 27.16 14.81 26.75L14.81 24.75C14.81 24.34 14.47 24 14.06 24Z" class="MsftOfcThm_Background1_Fill_v2" fill="#FFFFFF"/><path d="M20.73 23.41C20.54 23.04 20.1 22.89 19.72 23.07 19.35 23.25 19.2 23.71 19.38 24.08L20.38 26.08C20.51 26.33 20.77 26.49 21.05 26.49 21.17 26.49 21.28 26.46 21.38 26.41 21.75 26.22 21.9 25.77 21.72 25.4L20.72 23.4Z" class="MsftOfcThm_Background1_Fill_v2" fill="#FFFFFF"/><path d="M8.4 23.08C8.03 22.89 7.58 23.04 7.39 23.41L6.39 25.41C6.34 25.51 6.31 25.63 6.31 25.74 6.31 26.15 6.64 26.49 7.06 26.49 7.34 26.49 7.6 26.33 7.73 26.08L8.73 24.08C8.91 23.71 8.76 23.26 8.4 23.08Z" class="MsftOfcThm_Background1_Fill_v2" fill="#FFFFFF"/></svg>