<svg viewBox="0 0 512 498.89" xmlns="http://www.w3.org/2000/svg" xmlns:xlink="http://www.w3.org/1999/xlink" id="Layer_2" overflow="hidden"><style>
.MsftOfcThm_Accent1_Fill_v2 {
 fill:#173863; 
}
</style>
<path d="M326.62 126.5C340.41 126.5 351.62 115.29 351.62 101.5 351.62 87.71 340.4 76.5 326.62 76.5 312.84 76.5 301.62 87.72 301.62 101.5 301.62 107.13 303.49 112.33 306.65 116.51L265.57 173.91C263.12 173.11 260.5 172.66 257.79 172.66 251.22 172.66 245.24 175.21 240.77 179.37L213.39 163.83C213.75 162.13 213.95 160.38 213.95 158.57 213.95 144.78 202.74 133.57 188.95 133.57 175.16 133.57 163.95 144.78 163.95 158.57 163.95 160.37 164.15 162.13 164.51 163.83L137.13 179.37C132.66 175.21 126.68 172.66 120.11 172.66 106.32 172.66 95.11 183.88 95.11 197.66 95.11 211.44 106.32 222.66 120.11 222.66 133.9 222.66 145.11 211.44 145.11 197.66 145.11 195.86 144.91 194.1 144.55 192.4L171.93 176.86C176.4 181.02 182.38 183.57 188.95 183.57 195.52 183.57 201.5 181.02 205.97 176.86L233.35 192.4C232.99 194.1 232.79 195.85 232.79 197.66 232.79 211.45 244 222.66 257.79 222.66 271.58 222.66 282.79 211.44 282.79 197.66 282.79 192.03 280.92 186.83 277.76 182.64L318.84 125.24C321.29 126.04 323.91 126.49 326.62 126.49ZM120.11 207.67C114.6 207.67 110.11 203.18 110.11 197.67 110.11 192.16 114.6 187.67 120.11 187.67 125.62 187.67 130.11 192.16 130.11 197.67 130.11 203.18 125.62 207.67 120.11 207.67ZM188.95 168.59C183.44 168.59 178.95 164.1 178.95 158.59 178.95 153.08 183.44 148.59 188.95 148.59 194.46 148.59 198.95 153.08 198.95 158.59 198.95 164.11 194.46 168.59 188.95 168.59ZM257.79 207.67C252.28 207.67 247.79 203.18 247.79 197.67 247.79 192.16 252.28 187.67 257.79 187.67 263.3 187.67 267.79 192.16 267.79 197.67 267.79 203.18 263.3 207.67 257.79 207.67ZM326.62 91.5C332.13 91.5 336.62 95.99 336.62 101.5 336.62 107.01 332.13 111.5 326.62 111.5 321.11 111.5 316.62 107.01 316.62 101.5 316.62 95.99 321.11 91.5 326.62 91.5Z" class="MsftOfcThm_Accent1_Fill_v2" fill="#173863"/><path d="M418.8 370.41 21.22 370.41C17.79 370.41 15 367.62 15 364.2L15 54.77C15 51.34 17.79 48.55 21.22 48.55L56.58 48.55C60.72 48.55 64.08 45.19 64.08 41.05 64.08 36.91 60.72 33.55 56.58 33.55L21.22 33.55C9.52 33.56 0 43.08 0 54.77L0 364.19C0 375.89 9.52 385.4 21.22 385.4L72.93 385.4 72.93 401.91C72.93 411.31 80.58 418.96 89.98 418.96L165.05 418.96 129.71 487.96C127.82 491.65 129.28 496.17 132.97 498.05 134.06 498.61 135.23 498.88 136.38 498.88 139.11 498.88 141.73 497.39 143.06 494.8L181.9 418.96 264.82 418.96 303.66 494.8C304.99 497.39 307.62 498.88 310.34 498.88 311.49 498.88 312.66 498.61 313.75 498.05 317.44 496.16 318.9 491.64 317.01 487.96L281.67 418.96 356.74 418.96C366.14 418.96 373.79 411.31 373.79 401.91L373.79 385.4 418.78 385.4C422.92 385.4 426.28 382.04 426.28 377.9 426.28 373.76 422.92 370.4 418.78 370.4ZM358.81 401.91C358.81 403.04 357.89 403.96 356.76 403.96L89.98 403.96C88.85 403.96 87.93 403.04 87.93 401.91L87.93 385.4 358.81 385.4 358.81 401.91Z" class="MsftOfcThm_Accent1_Fill_v2" fill="#173863"/><path d="M86.57 48.56 425.52 48.56C428.95 48.56 431.74 51.35 431.74 54.78L431.74 126.09C431.74 130.23 435.1 133.59 439.24 133.59 443.38 133.59 446.74 130.23 446.74 126.09L446.74 54.77C446.74 43.07 437.22 33.55 425.52 33.55L264.99 33.55 264.99 18.81C264.99 8.43 256.55-0.01 246.17-0.01L200.55-0.01C190.17-0.01 181.73 8.43 181.73 18.81L181.73 33.55 86.56 33.55C82.42 33.55 79.06 36.91 79.06 41.05 79.06 45.19 82.42 48.55 86.56 48.55ZM200.56 15 246.18 15C248.28 15 250 16.71 250 18.82L250 33.56 196.75 33.56 196.75 18.82 196.75 18.82C196.75 16.72 198.46 15 200.57 15Z" class="MsftOfcThm_Accent1_Fill_v2" fill="#173863"/><path d="M104.9 261.02C100.76 261.02 97.4 264.38 97.4 268.52L97.4 334.79C97.4 338.93 100.76 342.29 104.9 342.29L135.33 342.29C139.47 342.29 142.83 338.93 142.83 334.79L142.83 268.52C142.83 264.38 139.47 261.02 135.33 261.02L104.9 261.02ZM127.83 327.29 112.4 327.29 112.4 276.02 127.83 276.02 127.83 327.29Z" class="MsftOfcThm_Accent1_Fill_v2" fill="#173863"/><path d="M173.74 222.69C169.6 222.69 166.24 226.05 166.24 230.19L166.24 334.79C166.24 338.93 169.6 342.29 173.74 342.29L204.17 342.29C208.31 342.29 211.67 338.93 211.67 334.79L211.67 230.19C211.67 226.05 208.31 222.69 204.17 222.69L173.74 222.69ZM196.66 327.29 181.23 327.29 181.23 237.69 196.66 237.69 196.66 327.29Z" class="MsftOfcThm_Accent1_Fill_v2" fill="#173863"/><path d="M242.57 261.02C238.43 261.02 235.07 264.38 235.07 268.52L235.07 334.79C235.07 338.93 238.43 342.29 242.57 342.29L273 342.29C277.14 342.29 280.5 338.93 280.5 334.79L280.5 268.52C280.5 264.38 277.14 261.02 273 261.02L242.57 261.02ZM265.5 327.29 250.07 327.29 250.07 276.02 265.5 276.02 265.5 327.29Z" class="MsftOfcThm_Accent1_Fill_v2" fill="#173863"/><path d="M311.41 305.27C307.27 305.27 303.91 308.63 303.91 312.77L303.91 334.79C303.91 338.93 307.27 342.29 311.41 342.29L341.84 342.29C345.98 342.29 349.34 338.93 349.34 334.79 349.34 330.65 345.98 327.29 341.84 327.29L318.91 327.29 318.91 312.77C318.91 308.63 315.55 305.27 311.41 305.27Z" class="MsftOfcThm_Accent1_Fill_v2" fill="#173863"/><path d="M508.18 377.46 465.15 302.93C476.05 291.31 483.99 277.11 488.23 261.29 495.01 236 491.53 209.58 478.44 186.91 451.41 140.1 391.34 124 344.53 151.03 297.72 178.05 281.62 238.13 308.65 284.94 321.74 307.62 342.88 323.84 368.17 330.61 376.62 332.87 385.19 333.99 393.7 333.99 401.14 333.99 408.54 333.13 415.78 331.44L458.8 405.97C464.07 415.11 473.68 420.22 483.54 420.22 488.37 420.22 493.27 418.99 497.75 416.41 506.55 411.33 512.01 401.87 512.01 391.7 512.01 386.72 510.69 381.8 508.19 377.46ZM372.05 316.12C350.63 310.38 332.72 296.64 321.63 277.44 298.74 237.79 312.37 186.91 352.02 164.02 365.06 156.49 379.32 152.91 393.39 152.91 422.1 152.91 450.07 167.8 465.43 194.41 476.52 213.62 479.46 235.99 473.72 257.41 467.98 278.83 454.24 296.74 435.03 307.82 415.82 318.91 393.45 321.85 372.03 316.11ZM490.24 403.41C483.79 407.14 475.51 404.92 471.78 398.47L430.39 326.77C434.54 325.08 438.6 323.1 442.55 320.82 446.5 318.54 450.24 316 453.78 313.25L495.18 384.96C496.37 387.02 497 389.35 497 391.7 497 396.52 494.41 401.01 490.24 403.41Z" class="MsftOfcThm_Accent1_Fill_v2" fill="#173863"/><path d="M461.54 257.05C466.84 239.99 465.57 221.73 457.99 205.63 456.22 201.88 451.76 200.28 448.01 202.04 444.26 203.81 442.66 208.27 444.42 212.02 450.4 224.72 451.4 239.13 447.22 252.6 443.02 266.14 433.93 277.5 421.65 284.6 408.65 292.11 393.5 294.1 379 290.21 364.5 286.32 352.38 277.02 344.87 264.02 329.37 237.18 338.6 202.74 365.44 187.24 385.06 175.91 409.42 177.42 427.49 191.1 430.79 193.6 435.5 192.95 438 189.64 440.5 186.34 439.85 181.63 436.54 179.13 413.65 161.81 382.79 159.89 357.94 174.24 341.47 183.75 329.68 199.11 324.76 217.48 319.84 235.85 322.36 255.04 331.87 271.51 341.38 287.98 356.74 299.77 375.11 304.69 381.25 306.33 387.47 307.15 393.66 307.15 406 307.15 418.18 303.91 429.15 297.58 444.72 288.59 456.22 274.2 461.55 257.04Z" class="MsftOfcThm_Accent1_Fill_v2" fill="#173863"/></svg>