<svg viewBox="0 0 496.28 496.5" xmlns="http://www.w3.org/2000/svg" xmlns:xlink="http://www.w3.org/1999/xlink" id="Layer_1" overflow="hidden"><style>
.MsftOfcThm_Background1_Fill_v2 {
 fill:#FFFFFF; 
}
</style>
<path d="M492.57 218.79 492.57 218.79C488.84 216.42 483.9 217.53 481.53 221.26L479.77 224.03C468.47 117.06 384.26 29.95 275.67 17.03 271.28 16.51 267.3 19.64 266.78 24.03 266.26 28.42 269.39 32.4 273.78 32.92 374.24 44.87 452.29 125 463.64 223.73L462.36 222.03C459.7 218.5 454.68 217.8 451.16 220.46 447.63 223.12 446.93 228.14 449.59 231.67L466.69 254.34C468.21 256.35 470.57 257.52 473.08 257.52 473.19 257.52 473.3 257.52 473.4 257.52 476.02 257.41 478.42 256.03 479.83 253.81L495.04 229.83C497.41 226.1 496.3 221.16 492.57 218.79Z" class="MsftOfcThm_Background1_Fill_v2" fill="#FFFFFF"/><path d="M347.4 131.13C347.4 106.77 327.58 86.96 303.23 86.96 278.88 86.96 259.06 106.78 259.06 131.13 259.06 139.79 261.57 147.86 265.89 154.68 258.55 157.22 252.74 160.58 248.15 164.45 243.3 160.36 237.37 157.09 230.39 154.68 234.71 147.86 237.22 139.78 237.22 131.13 237.22 106.77 217.4 86.96 193.05 86.96 168.7 86.96 148.88 106.78 148.88 131.13 148.88 139.79 151.4 147.87 155.72 154.69 130.57 163.38 123.26 181.66 122.21 197.67 107.68 204.91 97.67 219.92 97.67 237.23 97.67 245.89 100.19 253.97 104.51 260.79 77.05 270.28 70.86 291.21 70.86 308.11L70.86 340.17C70.86 350.75 79.47 359.36 90.05 359.36L174.01 359.36 174.01 369.78C174.01 380.67 182.87 389.53 193.76 389.53L302.51 389.53C313.4 389.53 322.26 380.67 322.26 369.78L322.26 359.36 406.22 359.36C416.8 359.36 425.41 350.75 425.41 340.17L425.41 308.11C425.41 291.25 419.24 270.29 391.76 260.79 396.08 253.96 398.6 245.89 398.6 237.23 398.6 219.92 388.59 204.91 374.06 197.68 373.01 181.66 365.7 163.39 340.56 154.7 344.88 147.87 347.4 139.8 347.4 131.14L347.4 131.14ZM303.23 102.96C318.76 102.96 331.4 115.6 331.4 131.13 331.4 146.66 318.76 159.3 303.23 159.3 287.7 159.3 275.06 146.66 275.06 131.13 275.06 115.6 287.7 102.96 303.23 102.96ZM278.12 261.71C278.12 278.24 264.67 291.69 248.14 291.69 231.61 291.69 218.16 278.24 218.16 261.71 218.16 245.18 231.61 231.73 248.14 231.73 264.67 231.73 278.12 245.18 278.12 261.71ZM193.05 102.96C208.58 102.96 221.22 115.6 221.22 131.13 221.22 146.66 208.58 159.3 193.05 159.3 177.52 159.3 164.88 146.66 164.88 131.13 164.88 115.6 177.52 102.96 193.05 102.96ZM168.37 167.74C175.42 172.51 183.92 175.29 193.05 175.29 202.18 175.29 210.68 172.5 217.73 167.74 226.48 169.62 233.2 172.62 238.07 176.83 233.66 185.01 232.25 193.95 232.25 202L232.25 218.56C222.67 222.1 214.6 228.74 209.23 237.26L186.01 237.26 186.01 237.22C186.01 212.86 166.19 193.05 141.84 193.05 140.84 193.05 139.84 193.1 138.86 193.16 141.51 179.5 150.92 171.48 168.38 167.74ZM202.17 261.71C202.17 270.91 204.89 279.47 209.56 286.67 209.34 286.75 209.11 286.82 208.89 286.89 204.63 276.76 196.01 266.64 179.17 260.79 180.67 258.43 181.95 255.91 182.98 253.27L202.95 253.27C202.44 256.01 202.16 258.82 202.16 261.71L202.16 261.71ZM141.84 209.05C157.37 209.05 170.01 221.69 170.01 237.22 170.01 252.75 157.37 265.39 141.84 265.39 126.31 265.39 113.67 252.75 113.67 237.22 113.67 221.69 126.31 209.05 141.84 209.05ZM174.01 336.12 174.01 343.36 90.04 343.36C88.28 343.36 86.85 341.93 86.85 340.17L86.85 308.11C86.85 288.96 96.22 278.33 117.15 273.84 124.2 278.61 132.7 281.39 141.83 281.39 150.96 281.39 159.45 278.61 166.5 273.84 184.66 277.76 191.65 286.12 194.56 293.97L194.56 293.97C178.16 305.18 174.01 321.99 174.01 336.12ZM306.27 336.12 306.27 369.78C306.27 371.85 304.59 373.53 302.52 373.53L193.77 373.53C191.7 373.53 190.02 371.85 190.02 369.78L190.02 336.12C190.02 316.03 200.3 304.41 222.32 299.72 229.69 304.74 238.58 307.68 248.14 307.68 257.7 307.68 266.59 304.74 273.96 299.73 295.98 304.42 306.27 316.05 306.27 336.13L306.27 336.13ZM293.33 253.27 313.3 253.27C314.33 255.9 315.6 258.41 317.09 260.77 302.36 265.82 292.4 274.55 287.33 286.87 287.13 286.8 286.92 286.73 286.72 286.66 291.39 279.47 294.11 270.9 294.11 261.71L294.11 261.71C294.11 258.83 293.83 256.01 293.32 253.27ZM409.43 308.11 409.43 340.17C409.43 341.93 408 343.36 406.24 343.36L322.28 343.36 322.28 336.12C322.28 321.96 318.1 305.17 301.73 293.98 304.56 286.3 311.34 277.82 329.78 273.85 336.83 278.61 345.32 281.4 354.45 281.4 363.58 281.4 372.07 278.61 379.12 273.85L379.12 273.85C399.79 278.31 409.43 289.22 409.43 308.11ZM382.61 237.22C382.61 252.75 369.97 265.39 354.44 265.39 338.91 265.39 326.27 252.75 326.27 237.22 326.27 221.69 338.91 209.05 354.44 209.05 369.97 209.05 382.61 221.69 382.61 237.22ZM357.43 193.16C356.44 193.09 355.45 193.05 354.45 193.05 330.09 193.05 310.28 212.87 310.28 237.22L310.28 237.26 287.06 237.26C278.93 224.36 264.58 215.76 248.25 215.73L248.25 202.01C248.25 182.88 257.64 172.21 278.56 167.75 285.61 172.52 294.1 175.3 303.24 175.3 312.38 175.3 320.87 172.51 327.92 167.75L327.92 167.75C345.37 171.48 354.79 179.51 357.44 193.17Z" class="MsftOfcThm_Background1_Fill_v2" fill="#FFFFFF"/><path d="M472.36 268.38 472.36 268.38C467.98 267.84 463.98 270.96 463.45 275.35 451.19 375.35 370.79 453.32 272.27 464.48L274.79 462.48C278.25 459.73 278.83 454.7 276.08 451.24 273.33 447.78 268.3 447.2 264.84 449.95L242.59 467.6C240.53 469.23 239.41 471.77 239.58 474.39 239.75 477.01 241.19 479.38 243.44 480.73L267.78 495.35C269.07 496.13 270.49 496.49 271.89 496.49 274.61 496.49 277.25 495.11 278.75 492.61 281.03 488.82 279.8 483.91 276.01 481.63L273.94 480.39C322.16 474.97 367.66 454.63 403.98 421.87 445.74 384.2 472.49 332.86 479.3 277.3 479.84 272.91 476.72 268.92 472.33 268.39Z" class="MsftOfcThm_Background1_Fill_v2" fill="#FFFFFF"/><path d="M217.07 463.71 217.07 463.71C118.88 449.8 42.68 369.4 31.91 272.31L34.01 274.95C36.76 278.41 41.79 278.98 45.25 276.23 48.71 273.48 49.28 268.45 46.53 264.99L28.85 242.77C27.22 240.72 24.68 239.59 22.06 239.77 19.44 239.94 17.08 241.39 15.73 243.64L1.14 268C-1.13 271.79 0.1 276.7 3.89 278.97 5.18 279.74 6.6 280.11 7.99 280.11 10.71 280.11 13.36 278.72 14.86 276.22L16.02 274.29C21.26 321.75 40.97 366.67 72.78 402.77 109.57 444.52 160.01 471.79 214.83 479.55 215.21 479.6 215.59 479.63 215.96 479.63 219.88 479.63 223.31 476.74 223.87 472.75 224.49 468.38 221.45 464.33 217.07 463.71Z" class="MsftOfcThm_Background1_Fill_v2" fill="#FFFFFF"/><path d="M24.08 221.44C24.5 221.51 24.92 221.54 25.33 221.54 29.2 221.54 32.61 218.72 33.22 214.77 48.49 117.14 126.43 43.78 222.76 32.83L221.31 33.91C217.76 36.54 217.02 41.55 219.66 45.1 221.23 47.21 223.64 48.33 226.09 48.33 227.75 48.33 229.42 47.82 230.85 46.75L253.65 29.82C255.76 28.25 256.96 25.76 256.88 23.13 256.79 20.51 255.43 18.09 253.22 16.67L229.36 1.27C225.65-1.12 220.7-0.06 218.3 3.66 215.9 7.37 216.97 12.32 220.68 14.72L223.68 16.66C176.18 21.61 131.09 41.05 94.83 72.59 53.36 108.67 25.86 158.28 17.41 212.3L17.41 212.3C16.73 216.66 19.71 220.76 24.08 221.44Z" class="MsftOfcThm_Background1_Fill_v2" fill="#FFFFFF"/></svg>