<svg viewBox="0 0 482.62 493" xmlns="http://www.w3.org/2000/svg" xmlns:xlink="http://www.w3.org/1999/xlink" id="Layer_1" overflow="hidden"><style>
.MsftOfcThm_Background1_Fill_v2 {
 fill:#FFFFFF; 
}
</style>
<path d="M376.35 406.71 349.98 406.71 335.6 372.35 370.76 354.77C381.95 349.18 386.74 336.39 382.75 325.2L337.21 202.95C332.42 190.16 318.83 184.57 306.04 188.56 306.04 188.56 305.24 188.56 305.24 189.36L271.68 203.74 266.89 191.75 285.27 170.18C298.05 155.79 306.04 138.22 308.44 119.04L331.61 91.07C346.79 73.49 343.6 47.12 326.02 31.94 322.82 29.54 319.63 27.15 316.43 25.55 307.64 21.55 298.85 20.76 289.26 23.15L286.86 15.96C282.86 3.18 268.48-3.22 256.5 1.58L87.89 62.32C75.1 67.11 68.71 80.7 73.51 92.68L73.51 93.48 77.51 103.87C56.73 113.46 47.14 137.43 54.33 158.21 59.92 174.19 74.31 185.38 91.09 187.77L128.65 191.77C143.83 202.96 162.21 210.15 180.59 211.75L206.96 214.15 211.75 226.14C206.16 229.34 202.16 234.93 200.56 242.12L194.97 269.29 0 348.37 5.59 363.55 117.46 318.81 144.63 400.31 0 460.24 6.39 474.63 235.72 379.54 275.67 384.34 290.05 428.29 270.87 446.67C263.68 453.06 261.28 463.45 265.28 473.04L273.27 493.02 405.91 441.08 398.72 421.9C395.52 412.31 386.73 406.72 376.35 406.72ZM310.03 39.94C322.82 45.53 329.21 60.72 323.62 74.3 322.82 76.7 321.22 78.3 319.62 80.69L310.03 92.68C309.23 84.69 307.63 77.5 305.24 69.51L294.85 38.35C300.44 37.55 305.24 38.35 310.03 39.95ZM94.28 172.59C83.09 171.79 73.51 164.6 70.31 154.21 65.52 140.62 71.11 126.24 83.9 119.85L95.09 147.02C99.09 156.61 104.68 166.2 111.07 174.19L94.29 172.59ZM183.78 196.56C151.02 193.36 122.25 172.59 110.27 141.43L89.5 88.69C87.9 84.69 89.5 79.9 93.5 78.3L262.09 17.57C264.49 16.77 266.09 16.77 268.48 17.57 270.08 18.37 271.68 19.97 272.48 22.36L290.06 75.1C299.65 104.66 293.26 136.62 273.28 159.79L248.51 188.56 255.7 207.74 226.93 219.73 218.94 199.75 183.78 196.55ZM159.81 393.92 132.64 312.42 151.02 305.23 171 365.96 186.18 361.17 165.41 298.85 197.37 286.06 224.54 366.76 159.82 393.93ZM240.51 363.55 210.94 274.86 216.53 245.29C217.33 242.89 218.93 240.49 221.32 239.7L310.81 201.35C314.81 199.75 319.6 201.35 321.2 205.35L327.59 222.13 288.44 234.92 293.23 250.1 332.38 237.31 341.97 262.88 304.42 275.66 309.21 290.84 347.56 278.05 357.15 303.62 320.39 315.61 325.19 330.79 362.74 318 366.74 328.39C368.34 332.39 366.74 336.38 362.74 337.98L299.62 369.14C298.02 369.94 296.42 369.94 294.83 369.94L240.5 363.55ZM332.4 407.5 303.63 417.09 293.24 386.73C298.03 387.53 302.03 386.73 306.02 384.33L319.61 377.94 332.4 407.5ZM282.06 472.22 279.66 467.43C278.86 464.23 279.66 461.04 281.26 458.64L308.43 433.07 342.79 421.88 374.75 421.88C378.75 421.88 381.14 423.48 382.74 426.67L384.34 431.46 282.06 472.21Z" class="MsftOfcThm_Background1_Fill_v2" fill="#FFFFFF"/><path d="M394.72 139.82 394.72 147.81 410.7 147.81 410.7 139.82C410.7 117.45 428.28 99.87 450.65 99.87L450.65 83.89C428.28 83.89 410.7 66.31 410.7 43.94L410.7 35.95 394.72 35.95 394.72 43.94C394.72 66.32 377.14 83.89 354.77 83.89L354.77 99.87C377.15 99.87 394.72 117.45 394.72 139.82ZM402.71 72.71C407.5 80.7 413.9 87.1 421.89 91.89 413.9 96.69 407.51 103.08 402.71 111.07 397.91 103.08 391.52 96.68 383.53 91.89 391.52 87.1 397.91 80.7 402.71 72.71Z" class="MsftOfcThm_Background1_Fill_v2" fill="#FFFFFF"/><path d="M43.15 299.63 43.15 307.62 59.13 307.62 59.13 299.63C59.13 277.26 76.71 259.68 99.08 259.68L99.08 243.7C76.71 243.7 59.13 226.12 59.13 203.75L59.13 195.76 43.15 195.76 43.15 203.75C43.15 226.13 25.57 243.7 3.2 243.7L3.2 259.68C25.58 259.68 43.15 277.26 43.15 299.63ZM51.14 232.51C55.94 240.5 62.33 246.9 70.32 251.69 62.33 256.48 55.94 262.88 51.14 270.87 46.35 262.88 39.95 256.48 31.96 251.69 39.95 246.9 46.34 240.5 51.14 232.51Z" class="MsftOfcThm_Background1_Fill_v2" fill="#FFFFFF"/><path d="M442.67 203.75 442.67 195.76 426.69 195.76 426.69 203.75C426.69 226.13 409.11 243.7 386.74 243.7L386.74 259.68C409.12 259.68 426.69 277.26 426.69 299.63L426.69 307.62 442.67 307.62 442.67 299.63C442.67 277.26 460.25 259.68 482.62 259.68L482.62 243.7C460.25 243.7 442.67 226.12 442.67 203.75ZM434.68 270.87C429.89 262.88 423.49 256.48 415.5 251.69 423.49 246.9 429.88 240.5 434.68 232.51 439.47 240.5 445.87 246.9 453.86 251.69 445.87 256.48 439.48 262.88 434.68 270.87Z" class="MsftOfcThm_Background1_Fill_v2" fill="#FFFFFF"/><path d="M237.32 142.22 248.51 153.41C292.46 109.46 251.71 42.34 249.31 39.95L235.72 48.74C236.52 48.74 272.48 107.07 237.32 142.23Z" class="MsftOfcThm_Background1_Fill_v2" fill="#FFFFFF"/></svg>