<svg viewBox="0 0 456.81 512.16" xmlns="http://www.w3.org/2000/svg" xmlns:xlink="http://www.w3.org/1999/xlink" id="Layer_1" overflow="hidden"><path d="M455.32 213.32 414.11 155.59 455.17 101.82C457.85 98.31 457.18 93.29 453.67 90.61 452.28 89.55 450.57 88.97 448.81 88.97L355.9 88.97 355.9 36.73C355.9 32.31 352.32 28.73 347.9 28.73L239.83 28.73 239.83 28.13C239.93 12.68 227.49 0.09 212.06 0 196.63-0.09 184.04 12.34 183.95 27.78 183.95 27.89 183.95 28 183.95 28.12L183.95 267.69 181.09 267.69C166.67 267.69 150.6 287.55 132.62 311.54 131.43 313.13 130.33 314.6 129.34 315.9L79.77 315.9 79.77 310.74C79.77 306.32 76.19 302.74 71.77 302.74L8 302.74C3.58 302.74 0 306.32 0 310.74L0 465.61C0 470.03 3.58 473.61 8 473.61L118.97 473.61C124.64 476.25 130.82 477.61 137.07 477.61L183.95 477.61 183.95 504.18C183.95 508.6 187.53 512.18 191.95 512.18L231.84 512.18C236.26 512.18 239.84 508.6 239.84 504.18L239.84 477.62 265.38 477.62C279.4 477.62 290.77 466.26 290.78 452.24 290.78 447.56 289.49 442.98 287.05 438.99 298.95 431.6 302.61 415.95 295.22 404.05 294.45 402.81 293.57 401.63 292.6 400.54 304.11 392.56 306.98 376.75 299 365.24 298.8 364.95 298.59 364.66 298.38 364.38 311.12 358.51 316.69 343.43 310.83 330.68 306.69 321.68 297.69 315.91 287.78 315.9L239.86 315.9 239.86 165.73 296.18 165.73 296.18 217.97C296.18 222.39 299.76 225.97 304.18 225.97L448.84 225.97C453.26 225.97 456.84 222.39 456.84 217.97 456.84 216.3 456.32 214.68 455.35 213.32ZM63.77 457.6 16 457.6 16 318.73 63.77 318.73 63.77 457.6ZM199.95 28.11C199.89 21.51 205.19 16.12 211.78 16.06 218.38 16 223.77 21.3 223.83 27.89 223.83 27.96 223.83 28.04 223.83 28.11L223.83 315.89 199.94 315.89 199.94 28.11ZM79.77 457.6 79.77 331.89 94 331.89 94 434.52C94 442.7 96.33 450.71 100.73 457.6L79.77 457.6ZM223.84 496.16 199.95 496.16 199.95 477.6 223.84 477.6 223.84 496.16ZM287.76 331.89C292.95 331.89 297.15 336.1 297.16 341.29 297.16 346.48 292.95 350.69 287.76 350.69L261.52 350.69C257.1 350.69 253.52 354.27 253.52 358.69L253.52 362.28C253.52 366.7 257.1 370.28 261.52 370.28L278.11 370.28C283.3 370.41 287.4 374.72 287.27 379.91 287.14 384.92 283.12 388.94 278.11 389.07L261.52 389.07C257.1 389.07 253.52 392.65 253.52 397.07L253.52 400.01C253.52 404.43 257.1 408.01 261.52 408.01L273.64 408.01C278.83 408.01 283.04 412.23 283.03 417.42 283.03 422.6 278.82 426.8 273.64 426.81L265.38 426.81C260.96 426.81 257.38 430.39 257.38 434.81 257.38 439.23 260.96 442.81 265.38 442.81 270.57 442.68 274.88 446.78 275.01 451.97 275.14 457.16 271.04 461.47 265.85 461.6 265.69 461.6 265.53 461.6 265.38 461.6L137.07 461.6C132.8 461.6 128.59 460.59 124.79 458.64 124.62 458.54 124.44 458.45 124.26 458.37 115.48 453.65 110 444.49 109.99 434.52L109.99 331.88 133.25 331.88C135.68 331.88 137.98 330.78 139.5 328.88 141.1 326.88 143.1 324.21 145.42 321.12 150.9 313.81 158.41 303.79 165.77 295.83 176.83 283.86 181.05 283.67 181.1 283.67L183.96 283.67 183.96 323.88C183.96 328.3 187.54 331.88 191.96 331.88L287.77 331.88ZM239.84 149.72 239.84 44.71 339.91 44.71 339.91 149.72 239.84 149.72ZM312.15 209.96 312.15 165.72 347.9 165.72C352.32 165.72 355.9 162.14 355.9 157.72L355.9 104.95 432.63 104.95 397.81 150.56C395.68 153.35 395.62 157.2 397.66 160.06L433.27 209.96 312.15 209.96Z" fill="#FFFFFF"/></svg>