<svg viewBox="0 0 26.23 18.44" xmlns="http://www.w3.org/2000/svg" xmlns:xlink="http://www.w3.org/1999/xlink" id="Layer_1" overflow="hidden"><style>
.MsftOfcThm_Background1_Fill_v2 {
 fill:#FFFFFF; 
}
</style>
<path d="M14.8 12.51C13.91 13.4 12.34 13.42 11.43 12.51L9.23 10.31 1.34 18.22C1.63 18.36 1.96 18.44 2.3 18.44L23.92 18.44C24.26 18.44 24.59 18.36 24.88 18.22L16.99 10.31 14.79 12.51Z" class="MsftOfcThm_Background1_Fill_v2" fill="#FFFFFF"/><path d="M9.78 8.68C9.78 8.68 9.78 8.68 9.78 8.68L12.52 11.43C12.81 11.72 13.42 11.72 13.71 11.43L16.45 8.68C16.45 8.68 16.45 8.68 16.45 8.68 16.45 8.68 16.45 8.68 16.45 8.68L24.88 0.22C24.59 0.08 24.26 0 23.92 0L2.31 0C1.97 0 1.64 0.08 1.35 0.22L9.78 8.68C9.78 8.68 9.78 8.68 9.78 8.68Z" class="MsftOfcThm_Background1_Fill_v2" fill="#FFFFFF"/><path d="M0.25 1.29C0.1 1.6 0 1.94 0 2.3L0 16.13C0 16.5 0.09 16.84 0.25 17.14L8.15 9.21 0.25 1.29Z" class="MsftOfcThm_Background1_Fill_v2" fill="#FFFFFF"/><path d="M25.98 1.29 18.08 9.22 25.98 17.15C26.13 16.84 26.23 16.5 26.23 16.14L26.23 2.31C26.23 1.94 26.14 1.6 25.98 1.3Z" class="MsftOfcThm_Background1_Fill_v2" fill="#FFFFFF"/></svg>