<svg viewBox="0 0 375.89 480" xmlns="http://www.w3.org/2000/svg" xmlns:xlink="http://www.w3.org/1999/xlink" id="Layer_1" overflow="hidden"><style>
.MsftOfcThm_Background1_Fill_v2 {
 fill:#FFFFFF; 
}
</style>
<path d="M2.86 418.15 79.02 402.78 103.79 476.43 155.28 387.25C115.11 380.71 78.92 362.33 50.41 335.8L2.86 418.15Z" class="MsftOfcThm_Background1_Fill_v2" fill="#FFFFFF"/><path d="M187.95 57.14C115.71 57.14 57.15 115.7 57.15 187.94 57.15 260.18 115.71 318.74 187.95 318.74 260.19 318.74 318.75 260.18 318.75 187.94 318.75 115.7 260.19 57.14 187.95 57.14ZM242.02 271.16 187.94 236.7 133.86 271.16 149.92 209.08 100.44 168.3 164.45 164.39 187.94 104.73 211.43 164.39 275.44 168.3 225.96 209.08 242.02 271.16Z" class="MsftOfcThm_Background1_Fill_v2" fill="#FFFFFF"/><path d="M375.89 187.95C375.89 84.15 291.74 0 187.95 0 84.16 0 0 84.15 0 187.95 0 291.75 84.15 375.9 187.95 375.9 291.75 375.9 375.9 291.75 375.9 187.95ZM187.95 332.75C107.98 332.75 43.14 267.92 43.14 187.94 43.14 107.96 107.97 43.14 187.95 43.14 267.93 43.14 332.76 107.97 332.76 187.95 332.76 267.93 267.93 332.76 187.95 332.76Z" class="MsftOfcThm_Background1_Fill_v2" fill="#FFFFFF"/><path d="M220.61 387.25 274.16 480 298.93 406.35 375.09 421.72 325.48 335.79C296.97 362.32 260.78 380.7 220.61 387.24Z" class="MsftOfcThm_Background1_Fill_v2" fill="#FFFFFF"/></svg>