<svg viewBox="0 0 512 445.02" xmlns="http://www.w3.org/2000/svg" xmlns:xlink="http://www.w3.org/1999/xlink" id="Layer_1" overflow="hidden"><style>
.MsftOfcThm_Background1_Fill_v2 {
 fill:#FFFFFF; 
}
</style>
<path d="M491.65 1.01 9.65 185.01C3.85 187.22 0.01 192.78 0 198.99-0.01 205.2 3.8 210.77 9.6 213.01L145 265.3 145 430.01C145 436.96 149.77 443 156.53 444.6 163.24 446.2 170.25 443 173.39 436.76L229.39 325.63 366.05 427.05C374.36 433.22 386.31 429.3 389.34 419.38 516.94 1.04 511.43 19.23 511.65 18.18 514.15 6.56 502.76-3.24 491.64 1ZM157.87 238.12 56.84 199.1 392.67 70.9 157.87 238.12ZM211.98 294.04C210.84 295.57 213.96 289.59 175 366.92L175 262.75 379.67 116.99C203.56 302.78 212.76 293 211.99 294.03ZM366.85 390.3 246.56 301.02 464.07 71.56 366.86 390.29Z" class="MsftOfcThm_Background1_Fill_v2" fill="#FFFFFF"/></svg>