<svg viewBox="0 0 352.8 388.61" xmlns="http://www.w3.org/2000/svg" xmlns:xlink="http://www.w3.org/1999/xlink" id="Layer_1" overflow="hidden"><style>
.MsftOfcThm_Background1_Fill_v2 {
 fill:#FFFFFF; 
}
</style>
<path d="M341.28 232.53C333.92 228.93 325.12 230.05 318.88 235.41L257.44 287.95C255.38 289.71 254.02 292.17 253.63 294.85 252.83 300.36 248.11 304.44 242.54 304.44L188.07 304.44C184.27 304.44 181.19 301.36 181.19 297.56 181.19 293.76 184.27 290.68 188.07 290.68L237.27 290.68C245.62 290.68 252.39 283.91 252.39 275.56 252.39 267.21 245.62 260.44 237.27 260.44L192.31 260.44 183.03 246.2C174.39 232.76 159.51 224.68 143.59 224.68L138.55 224.68C124.64 224.68 111.42 230.78 102.4 241.37L101.27 242.69C92.24 253.29 66.06 259.39 66.06 259.39L66.06 363.15 213.9 388.59 346.22 266.11C350.7 261.95 352.78 256.51 352.78 251.07 352.78 243.55 348.78 236.19 341.26 232.51Z" class="MsftOfcThm_Background1_Fill_v2" fill="#FFFFFF"/><rect x="0" y="243.97" rx="8" ry="8" width="50.08" height="131.76" class="MsftOfcThm_Background1_Fill_v2" fill="#FFFFFF"/><path d="M100.68 116.76C86.94 125.51 82.89 143.75 91.65 157.5 100.4 171.24 118.64 175.29 132.39 166.53L134.3 165.31 160.52 206.47 194.02 185.13 192.8 183.22C184.05 169.48 188.09 151.24 201.83 142.48 215.57 133.72 233.81 137.77 242.57 151.51L243.79 153.42 277.29 132.08 251.07 90.92 252.98 89.7C266.72 80.95 270.77 62.71 262.01 48.96 253.25 35.21 235.02 31.17 221.27 39.93L219.36 41.15 193.15 0 159.65 21.34 160.87 23.25C169.62 36.99 165.58 55.23 151.84 63.99 138.1 72.75 119.86 68.7 111.1 54.96L109.88 53.05 76.38 74.39 102.6 115.55 100.69 116.77Z" class="MsftOfcThm_Background1_Fill_v2" fill="#FFFFFF"/></svg>