<svg viewBox="0 0 469.92 470" xmlns="http://www.w3.org/2000/svg" xmlns:xlink="http://www.w3.org/1999/xlink" id="Layer_1" overflow="hidden"><style>
.MsftOfcThm_Background1_Fill_v2 {
 fill:#FFFFFF; 
}
</style>
<path d="M26.14 242.87C28.22 243.49 30.46 243.26 32.41 242.21 34.37 241.16 35.75 239.43 36.4 237.34L46.16 204.76C46.48 203.59 47.17 202.55 48.15 201.79L59.34 192.83C60.44 191.97 61.74 191.52 63.08 191.52 63.97 191.52 64.87 191.71 65.68 192.11 67.76 193.11 69.1 195.21 69.1 197.52L69.1 254.88C69.1 261.06 72.88 266.29 78.74 268.21L115.78 280.3C118.26 281.1 119.93 283.4 119.93 286L119.93 316.16C119.93 323.52 125.92 329.5 133.28 329.5 140.64 329.5 146.63 323.52 146.63 316.16L146.63 272.33C146.63 267.72 144.06 263.91 139.79 262.15L99.06 245.35C96.82 244.42 95.36 242.23 95.36 239.8L95.36 171.44C95.36 168.62 94.58 165.85 93.2 163.42 90.72 159.16 86.81 156.76 81.89 156.48 76.97 156.19 72.82 158.12 69.85 162.07 69.56 162.45 69.24 162.79 68.87 163.1L32.41 193.27 20.61 232.62C20 234.71 20.24 236.93 21.26 238.88 22.32 240.83 24.06 242.24 26.14 242.87Z" class="MsftOfcThm_Background1_Fill_v2" fill="#FFFFFF"/><path d="M95.17 138.22C106.16 138.22 115.15 129.26 115.15 118.24 115.15 107.22 106.16 98.26 95.17 98.26 84.18 98.26 75.15 107.22 75.15 118.24 75.15 129.26 84.15 138.22 95.17 138.22Z" class="MsftOfcThm_Background1_Fill_v2" fill="#FFFFFF"/><path d="M381.34 6.01C350.74 6.01 323.72 21.6 307.77 45.25L294.18 37.4 292.02 22.53C291.74 20.71 290.68 19.12 289.09 18.2L258.94 0.8C256.95-0.35 254.46-0.26 252.55 1.03 250.64 2.32 249.66 4.59 249.99 6.86L251.9 19.91 239.65 24.79C237.49 25.64 236.03 27.63 235.87 29.93 235.71 32.22 236.85 34.41 238.84 35.56L268.99 52.97C269.93 53.5 270.98 53.78 272 53.78 272.73 53.78 273.51 53.64 274.2 53.35L288.2 47.8 301.75 55.64C295.97 67.42 292.72 80.66 292.72 94.66 292.72 143.54 332.47 183.31 381.34 183.31 430.21 183.31 467.99 145.51 469.92 98.32L469.92 91.01C467.99 43.81 429.02 6.01 381.34 6.01ZM381.34 171.29C339.1 171.29 304.72 136.9 304.72 94.64 304.72 82.83 307.41 71.64 312.21 61.64L330.56 72.26C327.55 79.12 325.84 86.69 325.84 94.65 325.84 125.26 350.74 150.17 381.34 150.17 411.94 150.17 436.88 125.26 436.88 94.65 436.88 64.04 411.98 39.14 381.34 39.14 362.99 39.14 346.67 48.1 336.58 61.86L318.23 51.26C332.07 31.19 355.18 18 381.34 18 423.62 18 458 52.38 458 94.64 458 136.9 423.62 171.29 381.34 171.29ZM381.33 117.05C393.7 117.05 403.75 107 403.75 94.66 403.75 82.32 393.7 72.27 381.33 72.27 375.27 72.27 369.74 74.72 365.67 78.68L347.03 67.92C355.01 57.72 367.42 51.14 381.33 51.14 405.34 51.14 424.87 70.66 424.87 94.65 424.87 118.64 405.34 138.17 381.33 138.17 357.32 138.17 337.83 118.65 337.83 94.65 337.83 88.87 338.97 83.35 341 78.31L359.64 89.07C359.19 90.86 358.95 92.73 358.95 94.66 358.95 107 369 117.05 381.33 117.05ZM384.35 89.45 377.04 85.21C378.34 84.6 379.8 84.25 381.35 84.25 387.09 84.25 391.77 88.91 391.77 94.64 391.77 100.37 387.09 105.03 381.35 105.03 375.97 105.03 371.5 100.88 371.01 95.6L378.37 99.84C379.31 100.39 380.32 100.65 381.34 100.65 383.42 100.65 385.45 99.57 386.55 97.65 388.22 94.78 387.24 91.11 384.35 89.45Z" class="MsftOfcThm_Background1_Fill_v2" fill="#FFFFFF"/><path d="M69.1 276.84 69.1 294.21C69.1 294.78 69.02 295.35 68.86 295.9L47.5 368.59C45.41 375.64 49.48 383.07 56.56 385.14 63.6 387.21 71.05 383.15 73.12 376.1L95.34 300.39 95.34 286.24 75.04 279.62C72.88 278.92 70.89 277.97 69.1 276.84Z" class="MsftOfcThm_Background1_Fill_v2" fill="#FFFFFF"/><path d="M107.34 211.52 132.93 220.01C135.01 220.7 137.24 220.53 139.24 219.54 141.19 218.55 142.66 216.86 143.35 214.79 144.77 210.48 142.41 205.81 138.1 204.39L107.34 194.19 107.34 211.52Z" class="MsftOfcThm_Background1_Fill_v2" fill="#FFFFFF"/><rect x="0" y="399.52" width="100.14" height="70.47" class="MsftOfcThm_Background1_Fill_v2" fill="#FFFFFF"/><rect x="224.32" y="301.99" width="100.13" height="168" class="MsftOfcThm_Background1_Fill_v2" fill="#FFFFFF"/><rect x="336.46" y="249.71" width="100.17" height="220.29" class="MsftOfcThm_Background1_Fill_v2" fill="#FFFFFF"/><rect x="112.14" y="349.8" width="100.18" height="120.19" class="MsftOfcThm_Background1_Fill_v2" fill="#FFFFFF"/></svg>