<svg viewBox="0 0 512 507.02" xmlns="http://www.w3.org/2000/svg" xmlns:xlink="http://www.w3.org/1999/xlink" id="Layer_2" overflow="hidden"><style>
.MsftOfcThm_Accent1_Fill_v2 {
 fill:#173863; 
}
</style>
<path d="M507.79 62.13C507.49 61.84 447.34 4.49 447.34 4.49 445.04 2.28 442.66 1.77636e-15 438.22 1.77636e-15L196.1 1.77636e-15C189.03 1.77636e-15 183.27 5.75 183.27 12.83L183.27 52.21 97.94 66.84C91.1 68.04 86.5 74.59 87.68 81.42L92.01 106.67C64.27 116 35.8 125.63 8.3 135.5 1.8 137.88-1.6 145.1 0.71 151.63L55.39 303.65C56.49 306.71 59.37 308.61 62.45 308.61 63.29 308.61 64.15 308.47 64.99 308.16 68.89 306.76 70.91 302.46 69.51 298.56L15.65 148.8C41.55 139.53 68.37 130.45 94.58 121.63L120.35 271.87 150 444.9C151.07 451.01 156.44 455.35 162.5 455.35 163.19 455.35 163.88 455.29 164.58 455.18L244.9 441.4 307.66 430.64 213.27 464.57 138.84 491.33 81.03 330.54C79.63 326.64 75.33 324.62 71.44 326.02 67.54 327.42 65.52 331.72 66.92 335.61L125.55 498.68C127.43 503.81 132.28 507 137.42 507 138.84 507 140.28 506.76 141.68 506.24L218.35 478.67 392.44 416.1 425.7 410.4 499.17 410.4C506.24 410.4 512 404.63 512 397.55L512 70.58C512 66.09 509.57 63.8 507.79 62.13ZM487.92 63.9 449.46 63.9C447.66 63.92 443.46 63.95 442.39 62.89 442.14 62.65 441.86 61.83 441.86 60.31L441.77 19.9 487.92 63.91ZM497 395.41 198.28 395.41 198.28 249.24C198.28 245.1 194.92 241.74 190.78 241.74 186.64 241.74 183.28 245.1 183.28 249.24L183.28 397.55C183.28 404.64 189.03 410.4 196.11 410.4L336.92 410.4 242.38 426.61 164.4 439.99 135.15 269.33 102.88 81.2 183.29 67.42 183.29 214.44C183.29 218.58 186.65 221.94 190.79 221.94 194.93 221.94 198.29 218.58 198.29 214.44L198.29 15 426.76 15 426.86 60.33C426.86 65.82 428.53 70.27 431.83 73.54 436.89 78.57 444.05 78.92 448.49 78.92 448.87 78.92 449.23 78.92 449.57 78.92L497.01 78.92C497.01 78.92 497.01 395.43 497.01 395.43Z" class="MsftOfcThm_Accent1_Fill_v2" fill="#173863"/><path d="M234.43 116.46C234.43 120.6 237.79 123.96 241.93 123.96L456.37 123.96C460.51 123.96 463.87 120.6 463.87 116.46 463.87 112.32 460.51 108.96 456.37 108.96L241.93 108.96C237.79 108.96 234.43 112.32 234.43 116.46Z" class="MsftOfcThm_Accent1_Fill_v2" fill="#173863"/><path d="M456.37 162.24 241.93 162.24C237.79 162.24 234.43 165.6 234.43 169.74 234.43 173.88 237.79 177.24 241.93 177.24L456.37 177.24C460.51 177.24 463.87 173.88 463.87 169.74 463.87 165.6 460.51 162.24 456.37 162.24Z" class="MsftOfcThm_Accent1_Fill_v2" fill="#173863"/><path d="M456.37 215.52 241.93 215.52C237.79 215.52 234.43 218.88 234.43 223.02 234.43 227.16 237.79 230.52 241.93 230.52L456.37 230.52C460.51 230.52 463.87 227.16 463.87 223.02 463.87 218.88 460.51 215.52 456.37 215.52Z" class="MsftOfcThm_Accent1_Fill_v2" fill="#173863"/><path d="M456.37 268.8 241.93 268.8C237.79 268.8 234.43 272.16 234.43 276.3 234.43 280.44 237.79 283.8 241.93 283.8L456.37 283.8C460.51 283.8 463.87 280.44 463.87 276.3 463.87 272.16 460.51 268.8 456.37 268.8Z" class="MsftOfcThm_Accent1_Fill_v2" fill="#173863"/><path d="M456.37 322.09 241.93 322.09C237.79 322.09 234.43 325.45 234.43 329.59 234.43 333.73 237.79 337.09 241.93 337.09L456.37 337.09C460.51 337.09 463.87 333.73 463.87 329.59 463.87 325.45 460.51 322.09 456.37 322.09Z" class="MsftOfcThm_Accent1_Fill_v2" fill="#173863"/></svg>