<svg viewBox="0 0 512 512" xmlns="http://www.w3.org/2000/svg" xmlns:xlink="http://www.w3.org/1999/xlink" id="Layer_2" overflow="hidden"><style>
.MsftOfcThm_Accent3_Fill_v2 {
 fill:#B8BCC1; 
}
</style>
<path d="M390.97 440.03C385.88 442.8 380.73 445.66 375.5 448.56 331.31 473.06 281.23 500.83 233.09 496.53L62.62 481.31C62.4 481.29 62.17 481.28 61.95 481.28L15.03 481.28 15.03 396.92 61.95 396.92C63.73 396.92 65.45 396.29 66.8 395.14 66.93 395.03 80.36 383.74 100.81 373.12 104.49 371.21 105.93 366.67 104.02 362.99 102.11 359.31 97.57 357.87 93.89 359.79 76.65 368.75 64.15 378.07 59.3 381.89L7.52 381.89C3.37 381.89 0 385.25 0 389.41L0 488.8C0 492.95 3.36 496.32 7.52 496.32L61.62 496.32 231.76 511.51C235.6 511.85 239.44 512.02 243.27 512.02 292.06 512.02 340.07 485.4 382.79 461.72 387.98 458.84 393.1 456 398.16 453.25 401.8 451.26 403.15 446.7 401.16 443.06 399.18 439.41 394.61 438.07 390.97 440.06Z" class="MsftOfcThm_Accent3_Fill_v2" fill="#B8BCC1"/><path d="M506.2 356.79 506.2 356.79C498.21 346.2 484.29 342.54 472.27 347.57 471.96 342.76 470.34 338.08 467.49 334.09 459.98 323.57 445.69 320.18 434.26 326.21L416.39 335.63C416.16 331.43 414.92 327.3 412.72 323.66 405.59 311.87 390.52 307.78 378.42 314.34L365.06 321.58C364.82 316.39 363.06 311.32 359.92 307.05 352.09 296.39 337.91 293.11 326.2 299.25L229.76 349.83C218.91 345.67 184.34 334.41 143.95 341.92 136.98 343.22 129.8 345.09 122.61 347.5 118.67 348.82 116.55 353.07 117.87 357.01 119.19 360.95 123.45 363.07 127.38 361.75 133.92 359.57 140.42 357.86 146.7 356.69 189.82 348.66 226.72 364.79 227.08 364.95 228.05 365.38 229.1 365.61 230.16 365.61L330.54 365.61C337.67 365.61 343.47 371.43 343.47 378.58 343.47 385.1 338.61 390.63 332.16 391.45L204.93 407.56C201.17 408.04 198.35 411.24 198.36 415.04 198.37 418.83 201.21 422.02 204.98 422.48L259.01 428.99C311.35 435.3 363.38 425.09 409.47 399.46L476.99 361.93C482.93 358.83 490.16 360.47 494.2 365.83 499.25 372.2 497.05 382.43 489.82 386.15L417.37 425.63C408.71 430.18 416.13 443.63 424.56 438.83L497.01 399.35C504.35 395.35 509.58 388.36 511.34 380.18 513.11 371.99 511.23 363.46 506.19 356.78ZM311.53 350.59 260.66 350.59 333.17 312.56C338.25 309.9 344.4 311.32 347.8 315.95 351.98 321.34 350.08 329.88 344.01 332.99L311.53 350.6ZM340.01 352.25 385.58 327.55C390.62 324.82 396.89 326.53 399.86 331.44 403.1 336.52 401.07 343.86 395.68 346.55L356.16 367.38C353.09 360.38 347.24 354.87 340.02 352.25ZM451.66 358.82 402.17 386.34C360.84 409.32 314.42 419.11 267.53 414.79L334.05 406.37C346.39 404.81 356.04 395.27 358.09 383.34L441.27 339.5C446.08 336.97 452.09 338.39 455.26 342.82 459.09 347.91 457.31 355.86 451.67 358.82Z" class="MsftOfcThm_Accent3_Fill_v2" fill="#B8BCC1"/><path d="M174.99 204.18C183.48 204.18 191.64 202.34 199.26 198.72 203.01 196.94 204.6 192.45 202.82 188.71 201.04 184.96 196.56 183.37 192.81 185.15 187.23 187.8 181.24 189.15 175 189.15 152.1 189.15 133.47 170.52 133.47 147.62 133.47 124.72 152.1 106.09 175 106.09 197.9 106.09 216.53 124.72 216.53 147.62 216.53 154.63 214.75 161.56 211.39 167.65 209.38 171.28 210.7 175.86 214.34 177.86 217.98 179.87 222.55 178.54 224.55 174.91 229.14 166.6 231.56 157.16 231.56 147.61 231.56 116.42 206.19 91.05 175 91.05 143.81 91.05 118.44 116.42 118.44 147.61 118.44 178.8 143.81 204.17 175 204.17Z" class="MsftOfcThm_Accent3_Fill_v2" fill="#B8BCC1"/><path d="M57.65 169.96 57.65 169.96C57.65 169.96 73.23 172.3 73.23 172.3 75.77 182.85 79.91 192.84 85.59 202.12L76.23 214.79C71.81 220.78 72.42 228.95 77.68 234.21L88.4 244.93C93.67 250.2 101.83 250.81 107.82 246.38L120.49 237.02C129.76 242.69 139.76 246.84 150.31 249.38L152.65 264.95C153.76 272.31 159.97 277.66 167.41 277.66L182.57 277.66C190.02 277.66 196.22 272.32 197.33 264.95L199.67 249.38C210.22 246.84 220.22 242.7 229.49 237.02L242.16 246.38C248.15 250.8 256.32 250.19 261.58 244.93L272.3 234.21C277.57 228.95 278.18 220.78 273.75 214.79L264.39 202.12C270.06 192.85 274.21 182.85 276.75 172.3L292.32 169.96C299.68 168.85 305.03 162.65 305.03 155.2L305.03 155.13 349.63 155.13 349.63 250.91C349.63 260.57 357.49 268.43 367.15 268.43L399.25 268.43C402.69 283.75 416.39 295.23 432.73 295.23 451.65 295.23 467.05 279.84 467.05 260.91 467.05 241.98 451.66 226.59 432.73 226.59 416.39 226.59 402.69 238.07 399.25 253.39L367.15 253.39C365.77 253.39 364.66 252.27 364.66 250.9L364.66 155.12 399.26 155.12C402.7 170.44 416.4 181.92 432.74 181.92 451.66 181.92 467.06 166.53 467.06 147.6 467.06 128.67 451.67 113.28 432.74 113.28 416.4 113.28 402.7 124.76 399.26 140.08L364.66 140.08 364.66 44.33C364.66 42.95 365.78 41.84 367.15 41.84L399.25 41.84C402.69 57.16 416.39 68.64 432.73 68.64 451.65 68.64 467.05 53.25 467.05 34.32 467.05 15.39 451.67 0 432.75 0 416.41 0 402.71 11.48 399.27 26.8L367.17 26.8C357.51 26.8 349.65 34.66 349.65 44.32L349.65 140.1 305.05 140.1 305.05 140.03C305.05 132.58 299.71 126.38 292.34 125.27L276.76 122.93C274.22 112.38 270.08 102.39 264.4 93.11L273.76 80.44C278.18 74.45 277.57 66.28 272.31 61.02L261.59 50.3C256.33 45.04 248.16 44.42 242.17 48.85L229.5 58.21C220.22 52.54 210.23 48.39 199.68 45.85L197.34 30.27C196.23 22.91 190.03 17.56 182.58 17.56L167.42 17.56C159.97 17.56 153.77 22.9 152.66 30.27L150.32 45.85C139.77 48.39 129.78 52.53 120.5 58.21L107.83 48.85C101.84 44.43 93.67 45.04 88.41 50.3L77.69 61.02C72.42 66.29 71.81 74.45 76.24 80.44L85.6 93.11C79.93 102.38 75.78 112.38 73.24 122.93L57.66 125.27C50.3 126.38 44.95 132.59 44.95 140.03L44.95 155.19C44.95 162.64 50.29 168.85 57.66 169.95ZM432.75 241.64C443.39 241.64 452.04 250.29 452.04 260.93 452.04 271.57 443.39 280.22 432.75 280.22 422.11 280.22 413.46 271.57 413.46 260.93 413.46 250.29 422.11 241.64 432.75 241.64ZM432.75 128.33C443.39 128.33 452.04 136.98 452.04 147.62 452.04 158.26 443.39 166.91 432.75 166.91 422.11 166.91 413.46 158.26 413.46 147.62 413.46 136.98 422.11 128.33 432.75 128.33ZM432.75 15.03C443.39 15.03 452.04 23.68 452.04 34.32 452.04 44.96 443.39 53.61 432.75 53.61 422.11 53.61 413.46 44.96 413.46 34.32 413.46 23.68 422.11 15.03 432.75 15.03ZM80.59 137.03C83.75 136.55 86.27 134.13 86.86 130.98 89.15 118.77 93.88 107.36 100.91 97.07 102.71 94.43 102.65 90.94 100.75 88.36L88.35 71.58 98.95 60.98 115.73 73.38C118.3 75.28 121.8 75.34 124.44 73.54 134.73 66.51 146.13 61.78 158.34 59.49 161.48 58.9 163.91 56.39 164.39 53.22L167.49 32.59 182.48 32.59 185.58 53.22C186.06 56.38 188.48 58.9 191.63 59.49 203.84 61.78 215.25 66.51 225.53 73.54 228.17 75.35 231.66 75.28 234.24 73.38L251.02 60.98 261.62 71.58 249.22 88.36C247.32 90.93 247.26 94.43 249.06 97.07 256.09 107.35 260.82 118.76 263.11 130.98 263.7 134.12 266.22 136.55 269.38 137.03L290.01 140.13 290.01 155.12 269.38 158.22C266.22 158.7 263.7 161.12 263.11 164.27 260.82 176.48 256.09 187.89 249.06 198.18 247.26 200.82 247.32 204.31 249.22 206.89L261.62 223.67 251.02 234.27 234.24 221.87C231.67 219.97 228.17 219.91 225.53 221.71 215.24 228.74 203.84 233.47 191.62 235.76 188.48 236.35 186.05 238.87 185.57 242.03L182.47 262.66 167.48 262.66 164.38 242.03C163.9 238.87 161.48 236.35 158.33 235.76 146.12 233.47 134.71 228.74 124.42 221.71 121.78 219.91 118.29 219.97 115.71 221.87L98.93 234.27 88.33 223.67 100.73 206.89C102.63 204.32 102.69 200.82 100.89 198.18 93.86 187.9 89.13 176.49 86.84 164.28 86.25 161.14 83.73 158.71 80.57 158.23L59.94 155.13 59.94 140.14C59.94 140.14 80.57 137.04 80.57 137.04Z" class="MsftOfcThm_Accent3_Fill_v2" fill="#B8BCC1"/></svg>