<svg viewBox="0 0 488 488" xmlns="http://www.w3.org/2000/svg" xmlns:xlink="http://www.w3.org/1999/xlink" id="Layer_1" overflow="hidden"><style>
.MsftOfcThm_Background1_Fill_v2 {
 fill:#FFFFFF; 
}
</style>
<defs></defs><path d="M8 483 8 468.97C8 467.64 8.53 466.37 9.46 465.43 10.4 464.49 11.67 463.97 13 463.97L483 463.97C484.33 463.97 485.6 464.5 486.54 465.43 487.48 466.37 488 467.64 488 468.97L488 483C488 484.33 487.47 485.6 486.54 486.54 485.6 487.48 484.33 488 483 488L13 488C11.67 488 10.4 487.47 9.46 486.54 8.52 485.6 8 484.33 8 483ZM39.08 447.97 39.08 353.65C39.08 352.32 39.61 351.05 40.55 350.11 41.49 349.17 42.76 348.65 44.08 348.65L97.67 348.65C99 348.65 100.27 349.18 101.21 350.11 102.15 351.05 102.67 352.32 102.67 353.65L102.67 447.97 39.08 447.97ZM157.17 447.97 157.17 289.7C157.17 288.37 157.7 287.1 158.63 286.16 159.56 285.22 160.84 284.7 162.17 284.7L215.76 284.7C217.09 284.7 218.36 285.23 219.3 286.16 220.24 287.09 220.76 288.37 220.76 289.7L220.76 447.97 157.17 447.97ZM275.24 447.97 275.24 222.96C275.24 220.2 277.48 217.96 280.24 217.96L333.85 217.96C336.61 217.96 338.85 220.2 338.85 222.96L338.85 447.97 275.24 447.97ZM393.33 447.97 393.33 162.91C393.33 161.58 393.86 160.31 394.79 159.37 395.73 158.43 397 157.91 398.33 157.91L451.92 157.91C453.25 157.91 454.52 158.44 455.46 159.37 456.4 160.31 456.92 161.58 456.92 162.91L456.92 447.97 393.33 447.97ZM356.27 131.98C355.2 133.13 353.8 134.56 352.22 136.03 246.02 235.23 138.07 285.1 40.01 316.15 35.8 317.48 31.3 315.15 29.97 310.94 28.64 306.73 30.97 302.23 35.18 300.9 131.52 270.4 237.62 221.39 341.96 123.73 343.65 122.15 345.19 120.46 345.95 119.6 346.11 119.41 346.28 119.22 346.45 119.03 343.88 90.74 349.96 14.62 488.01 8.01 488.01 8.01 459.43 57.9 452.07 83.32 438.58 129.92 401.22 141.3 372.4 134.89 382.04 100.25 395.65 86.05 425.14 60.86 394.55 66.81 372.35 93.56 356.28 132L356.28 132ZM219.96 173.08C223.78 172.65 227.47 175.03 228.55 178.85 229.76 183.1 227.29 187.53 223.04 188.73L202.31 194.61C199.97 195.27 197.46 194.84 195.48 193.43 193.5 192.02 192.27 189.78 192.14 187.36L190.95 165.85C190.71 161.44 194.09 157.66 198.49 157.42 202.53 157.2 206.04 160.02 206.79 163.88 214.76 149.63 219.3 133.27 219.3 115.87 219.3 60.72 173.72 16.01 117.65 16.01 111.37 16.01 105.23 16.57 99.26 17.64 94.91 18.42 90.75 15.53 89.97 11.18 89.19 6.83 92.08 2.67 96.43 1.89 103.31 0.65 110.4 0.01 117.65 0.01 182.62 0.01 235.3 51.96 235.3 115.87 235.3 136.67 229.72 156.2 219.96 173.08L219.96 173.08ZM15.55 58.29C11.57 58.89 7.69 56.42 6.63 52.44 5.49 48.17 8.03 43.79 12.29 42.65L33.11 37.09C35.46 36.46 37.96 36.94 39.92 38.38 41.88 39.82 43.07 42.07 43.17 44.5L44.03 66.03C44.21 70.44 40.77 74.17 36.36 74.34 32.51 74.49 29.18 71.89 28.28 68.29 20.46 82.43 16.01 98.64 16.01 115.86 16.01 171.01 61.59 215.72 117.66 215.72 123.94 215.72 130.08 215.16 136.05 214.09 140.4 213.31 144.56 216.2 145.34 220.55 146.12 224.9 143.23 229.06 138.88 229.84 132 231.08 124.91 231.72 117.66 231.72 52.68 231.73 0 179.77 0 115.86 0 94.91 5.66 75.25 15.55 58.29ZM117.65 194.31C74.44 194.31 39.2 159.07 39.2 115.86 39.2 72.65 74.44 37.41 117.65 37.41 160.86 37.41 196.1 72.65 196.1 115.86 196.1 159.07 160.86 194.31 117.65 194.31ZM109.65 70.28C108.04 70.66 106.46 71.15 104.94 71.74 94.22 75.96 86.51 85.22 87.12 97.79 87.9 114.2 102.6 121.21 116.44 123.46 120.08 124.06 123.99 124.92 127.43 126.48 131.04 128.12 134.18 130.61 134.73 135.17L134.73 135.17C135.15 138.67 133.51 141.15 131.11 142.81 127.58 145.24 122.79 146.3 118.49 146.4L118.47 146.4C110.53 146.6 102.28 143.16 100.26 135.04 99.19 130.75 94.85 128.14 90.57 129.21 86.29 130.28 83.67 134.62 84.74 138.9 87.85 151.39 97.93 159.12 109.66 161.57L109.66 165.51C109.66 169.92 113.24 173.51 117.66 173.51 122.08 173.51 125.66 169.92 125.66 165.51L125.66 161.69C139.5 159.12 152.6 149.61 150.62 133.26 148.6 116.47 133.16 109.99 119.03 107.67L119.02 107.67C115.65 107.12 112.09 106.28 109 104.78 105.92 103.28 103.3 101.02 103.11 97.03L103.11 97.01C102.85 91.86 106.41 88.35 110.8 86.62 118.55 83.57 129.35 85.5 133.38 95.13 135.09 99.2 139.78 101.12 143.85 99.41 147.92 97.7 149.84 93.01 148.13 88.94 143.67 78.3 135.02 72.27 125.64 70.18L125.64 66.23C125.64 61.81 122.05 58.23 117.64 58.23 113.23 58.23 109.64 61.81 109.64 66.23L109.64 70.27Z" class="MsftOfcThm_Background1_Fill_v2" fill="#FFFFFF" fill-rule="evenodd"/></svg>