<svg width="512" height="512" viewBox="0 0 64 64" xmlns="http://www.w3.org/2000/svg" xmlns:xlink="http://www.w3.org/1999/xlink" id="Layer_5" overflow="hidden"><path d="M21.555 43.461 19.657 44.09C19.862 44.71 20.116 45.318 20.412 45.897L22.193 44.989C21.943 44.499 21.729 43.984 21.555 43.461Z" fill="#FFFFFF"/><path d="M41.167 33.918C42.366 35.722 43 37.825 43 40 43 46.065 38.065 51 32 51 28.469 51 25.129 49.286 23.063 46.416L21.44 47.584C23.88 50.976 27.828 53 32 53 39.168 53 45 47.168 45 40 45 37.43 44.25 34.944 42.833 32.811Z" fill="#FFFFFF"/><path d="M60 15C58.346 15 57 16.346 57 18 57 18.568 57.168 19.094 57.443 19.547L52.01 26.187C51.693 26.073 51.356 26 51 26 50.853 26 50.712 26.023 50.57 26.043L44.811 20.284 39.498 24.416C39.055 24.158 38.548 24 38 24 37.922 24 37.849 24.017 37.772 24.023 37.768 24.021 37.764 24.02 37.76 24.018L36.883 17 27.117 17 26.242 24.006C25.75 24.185 25.258 24.391 24.768 24.623L19.189 20.284 12.284 27.189 16.623 32.768C16.596 32.826 16.577 32.884 16.55 32.942L6.988 29.117C6.99 29.078 7 29.04 7 29 7 27.346 5.654 26 4 26 2.346 26 1 27.346 1 29 1 30.654 2.346 32 4 32 4.895 32 5.691 31.598 6.241 30.974L14.789 34.393 9 35.117 9 44.883 16.006 45.759C16.185 46.25 16.391 46.742 16.623 47.232L12.284 52.811 19.189 59.716 24.768 55.377C25.257 55.609 25.749 55.815 26.242 55.994L27.117 63 36.883 63 37.758 55.994C38.25 55.815 38.742 55.609 39.232 55.377L44.811 59.716 51.716 52.811 47.377 47.232C47.609 46.743 47.815 46.251 47.994 45.759L55 44.883 55 35.117 47.994 34.241C47.815 33.75 47.609 33.258 47.377 32.768L48.766 30.982C49.316 31.602 50.109 32 51 32 52.654 32 54 30.654 54 29 54 28.432 53.833 27.906 53.557 27.453L58.99 20.812C59.307 20.927 59.644 21 60 21 61.654 21 63 19.654 63 18 63 16.346 61.654 15 60 15ZM4 30C3.449 30 3 29.552 3 29 3 28.448 3.449 28 4 28 4.551 28 5 28.448 5 29 5 29.552 4.551 30 4 30ZM48.743 27.045C48.6 27.21 48.476 27.391 48.371 27.585L40.943 26.442C40.91 26.268 40.858 26.102 40.796 25.94L44.644 22.947ZM39 27C39 27.552 38.551 28 38 28 37.449 28 37 27.552 37 27 37 26.448 37.449 26 38 26 38.551 26 39 26.448 39 27ZM14.946 27.355 19.355 22.946 24.542 26.98 25.11 26.685C25.888 26.281 26.678 25.951 27.458 25.704L28.068 25.511 28.883 19 35.117 19 35.856 24.908C35.328 25.449 35 26.186 35 27 35 27.841 35.35 28.599 35.909 29.144L34.838 31.465C33.944 31.168 32.992 31 32 31 28.531 31 25.52 32.976 24.018 35.858L21.992 35.079C21.993 35.052 22 35.027 22 35 22 33.346 20.654 32 19 32 18.86 32 18.726 32.023 18.591 32.041ZM25.179 38.448 29.008 39.921C29.007 39.948 29 39.973 29 40 29 41.654 30.346 43 32 43 33.654 43 35 41.654 35 40 35 39.159 34.65 38.401 34.091 37.856L35.808 34.135C37.727 35.385 39 37.545 39 40 39 43.859 35.86 47 32 47 28.14 47 25 43.859 25 40 25 39.466 25.065 38.948 25.179 38.448ZM32 39C32.551 39 33 39.448 33 40 33 40.552 32.551 41 32 41 31.449 41 31 40.552 31 40 31 39.448 31.449 39 32 39ZM32.271 37.027C32.18 37.019 32.093 37 32 37 31.09 37 30.284 37.415 29.733 38.057L25.897 36.582C27.098 34.447 29.382 33 32 33 32.693 33 33.361 33.105 33.994 33.293ZM19 34C19.551 34 20 34.448 20 35 20 35.552 19.551 36 19 36 18.449 36 18 35.552 18 35 18 34.448 18.449 34 19 34ZM45.314 33.111C45.719 33.89 46.049 34.679 46.295 35.458L46.488 36.069 53 36.883 53 43.117 46.489 43.93 46.296 44.541C46.049 45.319 45.719 46.108 45.315 46.888L45.02 47.457 49.054 52.644 44.645 57.053 39.458 53.019 38.89 53.314C38.112 53.718 37.322 54.048 36.542 54.295L35.932 54.488 35.117 61 28.883 61 28.069 54.489 27.459 54.296C26.679 54.049 25.889 53.719 25.111 53.315L24.543 53.02 19.356 57.054 14.947 52.645 18.981 47.458 18.686 46.889C18.281 46.11 17.951 45.321 17.705 44.542L17.512 43.931 11 43.117 11 36.883 16.268 36.225C16.738 37.269 17.783 38 19 38 19.91 38 20.716 37.585 21.267 36.943L23.303 37.726C23.112 38.454 23 39.213 23 40 23 44.963 27.038 49 32 49 36.962 49 41 44.963 41 40 41 36.74 39.252 33.889 36.651 32.309L37.729 29.972C37.82 29.981 37.907 30 38 30 39.14 30 40.121 29.354 40.628 28.416L47.415 29.461 45.019 32.542ZM51 30C50.449 30 50 29.552 50 29 50 28.448 50.449 28 51 28 51.551 28 52 28.448 52 29 52 29.552 51.551 30 51 30ZM60 19C59.449 19 59 18.552 59 18 59 17.448 59.449 17 60 17 60.551 17 61 17.448 61 18 61 18.552 60.551 19 60 19Z" fill="#FFFFFF"/><path d="M25.414 11 21 11 21 1 19 1 19 13 20.586 13 15 18.586 9.414 13 11 13 11 5 9 5 9 11 4.586 11 15 21.414Z" fill="#FFFFFF"/><path d="M9 1 11 1 11 3 9 3Z" fill="#FFFFFF"/><path d="M43 19 45 19 45 9 43.414 9 49 3.414 54.586 9 53 9 53 15 55 15 55 11 59.414 11 49 0.586 38.586 11 43 11Z" fill="#FFFFFF"/><path d="M53 17 55 17 55 19 53 19Z" fill="#FFFFFF"/></svg>