<svg viewBox="0 0 461.66 485.66" xmlns="http://www.w3.org/2000/svg" xmlns:xlink="http://www.w3.org/1999/xlink" id="Layer_1" overflow="hidden"><path d="M345.37 368 328 368C319.35 367.98 310.93 365.18 304 360L269.13 333.85C264.84 330.63 263.97 324.55 267.19 320.26 267.47 319.89 267.77 319.55 268.09 319.22 271.19 316.13 275.97 315.49 279.77 317.66L314.55 337.54C325.24 343.65 338.85 339.93 344.96 329.24 349.15 321.91 348.84 312.84 344.15 305.82L338.29 297.02 358.16 277.15 393.72 333.03 450.34 389.65 461.65 378.34 406.27 322.96 399.99 313.1 399.99 235.31 425.65 209.65C435.4 199.89 435.39 184.07 425.63 174.33 418.92 167.63 408.99 165.3 400 168.34L400 24C399.98 10.75 389.25 0.01 376 0L56 0C42.75 0.01 32.01 10.75 32 24L32 180 16 192C5.95 199.57 0.03 211.42 0 224L0 480 16 480 16 224C16.02 216.45 19.57 209.34 25.6 204.8L32 200 32 307.29C32 316.13 39.16 323.29 48 323.29 52.51 323.29 56.81 321.39 59.84 318.05L79.87 296 80 296 80 295.86 113.78 258.67C117.85 254.15 124.7 253.5 129.55 257.17L129.96 257.48C132.72 259.53 134.51 262.63 134.91 266.04 135.31 269.41 134.31 272.79 132.12 275.39 124.13 284.97 114.66 296.32 109.56 302.44 105.97 306.75 104 312.19 104 317.8L104 321.38C104.03 333.75 99.12 345.63 90.34 354.35 78.56 366.07 71.95 382.02 72 398.63L72 480 88 480 88 464 376 464C389.25 463.98 399.98 453.25 400 440L400 435.31 450.34 485.65 461.65 474.34 362.34 375.03C357.85 370.51 351.74 367.98 345.37 368ZM246.72 317.97C244.44 315.71 243.72 312.3 244.89 309.31L267.4 253.04C268.61 250 271.55 248 274.83 248.01L316.68 248.01 246.71 317.98ZM263.25 349.44 228.69 384 216 384 216 371.31 251.26 336.05C253.03 340.25 255.88 343.91 259.53 346.65L263.25 349.44ZM329.1 323.41C327.12 324.73 324.56 324.82 322.49 323.64L315.61 319.71 326.76 308.56 330.85 314.69C332.78 317.58 332 321.48 329.11 323.41ZM384 287.96 369.75 265.57 384 251.32 384 287.96ZM301.21 311.48 287.71 303.77C286.8 303.26 285.87 302.81 284.91 302.41L376 211.32 388.69 224.01 301.21 311.49ZM401.66 185.66C403.34 183.97 405.62 183.03 408 183.03 412.95 183.03 416.97 187.05 416.97 192 416.97 194.38 416.02 196.66 414.34 198.34L400 212.68 387.31 199.99 401.65 185.65ZM64 32 64 289.67 48 307.28 48 24C48 19.58 51.58 16.01 56 16L376 16C380.42 16 383.99 19.58 384 24L384 180.69 368 196.69 368 32 64 32ZM120 317.79C120 315.92 120.66 314.11 121.85 312.67 126.54 307.05 134.9 297.01 142.43 288L160 288C164.42 288 167.99 291.58 168 296L168 328C168 332.42 164.42 335.99 160 336L128 336C123.58 336 120.01 332.42 120 328L120 317.79ZM88 398.63C87.97 386.26 92.88 374.38 101.66 365.66 106.88 360.45 111.15 354.35 114.25 347.65 118.28 350.48 123.08 352 128 352L160 352C173.25 351.98 183.98 341.25 184 328L184 296C183.98 282.75 173.25 272.02 160 272L150.63 272C151.04 269.41 151.1 266.79 150.8 264.19 150.11 258.12 147.47 252.44 143.28 248L160 248C173.25 247.98 183.98 237.25 184 224L184 208 168 208 168 224C168 228.42 164.42 231.99 160 232L128 232C123.58 232 120.01 228.42 120 224L120 192C120 187.58 123.58 184.01 128 184L144 184 144 168 128 168C114.75 168.02 104.02 178.75 104 192L104 224C104 230.46 106.61 236.65 111.25 241.16 107.71 242.74 104.54 245.04 101.94 247.91L80 272.06 80 48 352 48 352 212.69 331.06 233.63C326.67 232.55 322.17 232 317.65 232L274.83 232C265.01 231.97 256.16 237.95 252.55 247.09L230.04 303.36C229.96 303.57 229.9 303.79 229.82 304L208 304 208 320 229.68 320C230.87 323.48 232.83 326.65 235.43 329.26L200 364.69 200 400 235.31 400 276.18 359.13 294.4 372.8C304.1 380.05 315.89 383.98 328 384L345.37 384C347.49 384 349.53 384.84 351.03 386.34L352 387.31 352 416 88 416 88 398.63ZM368 403.31 384 419.31 384 440C384 444.42 380.42 447.99 376 448L88 448 88 432 368 432 368 403.31Z" fill="#FFFFFF"/><path d="M168 120C168 124.42 164.42 127.99 160 128L128 128C123.58 128 120.01 124.42 120 120L120 88C120 83.58 123.58 80.01 128 80L144 80 144 64 128 64C114.75 64.02 104.02 74.75 104 88L104 120C104.02 133.25 114.75 143.98 128 144L160 144C173.25 143.98 183.98 133.25 184 120L184 104 168 104 168 120Z" fill="#FFFFFF"/><rect x="127.72" y="84" width="56.57" height="16" fill="#FFFFFF" transform="matrix(0.707107 -0.707107 0.707107 0.707107 -19.36 137.25)"/><rect x="208" y="64" width="120" height="16" fill="#FFFFFF"/><rect x="127.72" y="188" width="56.57" height="16" fill="#FFFFFF" transform="matrix(0.707107 -0.707107 0.707107 0.707107 -92.9 167.73)"/><rect x="208" y="200" width="80" height="16" fill="#FFFFFF"/><rect x="208" y="96" width="96" height="16" fill="#FFFFFF"/><rect x="208" y="168" width="120" height="16" fill="#FFFFFF"/></svg>