<svg viewBox="0 0 448 431.64" xmlns="http://www.w3.org/2000/svg" xmlns:xlink="http://www.w3.org/1999/xlink" id="Layer_1" overflow="hidden"><style>
.MsftOfcThm_Background1_Fill_v2 {
 fill:#FFFFFF; 
}
</style>
<path d="M57.99 216.94 57.99 216.94C57.99 216.94 7.99 216.94 7.99 216.94 3.58 216.95 1.77636e-15 220.53-0.01 224.94L-0.01 385.25C1.98973e-15 389.66 3.58 393.24 7.99 393.25L57.99 393.25C71.16 393.28 81.88 382.66 81.99 369.49L81.99 240.94C81.91 227.72 71.21 217.02 57.99 216.94ZM40.96 272.94C36.54 272.87 33.02 269.23 33.09 264.82 33.16 260.5 36.64 257.01 40.97 256.95 45.39 257.09 48.85 260.78 48.72 265.2 48.59 269.42 45.2 272.82 40.97 272.95Z" class="MsftOfcThm_Background1_Fill_v2" fill="#FFFFFF"/><path d="M446.2 307.97C440.63 292.24 423.76 283.58 407.72 288.21L339.97 307.89C339.31 335.91 316.4 358.28 288.37 358.29L213.58 358.29C209.16 358.29 205.58 354.71 205.58 350.29 205.58 345.87 209.16 342.29 213.58 342.29L213.58 342.29C213.58 342.29 288.37 342.29 288.37 342.29 335.45 340.87 335.58 272.36 288.37 270.86L230.54 270.86C225.75 270.88 221.06 269.52 217.02 266.94 197.64 254.71 172.74 235.47 148.47 237.18L97.83 237.18C97.91 238.3 97.99 239.58 97.99 240.94L97.99 369.49C97.97 372.21 97.68 374.91 97.11 377.57 99.68 377.74 102.17 378.51 104.39 379.81L166.14 415.81C199.26 435.15 239.8 436.88 274.45 420.45L429.96 346.86C444.55 339.99 451.57 323.19 446.2 307.98Z" class="MsftOfcThm_Background1_Fill_v2" fill="#FFFFFF"/><path d="M207.98 127.67 192.3 127.67C196.32 187.6 244.04 235.32 303.97 239.34L303.97 223.66C304.06 219.24 307.71 215.73 312.13 215.82 316.43 215.9 319.89 219.37 319.97 223.66L319.97 239.34C379.9 235.32 427.62 187.6 431.64 127.67L415.96 127.67C411.54 127.67 407.96 124.09 407.96 119.67 407.96 115.25 411.54 111.67 415.96 111.67L431.64 111.67C427.62 51.74 379.9 4.02 319.97 0L319.97 15.68C319.88 20.1 316.23 23.61 311.81 23.52 307.51 23.44 304.05 19.97 303.97 15.68L303.97 0C244.04 4.02 196.32 51.74 192.3 111.67L207.98 111.67C212.4 111.76 215.91 115.41 215.82 119.83 215.74 124.13 212.27 127.59 207.98 127.67ZM283.65 136.63 303.97 116.31 303.97 63.68C304.03 59.26 307.66 55.73 312.08 55.79 316.41 55.85 319.91 59.35 319.97 63.68L319.97 119.67C319.94 121.79 319.11 123.82 317.65 125.35L295.01 147.99C291.8 151.06 286.72 150.95 283.65 147.74 280.68 144.63 280.68 139.74 283.65 136.63Z" class="MsftOfcThm_Background1_Fill_v2" fill="#FFFFFF"/></svg>