<svg viewBox="0 0 512 275.89" xmlns="http://www.w3.org/2000/svg" xmlns:xlink="http://www.w3.org/1999/xlink" id="Layer_1" overflow="hidden"><style>
.MsftOfcThm_Accent1_Fill_v2 {
 fill:#173863; 
}
</style>
<path d="M510.1 132.07C452.29 52.02 360.07 0 256 0 151.93 0 59.76 51.95 1.9 132.07-0.63 135.58-0.63 140.32 1.9 143.82 59.78 223.96 152.03 275.89 256 275.89 359.97 275.89 452.24 223.94 510.1 143.82 512.63 140.31 512.63 135.57 510.1 132.07ZM22.53 137.95C59.77 88.77 109 53.42 164.4 34.9 102.59 89.9 102.61 186.02 164.4 241 109 222.48 59.77 187.12 22.52 137.95ZM256 255.81C191.01 255.81 138.13 202.94 138.13 137.94 138.13 72.94 191.01 20.08 256 20.08 320.99 20.08 373.87 72.95 373.87 137.95 373.87 202.95 321 255.82 256 255.82ZM347.59 241C409.4 186 409.38 89.88 347.59 34.9 402.99 53.42 452.22 88.78 489.47 137.95 452.22 187.12 402.99 222.48 347.59 241Z" class="MsftOfcThm_Accent1_Fill_v2" fill="#173863"/><path d="M256 40.16C202.08 40.16 158.21 84.03 158.21 137.95 158.21 191.87 202.08 235.74 256 235.74 309.92 235.74 353.79 191.87 353.79 137.95 353.79 84.03 309.92 40.16 256 40.16ZM256 215.66C213.15 215.66 178.29 180.8 178.29 137.95 178.29 95.1 213.15 60.24 256 60.24 298.85 60.24 333.71 95.1 333.71 137.95 333.71 180.8 298.85 215.66 256 215.66Z" class="MsftOfcThm_Accent1_Fill_v2" fill="#173863"/><path d="M313.28 131.69C312.55 124.96 305.47 120.84 299.24 123.59 296.67 124.72 293.95 125.3 291.13 125.3 275.99 125.3 266.34 109.1 273.38 95.83 276.55 89.85 273.01 82.47 266.31 81.25 230.77 74.79 198.36 102.24 198.36 137.94 198.36 169.72 224.21 195.57 255.99 195.57 290.09 195.57 317 165.91 313.28 131.68ZM256 175.5C235.29 175.5 218.45 158.65 218.45 137.95 218.45 118.86 232.77 103.04 251.24 100.7 248.48 124.88 267.93 146.36 292.82 145.35 289.37 162.52 274.17 175.5 256 175.5Z" class="MsftOfcThm_Accent1_Fill_v2" fill="#173863"/></svg>