<svg viewBox="0 0 460.8 266.24" xmlns="http://www.w3.org/2000/svg" xmlns:xlink="http://www.w3.org/1999/xlink" id="Layer_1" overflow="hidden"><path d="M40.96 117.76 102.4 117.76C108.03 117.76 112.64 113.15 112.64 107.52 112.64 101.89 108.03 97.28 102.4 97.28L40.96 97.28C35.33 97.28 30.72 101.89 30.72 107.52 30.72 113.15 35.33 117.76 40.96 117.76Z" fill="#FFFFFF"/><path d="M419.84 0 102.4 0C79.87 0 61.44 18.43 61.44 40.96L61.44 56.32C61.44 61.95 66.05 66.56 71.68 66.56 77.31 66.56 81.92 61.95 81.92 56.32L81.92 40.96C81.92 38.91 82.43 36.86 82.94 34.82L197.63 133.12 82.94 231.42C82.43 229.37 81.92 227.32 81.92 225.28L81.92 209.92C81.92 204.29 77.31 199.68 71.68 199.68 66.05 199.68 61.44 204.29 61.44 209.92L61.44 225.28C61.44 247.81 79.87 266.24 102.4 266.24L419.84 266.24C442.37 266.24 460.8 247.81 460.8 225.28L460.8 40.96C460.8 18.43 442.37 0 419.84 0ZM98.3 20.99C99.32 20.48 100.86 20.48 102.4 20.48L419.84 20.48C421.38 20.48 422.91 20.48 423.94 20.99L267.78 154.62C263.68 157.69 258.56 157.69 254.47 154.62L98.3 20.99ZM419.84 245.76 102.4 245.76C100.86 245.76 99.33 245.76 98.3 245.25L213.5 146.43 241.15 170.49C246.78 175.61 253.95 178.17 261.12 178.17 268.29 178.17 275.46 175.61 281.09 170.49L308.74 146.43 423.94 245.25C422.92 245.76 421.38 245.76 419.84 245.76ZM440.32 225.28C440.32 227.33 439.81 229.38 439.3 231.42L324.61 133.12 439.3 34.82C439.81 36.87 440.32 38.92 440.32 40.96L440.32 225.28Z" fill="#FFFFFF"/><path d="M112.64 158.72C112.64 153.09 108.03 148.48 102.4 148.48L10.24 148.48C4.61 148.48 0 153.09 0 158.72 0 164.35 4.61 168.96 10.24 168.96L102.4 168.96C108.03 168.96 112.64 164.35 112.64 158.72Z" fill="#FFFFFF"/></svg>