<svg viewBox="0 0 504.12 504.12" xmlns="http://www.w3.org/2000/svg" xmlns:xlink="http://www.w3.org/1999/xlink" id="Layer_1" overflow="hidden"><path d="M480.49 80.34 333.98 80.34C328.47 56.71 313.5 44.11 293.81 40.96 276.48 7.09 246.55 0 211.1 0 196.92 0 148.87 2.36 121.3 37.81 100.82 63.8 95.31 100.83 105.55 148.87 93.73 155.17 92.95 168.56 96.89 181.17 99.25 192.99 107.13 229.22 126.82 233.16 129.18 241.82 133.91 257.58 144.15 273.33L144.15 312.71 44.9 351.31C18.12 361.55 0 387.54 0 416.69L0 496.25C0 500.98 3.15 504.13 7.88 504.13L425.36 504.13C430.09 504.13 433.24 500.98 433.24 496.25L433.24 448.99 480.5 448.99C493.89 448.99 504.13 438.75 504.13 425.36L504.13 103.98C504.13 90.59 493.1 80.35 480.5 80.35ZM139.42 223.7C140.21 222.12 138.63 220.55 137.06 218.97 128.4 213.46 128.4 232.36 112.64 177.22 107.91 160.68 116.58 162.25 115.79 162.25 120.52 162.25 124.45 157.52 123.67 152.8 111.85 106.33 115.79 70.88 133.91 48.04 152.81 24.41 188.26 14.17 215.83 15.74L216.62 15.74C266.24 13.38 281.21 49.61 281.21 50.4 285.15 60.64 298.54 49.61 311.93 67.73 319.81 78.76 326.11 102.39 310.35 151.23 309.56 153.59 310.35 155.96 311.14 158.32 315.87 164.62 326.11 156.74 320.59 176.44 320.59 177.23 311.93 217.4 301.69 217.4 300.9 217.4 298.54 216.61 295.39 218.19 293.81 218.98 292.24 221.34 292.24 223.7 291.45 226.85 277.27 300.11 215.83 302.47 154.39 300.11 140.21 226.85 139.42 223.7ZM283.57 326.89 300.9 333.98 279.63 384.39 233.16 371 283.57 326.89ZM216.62 364.7 159.12 316.65 159.12 293.81C191.42 326.11 239.46 328.47 274.12 293.81L274.12 315.08 216.62 364.7ZM148.87 327.68 200.07 371 151.23 384.39 130.75 334.77 148.87 327.68ZM15.75 488.37 15.75 416.69C15.75 394.63 29.93 374.15 50.41 366.28L115.79 341.07 139.42 397C141 400.15 143.36 401.73 146.51 401.73L148.87 401.73 171.71 395.43 191.4 420.64 167.77 488.38 15.75 488.38ZM185.11 488.37 207.95 421.42C210.31 414.33 204.01 412.76 188.26 390.7L217.4 382.82 245.76 390.7C219.77 433.24 216.62 389.91 248.91 488.37L185.11 488.37ZM241.82 420.63 261.51 395.42 281.99 400.93 284.35 400.93C287.5 400.93 290.65 399.35 291.44 396.2L315.07 339.49 382.02 365.48C402.5 373.36 416.68 393.84 416.68 415.89L416.68 488.36 265.44 488.36 241.81 420.62ZM489.94 425.35 488.36 425.35C488.36 430.08 485.21 433.23 480.48 433.23L433.22 433.23 433.22 415.9C433.22 387.54 415.1 360.76 388.32 350.52L289.86 312.71 289.86 273.33C299.31 257.58 304.83 241.82 307.19 233.16 326.09 229.22 334.76 192.99 337.12 181.17 341.06 168.57 340.27 155.96 329.24 148.87 335.54 128.39 337.9 110.27 337.9 95.31L482.05 95.31C486.78 95.31 489.93 98.46 489.93 103.19L489.93 425.36Z" fill="#FFFFFF"/><path d="M456.86 132.33 425.35 132.33C420.62 132.33 417.47 135.48 417.47 140.21 417.47 144.94 420.62 148.09 425.35 148.09L456.86 148.09C461.59 148.09 464.74 144.94 464.74 140.21 464.74 135.48 461.59 132.33 456.86 132.33Z" fill="#FFFFFF"/><path d="M456.86 195.35 425.35 195.35C420.62 195.35 417.47 198.5 417.47 203.23 417.47 207.96 420.62 211.11 425.35 211.11L456.86 211.11C461.59 211.11 464.74 207.96 464.74 203.23 464.74 198.5 461.59 195.35 456.86 195.35Z" fill="#FFFFFF"/><path d="M456.86 258.36 425.35 258.36C420.62 258.36 417.47 261.51 417.47 266.24 417.47 270.97 420.62 274.12 425.35 274.12L456.86 274.12C461.59 274.12 464.74 270.97 464.74 266.24 464.74 261.51 461.59 258.36 456.86 258.36Z" fill="#FFFFFF"/><path d="M385.97 132.33 370.22 132.33C359.98 132.33 359.98 148.08 370.22 148.08L385.97 148.08C390.7 148.08 393.85 144.93 393.85 140.2 393.85 135.47 390.7 132.32 385.97 132.32Z" fill="#FFFFFF"/><path d="M385.97 195.35C378.88 196.14 362.34 191.41 362.34 203.23 362.34 207.96 365.49 211.11 370.22 211.11L385.97 211.11C390.7 211.11 393.85 207.96 393.85 203.23 393.85 198.5 390.7 195.35 385.97 195.35Z" fill="#FFFFFF"/><path d="M385.97 258.36 370.22 258.36C365.49 258.36 362.34 261.51 362.34 266.24 362.34 270.97 365.49 274.12 370.22 274.12L385.97 274.12C390.7 274.12 393.85 270.97 393.85 266.24 393.85 261.51 390.7 258.36 385.97 258.36Z" fill="#FFFFFF"/><path d="M456.86 320.59 425.35 320.59C420.62 320.59 417.47 323.74 417.47 328.47 417.47 333.2 420.62 336.35 425.35 336.35L456.86 336.35C461.59 336.35 464.74 333.2 464.74 328.47 464.74 323.74 461.59 320.59 456.86 320.59Z" fill="#FFFFFF"/></svg>