<svg viewBox="0 0 414.77 475.6" xmlns="http://www.w3.org/2000/svg" xmlns:xlink="http://www.w3.org/1999/xlink" id="Layer_1" overflow="hidden"><style>
.MsftOfcThm_Background1_Fill_v2 {
 fill:#FFFFFF; 
}
</style>
<rect x="324.71" y="103.29" rx="8" ry="8" width="50.18" height="246.77" class="MsftOfcThm_Background1_Fill_v2" fill="#FFFFFF"/><path d="M42.51 213.79C97.98 194.47 155.13 169.65 211.69 137.41 263.47 107.9 314.75 72.19 363.78 28.83L361.19 46.63C360.57 51 363.6 55.04 367.97 55.66 372.34 56.28 376.38 53.24 377 48.88L382.79 9.11 382.79 9.11C382.86 8.61 382.88 8.1 382.86 7.58 382.64 3.18 378.89-0.21 374.48 0.02L334.35 2.2C329.95 2.42 326.56 6.17 326.79 10.58 327.02 14.99 330.76 18.37 335.17 18.14L352.87 17.18C304.78 59.66 254.54 94.64 203.82 123.54 148.14 155.28 91.88 179.71 37.26 198.74 33.1 200.19 30.9 204.74 32.35 208.9 33.8 213.06 38.35 215.26 42.51 213.81Z" class="MsftOfcThm_Background1_Fill_v2" fill="#FFFFFF"/><rect x="231.52" y="150.67" rx="8" ry="8" width="50.18" height="199.39" class="MsftOfcThm_Background1_Fill_v2" fill="#FFFFFF"/><rect x="45.16" y="253.78" rx="8" ry="8" width="50.18" height="96.27" class="MsftOfcThm_Background1_Fill_v2" fill="#FFFFFF"/><path d="M146.34 203.34 180.52 203.34C184.94 203.34 188.52 206.93 188.52 211.34L188.52 342.05C188.52 346.47 184.94 350.05 180.52 350.05L146.34 350.05C141.92 350.05 138.34 346.47 138.34 342.05L138.34 211.33C138.34 206.91 141.92 203.33 146.34 203.33Z" class="MsftOfcThm_Background1_Fill_v2" fill="#FFFFFF"/><path d="M406.77 388.75 374.58 388.75 374.58 441.32C374.58 445.74 371 449.32 366.58 449.32 362.16 449.32 358.58 445.74 358.58 441.32L358.58 388.75 334.78 388.75 334.78 415.03C334.78 419.45 331.2 423.03 326.78 423.03 322.36 423.03 318.78 419.45 318.78 415.03L318.78 388.75 294.98 388.75 294.98 441.32C294.98 445.74 291.4 449.32 286.98 449.32 282.56 449.32 278.98 445.74 278.98 441.32L278.98 388.75 255.18 388.75 255.18 415.03C255.18 419.45 251.6 423.03 247.18 423.03 242.76 423.03 239.18 419.45 239.18 415.03L239.18 388.75 215.38 388.75 215.38 441.32C215.38 445.74 211.8 449.32 207.38 449.32 202.96 449.32 199.38 445.74 199.38 441.32L199.38 388.75 175.58 388.75 175.58 415.03C175.58 419.45 172 423.03 167.58 423.03 163.16 423.03 159.58 419.45 159.58 415.03L159.58 388.75 135.78 388.75 135.78 441.32C135.78 445.74 132.2 449.32 127.78 449.32 123.36 449.32 119.78 445.74 119.78 441.32L119.78 388.75 95.98 388.75 95.98 415.03C95.98 419.45 92.4 423.03 87.98 423.03 83.56 423.03 79.98 419.45 79.98 415.03L79.98 388.75 56.18 388.75 56.18 441.32C56.18 445.74 52.6 449.32 48.18 449.32 43.76 449.32 40.18 445.74 40.18 441.32L40.18 388.75 8 388.75C3.59 388.75 0 392.34 0 396.75L0 467.6C0 472.01 3.59 475.6 8 475.6L406.77 475.6C411.18 475.6 414.77 472.01 414.77 467.6L414.77 396.75C414.77 392.34 411.18 388.75 406.77 388.75Z" class="MsftOfcThm_Background1_Fill_v2" fill="#FFFFFF"/></svg>