<svg viewBox="0 0 219.39 267.79" xmlns="http://www.w3.org/2000/svg" xmlns:xlink="http://www.w3.org/1999/xlink" id="Layer_1" overflow="hidden"><defs></defs><path d="M86.21 267.79 86.21 67C86.21 30.55 115.76 1 152.21 1L152.38 1C188.83 1 218.38 30.55 218.38 67L218.38 267.79" stroke="#B8BCC1" stroke-width="2" stroke-miterlimit="10" fill="none" fill-rule="evenodd"/><path d="M74.04 267.79 74.04 72.58C74.04 36.87 102.99 7.93 138.72 7.93 138.72 7.93 138.88 7.93 138.89 7.93 174.59 7.94 203.52 36.88 203.52 72.58L203.52 267.79" stroke="#B8BCC1" stroke-width="2" stroke-miterlimit="10" fill="none" fill-rule="evenodd"/><path d="M61.87 267.79 61.87 78.16C61.87 43.2 90.21 14.85 125.22 14.85 125.23 14.85 125.37 14.85 125.39 14.85 160.33 14.87 188.65 43.21 188.65 78.16L188.65 267.8" stroke="#B8BCC1" stroke-width="2" stroke-miterlimit="10" fill="none" fill-rule="evenodd"/><path d="M49.69 267.79 49.69 83.74C49.69 49.52 77.43 21.78 111.72 21.78 111.74 21.78 111.86 21.78 111.89 21.78 146.08 21.82 173.78 49.54 173.78 83.74L173.78 267.8" stroke="#B8BCC1" stroke-width="2" stroke-miterlimit="10" fill="none" fill-rule="evenodd"/><path d="M37.52 267.79 37.52 89.32C37.52 55.84 64.66 28.71 98.22 28.71 98.25 28.71 98.35 28.71 98.38 28.71 131.82 28.76 158.91 55.88 158.91 89.32L158.91 267.8" stroke="#B8BCC1" stroke-width="2" stroke-miterlimit="10" fill="none" fill-rule="evenodd"/><path d="M25.35 267.79 25.35 94.9C25.35 62.17 51.89 35.63 84.73 35.63 84.77 35.63 84.85 35.63 84.89 35.63 117.57 35.69 144.05 62.2 144.05 94.9L144.05 267.8" stroke="#B8BCC1" stroke-width="2" stroke-miterlimit="10" fill="none" fill-rule="evenodd"/><path d="M13.17 267.79 13.17 100.48C13.17 68.49 39.1 42.56 71.22 42.56 71.26 42.56 71.33 42.56 71.38 42.56 103.31 42.63 129.17 68.54 129.17 100.48L129.17 267.8" stroke="#B8BCC1" stroke-width="2" stroke-miterlimit="10" fill="none" fill-rule="evenodd"/><path d="M1 267.79 1 106.06C1 74.81 26.33 49.48 57.58 49.48L57.73 49.48C88.98 49.48 114.31 74.81 114.31 106.06L114.31 267.8" stroke="#B8BCC1" stroke-width="2" stroke-miterlimit="10" fill="none" fill-rule="evenodd"/></svg>