<svg viewBox="0 0 496.01 496" xmlns="http://www.w3.org/2000/svg" xmlns:xlink="http://www.w3.org/1999/xlink" id="Layer_2" overflow="hidden"><style>
.MsftOfcThm_Accent1_Fill_v2 {
 fill:#173863; 
}
</style>
<path d="M195.23 28.31C189.9 28.31 185.55 32.66 185.55 37.99 185.55 43.32 189.9 47.67 195.23 47.67 200.56 47.67 204.91 43.32 204.91 37.99 204.91 32.66 200.56 28.31 195.23 28.31Z" class="MsftOfcThm_Accent1_Fill_v2" stroke-width="1.16954" fill="#173863"/><path d="M190.84 185.98 311.13 185.98C315.55 185.98 319.13 182.4 319.13 177.98 319.13 173.56 315.55 169.98 311.13 169.98L190.84 169.98C186.42 169.98 182.84 173.56 182.84 177.98 182.84 182.4 186.42 185.98 190.84 185.98Z" class="MsftOfcThm_Accent1_Fill_v2" stroke-width="1.16954" fill="#173863"/><path d="M494.94 239.86 492.54 230.92C490.39 222.9 485.24 216.2 478.03 212.03 470.82 207.87 462.43 206.76 454.42 208.91L390.45 226.05 390.45 70.5C390.45 54.22 377.21 40.98 360.93 40.98L286.08 40.98 286.08 35.97C286.08 31.55 282.5 27.97 278.08 27.97L236.62 27.97C229.95 11.23 213.73 0 195.23 0 176.73 0 160.51 11.23 153.84 27.98L112.38 27.98C107.96 27.98 104.38 31.56 104.38 35.98L104.38 40.99 29.52 40.99C13.24 40.98 0 54.23 0 70.5L0 466.47C0 482.75 13.24 495.99 29.52 495.99L360.93 495.99C367.66 495.99 374.05 493.71 379.18 489.65L383.17 493.64C384.67 495.14 386.71 495.98 388.83 495.98 390.95 495.98 392.99 495.14 394.49 493.64L483.02 405.11C484.52 403.61 485.36 401.57 485.36 399.45 485.36 397.33 484.52 395.29 483.02 393.79L467.77 378.54C450.7 361.47 450.25 358.4 447.3 338.4 446.68 334.16 445.97 329.36 444.98 323.61 442.85 311.17 438.95 299.43 433.37 288.56L472.93 277.96C480.95 275.81 487.65 270.66 491.82 263.45 495.98 256.24 497.09 247.86 494.95 239.84ZM286.08 56.98 360.93 56.98C368.38 56.98 374.45 63.05 374.45 70.5L374.45 230.34 368.33 231.98C365.76 231.07 363.16 230.23 360.51 229.49L360.51 78.92C360.51 74.5 356.93 70.92 352.51 70.92L286.07 70.92 286.07 56.98ZM120.37 43.98 159.66 43.98C163.36 43.98 166.57 41.45 167.44 37.86 170.54 24.99 181.97 16.01 195.23 16.01 208.49 16.01 219.91 25 223.02 37.86 223.89 41.45 227.1 43.98 230.8 43.98L270.09 43.98 270.09 83.93 120.37 83.93 120.37 43.98ZM112.37 99.93 278.08 99.93C282.5 99.93 286.08 96.35 286.08 91.93L286.08 86.92 344.52 86.92 344.52 225.95 317.94 220.77C304.92 218.24 293.14 219.38 280.85 224.38L240 241 190.84 241C186.42 241 182.84 244.58 182.84 249 182.84 253.42 186.42 257 190.84 257L219.19 257C218.02 259.43 217.14 262.07 216.63 264.87 215.78 269.52 216 274.19 217.14 278.52L215.67 279.99 190.83 279.99C186.41 279.99 182.83 283.57 182.83 287.99 182.83 292.41 186.41 295.99 190.83 295.99L199.67 295.99 184.6 311.06C182.58 313.08 181.79 316.03 182.53 318.79 183.27 321.55 185.43 323.71 188.19 324.45L241.81 338.82C241.96 338.86 242.12 338.88 242.28 338.91 242.42 338.94 242.56 338.97 242.7 338.99 243.05 339.04 243.39 339.07 243.74 339.08 243.78 339.08 243.83 339.09 243.87 339.09 244.22 339.09 244.57 339.07 244.92 339.02 245.27 338.97 245.61 338.91 245.95 338.82L251.25 337.4C250.17 340.21 249.61 343.22 249.61 346.32 249.61 347.92 249.76 349.49 250.05 351.02L190.84 351.02C186.42 351.02 182.84 354.6 182.84 359.02 182.84 363.44 186.42 367.02 190.84 367.02L260.73 367.02C264.48 369.5 268.84 370.93 273.43 371.11 273.67 377.38 276.22 383.23 280.66 387.67 281.57 388.58 282.54 389.4 283.57 390.15L190.86 390.01 190.85 390.01C186.44 390.01 182.86 393.58 182.85 398 182.85 402.42 186.42 406.01 190.84 406.01L303.23 406.18C307.14 414.88 312.84 423.5 321.5 432.13L339.51 450.09 45.94 450.09 45.94 86.92 104.38 86.92 104.38 91.93C104.38 96.35 107.96 99.93 112.38 99.93ZM290.58 342.6 285.1 348.07 281.3 351.9C281.2 352 281.1 352.12 281.01 352.22 280.89 352.32 280.77 352.42 280.66 352.53 279.01 354.18 276.79 355.09 274.42 355.09 272.05 355.09 269.83 354.18 268.18 352.53 266.53 350.88 265.62 348.66 265.62 346.29 265.62 343.92 266.53 341.7 268.18 340.05L278.03 330.2 287.32 327.71C288.68 332.86 289.73 337.81 290.58 342.59L290.58 342.59ZM291.97 363.86C292.08 363.75 292.18 363.63 292.28 363.52 292.4 363.41 292.53 363.3 292.65 363.18L293.4 362.43C293.46 362.91 293.51 363.38 293.57 363.85 294.16 368.77 294.75 373.64 295.51 378.46 294.2 378.04 292.97 377.34 291.97 376.33 290.32 374.68 289.41 372.46 289.41 370.09 289.41 367.72 290.32 365.5 291.97 363.85ZM249.54 321.28 239.32 283.12 266.65 275.8C267.22 279.44 268.45 282.98 270.33 286.25 275.55 295.58 279.48 304.27 282.5 312.45L249.54 321.28ZM268.87 258.63 232.28 268.43C232.31 268.2 232.33 267.97 232.37 267.73 233.16 263.42 235.54 260.07 238.75 258.77L244.64 256.37C244.64 256.37 244.68 256.36 244.69 256.35L286.87 239.19C296.14 235.42 305.04 234.55 314.87 236.46L336.12 240.6 315.09 246.24C312.05 244.02 308.6 242.35 304.85 241.34 296.92 239.22 288.65 240.29 281.58 244.38 275.87 247.68 271.47 252.64 268.87 258.62ZM232.57 319.76 205.72 312.57 225.37 292.92 232.56 319.77ZM360.93 480 29.52 480C22.06 480 16 473.93 16 466.48L16 70.5C16 63.04 22.07 56.98 29.52 56.98L104.37 56.98 104.37 70.92 37.94 70.92C33.52 70.92 29.94 74.5 29.94 78.92L29.94 458.06C29.94 462.48 33.52 466.06 37.94 466.06L352.52 466.06C353.43 466.06 354.3 465.9 355.11 465.62L367.58 478.06C367.58 478.06 367.58 478.06 367.59 478.06L367.69 478.16C365.66 479.34 363.35 479.99 360.94 479.99ZM456.78 390.21 466.04 399.47 388.83 476.68 384.64 472.49C384.64 472.49 384.61 472.46 384.6 472.45L379.57 467.42 456.78 390.21ZM445.86 378.5 368.24 456.12 358.18 446.09C358.18 446.09 358.18 446.09 358.18 446.09L332.79 420.78C320.69 408.72 315.64 397.28 312.81 384.22 312.77 384 312.73 383.79 312.67 383.58 311.26 376.9 310.4 369.79 309.46 361.95 308.79 356.37 308.07 350.44 307.06 344.13 307.04 344 307.02 343.88 307 343.75 305.63 335.25 303.71 326.07 300.62 316.13 300.6 316.05 300.59 315.97 300.57 315.89 300.49 315.58 300.38 315.28 300.26 314.98 296.71 303.77 291.67 291.61 284.26 278.39 284.24 278.36 284.23 278.33 284.21 278.3 282.27 274.95 281.77 271 282.8 267.18 283.82 263.36 286.23 260.19 289.59 258.25 292.96 256.3 296.92 255.79 300.72 256.81 304.51 257.83 307.67 260.23 309.62 263.58 317.32 277.33 321.5 290.46 325.54 303.16 331.69 322.45 338.04 342.4 356.3 363.7 359.18 367.05 364.23 367.44 367.58 364.56 370.93 361.68 371.32 356.63 368.44 353.28 356.35 339.18 350.18 325.8 345.36 312.17L417.51 292.84C423.22 303.1 427.16 314.34 429.21 326.34L429.21 326.34C430.16 331.91 430.86 336.61 431.47 340.76 434.06 358.35 435.67 366.27 445.87 378.5ZM468.79 262.53 419.23 275.81C419.23 275.81 419.19 275.82 419.17 275.83L340.34 296.95C336.58 285.16 332.6 273 325.81 259.94L458.56 224.37C462.45 223.33 466.52 223.87 470.03 225.9 473.54 227.93 476.05 231.18 477.09 235.07L479.49 244.01C481.65 252.07 476.85 260.38 468.79 262.54Z" class="MsftOfcThm_Accent1_Fill_v2" stroke-width="1.16954" fill="#173863"/><path d="M190.84 147 311.13 147C315.55 147 319.13 143.42 319.13 139 319.13 134.58 315.55 131 311.13 131L190.84 131C186.42 131 182.84 134.58 182.84 139 182.84 143.42 186.42 147 190.84 147Z" class="MsftOfcThm_Accent1_Fill_v2" stroke-width="1.16954" fill="#173863"/><path d="M105.3 394.63C106.8 396.13 108.84 396.97 110.96 396.97 111.1 396.97 111.24 396.97 111.38 396.96 113.65 396.84 115.75 395.76 117.18 394L134.13 373.05C136.91 369.62 136.38 364.58 132.94 361.8 129.5 359.02 124.47 359.55 121.69 362.99L110.33 377.03 104.74 371.44C101.62 368.32 96.55 368.32 93.43 371.44 90.31 374.56 90.31 379.63 93.43 382.75L105.31 394.63Z" class="MsftOfcThm_Accent1_Fill_v2" stroke-width="1.16954" fill="#173863"/><path d="M71.33 131.39 71.33 185.58C71.33 193.89 78.09 200.65 86.4 200.65L140.59 200.65C148.9 200.65 155.66 193.89 155.66 185.58L155.66 131.39C155.66 123.08 148.9 116.32 140.59 116.32L86.4 116.32C78.09 116.32 71.33 123.08 71.33 131.39ZM87.33 132.32 139.67 132.32 139.67 184.66 87.33 184.66 87.33 132.32Z" class="MsftOfcThm_Accent1_Fill_v2" stroke-width="1.16954" fill="#173863"/><path d="M132.94 141.79C129.5 139.01 124.47 139.54 121.69 142.98L110.33 157.02 104.74 151.43C101.62 148.31 96.55 148.31 93.43 151.43 90.31 154.55 90.31 159.62 93.43 162.74L105.31 174.62C106.81 176.12 108.85 176.96 110.97 176.96 111.11 176.96 111.25 176.96 111.39 176.95 113.65 176.83 115.76 175.75 117.19 173.99L134.14 153.04 134.14 153.04C136.92 149.6 136.39 144.57 132.95 141.79Z" class="MsftOfcThm_Accent1_Fill_v2" stroke-width="1.16954" fill="#173863"/><path d="M140.59 226.32 86.4 226.32C78.09 226.32 71.33 233.08 71.33 241.39L71.33 295.58C71.33 303.89 78.09 310.65 86.4 310.65L140.59 310.65C148.9 310.65 155.66 303.89 155.66 295.58L155.66 241.39C155.66 233.08 148.9 226.32 140.59 226.32ZM139.66 294.66 87.32 294.66 87.32 242.32 139.66 242.32 139.66 294.66Z" class="MsftOfcThm_Accent1_Fill_v2" stroke-width="1.16954" fill="#173863"/><path d="M105.3 284.63C106.8 286.13 108.84 286.97 110.96 286.97 111.1 286.97 111.24 286.97 111.38 286.96 113.65 286.84 115.75 285.76 117.18 284L134.13 263.04C136.91 259.61 136.38 254.57 132.94 251.79 129.5 249.01 124.47 249.54 121.69 252.98L110.33 267.02 104.74 261.43C101.62 258.31 96.55 258.31 93.43 261.43 90.31 264.55 90.31 269.62 93.43 272.74L105.31 284.62Z" class="MsftOfcThm_Accent1_Fill_v2" stroke-width="1.16954" fill="#173863"/><path d="M140.59 336.33 86.4 336.33C78.09 336.33 71.33 343.09 71.33 351.4L71.33 405.59C71.33 413.9 78.09 420.66 86.4 420.66L140.59 420.66C148.9 420.66 155.66 413.9 155.66 405.59L155.66 351.4C155.66 343.09 148.9 336.33 140.59 336.33ZM139.66 404.66 87.32 404.66 87.32 352.32 139.66 352.32 139.66 404.66Z" class="MsftOfcThm_Accent1_Fill_v2" stroke-width="1.16954" fill="#173863"/></svg>