<svg viewBox="0 0 56 55" xmlns="http://www.w3.org/2000/svg" xmlns:xlink="http://www.w3.org/1999/xlink" id="Layer_1" overflow="hidden"><style>
.MsftOfcThm_Background1_Fill_v2 {
 fill:#FFFFFF; 
}
</style>
<path d="M37.08 43.45 32.03 41.77C38.28 37.83 35.48 27.91 27.98 27.91 20.48 27.91 17.68 37.82 23.93 41.77L18.88 43.45C16.23 44.33 14.45 46.81 14.45 49.6L14.45 52.44C14.45 53.86 15.6 55 17.02 55.01L38.94 55.01C40.36 55.01 41.5 53.86 41.51 52.44L41.51 49.6C41.51 46.81 39.73 44.33 37.08 43.45ZM22.46 35.44C22.69 28.14 33.28 28.14 33.51 35.44 33.28 42.74 22.69 42.74 22.46 35.44ZM39.51 52.43C39.51 52.74 39.26 53 38.94 53L17.02 53C16.71 53 16.45 52.75 16.45 52.43L16.45 49.59C16.45 47.66 17.68 45.95 19.51 45.34L25.44 43.36C27.08 42.82 28.85 42.82 30.5 43.36L36.43 45.34C38.26 45.95 39.5 47.66 39.49 49.59L39.49 52.43Z" class="MsftOfcThm_Background1_Fill_v2" fill="#FFFFFF"/><path d="M52.29 42.88 48.58 41.65C51.37 39.61 51.98 35.69 49.94 32.9 47.9 30.11 43.98 29.5 41.19 31.54 38.4 33.58 37.79 37.5 39.83 40.29 40.21 40.81 40.67 41.27 41.19 41.65 40.66 41.79 40.34 42.34 40.48 42.88 40.62 43.42 41.17 43.73 41.71 43.59 41.72 43.59 41.74 43.59 41.75 43.58 42.74 43.17 43.79 42.93 44.86 42.87 46.29 42.75 50.26 44.39 51.66 44.78 53.06 45.25 54.01 46.56 54.01 48.04L54.01 50.32C54.01 50.47 53.9 50.59 53.75 50.59L44.52 50.59C43.97 50.59 43.52 51.04 43.52 51.59 43.52 52.14 43.97 52.59 44.52 52.59L53.75 52.59C55 52.59 56.01 51.57 56.01 50.32L56.01 48.04C56.01 45.7 54.51 43.62 52.3 42.88ZM44.89 40.86C42.53 40.84 40.63 38.92 40.65 36.56 40.67 34.23 42.55 32.34 44.88 32.32 47.24 32.34 49.14 34.26 49.12 36.62 49.1 38.95 47.22 40.84 44.89 40.86Z" class="MsftOfcThm_Background1_Fill_v2" fill="#FFFFFF"/><path d="M15.5 42.92C15.5 42.92 15.5 42.92 15.5 42.92 15.67 42.39 15.38 41.83 14.86 41.66 14.85 41.66 14.83 41.66 14.82 41.65 17.61 39.61 18.22 35.68 16.18 32.89 14.14 30.1 10.21 29.49 7.42 31.53 4.63 33.57 4.02 37.5 6.06 40.29 6.44 40.81 6.9 41.27 7.43 41.65L3.72 42.88C1.49 43.63 0 45.7 0 48.04L0 50.32C0 51.57 1.01 52.59 2.26 52.59L11.46 52.59C12.01 52.57 12.45 52.11 12.43 51.56 12.41 51.03 11.99 50.61 11.46 50.59L2.26 50.59C2.11 50.59 2 50.47 2 50.32L2 48.04C2 46.56 2.94 45.25 4.35 44.78 5.77 44.39 9.67 42.75 11.13 42.87 11.8 42.87 12.47 42.98 13.11 43.2L14.24 43.57C14.76 43.74 15.33 43.46 15.5 42.93ZM11.13 40.86C8.77 40.84 6.87 38.92 6.89 36.56 6.9 34.23 8.79 32.34 11.12 32.32 13.48 32.33 15.38 34.26 15.36 36.62 15.35 38.95 13.46 40.84 11.13 40.86Z" class="MsftOfcThm_Background1_Fill_v2" fill="#FFFFFF"/><path d="M2.94 31.65C3.29 32.08 3.92 32.15 4.35 31.8 4.78 31.45 4.85 30.82 4.5 30.39 4.5 30.39 4.5 30.39 4.5 30.39 3.63 29.32 2.84 28.19 2.14 27 7.61 17.96 17.44 12.48 28 12.57 38.56 12.48 48.39 17.96 53.86 27 53.16 28.19 52.37 29.32 51.5 30.39 51.15 30.82 51.21 31.45 51.64 31.8 52.07 32.15 52.7 32.09 53.05 31.66 53.05 31.66 53.05 31.66 53.05 31.66 54.14 30.36 55.09 28.95 55.9 27.46 56.04 27.18 56.04 26.85 55.9 26.57 50.16 16.61 39.5 10.5 28.01 10.59 16.51 10.5 5.86 16.61 0.12 26.57-0.02 26.85-0.02 27.18 0.12 27.46 0.92 28.95 1.88 30.36 2.96 31.66Z" class="MsftOfcThm_Background1_Fill_v2" fill="#FFFFFF"/><path d="M28 21.5C25.5 21.5 23.31 23.19 22.68 25.61 22.54 26.15 22.87 26.69 23.4 26.83 23.93 26.97 24.47 26.65 24.61 26.11 25.1 24.24 27.01 23.13 28.87 23.61 30.09 23.93 31.05 24.89 31.37 26.11 31.51 26.65 32.05 26.97 32.58 26.84 33.12 26.7 33.44 26.16 33.31 25.63 32.69 23.2 30.5 21.5 27.99 21.5Z" class="MsftOfcThm_Background1_Fill_v2" fill="#FFFFFF"/><path d="M28 7 28 7C28.55 7 29 6.55 29 6L29 6 29 1C29 0.45 28.55 0 28 0 27.45 0 27 0.45 27 1L27 6C27 6.55 27.45 7 28 7Z" class="MsftOfcThm_Background1_Fill_v2" fill="#FFFFFF"/><path d="M10.2 9.6C10.53 10.04 11.16 10.13 11.6 9.8 12.04 9.47 12.13 8.84 11.8 8.4L8.8 4.4C8.47 3.96 7.84 3.87 7.4 4.2 6.96 4.53 6.87 5.16 7.2 5.6L10.2 9.6Z" class="MsftOfcThm_Background1_Fill_v2" fill="#FFFFFF"/><path d="M45 10C45.32 10 45.61 9.85 45.8 9.6L48.8 5.6C49.13 5.16 49.04 4.53 48.6 4.2 48.16 3.87 47.53 3.96 47.2 4.4L44.2 8.4C43.87 8.84 43.96 9.47 44.4 9.8 44.57 9.93 44.78 10 45 10Z" class="MsftOfcThm_Background1_Fill_v2" fill="#FFFFFF"/><path d="M38.65 30.74C39.1 30.74 39.5 30.43 39.62 29.99 40.52 26.5 39.81 22.78 37.66 19.88 37.33 19.44 36.69 19.35 36.25 19.68 36.22 19.7 36.19 19.73 36.17 19.75 35.9 20.01 35.54 20.15 35.16 20.14 34.33 20.14 33.66 19.47 33.66 18.64 33.61 18.04 34.25 17.6 34.06 17 33.99 16.72 33.81 16.49 33.56 16.36 27.69 13.29 20.44 15.56 17.37 21.43 15.99 24.06 15.64 27.11 16.39 29.98 16.53 30.51 17.08 30.83 17.61 30.7 18.14 30.56 18.46 30.01 18.33 29.48 18.12 28.67 18.01 27.83 18.01 26.99 18.05 21.44 22.59 16.97 28.15 17.01 29.4 17.01 30.63 17.26 31.79 17.72 31.29 19.59 32.4 21.51 34.27 22.01 35.04 22.22 35.86 22.15 36.59 21.83 37.53 23.38 38.02 25.16 38.01 26.98 38.25 28.18 36.79 30.52 38.66 30.72Z" class="MsftOfcThm_Background1_Fill_v2" fill="#FFFFFF"/></svg>