<svg viewBox="0 0 59.66 58.63" xmlns="http://www.w3.org/2000/svg" xmlns:xlink="http://www.w3.org/1999/xlink" id="Layer_1" overflow="hidden"><path d="M2.14 21.94 3.04 22.06C3.15 22.07 3.26 22.08 3.37 22.08 4.02 22.08 4.65 21.82 5.11 21.37L7.41 19.11C7.47 19.05 7.55 19 7.64 18.99L7.76 18.96 4.96 34.66C4.66 36.32 5.77 37.91 7.43 38.21 7.61 38.24 7.79 38.26 7.97 38.26L8.7 38.26C10.2 38.26 11.48 37.19 11.72 35.71L12.71 29.89 14.12 30.86C14.32 31 14.46 31.22 14.5 31.46L14.92 33.92C15.16 35.32 16.38 36.35 17.8 36.36 17.89 36.36 17.97 36.36 18.06 36.35L18.46 36.31C20.07 36.17 21.25 34.75 21.11 33.14 21.11 33.12 21.11 33.11 21.11 33.09L20.56 27.92C20.47 27.14 20.08 26.42 19.46 25.93L14.11 21.72 14.49 19.46C14.59 18.88 15.13 18.49 15.71 18.59 15.86 18.62 16 18.67 16.13 18.76L19.94 21.35C21.34 22.29 23.24 21.92 24.19 20.52 25.08 19.2 24.81 17.41 23.56 16.42L16.26 10.65C15.52 10.07 14.61 9.75 13.68 9.75L11.97 9.75C10.88 9.75 9.88 10.33 9.33 11.26L6.36 11.83C5.8 11.94 5.29 12.24 4.92 12.68L0.58 17.89C-0.3 18.94-0.16 20.5 0.89 21.38 1.25 21.68 1.68 21.87 2.14 21.93L2.14 21.93ZM18.22 27.53C18.41 27.68 18.54 27.91 18.57 28.16L19.12 33.32C19.17 33.83 18.81 34.28 18.3 34.33 18.3 34.33 18.3 34.33 18.29 34.33L17.89 34.37C17.41 34.41 16.98 34.08 16.9 33.61L16.49 31.15C16.36 30.37 15.92 29.68 15.27 29.23L13.1 27.73 13.74 24 18.24 27.54ZM9.99 17.84 9.99 17.84C9.99 17.84 10.91 12.65 10.91 12.65 11 12.14 11.44 11.78 11.96 11.78L13.67 11.78C14.16 11.78 14.63 11.95 15.01 12.25L22.31 18.02C22.77 18.38 22.85 19.05 22.48 19.51 22.14 19.95 21.51 20.04 21.05 19.73L17.24 17.14C15.84 16.19 13.94 16.55 12.99 17.95 12.74 18.31 12.58 18.72 12.5 19.16L9.74 35.39C9.65 35.9 9.21 36.27 8.7 36.27L7.96 36.27C7.38 36.27 6.9 35.8 6.9 35.21 6.9 35.15 6.9 35.08 6.92 35.02L9.98 17.84ZM2.01 19.42C2.02 19.33 2.06 19.25 2.12 19.18L2.12 19.18C2.12 19.18 6.46 13.98 6.46 13.98 6.53 13.9 6.63 13.84 6.74 13.82L8.76 13.43 8.16 16.83 7.23 17.04C6.78 17.14 6.36 17.37 6.03 17.69L3.74 19.96C3.63 20.06 3.49 20.11 3.34 20.09L2.44 19.97C2.18 19.93 2 19.69 2.03 19.43Z" fill="#FFFFFF"/><path d="M14.81 8.65C17.2 8.65 19.14 6.71 19.14 4.32 19.14 1.93 17.2 0 14.81 0 12.42 0 10.48 1.94 10.48 4.33L10.48 4.33C10.48 6.72 12.42 8.65 14.81 8.66ZM14.81 2C16.09 2 17.14 3.04 17.14 4.32 17.14 5.6 16.1 6.65 14.81 6.65 13.52 6.65 12.48 5.61 12.48 4.32 12.48 3.04 13.52 2 14.81 2Z" fill="#FFFFFF"/><path d="M58.66 42.87 57.03 42.87C56.84 42.24 56.58 41.63 56.28 41.05L57.43 39.89C57.82 39.5 57.82 38.87 57.43 38.48L54.47 35.52C54.08 35.13 53.45 35.13 53.06 35.52L51.9 36.68C51.32 36.37 50.71 36.12 50.09 35.93L50.09 34.3C50.09 33.75 49.64 33.3 49.09 33.3L48 33.3 48 19.97C48 19.42 47.55 18.97 47 18.97L41.77 18.97 41.77 11.81 49.08 9.35C49.6 9.17 49.88 8.61 49.71 8.08 49.63 7.83 49.45 7.63 49.22 7.51L41.24 3.44C40.75 3.19 40.15 3.38 39.89 3.88 39.82 4.02 39.78 4.18 39.78 4.33L39.78 18.97 35.37 18.97C34.82 18.97 34.37 19.42 34.37 19.97L34.37 29.73 25.78 29.73C25.23 29.73 24.78 30.18 24.78 30.73L24.78 38.61 17.24 38.61C16.69 38.61 16.24 39.06 16.24 39.61L16.24 50.3 2.77 50.3C2.22 50.3 1.77 50.75 1.77 51.3 1.77 51.85 2.22 52.3 2.77 52.3L36.37 52.3C36.18 52.68 36.25 53.14 36.55 53.44L39.51 56.4C39.91 56.78 40.53 56.78 40.92 56.4L42.08 55.24C42.66 55.55 43.27 55.8 43.9 55.99L43.9 57.62C43.9 58.17 44.35 58.62 44.9 58.62L49.08 58.62C49.63 58.62 50.08 58.17 50.08 57.62L50.08 55.99C50.71 55.8 51.31 55.54 51.9 55.24L53.06 56.4C53.45 56.79 54.08 56.79 54.47 56.4L57.43 53.44C57.82 53.05 57.82 52.42 57.43 52.03 57.43 52.03 57.43 52.03 57.43 52.03L56.27 50.87C56.58 50.29 56.83 49.68 57.02 49.05L58.66 49.05C59.21 49.05 59.66 48.6 59.66 48.05L59.66 43.87C59.66 43.32 59.21 42.87 58.66 42.87ZM41.76 5.95 46.17 8.2 41.76 9.69 41.76 5.96ZM18.23 50.3 18.23 40.61 25.77 40.61C26.32 40.61 26.77 40.16 26.77 39.61L26.77 31.73 35.36 31.73C35.91 31.73 36.36 31.28 36.36 30.73L36.36 20.97 45.99 20.97 45.99 33.3 44.9 33.3C44.35 33.3 43.9 33.75 43.9 34.3L43.9 35.93C43.27 36.12 42.66 36.38 42.08 36.68L40.93 35.52C40.54 35.13 39.91 35.13 39.52 35.52L36.56 38.48C36.17 38.87 36.17 39.5 36.56 39.89L37.72 41.05C37.41 41.63 37.16 42.24 36.97 42.87L35.33 42.87C34.78 42.87 34.33 43.32 34.33 43.87L34.33 48.05C34.33 48.6 34.78 49.05 35.33 49.05L36.96 49.05C37.09 49.48 37.26 49.89 37.45 50.29L18.24 50.29ZM57.66 47.05 56.26 47.05C55.79 47.05 55.39 47.37 55.28 47.83 55.07 48.77 54.69 49.68 54.17 50.49 53.92 50.89 53.98 51.4 54.31 51.73L55.3 52.73 53.75 54.27 52.76 53.28C52.43 52.95 51.92 52.89 51.52 53.14 50.7 53.66 49.8 54.03 48.86 54.25 48.4 54.35 48.08 54.76 48.08 55.23L48.08 56.63 45.89 56.63 45.89 55.23C45.89 54.76 45.57 54.36 45.11 54.25 44.17 54.04 43.26 53.66 42.45 53.14 42.05 52.89 41.54 52.95 41.21 53.28L40.22 54.27 38.68 52.73 39.4 52.01 39.41 52.01C39.41 52.01 39.67 51.74 39.67 51.74 40 51.41 40.06 50.89 39.81 50.5 39.29 49.68 38.92 48.78 38.7 47.84 38.6 47.38 38.19 47.06 37.72 47.06L36.32 47.06 36.32 44.88 37.72 44.88C38.19 44.88 38.59 44.56 38.7 44.1 38.91 43.16 39.29 42.25 39.81 41.44 40.06 41.04 40 40.53 39.67 40.2L38.68 39.21 40.22 37.67 41.21 38.66C41.54 38.99 42.06 39.05 42.45 38.8 43.27 38.28 44.17 37.91 45.11 37.69 45.57 37.59 45.89 37.18 45.89 36.71L45.89 35.31 48.07 35.31 48.07 36.71C48.07 37.18 48.39 37.58 48.85 37.69L48.85 37.69C49.79 37.9 50.7 38.28 51.51 38.8 51.91 39.05 52.42 38.99 52.75 38.66L53.74 37.67 55.29 39.21 54.3 40.2C53.97 40.53 53.91 41.05 54.16 41.44 54.68 42.26 55.05 43.16 55.27 44.1 55.37 44.56 55.78 44.88 56.25 44.88L57.65 44.88 57.65 47.06Z" fill="#FFFFFF"/><path d="M46.99 39.74C43.56 39.74 40.78 42.52 40.77 45.96 40.77 49.39 43.55 52.18 46.99 52.18 50.43 52.18 53.21 49.4 53.21 45.96 53.21 42.52 50.43 39.74 46.99 39.74ZM46.99 50.18C44.66 50.18 42.77 48.29 42.77 45.96 42.77 43.63 44.66 41.74 46.99 41.74L46.99 41.74C49.32 41.74 51.2 43.63 51.2 45.96 51.2 48.29 49.31 50.18 46.98 50.18Z" fill="#FFFFFF"/></svg>