<svg viewBox="0 0 512 512" xmlns="http://www.w3.org/2000/svg" xmlns:xlink="http://www.w3.org/1999/xlink" id="Layer_1" overflow="hidden"><style>
.MsftOfcThm_Accent1_Fill_v2 {
 fill:#173863; 
}
</style>
<path d="M244.69 244.69C238.44 250.94 238.44 261.07 244.69 267.32 247.81 270.44 251.91 272.01 256 272.01 260.09 272.01 264.19 270.45 267.31 267.32L360.32 174.31 440.27 166.34C443.95 165.97 447.38 164.35 450 161.73L507.32 104.41C511.73 100 513.18 93.42 511.02 87.56 508.86 81.7 503.49 77.64 497.26 77.15L439.41 72.61 434.87 14.76C434.38 8.54 430.32 3.16 424.46 1 418.6-1.16 412.02 0.28 407.61 4.7L350.29 62.02C347.68 64.63 346.05 68.07 345.68 71.75L337.71 151.7 244.7 244.7ZM376.94 80.6 405.68 51.86 408.58 88.73C409.2 96.58 415.43 102.81 423.28 103.43L460.15 106.33 431.41 135.06 370.91 141.09 376.94 80.59Z" class="MsftOfcThm_Accent1_Fill_v2" fill="#173863"/><path d="M313.94 105.43C314.33 104.02 314.51 102.59 314.51 101.19 314.51 94.16 309.84 87.71 302.74 85.77 287.58 81.61 271.85 79.51 256 79.51 158.68 79.51 79.51 158.68 79.51 256 79.51 353.32 158.68 432.49 256 432.49 353.32 432.49 432.49 353.32 432.49 256 432.49 240.15 430.38 224.42 426.23 209.26 423.89 200.74 415.09 195.72 406.57 198.06 398.05 200.4 393.03 209.2 395.37 217.72 398.77 230.12 400.49 243 400.49 256 400.49 335.67 335.67 400.49 256 400.49 176.33 400.49 111.51 335.67 111.51 256 111.51 176.33 176.33 111.51 256 111.51 268.99 111.51 281.87 113.23 294.28 116.63 302.8 118.97 311.61 113.95 313.94 105.43Z" class="MsftOfcThm_Accent1_Fill_v2" fill="#173863"/><path d="M481.62 172.44C473.15 174.95 468.31 183.85 470.82 192.32 476.91 212.9 480 234.32 480 256 480 379.51 379.51 480 256 480 132.49 480 32 379.51 32 256 32 132.49 132.49 32 256 32 277.67 32 299.1 35.09 319.67 41.18 328.14 43.69 337.05 38.85 339.55 30.38 340 28.86 340.21 27.34 340.21 25.83 340.21 18.93 335.71 12.55 328.75 10.49 305.23 3.53 280.75 0 256 0 187.62 0 123.33 26.63 74.98 74.98 26.63 123.33 0 187.62 0 256 0 324.38 26.63 388.67 74.98 437.02 123.33 485.37 187.62 512 256 512 324.38 512 388.67 485.37 437.02 437.02 485.37 388.67 512 324.38 512 256 512 231.25 508.47 206.77 501.5 183.24 498.99 174.77 490.09 169.94 481.62 172.44Z" class="MsftOfcThm_Accent1_Fill_v2" fill="#173863"/><path d="M256 192C258.35 192 260.73 192.13 263.06 192.39 271.85 193.36 279.75 187.01 280.71 178.23 281.67 169.45 275.33 161.54 266.55 160.58 263.06 160.2 259.51 160 256 160 203.07 160 160 203.07 160 256 160 308.93 203.07 352 256 352 308.93 352 352 308.93 352 256 352 247.16 344.84 240 336 240 327.16 240 320 247.16 320 256 320 291.29 291.29 320 256 320 220.71 320 192 291.29 192 256 192 220.71 220.71 192 256 192Z" class="MsftOfcThm_Accent1_Fill_v2" fill="#173863"/></svg>