<svg viewBox="0 0 512 512" xmlns="http://www.w3.org/2000/svg" xmlns:xlink="http://www.w3.org/1999/xlink" id="Layer_1" overflow="hidden"><g><g><path d="M449.596 121.778C449.951 121.818 450.305 121.837 450.658 121.837 453.187 121.837 455.633 120.835 457.443 119.026L509.189 67.281C511.821 64.648 512.694 60.73 511.426 57.228 510.158 53.726 506.979 51.274 503.271 50.937L464.58 47.42 461.061 8.729C460.725 5.021 458.272 1.842 454.771 0.575 451.269-0.693 447.351 0.179 444.717 2.812L392.971 54.558C390.91 56.619 389.896 59.507 390.219 62.405L394.799 103.628 385.109 113.318C349.321 80.581 302.381 59.854 250.727 57.558L250.727 39.335C250.727 34.035 246.43 29.738 241.13 29.738 235.83 29.738 231.533 34.035 231.533 39.335L231.533 57.555C121.408 62.451 32.714 151.145 27.817 261.271L9.597 261.271C4.297 261.271 0 265.568 0 270.868 0 276.168 4.297 280.465 9.597 280.465L27.817 280.465C32.714 390.591 121.408 479.284 231.533 484.181L231.533 502.401C231.533 507.701 235.83 511.998 241.13 511.998 246.43 511.998 250.727 507.701 250.727 502.401L250.727 484.181C360.852 479.285 449.546 390.591 454.443 280.465L472.663 280.465C477.963 280.465 482.26 276.168 482.26 270.868 482.26 265.568 477.963 261.271 472.663 261.271L454.443 261.271C452.147 209.617 431.42 162.677 398.684 126.887L408.374 117.197 449.596 121.778ZM443.802 30.873 446.189 57.123C446.609 61.737 450.263 65.392 454.877 65.812L481.127 68.198 447.131 102.193 413.539 98.461 409.807 64.869 443.802 30.873ZM435.236 261.271 421.715 261.271C416.415 261.271 412.118 265.568 412.118 270.868 412.118 276.168 416.415 280.465 421.715 280.465L435.236 280.465C430.371 380.007 350.269 460.109 250.728 464.973L250.728 451.453C250.728 446.153 246.431 441.856 241.131 441.856 235.831 441.856 231.534 446.153 231.534 451.453L231.534 464.973C131.992 460.11 51.89 380.006 47.025 280.466L60.546 280.466C65.846 280.466 70.143 276.169 70.143 270.869 70.143 265.569 65.846 261.272 60.546 261.272L47.025 261.272C51.89 161.732 131.992 81.628 231.533 76.764L231.533 90.284C231.533 95.584 235.83 99.881 241.13 99.881 246.43 99.881 250.727 95.584 250.727 90.284L250.727 76.764C297.093 79.03 339.24 97.619 371.532 126.894L342.654 155.772C315.571 131.853 280.019 117.313 241.129 117.313 156.458 117.313 87.573 186.197 87.573 270.869 87.573 355.541 156.458 424.425 241.129 424.425 325.8 424.425 394.685 355.541 394.685 270.869 394.685 231.98 380.145 196.428 356.228 169.343L385.106 140.465C414.382 172.758 432.97 214.906 435.236 261.271ZM234.344 277.655C236.219 279.529 238.674 280.466 241.13 280.466 243.586 280.466 246.043 279.529 247.916 277.655L300.036 225.535C309.724 238.095 315.508 253.816 315.508 270.869 315.508 311.882 282.142 345.248 241.129 345.248 200.116 345.248 166.75 311.882 166.75 270.869 166.75 229.856 200.116 196.49 241.129 196.49 258.182 196.49 273.902 202.274 286.463 211.962L234.343 264.082C230.597 267.831 230.597 273.907 234.344 277.655ZM241.131 177.297C189.534 177.297 147.558 219.274 147.558 270.87 147.558 322.466 189.534 364.443 241.131 364.443 292.728 364.443 334.704 322.466 334.704 270.87 334.704 248.522 326.819 227.986 313.698 211.876L342.64 182.934C363.097 206.517 375.493 237.272 375.493 270.869 375.493 344.956 315.219 405.23 241.132 405.23 167.045 405.23 106.771 344.956 106.771 270.869 106.771 196.782 167.045 136.507 241.132 136.507 274.728 136.507 305.485 148.903 329.068 169.36L300.126 198.303C284.015 185.182 263.48 177.297 241.131 177.297Z" fill="#FFFFFF"/></g></g><g></g><g></g><g></g><g></g><g></g><g></g><g></g><g></g><g></g><g></g><g></g><g></g><g></g><g></g><g></g></svg>