<svg viewBox="0 0 512 356.43" xmlns="http://www.w3.org/2000/svg" xmlns:xlink="http://www.w3.org/1999/xlink" id="Layer_1" overflow="hidden"><path d="M477.7 211.94C473.5 204.58 465.62 200.01 457.16 200.01L404.97 200.01 404.97 89.75 436.28 89.75C440.42 89.75 443.78 86.39 443.78 82.25 443.78 78.11 440.42 74.75 436.28 74.75L404.97 74.75 404.97 15 496.01 15 483.87 37.46C481.35 42.1 481.35 47.64 483.87 52.29L496.01 74.75 471.29 74.75C467.15 74.75 463.79 78.11 463.79 82.25 463.79 86.39 467.15 89.75 471.29 89.75L498.43 89.75C503.26 89.75 507.61 87.27 510.08 83.13 512.55 78.99 512.65 73.98 510.35 69.75L497.06 45.16C496.97 44.99 496.97 44.8 497.06 44.62L510.35 20.04C512.65 15.8 512.55 10.79 510.08 6.64 507.61 2.49 503.25 0.01 498.43 0.01L397.48 0.01C395.41 0.01 393.53 0.85 392.18 2.21 390.82 3.57 389.98 5.44 389.98 7.51L389.98 200.02 263.5 200.02 263.5 123.29C279.08 119.85 290.77 105.94 290.77 89.34 290.77 70.17 275.17 54.57 256 54.57 236.83 54.57 221.23 70.17 221.23 89.34 221.23 105.94 232.92 119.85 248.5 123.29L248.5 200.02 233.8 200.02C229.66 200.02 226.3 203.38 226.3 207.52 226.3 211.66 229.66 215.02 233.8 215.02L310.66 215.02 344.33 273.94C345.85 276.59 345.85 279.88 344.33 282.54L310.67 341.45 176.42 341.45 205.83 289.98C209.97 282.74 209.97 273.74 205.83 266.5L176.41 215.02 198.79 215.02C202.93 215.02 206.29 211.66 206.29 207.52 206.29 203.38 202.93 200.02 198.79 200.02L95.97 200.02 95.97 145.51C111.55 142.07 123.24 128.16 123.24 111.56 123.24 92.39 107.64 76.79 88.47 76.79 69.3 76.79 53.7 92.39 53.7 111.56 53.7 128.16 65.39 142.07 80.97 145.51L80.97 200.02 7.5 200.02C3.36 200.02 0 203.38 0 207.52L0 348.95C0 353.09 3.36 356.45 7.5 356.45L379.97 356.45C384.11 356.45 387.47 353.09 387.47 348.95 387.47 344.81 384.11 341.45 379.97 341.45L327.93 341.45 357.34 289.98C361.48 282.74 361.48 273.74 357.34 266.5L327.93 215.02 457.15 215.02C460.25 215.02 463.13 216.69 464.67 219.39L495.84 273.94C497.36 276.59 497.36 279.89 495.84 282.54L464.67 337.08C463.13 339.78 460.25 341.45 457.15 341.45L414.96 341.45C410.82 341.45 407.46 344.81 407.46 348.95 407.46 353.09 410.82 356.45 414.96 356.45L457.15 356.45C465.62 356.45 473.49 351.88 477.69 344.52L508.86 289.98C513 282.74 513 273.74 508.86 266.5L477.69 211.95ZM236.22 89.32C236.22 78.42 245.09 69.55 255.99 69.55 266.89 69.55 275.76 78.42 275.76 89.32 275.76 100.22 266.89 109.09 255.99 109.09 245.09 109.09 236.22 100.22 236.22 89.32ZM68.7 111.55C68.7 100.65 77.57 91.78 88.47 91.78 99.37 91.78 108.24 100.65 108.24 111.55 108.24 122.45 99.37 131.32 88.47 131.32 77.57 131.32 68.7 122.45 68.7 111.55ZM15 341.43 15 215 159.14 215 192.81 273.92C194.32 276.57 194.32 279.86 192.81 282.52L159.14 341.43 15 341.43Z" fill="#FFFFFF"/></svg>