<svg viewBox="0 0 476 476.01" xmlns="http://www.w3.org/2000/svg" xmlns:xlink="http://www.w3.org/1999/xlink" id="Layer_1" overflow="hidden"><path d="M473.66 68.12 473.65 68.12 473.66 68.12 473.66 68.12Z" fill="#FFFFFF"/><path d="M468 230.01 452.55 230.01C451.16 191.89 439.62 154.84 419.1 122.68L473.65 68.12 473.63 68.1C474.5 67.22 475.16 66.16 475.55 64.98 476.94 60.8 474.67 56.29 470.49 54.9L433.45 42.55 421.33 6.19C420.99 4.72 420.25 3.38 419.18 2.31 416.05-0.8 411-0.78 407.89 2.34L353.33 56.9C321.17 36.39 284.12 24.84 246 23.45L246 7.99C246 3.59 242.42 0.01 238 0.01 233.58 0.01 230 3.59 230 8.01L230 23.47C117.79 27.58 27.57 117.8 23.45 230.01L8 230.01C3.58 230.01 0 233.59 0 238.01 0 242.43 3.58 246.01 8 246.01L23.45 246.01C27.56 358.22 117.78 448.45 230 452.56L230 468.01C230 472.43 233.58 476.01 238 476.01 242.42 476.01 246 472.43 246 468.01L246 452.56C358.21 448.45 448.43 358.23 452.55 246.01L468 246.01C472.42 246.01 476 242.43 476 238.01 476 233.59 472.42 230.01 468 230.01ZM410.08 22.79 419.6 51.35C420.39 53.75 422.28 55.63 424.68 56.42L453.23 65.93 397.76 121.4 397.76 121.4 365.41 110.61 354.62 78.26 410.09 22.79ZM246 39.48C279.88 40.77 312.85 50.76 341.75 68.5L339.83 70.42 339.85 70.44C337.72 72.57 336.98 75.72 337.92 78.57L340.7 86.91C312.68 67.81 279.88 56.93 246 55.48L246 39.47ZM230 39.48 230 55.5C135.39 59.65 59.63 135.41 55.48 230.02L39.46 230.02C43.56 126.64 126.62 43.57 230 39.48ZM230 436.55C126.62 432.46 43.56 349.39 39.47 246.01L55.49 246.01C59.64 340.62 135.4 416.38 230.01 420.53L230.01 436.55ZM238 381.4C233.58 381.4 230 384.98 230 389.4L230 404.51C144.23 400.39 75.62 331.78 71.5 246L86.62 246C91.04 246 94.62 242.42 94.62 238 94.62 233.58 91.04 230 86.62 230L71.5 230C75.62 144.23 144.23 75.62 230 71.5L230 86.61C230 91.03 233.58 94.61 238 94.61 242.42 94.61 246 91.03 246 86.61L246 71.49C284.55 73.28 321.28 88.44 349.86 114.38L349.97 114.71 313.28 151.4C292.42 133.21 265.67 123.21 238 123.25 210.33 123.25 183.6 133.25 162.72 151.4 114.9 192.98 109.83 265.45 151.41 313.27 192.99 361.09 265.46 366.16 313.28 324.58 361.1 283 366.17 210.53 324.59 162.71L361.28 126.02 361.61 126.13C387.55 154.71 402.72 191.44 404.5 229.99L389.38 229.99C384.96 229.99 381.38 233.57 381.38 237.99 381.38 242.41 384.96 245.99 389.38 245.99L404.49 245.99C400.37 331.76 331.76 400.37 245.99 404.5L245.99 389.39C245.99 384.97 242.41 381.39 237.99 381.39ZM232.54 243.67C235.64 246.66 240.56 246.66 243.66 243.67L270.62 216.71C287.36 242.29 269.17 276.97 238 276.97 216.49 276.97 199.05 259.53 199.05 238.02L199.05 238.02C199.05 206.85 233.73 188.66 259.31 205.39L232.35 232.35C229.28 235.53 229.37 240.59 232.55 243.66ZM270.79 193.91C246.44 175.8 212.02 180.86 193.91 205.22 175.8 229.57 180.86 263.99 205.22 282.1 229.57 300.21 263.99 295.15 282.1 270.79 296.57 251.33 296.57 224.68 282.1 205.22L313.25 174.08 313.25 174.08C348.56 215.64 343.49 277.95 301.94 313.26 260.39 348.57 198.07 343.5 162.76 301.95 127.45 260.39 132.52 198.08 174.07 162.77 210.94 131.45 265.07 131.45 301.94 162.77L270.79 193.92ZM246 436.55 246 420.53C340.61 416.38 416.37 340.62 420.52 246.01L436.54 246.01C432.45 349.39 349.38 432.45 246.01 436.55ZM420.52 230.01C419.08 196.13 408.19 163.33 389.1 135.31L396.7 137.84C399.72 139.18 403.26 138.52 405.59 136.18L407.51 134.26 407.51 134.26C425.25 163.15 435.25 196.13 436.53 230.01L420.52 230.01Z" fill="#FFFFFF"/></svg>