<svg viewBox="0 0 368.24 440.38" xmlns="http://www.w3.org/2000/svg" xmlns:xlink="http://www.w3.org/1999/xlink" id="Layer_1" overflow="hidden"><style>
.MsftOfcThm_Background1_Fill_v2 {
 fill:#FFFFFF; 
}
</style>
<path d="M100.47 336.6 78.02 346.54C71.97 349.22 64.9 347.9 60.23 343.22L49.5 332.49 20.23 395.56C19.45 397.25 19.66 399.23 20.8 400.71 21.93 402.19 23.79 402.91 25.63 402.59L75.84 393.79 101.46 437.89C102.39 439.5 104.14 440.45 106 440.37 107.86 440.29 109.52 439.18 110.31 437.5L142.45 369.13C139.87 362.42 135.51 351.1 135.51 351.1 123.32 347.56 111.59 342.68 100.48 336.59Z" class="MsftOfcThm_Background1_Fill_v2" fill="#FFFFFF"/><path d="M325.35 325.9 308.01 343.24C303.33 347.92 296.26 349.23 290.22 346.56 290.22 346.56 267.8 336.63 267.8 336.63 256.71 342.74 244.96 347.6 232.79 351.13L230.75 356.42 257.05 418.65C257.78 420.37 259.4 421.54 261.27 421.69 263.13 421.84 264.92 420.93 265.91 419.34L292.75 376.12 342.7 386.34C344.52 386.71 346.4 386.04 347.58 384.6 348.76 383.16 349.03 381.18 348.3 379.47L325.35 325.9Z" class="MsftOfcThm_Background1_Fill_v2" fill="#FFFFFF"/><path d="M251.2 165.77 206.18 163.56C204.83 163.49 203.73 162.7 203.24 161.42L187.23 119.31C186.16 116.44 182.08 116.44 181.01 119.31L165 161.42C164.52 162.7 163.41 163.5 162.06 163.56L117.04 165.77C113.96 165.91 112.72 169.78 115.1 171.68L150.23 199.93C151.3 200.76 151.72 202.07 151.37 203.39L139.54 246.89C138.74 249.83 142.03 252.22 144.59 250.56L182.28 225.87C183.42 225.11 184.8 225.11 185.95 225.87L223.67 250.56C226.23 252.22 229.51 249.83 228.68 246.89L216.85 203.39C216.51 202.08 216.92 200.76 217.99 199.93L253.12 171.68C255.51 169.78 254.26 165.91 251.18 165.77Z" class="MsftOfcThm_Background1_Fill_v2" fill="#FFFFFF"/><path d="M337.74 147.5C333.88 131.2 327.46 115.69 318.68 101.45L331.92 71.55 296.7 36.33 266.8 49.62C252.55 40.84 237.05 34.42 220.79 30.56L209.05 0 159.23 0 147.44 30.55C131.18 34.41 115.68 40.84 101.43 49.61L71.53 36.32 36.31 71.54 49.6 101.44C40.82 115.69 34.4 131.19 30.49 147.49L0 159.24 0 209.06 30.5 220.8C34.41 237.06 40.84 252.61 49.61 266.81L36.32 296.71 71.54 331.93 101.44 318.69C115.69 327.42 131.19 333.89 147.49 337.75L159.23 368.25 209.05 368.25 220.79 337.75C237.05 333.89 252.6 327.47 266.8 318.69L296.7 331.93 331.92 296.71 318.68 266.81C327.41 252.56 333.88 237.06 337.74 220.8L368.24 209.06 368.24 159.24 337.74 147.5ZM184.12 287.84C126.88 287.84 80.4 241.36 80.4 184.12 80.4 126.88 126.88 80.4 184.12 80.4 241.36 80.4 287.84 126.87 287.84 184.12 287.84 241.37 241.37 287.84 184.12 287.84Z" class="MsftOfcThm_Background1_Fill_v2" fill="#FFFFFF"/></svg>