<svg viewBox="0 0 512 497.87" xmlns="http://www.w3.org/2000/svg" xmlns:xlink="http://www.w3.org/1999/xlink" id="Layer_1" overflow="hidden"><style>
.MsftOfcThm_Background1_Fill_v2 {
 fill:#FFFFFF; 
}
</style>
<rect x="61.79" y="312.49" width="35.31" height="70.62" class="MsftOfcThm_Background1_Fill_v2" fill="#FFFFFF"/><path d="M229.52 383.11 229.52 342.34 238.34 337.93 238.34 241.87 203.03 241.87 203.03 383.11 229.52 383.11Z" class="MsftOfcThm_Background1_Fill_v2" fill="#FFFFFF"/><rect x="132.41" y="277.18" width="35.31" height="105.93" class="MsftOfcThm_Background1_Fill_v2" fill="#FFFFFF"/><rect x="123.59" y="109.46" width="52.97" height="17.66" class="MsftOfcThm_Background1_Fill_v2" fill="#FFFFFF"/><path d="M120.11 91.8 180.03 91.8C192.03 69.59 208.89 49.96 229.05 34.77 227.21 26.99 220.2 21.17 211.87 21.17 207.46 21.17 203.04 22.21 199.1 24.19L187.48 30C175.93 35.78 163 38.83 150.09 38.83 137.18 38.83 124.25 35.78 112.7 30L101.08 24.19C97.14 22.22 92.72 21.17 88.31 21.17 79.97 21.17 72.97 26.98 71.13 34.77 91.29 49.95 108.14 69.58 120.15 91.8Z" class="MsftOfcThm_Background1_Fill_v2" fill="#FFFFFF"/><path d="M206.51 82.78C219.5 78.11 232.96 75.3 246.71 74.44 245.55 65.87 242.25 57.81 237.1 50.88 225.49 60.01 215.17 70.8 206.51 82.79Z" class="MsftOfcThm_Background1_Fill_v2" fill="#FFFFFF"/><path d="M492.3 343.41 491.36 339.37C488.53 327.17 483.71 315.57 477.06 304.89L474.87 301.37 481.84 280.46 464.59 263.21 443.68 270.18 440.16 267.99C429.48 261.34 417.87 256.53 405.68 253.69L401.64 252.75 391.79 233.06 367.39 233.06 357.54 252.75 353.5 253.69C341.3 256.52 329.7 261.34 319.02 267.99L315.5 270.18 294.59 263.21 277.34 280.46 284.31 301.37 282.12 304.89C275.47 315.58 270.66 327.18 267.82 339.37L266.88 343.41 247.19 353.26 247.19 377.66 266.89 387.51 267.83 391.55C270.66 403.75 275.48 415.35 282.13 426.03L284.32 429.55 277.35 450.46 294.6 467.71 315.51 460.74 319.03 462.93C329.71 469.58 341.32 474.39 353.51 477.23L357.55 478.17 367.4 497.86 391.8 497.86 401.65 478.17 405.69 477.23C417.89 474.4 429.49 469.58 440.17 462.93L443.69 460.74 464.6 467.71 481.85 450.46 474.88 429.55 477.07 426.03C483.72 415.34 488.53 403.74 491.37 391.55L492.31 387.51 512 377.66 512 353.26 492.3 343.41ZM370.76 356.63 388.42 356.63C407.89 356.63 423.73 372.47 423.73 391.94L423.73 427.25 388.42 427.25 388.42 444.91 370.76 444.91 370.76 427.25C351.29 427.25 335.45 411.41 335.45 391.94L353.11 391.94C353.11 401.67 361.03 409.6 370.77 409.6L406.08 409.6 406.08 391.94C406.08 382.21 398.16 374.28 388.42 374.28L370.76 374.28C351.29 374.28 335.45 358.44 335.45 338.97L335.45 303.66 370.76 303.66 370.76 286 388.42 286 388.42 303.66C407.89 303.66 423.73 319.5 423.73 338.97L406.07 338.97C406.07 329.24 398.15 321.31 388.41 321.31L353.1 321.31 353.1 338.97C353.1 348.7 361.02 356.63 370.76 356.63Z" class="MsftOfcThm_Background1_Fill_v2" fill="#FFFFFF"/><path d="M335.45 240.6C338.73 239.44 342.05 238.39 345.42 237.5L356.47 215.39 402.69 215.39 413.74 237.5C417.11 238.4 420.43 239.44 423.71 240.6L423.71 109.46 467.14 109.46 379.59 0 292.03 109.46 335.46 109.46 335.46 240.6Z" class="MsftOfcThm_Background1_Fill_v2" fill="#FFFFFF"/><path d="M277.87 475.97 257.13 455.22 264.95 431.75C259.29 421.99 254.94 411.59 251.95 400.76L44.14 400.76 44.14 294.83 114.76 294.83 114.76 259.52 185.38 259.52 185.38 224.21 256 224.21 256 277.13 282.15 250.65C267.2 217.22 243.68 188.42 213.81 167.08L182.55 144.75 117.59 144.75 86.33 167.08C32.27 205.7 0 268.42 0 334.85 0 370.67 9.39 406.04 27.16 437.13L36.85 454.09 19.58 479.99C18.32 481.89 17.65 484.09 17.65 486.37 17.65 492.71 22.81 497.87 29.15 497.87L270.98 497.87C277.32 497.87 282.48 492.71 282.48 486.37 282.48 484.09 281.81 481.89 280.55 479.99L277.87 475.97Z" class="MsftOfcThm_Background1_Fill_v2" fill="#FFFFFF"/><path d="M63.04 50.87C57.89 57.81 54.6 65.86 53.43 74.44 67.17 75.31 80.64 78.11 93.62 82.78 84.96 70.79 74.64 60 63.03 50.87Z" class="MsftOfcThm_Background1_Fill_v2" fill="#FFFFFF"/></svg>