<svg viewBox="0 0 512 512.05" xmlns="http://www.w3.org/2000/svg" xmlns:xlink="http://www.w3.org/1999/xlink" id="Layer_1" overflow="hidden"><style>
.MsftOfcThm_Background1_Fill_v2 {
 fill:#FFFFFF; 
}
</style>
<path d="M353.97 81.99C356.39 96.33 358.51 110.73 360.55 124.63L242.57 242.55C235.17 249.99 235.19 262.02 242.63 269.42 250.04 276.8 262.03 276.8 269.44 269.42L387.38 151.48C401.28 153.48 415.67 155.63 430.02 158.05 435.73 159 441.5 157.58 445.33 154.11 465.22 136.11 490.75 109.53 507.76 88.62 515.44 78.84 512.38 61.05 501.09 58.6L501.09 58.6C491.97 56.53 482.21 54.6 472.09 52.73 465.59 51.5 460.51 46.42 459.28 39.92 457.4 29.77 455.47 20.02 453.41 10.92 450.95-0.37 433.17-3.44 423.41 4.24 402.5 21.24 375.96 46.78 357.92 66.68 354.44 70.51 353.02 76.27 353.97 81.99Z" class="MsftOfcThm_Background1_Fill_v2" fill="#FFFFFF"/><path d="M457.42 167.44 457.42 167.44C451.82 172.44 444.75 175.49 437.27 176.15 481.22 276.08 435.83 392.72 335.89 436.67 235.96 480.62 119.32 435.23 75.37 335.29 31.42 235.36 76.81 118.72 176.75 74.77 227.44 52.48 285.15 52.47 335.84 74.75 336.51 67.27 339.56 60.2 344.54 54.57 352.2 46.12 361.36 36.69 370.99 27.28 335.32 9.32 295.93 0 256 0.05 114.62 0.05 0 114.67 0 256.05 0 397.43 114.62 512.05 256 512.05 397.38 512.05 512 397.43 512 256.05 512.05 216.08 502.71 176.66 484.72 140.97 475.31 150.61 465.87 159.78 457.42 167.44Z" class="MsftOfcThm_Background1_Fill_v2" fill="#FFFFFF"/><path d="M231.05 179.03C247.17 173.83 264.5 173.82 280.63 178.99L324.46 135.16C257.71 97.34 172.94 120.79 135.12 187.54 97.3 254.29 120.75 339.06 187.5 376.88 254.25 414.7 339.02 391.25 376.84 324.5 400.92 282 400.91 229.96 376.8 187.47L333 231.27C346.73 273.85 323.34 319.49 280.76 333.22 238.18 346.95 192.54 323.56 178.81 280.98 165.08 238.4 188.47 192.76 231.05 179.03Z" class="MsftOfcThm_Background1_Fill_v2" fill="#FFFFFF"/></svg>