<svg viewBox="0 0 496.01 340.84" xmlns="http://www.w3.org/2000/svg" xmlns:xlink="http://www.w3.org/1999/xlink" id="Layer_1" overflow="hidden"><path d="M94.44 32.23C89.21 31.99 84.77 36.03 84.53 41.26 84.29 46.49 88.33 50.93 93.56 51.17 98.79 51.41 103.23 47.37 103.47 42.14 103.71 36.91 99.67 32.47 94.44 32.23Z" fill="#FFFFFF"/><path d="M494.53 171.56 437.21 23.71C432.84 12.43 420.1 6.81 408.82 11.18L380.36 22.21C369.08 26.58 363.46 39.32 367.83 50.6L372.19 61.85 356.34 70.33C347.65 74.85 339.05 71.73 324.6 65.82 305.21 57.9 278.95 47.18 244.76 68.32 220.02 53.78 198.81 58.74 181.57 62.78 168.37 65.88 157.94 68.32 147.95 62.7 147.76 62.6 147.57 62.5 147.38 62.41L129.21 54.03 134.02 43.15C138.91 32.08 133.89 19.1 122.82 14.21L94.91 1.87C89.57-0.49 83.6-0.63 78.13 1.49 72.65 3.61 68.34 7.72 65.98 13.07L1.87 158.11C-3.02 169.17 2 182.16 13.07 187.05L40.99 199.39C43.82 200.64 46.81 201.27 49.82 201.27 52.5 201.27 55.19 200.77 57.77 199.77 63.25 197.65 67.56 193.54 69.92 188.19L73 181.23C82.18 185.32 87.51 187.64 89.57 188.44 93.06 189.79 94.2 194.68 95.67 202.57 96.48 206.92 97.32 211.37 99.03 215.44L91.37 229.76C87.53 236.93 86.73 245.19 89.1 253.01 91.47 260.83 96.73 267.25 103.9 271.09 108.62 273.61 113.8 274.8 118.95 274.67 118.27 279.12 118.59 283.71 119.94 288.16 122.31 295.98 127.57 302.4 134.74 306.24 144.11 311.25 154.96 310.84 163.7 306.12 166.43 311.99 171 316.97 176.95 320.15 185.35 324.64 195.07 324.8 203.35 321.28 205.92 327.96 210.81 333.69 217.45 337.24 221.92 339.63 226.82 340.84 231.76 340.84 234.75 340.84 237.75 340.4 240.7 339.5 247.26 337.51 252.83 333.49 256.72 328.01L264.57 332.52C269.01 335.07 273.95 336.37 278.98 336.37 281.66 336.37 284.37 336 287.05 335.25 294.79 333.08 301.44 327.82 305.29 320.81 307.94 316 309.11 310.76 308.95 305.61 313.7 306.64 318.68 306.48 323.5 305.09 331.22 302.87 337.6 297.78 341.46 290.78 344.27 285.67 345.41 280.06 345.05 274.6 356.91 276.17 369.09 270.48 375.2 259.38 379.34 251.86 379.84 243.26 377.31 235.63 377.63 235.55 377.95 235.46 378.27 235.37 386.03 233.15 392.43 228.06 396.29 221.03 399.55 215.11 400.62 208.28 399.51 201.72L422.68 192.05 425.16 198.45C427.27 203.9 431.39 208.21 436.77 210.58 439.62 211.84 442.63 212.47 445.65 212.47 448.32 212.47 450.99 211.98 453.56 210.98L482.02 199.95C487.47 197.84 491.78 193.72 494.15 188.34 496.52 182.97 496.66 177.01 494.55 171.56ZM55.29 181.72C54.65 183.16 53.49 184.27 51.99 184.84 50.5 185.42 48.89 185.38 47.45 184.75L19.53 172.41C16.53 171.09 15.17 167.57 16.5 164.58L80.61 19.54 80.61 19.54C81.24 18.1 82.41 16.99 83.9 16.42 84.61 16.15 85.34 16.01 86.07 16.01 86.88 16.01 87.68 16.18 88.44 16.51L116.36 28.85C119.36 30.17 120.72 33.69 119.39 36.68L55.29 181.72ZM127.24 255.61C122.72 259.11 116.52 259.68 111.45 256.97 108.05 255.15 105.55 252.09 104.42 248.36 103.29 244.63 103.67 240.7 105.49 237.29L119.39 211.31C123.17 204.25 132 201.57 139.07 205.35 145.74 208.91 148.54 217.05 145.53 223.97L127.25 255.61ZM162 286.09 162 286.09C158.18 293.2 149.34 295.91 142.28 292.14 138.88 290.32 136.38 287.26 135.25 283.53 134.12 279.8 134.5 275.87 136.32 272.46L158.95 232.72C163.47 229.16 169.72 228.56 174.84 231.29 180.42 234.27 183.43 240.77 182.21 246.97L162.01 286.09ZM202.89 302.03 202.89 302.03C198.59 307.66 190.76 309.4 184.48 306.04 179.43 303.34 176.47 297.89 176.85 292.2L196.37 254.41C200.84 250.03 207.87 248.96 213.44 251.93 219.02 254.91 222.03 261.4 220.81 267.6L202.9 302.03ZM257.99 292.25 244.66 317.17C242.84 320.57 239.78 323.07 236.05 324.2 232.32 325.33 228.39 324.95 224.98 323.13 219.75 320.33 216.79 314.68 217.39 308.82L234.95 275.06C239.43 270.67 246.46 269.59 252.02 272.57 253.94 273.59 255.55 274.99 256.82 276.72 260.15 281.25 260.6 287.34 257.98 292.25ZM291.26 313.1C289.46 316.37 286.35 318.83 282.72 319.85 279.21 320.83 275.59 320.41 272.53 318.65L264.48 314.03 272.09 299.8C274.03 296.17 275.16 292.22 275.52 288.23 275.52 288.23 285.32 293.93 285.75 294.17L285.75 294.17C292.46 297.93 294.93 306.43 291.25 313.11ZM382.27 213.31C380.48 216.57 377.49 218.94 373.86 219.98 370.31 221 366.62 220.58 363.46 218.81 344.13 207.98 328.02 198.95 311.43 189.45 307.6 187.25 302.71 188.58 300.51 192.42 298.31 196.25 299.64 201.14 303.48 203.34 320.13 212.87 336.27 221.93 355.63 232.77 355.63 232.77 355.63 232.77 355.63 232.77 362.34 236.55 364.83 245.02 361.17 251.67 357.48 258.38 349.02 260.83 342.31 257.15L342.3 257.15C342.3 257.15 273.82 218.61 273.82 218.61 269.97 216.44 265.09 217.81 262.92 221.66 260.75 225.51 262.12 230.39 265.97 232.56 265.97 232.56 321.45 263.94 321.89 264.19 328.6 267.97 331.09 276.44 327.43 283.09 325.64 286.34 322.67 288.7 319.07 289.74 315.51 290.77 311.79 290.35 308.6 288.58L308.59 288.58C308.59 288.58 268.76 266.02 268.76 266.02 266.23 262.92 263.15 260.39 259.57 258.48 252.09 254.48 243.57 253.87 235.92 256.3 233.7 248.57 228.46 241.83 220.97 237.83 213.49 233.84 204.97 233.22 197.32 235.65 195.1 227.92 189.86 221.18 182.37 217.18 176.14 213.85 169.11 212.88 162.46 214.1 161.18 204.68 155.54 196.02 146.61 191.25 134.55 184.82 120.06 187.31 110.79 196.41 109.07 187.85 106.04 177.66 95.37 173.52 93.59 172.83 88.25 170.5 79.48 166.59L122.76 68.67 140.42 76.82C155.74 85.29 170.74 81.77 185.24 78.37 199.92 74.93 213.93 71.65 230.31 78.85 226.58 81.98 222.85 85.41 219.15 89.15 204.94 103.51 186.91 117.11 165.56 129.57 162.88 131.14 161.07 133.68 160.48 136.74 159.9 139.79 160.62 142.82 162.52 145.26 176.99 163.87 192.65 169.91 208.12 169.91 223.95 169.91 239.58 163.59 253.48 157.96 272.07 150.43 288.13 143.93 300.99 151.26L376.69 194.41C379.24 195.86 381.26 198.02 382.53 200.64L382.53 200.64C384.53 204.77 384.44 209.39 382.27 213.33ZM392.73 187.21C390.45 184.54 387.72 182.27 384.61 180.5L308.91 137.35C289.32 126.18 268.05 134.79 247.48 143.12 222.03 153.42 199.84 162.41 179.12 140.11 199.3 127.84 216.57 114.5 230.52 100.4 236.82 94.03 243.17 88.64 249.4 84.39 278.65 64.33 298.94 72.62 318.56 80.64 333.06 86.57 348.05 92.69 363.82 84.49L378.03 76.89 416.89 177.13 392.73 187.21ZM479.49 181.88C478.85 183.34 477.68 184.46 476.22 185.03L447.76 196.06C446.29 196.63 444.68 196.59 443.22 195.94 441.76 195.3 440.64 194.13 440.07 192.67L382.75 44.82C381.57 41.77 383.09 38.32 386.14 37.13L414.6 26.1C415.3 25.83 416.03 25.7 416.74 25.7 419.12 25.7 421.38 27.14 422.29 29.49L479.61 177.34C480.18 178.8 480.14 180.42 479.49 181.88Z" fill="#FFFFFF"/><path d="M407.89 41.53C402.67 41.53 398.41 45.79 398.41 51.01 398.41 56.23 402.67 60.49 407.89 60.49 413.11 60.49 417.38 56.23 417.38 51.01 417.38 45.79 413.12 41.53 407.89 41.53Z" fill="#FFFFFF"/></svg>